<svg width="100" height="100" viewBox="0 0 100 100" fill="none" xmlns="http://www.w3.org/2000/svg">
<path d="M55.443 84.75C50.7688 86.7391 45.8002 87.7477 40.6758 87.7477C19.8625 87.7478 2.92969 70.8139 2.92969 49.9994C2.92969 29.185 19.8625 12.251 40.6758 12.251C61.4891 12.251 78.4219 29.185 78.4219 49.9994C78.4219 51.2744 78.3576 52.5611 78.2307 53.8236C78.2114 54.015 78.23 54.2083 78.2855 54.3925C78.341 54.5767 78.4322 54.7482 78.5539 54.8971C78.6757 55.0461 78.8255 55.1696 78.995 55.2606C79.1645 55.3516 79.3502 55.4083 79.5416 55.4275C79.733 55.4468 79.9263 55.4282 80.1105 55.3727C80.2947 55.3172 80.4662 55.226 80.6152 55.1043C80.7641 54.9826 80.8876 54.8327 80.9787 54.6632C81.0697 54.4937 81.1265 54.308 81.1457 54.1166C81.2827 52.7485 81.3514 51.3744 81.3516 49.9994C81.3516 27.5695 63.1045 9.32129 40.6758 9.32129C18.2471 9.32129 0 27.5695 0 49.9994C0 72.4293 18.2471 90.6773 40.6758 90.6773C46.1967 90.6773 51.5512 89.59 56.5902 87.4457C56.7672 87.3704 56.9277 87.261 57.0624 87.1237C57.1971 86.9864 57.3035 86.8239 57.3754 86.6454C57.4473 86.467 57.4833 86.2762 57.4814 86.0838C57.4796 85.8915 57.4398 85.7014 57.3645 85.5244C57.2891 85.3474 57.1797 85.1869 57.0424 85.0522C56.905 84.9175 56.7425 84.8111 56.5641 84.7392C56.3857 84.6673 56.1948 84.6313 56.0025 84.6331C55.8101 84.635 55.62 84.6747 55.443 84.75Z" fill="#E74C3D"/>
<path d="M55.4561 76.2205C50.9709 78.7549 45.86 80.0943 40.6756 80.0943C24.0824 80.0943 10.5828 66.5939 10.5828 49.9998C10.5828 33.4057 24.0824 19.9053 40.6756 19.9053C57.2689 19.9053 70.7684 33.4057 70.7684 49.9998C70.7684 51.2842 70.6867 52.576 70.526 53.8395C70.5017 54.0303 70.5152 54.224 70.5657 54.4096C70.6163 54.5952 70.7029 54.7691 70.8207 54.9212C70.9384 55.0733 71.0849 55.2008 71.2519 55.2963C71.4189 55.3918 71.6031 55.4534 71.7939 55.4777C72.5947 55.5795 73.3299 55.0123 73.432 54.2098C73.6092 52.8134 73.6981 51.4073 73.698 49.9998C73.698 31.7902 58.8842 16.9756 40.6756 16.9756C22.467 16.9756 7.65332 31.7902 7.65332 49.9998C7.65332 68.2094 22.4672 83.024 40.6758 83.024C46.3641 83.024 51.9734 81.5535 56.8975 78.7713C57.2357 78.5802 57.4841 78.2625 57.5882 77.8882C57.6922 77.5139 57.6433 77.1136 57.4521 76.7754C57.3575 76.6079 57.2308 76.4606 57.0793 76.3421C56.9278 76.2236 56.7544 76.136 56.569 76.0845C56.3837 76.033 56.19 76.0185 55.999 76.0418C55.8081 76.0651 55.6236 76.1259 55.4561 76.2205Z" fill="#E74C3D"/>
<path d="M98.8782 65.7762C99.6012 64.9717 100.001 63.9281 99.9999 62.8465C99.9999 60.4232 98.0286 58.452 95.6056 58.452H65.0884C62.6653 58.452 60.694 60.4232 60.694 62.8465C60.6932 63.9281 61.0928 64.9717 61.8157 65.7762C61.1185 66.5543 60.694 67.5814 60.694 68.7059C60.694 69.8303 61.1187 70.8574 61.8157 71.6355C61.1185 72.4137 60.694 73.4408 60.694 74.5652C60.694 75.6896 61.1187 76.7168 61.8157 77.4949C61.0927 78.2993 60.6931 79.343 60.694 80.4246C60.6931 81.5063 61.0928 82.5499 61.8159 83.3543C61.0928 84.1587 60.6931 85.2023 60.694 86.284C60.694 88.7072 62.6655 90.6785 65.0886 90.6785H95.6054C98.0284 90.6785 99.9999 88.7072 99.9999 86.284C100.001 85.2024 99.6011 84.1587 98.878 83.3543C99.5753 82.5762 99.9999 81.549 99.9999 80.4246C99.9999 79.3002 99.5753 78.273 98.8782 77.4949C99.5753 76.7168 99.9999 75.6896 99.9999 74.5652C99.9999 73.4408 99.5753 72.4137 98.8782 71.6355C99.5753 70.8574 99.9999 69.8303 99.9999 68.7059C99.9999 67.5814 99.5753 66.5541 98.8782 65.7762ZM65.0884 61.3816H95.6056C96.4132 61.3816 97.0702 62.0387 97.0702 62.8465C97.0702 63.6543 96.4132 64.3113 95.6056 64.3113H77.202C76.3929 64.3113 75.7372 64.9672 75.7372 65.7762C75.7372 66.5852 76.3929 67.241 77.202 67.241H95.6056C96.4132 67.241 97.0702 67.898 97.0702 68.7059C97.0702 69.5137 96.4132 70.1707 95.6056 70.1707H65.0884C64.2808 70.1707 63.6237 69.5137 63.6237 68.7059C63.6237 67.898 64.2808 67.241 65.0884 67.241H70.4421C71.2513 67.241 71.9069 66.5852 71.9069 65.7762C71.9069 64.9672 71.2513 64.3113 70.4421 64.3113H65.0884C64.2808 64.3113 63.6237 63.6543 63.6237 62.8465C63.6237 62.0387 64.2808 61.3816 65.0884 61.3816ZM97.0702 74.5652C97.0702 75.373 96.4132 76.0301 95.6056 76.0301H90.514C89.7048 76.0301 89.0491 76.6859 89.0491 77.4949C89.0491 78.3039 89.7048 78.9598 90.514 78.9598H95.6056C96.4132 78.9598 97.0702 79.6168 97.0702 80.4246C97.0702 81.2324 96.4132 81.8895 95.6056 81.8895H65.0884C64.2808 81.8895 63.6237 81.2324 63.6237 80.4246C63.6237 79.6168 64.2808 78.9598 65.0884 78.9598H83.6153C84.4245 78.9598 85.0802 78.3039 85.0802 77.4949C85.0802 76.6859 84.4245 76.0301 83.6153 76.0301H65.0884C64.2808 76.0301 63.6237 75.373 63.6237 74.5652C63.6237 73.7574 64.2808 73.1004 65.0884 73.1004H95.6056C96.4132 73.1004 97.0702 73.7574 97.0702 74.5652ZM95.6054 87.7488H65.0886C64.2808 87.7488 63.6237 87.0918 63.6237 86.284C63.6237 85.4762 64.2808 84.8191 65.0886 84.8191H95.6054C96.4132 84.8191 97.0702 85.4762 97.0702 86.284C97.0702 87.0918 96.4132 87.7488 95.6054 87.7488ZM39.063 45.2574H46.4327C49.0204 45.2574 51.1257 43.1521 51.1257 40.5643C51.1257 37.9764 49.0204 35.8711 46.4327 35.8711H39.063C38.6745 35.8711 38.3019 36.0254 38.0272 36.3001C37.7525 36.5748 37.5981 36.9474 37.5981 37.3359V43.7926C37.5981 44.1811 37.7525 44.5537 38.0272 44.8284C38.3019 45.1031 38.6745 45.2574 39.063 45.2574ZM40.5278 38.801H46.4327C47.405 38.801 48.196 39.592 48.196 40.5645C48.196 41.5369 47.405 42.3279 46.4327 42.3279H40.5278V38.801Z" fill="#E74C3D"/>
<path d="M46.4327 51.1168C52.2511 51.1168 56.9847 46.383 56.9847 40.5643C56.9847 34.7455 52.2511 30.0117 46.4327 30.0117H36.1335C33.7104 30.0117 31.7392 31.983 31.7392 34.4062V42.3277H29.1517C26.7286 42.3277 24.7573 44.299 24.7573 46.7223C24.7573 49.1455 26.7286 51.1168 29.1517 51.1168H31.7392V53.9102H29.1517C26.7286 53.9102 24.7573 55.8814 24.7573 58.3047C24.7573 60.7279 26.7286 62.6992 29.1517 62.6992H31.7392V65.1994C31.7392 67.6227 33.7104 69.5939 36.1335 69.5939C38.5565 69.5939 40.5278 67.6227 40.5278 65.1994V62.6992H43.9456C46.3687 62.6992 48.3401 60.7279 48.3401 58.3047C48.3401 55.8814 46.3688 53.9102 43.9456 53.9102H40.5278V51.1168H46.4327ZM39.063 56.8398H43.9456C44.7532 56.8398 45.4104 57.4969 45.4104 58.3047C45.4104 59.1125 44.7534 59.7695 43.9456 59.7695H39.063C38.6745 59.7695 38.3019 59.9239 38.0272 60.1986C37.7525 60.4733 37.5981 60.8459 37.5981 61.2344V65.1994C37.5981 66.0072 36.9411 66.6643 36.1335 66.6643C35.3259 66.6643 34.6688 66.0072 34.6688 65.1994V61.2344C34.6688 60.8459 34.5145 60.4733 34.2398 60.1986C33.9651 59.9239 33.5925 59.7695 33.204 59.7695H29.1517C28.344 59.7695 27.687 59.1125 27.687 58.3047C27.687 57.4969 28.344 56.8398 29.1517 56.8398H33.204C33.5925 56.8398 33.9651 56.6855 34.2398 56.4108C34.5145 56.1361 34.6688 55.7635 34.6688 55.375V49.652C34.6688 49.2635 34.5145 48.8909 34.2398 48.6162C33.9651 48.3414 33.5925 48.1871 33.204 48.1871H29.1517C28.344 48.1871 27.687 47.5301 27.687 46.7223C27.687 45.9145 28.344 45.2574 29.1517 45.2574H33.204C33.5925 45.2574 33.9651 45.1031 34.2398 44.8284C34.5145 44.5537 34.6688 44.1811 34.6688 43.7926V34.4062C34.6688 33.5984 35.3259 32.9414 36.1335 32.9414H46.4327C50.6356 32.9414 54.055 36.3609 54.055 40.5643C54.055 44.7676 50.6356 48.1871 46.4327 48.1871H39.063C38.6745 48.1871 38.3019 48.3414 38.0272 48.6162C37.7525 48.8909 37.5981 49.2635 37.5981 49.652V55.375C37.5981 55.7635 37.7525 56.1361 38.0272 56.4108C38.3019 56.6855 38.6745 56.8398 39.063 56.8398Z" fill="#E74C3D"/>
</svg>
