<svg width="100" height="100" viewBox="0 0 100 100" fill="none" xmlns="http://www.w3.org/2000/svg">
<g clip-path="url(#clip0_85_301)">
<path d="M99.5926 42.047L82.8554 20.2623C82.5567 19.8735 82.1235 19.6109 81.6412 19.526C81.1589 19.441 80.6624 19.54 80.2492 19.8034L69.4429 26.6895H55.3492C55.1668 26.6895 54.9851 26.7284 54.8097 26.7795L43.882 29.9314L32.5433 26.8239L21.5258 19.8034C21.1192 19.544 20.6316 19.4438 20.156 19.522C19.6804 19.6001 19.2502 19.851 18.9476 20.2269L0.435136 43.2028C-0.230293 44.0282 -0.120332 45.2339 0.682207 45.9257L10.3853 54.2924L19.0904 66.0462C16.5445 68.7639 16.5941 73.0502 19.243 75.7049C20.4172 76.8805 21.9103 77.5449 23.4461 77.6993C23.3922 78.0506 23.3652 78.4056 23.3652 78.7611C23.3652 80.6155 24.0861 82.3592 25.3945 83.6703C26.7039 84.982 28.4441 85.7044 30.2949 85.7044C30.3203 85.7044 30.3445 85.7028 30.3691 85.702C30.3681 85.7496 30.366 85.7961 30.366 85.8435C30.366 87.6981 31.0869 89.4417 32.3953 90.7535C33.7045 92.0646 35.4449 92.7868 37.2957 92.7868C37.658 92.7863 38.0197 92.758 38.3777 92.702C38.5313 94.3004 39.2359 95.7952 40.3703 96.9294C41.7207 98.2832 43.4953 98.9597 45.2699 98.9597C47.0445 98.9597 48.8191 98.2832 50.1703 96.9294L51.2301 95.8676L51.6748 96.2269C53.0146 97.5271 54.7541 98.177 56.4935 98.177C58.2681 98.177 60.0428 97.5004 61.3931 96.1466C62.7719 94.7652 63.447 92.9421 63.4187 91.128C65.2285 91.1554 67.0488 90.4799 68.4275 89.0993C69.8045 87.7186 70.4797 85.8971 70.4529 84.0838C72.3383 84.1136 74.1267 83.3881 75.4609 82.0511C76.8396 80.6699 77.5148 78.8466 77.4865 77.0327C79.2978 77.0601 81.1166 76.3844 82.4953 75.0032C84.8482 72.6456 85.1512 69.0016 83.4062 66.3116L89.7623 52.9736L99.3181 44.7347C100.108 44.0537 100.228 42.8732 99.5928 42.0468L99.5926 42.047ZM20.8984 24.0607L28.8209 29.1081L11.5867 50.1453L4.68045 44.1897L20.8984 24.0607ZM22.0162 68.6637L24.4072 66.268C24.9059 65.768 25.5644 65.46 26.2672 65.3981C26.284 65.3965 26.3015 65.3965 26.3183 65.3957C26.4039 65.3889 26.4892 65.3842 26.5754 65.385C27.3949 65.3965 28.1562 65.7322 28.7209 66.329C29.8287 67.5024 29.7691 69.4196 28.5881 70.603L26.2695 72.9261C25.0969 74.101 23.1888 74.101 22.0162 72.9261C20.8435 71.7505 20.8435 69.8386 22.0162 68.6639V68.6637ZM28.1678 80.8914C27.5994 80.3228 27.2865 79.566 27.2865 78.7611C27.2865 77.9562 27.5994 77.1995 28.1678 76.63L32.8041 71.9842C33.6922 71.0946 35.0883 70.8507 36.2236 71.3926C37.3939 71.9515 38.0523 73.2243 37.8806 74.5047C37.7875 75.1915 37.473 75.829 36.9849 76.3202L32.4219 80.8916C31.8535 81.4611 31.0982 81.7744 30.2949 81.7744C29.4916 81.7744 28.7361 81.4611 28.1678 80.8914ZM35.1685 87.974C34.8882 87.695 34.666 87.363 34.5147 86.9973C34.3634 86.6316 34.2861 86.2394 34.2873 85.8435C34.2862 85.4475 34.3636 85.0553 34.5149 84.6895C34.6661 84.3237 34.8883 83.9916 35.1685 83.7124L39.8041 79.0668C40.7539 78.1157 42.2775 77.911 43.4402 78.5891C44.5023 79.2083 45.0584 80.4237 44.8762 81.6345C44.7743 82.3039 44.4621 82.9233 43.9849 83.4028L39.4224 87.974C38.8541 88.5435 38.0988 88.857 37.2955 88.857C36.4922 88.857 35.7369 88.5435 35.1685 87.974ZM43.1428 94.1505C41.9701 92.9756 41.9701 91.0639 43.1428 89.8889L45.5338 87.4932C45.6073 87.4196 45.6844 87.3498 45.7648 87.2838C46.1511 86.9691 46.6095 86.7558 47.0986 86.6631L47.1328 86.6584C47.2168 86.6431 47.3023 86.631 47.3877 86.6231C47.4221 86.6202 47.4564 86.6202 47.4914 86.6179C47.5617 86.614 47.631 86.6095 47.7019 86.6102C48.1551 86.6152 48.6011 86.7233 49.0064 86.9265C49.4117 87.1296 49.7655 87.4225 50.0412 87.7828C50.9429 88.9639 50.8217 90.7183 49.7025 91.8406L47.3961 94.1513C46.2234 95.3263 44.3154 95.3255 43.1428 94.1505ZM79.7219 72.2243C78.5492 73.4001 76.641 73.3993 75.4683 72.2243C75.4259 72.1821 75.3814 72.1421 75.3349 72.1044L62.7265 59.3386C61.9644 58.5672 60.723 58.5611 59.9531 59.3249C59.1836 60.0877 59.1773 61.3314 59.9388 62.1028L72.6838 75.0055L72.6883 75.0102C73.8609 76.1852 73.8609 78.0977 72.6883 79.2727C72.4096 79.5534 72.0781 79.7761 71.7131 79.9276C71.348 80.0792 70.9565 80.1567 70.5613 80.1556C70.1661 80.1569 69.7745 80.0794 69.4094 79.9279C69.0442 79.7763 68.7127 79.5536 68.4342 79.2727L59.9082 70.6415C59.1469 69.8701 57.9056 69.8641 57.1357 70.6269C56.366 71.3907 56.3597 72.6343 57.1213 73.4057L65.5166 81.9048C65.5595 81.9582 65.6051 82.0093 65.6539 82.0582C66.8265 83.2331 66.8265 85.1458 65.6539 86.3208C64.4806 87.4958 62.5719 87.495 61.399 86.32L56.7461 81.6087C55.984 80.8372 54.7426 80.8304 53.9726 81.594C53.2031 82.357 53.1969 83.6006 53.9584 84.3721L58.4818 88.9509C58.5246 89.0046 58.5703 89.0566 58.6199 89.1055C59.7926 90.2803 59.7926 92.1928 58.6199 93.3678C57.4472 94.5435 55.539 94.5427 54.3664 93.3678C54.2316 93.2325 54.0728 93.1286 53.9217 93.0124C53.7935 92.9145 53.7599 92.8464 53.824 92.6905C53.8888 92.5323 53.9857 92.3893 54.0506 92.2304C54.1222 92.0531 54.1802 91.8703 54.2367 91.6869C54.5382 90.7096 54.6249 89.6784 54.4908 88.6642C54.2314 86.731 53.1701 84.9865 51.5619 83.8828C50.6893 83.2858 49.6913 82.8981 48.6451 82.7498C49.1502 80.5177 48.5437 78.0975 46.966 76.4273C45.6674 75.0529 43.9133 74.2815 42.0265 74.2554C41.9577 74.2547 41.8888 74.2547 41.8199 74.2554C41.8619 72.4515 41.2072 70.6588 39.966 69.3449C38.6668 67.9703 36.9127 67.1991 35.0265 67.173C34.466 67.1652 33.8998 67.2251 33.3537 67.3511C33.1201 65.7237 32.3015 64.2177 31.0617 63.1406C29.8297 62.0721 28.2801 61.4787 26.6299 61.4558C24.8926 61.4306 23.1859 62.0727 21.8957 63.24L14.316 53.0065L32.4496 30.8715L38.2289 32.4556L30.681 45.8003C29.7685 47.4139 29.5381 49.2868 30.0318 51.0742C30.5254 52.8621 31.6836 54.3498 33.2941 55.264C33.3947 55.3212 33.4963 55.3756 33.5992 55.4275C33.607 55.4314 33.6144 55.4353 33.6228 55.439C33.8922 55.5733 34.17 55.69 34.4545 55.7883C35.7689 56.2447 37.1889 56.2944 38.5584 55.9153C40.3422 55.4206 41.8267 54.2595 42.7392 52.6464L47.6441 43.974L56.4019 44.5963L79.7226 67.9619C80.8945 69.1376 80.8945 71.0494 79.7219 72.2243ZM80.5344 63.2184L58.657 41.2995C58.3232 40.9653 57.8803 40.7628 57.4095 40.7292L46.6865 39.967C45.9449 39.9159 45.208 40.311 44.8418 40.9586L39.3271 50.7096C39.1332 51.0546 38.873 51.3576 38.5615 51.6011C38.25 51.8446 37.8934 52.0239 37.5123 52.1284C37.1316 52.235 36.7337 52.2649 36.3414 52.2163C35.9492 52.1678 35.5705 52.0418 35.2271 51.8457C34.8828 51.6514 34.5804 51.3906 34.3374 51.0784C34.0943 50.7663 33.9154 50.4089 33.8111 50.0271C33.7045 49.6457 33.6746 49.2469 33.7231 48.8539C33.7716 48.4608 33.8975 48.0813 34.0935 47.7374L41.4551 34.72L44.4381 33.8599C44.458 33.8541 44.4771 33.8462 44.4969 33.8402L55.6304 30.6188H69.0826L85.8765 52.0093L80.5344 63.2184ZM88.4453 48.9253L72.9148 29.1331L80.841 24.0824L95.3529 42.9693L88.4453 48.9253Z" fill="#E74C3D"/>
<path d="M60.5828 22.9999C61.0847 22.9999 61.5867 22.8082 61.9697 22.4244L75.3638 9.00405C76.1299 8.23653 76.1299 6.9927 75.3638 6.22518C74.5978 5.45767 73.3566 5.45786 72.5906 6.22518L59.1965 19.6457C59.0143 19.8282 58.8699 20.0448 58.7713 20.2831C58.6727 20.5215 58.622 20.777 58.622 21.0351C58.622 21.2931 58.6727 21.5486 58.7713 21.787C58.8699 22.0254 59.0143 22.242 59.1965 22.4244C59.3783 22.6071 59.5944 22.752 59.8323 22.8507C60.0702 22.9495 60.3253 23.0002 60.5828 22.9999ZM38.0302 22.4244C38.2122 22.6071 38.4284 22.7521 38.6664 22.8508C38.9044 22.9496 39.1595 23.0003 39.4172 22.9999C39.9185 22.9999 40.4205 22.8082 40.8035 22.4244C40.9856 22.242 41.1301 22.0254 41.2287 21.7869C41.3273 21.5485 41.378 21.293 41.378 21.035C41.378 20.7769 41.3273 20.5214 41.2287 20.283C41.1301 20.0446 40.9856 19.828 40.8035 19.6455L27.4093 6.22518C26.6433 5.45786 25.4021 5.45786 24.6359 6.22518C23.8697 6.9925 23.8701 8.23653 24.6359 9.00405L38.0302 22.4244ZM50 22.9999C51.0826 22.9999 51.9609 22.1201 51.9609 21.0354V9.9289C51.9609 8.84416 51.0826 7.96432 50 7.96432C48.9174 7.96432 48.039 8.84416 48.039 9.92909V21.0354C48.039 22.1201 48.9174 22.9999 50 22.9999ZM48.1902 2.80835C48.5015 3.56432 49.2775 4.06041 50.0961 4.01774C50.9047 3.97547 51.6152 3.42831 51.8654 2.65688C52.1164 1.87939 51.8431 0.993479 51.1931 0.498175C50.5303 -0.00789128 49.6054 -0.0360713 48.9119 0.423224C48.1385 0.935357 47.8386 1.95512 48.1902 2.80835Z" fill="#E74C3D"/>
</g>
<defs>
<clipPath id="clip0_85_301">
<rect width="100" height="100" fill="white"/>
</clipPath>
</defs>
</svg>
