<svg width="98" height="98" viewBox="0 0 98 98" fill="none" xmlns="http://www.w3.org/2000/svg">
<path d="M41.5759 17.6367C46.2729 17.6367 50.0608 13.8488 50.0608 9.15184C50.0608 4.45487 46.2729 0.666992 41.5759 0.666992C36.879 0.666992 33.0911 4.45487 33.0911 9.15184C33.0911 13.8488 37.0305 17.6367 41.5759 17.6367ZM41.5759 3.69729C44.6062 3.69729 47.0305 6.12154 47.0305 9.15184C47.0305 12.1821 44.6062 14.6064 41.5759 14.6064C38.5456 14.6064 36.1214 12.1821 36.1214 9.15184C36.1214 6.12154 38.6971 3.69729 41.5759 3.69729ZM39.1517 84.7579C38.5456 84.1518 37.6365 84.1518 37.0305 84.7579L32.788 89.0003C32.182 89.6064 32.182 90.5155 32.788 91.1215C33.3941 91.7276 34.3032 91.7276 34.9093 91.1215L36.5759 89.4549V95.8185C36.5759 96.7276 37.182 97.3337 38.0911 97.3337C39.0002 97.3337 39.6062 96.7276 39.6062 95.8185V89.4549L41.2729 91.1215C41.879 91.7276 42.788 91.7276 43.3941 91.1215C44.0002 90.5155 44.0002 89.6064 43.3941 89.0003L39.1517 84.7579ZM61.4244 70.97C60.8183 70.364 59.9093 70.364 59.3032 70.97L55.0608 75.2124C54.4547 75.8185 54.4547 76.7276 55.0608 77.3337C55.6668 77.9397 56.5759 77.9397 57.182 77.3337L58.8486 75.667V95.8185C58.8486 96.7276 59.4547 97.3337 60.3638 97.3337C61.2729 97.3337 61.879 96.7276 61.879 95.8185V75.667L63.5456 77.3337C64.1517 77.9397 65.0608 77.9397 65.6668 77.3337C66.2729 76.7276 66.2729 75.8185 65.6668 75.2124L61.4244 70.97ZM85.5153 57.7882C84.9093 57.1821 84.0002 57.1821 83.3941 57.7882L79.1517 62.0306C78.5456 62.6367 78.5456 63.5458 79.1517 64.1518C79.7577 64.7579 80.6668 64.7579 81.2729 64.1518L82.9396 62.4852V95.667C82.9396 96.5761 83.5456 97.1822 84.4547 97.1822C85.3638 97.1822 85.9699 96.5761 85.9699 95.667V62.4852L87.6365 64.1518C88.2426 64.7579 89.1517 64.7579 89.7577 64.1518C90.3638 63.5458 90.3638 62.6367 89.7577 62.0306L85.5153 57.7882Z" fill="#E74C3D"/>
<path d="M95.9697 49.7577H70.5151C69.606 49.7577 69 50.3637 69 51.2728V64.4546H63.5454V52.4849C63.697 48.091 60.8182 44.3031 56.5757 43.2425L49.4545 41.4243L49.7576 30.9698L53.8485 33.8486C59.9091 38.091 65.5151 33.8486 69.1515 33.091C71.1212 32.4849 72.3333 30.3637 72.0303 28.394C71.5757 25.8183 69 24.1516 66.4242 25.0607L62.1818 26.4243C58.5454 27.6364 56.8788 24.1516 52.3333 21.1213C49 18.394 46.2727 19.6061 34.303 18.5455C31.7273 18.394 29.303 19.4546 27.6363 21.4243L17.1818 33.5455C16.8788 34.0001 16.5757 34.4546 16.4242 34.9092L14.1515 44.1516C13.3939 47.1819 15.8182 50.0607 18.8485 49.9092C20.8182 49.9092 22.4848 48.5455 23.0909 46.5758C26.2727 36.7273 25.9697 37.1819 26.1212 37.0304L31.5757 31.1213V42.9395C31.5757 44.1516 31.8788 45.3637 32.3333 46.4243L29.4545 74.9092C29.303 76.4243 29.9091 77.788 30.8182 78.697H23.8485C22.9394 78.697 22.3333 79.3031 22.3333 80.2122V93.394H2.03029C1.1212 93.394 0.515137 94.0001 0.515137 94.9092C0.515137 95.8183 1.1212 96.4243 2.03029 96.4243H23.8485C24.7576 96.4243 25.3636 95.8183 25.3636 94.9092V81.7273H47.0303C47.9394 81.7273 48.5454 81.1213 48.5454 80.2122V67.4849H70.5151C71.4242 67.4849 72.0303 66.8789 72.0303 65.9698V52.788H95.9697C96.8788 52.788 97.4848 52.1819 97.4848 51.2728C97.4848 50.3637 96.8788 49.7577 95.9697 49.7577ZM24 35.0607C23.697 35.5152 23.3939 35.9698 23.2424 36.4243L20.2121 45.8183C20.0606 46.4243 19.4545 46.8789 18.697 47.0304C17.6363 47.0304 16.7273 46.1213 17.0303 45.0607C19.606 35.3637 19.4545 35.6667 19.606 35.5152L30.0606 23.394C31.1212 22.1819 32.6363 21.5758 34.303 21.5758C46.7273 22.6364 48.3939 21.7273 50.5151 23.5455C54.4545 26.1213 57.4848 31.4243 63.2424 29.4546L67.4848 28.091C68.2424 27.788 69 28.394 69.1515 29.1516C69.303 29.7577 68.8485 30.3637 68.2424 30.5152C64.303 31.4243 60.0606 34.7577 55.6667 31.7273L49.303 27.1819C48.8485 26.8789 48.2424 26.8789 47.7879 27.0304C47.3333 27.3334 47.0303 27.788 47.0303 28.394L46.7273 42.9395C46.7273 43.697 47.1818 44.3031 47.9394 44.4546L56.2727 46.5758C59.1515 47.3334 60.9697 49.9092 60.8182 52.788V64.7577H56.5757V55.8183C56.5757 53.5455 55.0606 51.7273 52.7879 51.2728L39 48.394C36.5757 47.9395 34.9091 45.6667 34.9091 43.2425V27.3334C34.9091 26.7273 34.4545 26.1213 34 25.9698C33.3939 25.6667 32.7879 25.9698 32.3333 26.4243L24 35.0607ZM38.2424 51.1213L40.6667 51.7273L36.8788 75.6667C36.7273 76.7273 35.6667 77.6364 34.606 77.4849C33.3939 77.3334 32.4848 76.4243 32.6363 75.2122L35.2121 49.7577C35.9697 50.3637 37.0303 50.8183 38.2424 51.1213ZM47.0303 64.6061C46.1212 64.6061 45.5151 65.2122 45.5151 66.1213V78.8486H38.5454C39.1515 78.091 39.606 77.1819 39.9091 76.2728L43.697 52.3334L52.0303 54.1516C52.7879 54.3031 53.3939 55.0607 53.3939 55.8183V64.7577H47.0303V64.6061Z" fill="#E74C3D"/>
</svg>
