<svg width="100" height="100" viewBox="0 0 100 100" fill="none" xmlns="http://www.w3.org/2000/svg">
<path d="M80.3574 44.9108L70.3931 54.8715L66.0717 50.5215C65.7364 50.1866 65.2818 49.9987 64.8079 49.999C64.334 49.9994 63.8797 50.1879 63.5449 50.5233C63.21 50.8586 63.0221 51.3132 63.0225 51.787C63.0228 52.2609 63.2114 52.7152 63.5467 53.05L69.1574 58.6608C69.4923 58.9955 69.9464 59.1836 70.4199 59.1836C70.8934 59.1836 71.3475 58.9955 71.6824 58.6608L82.911 47.4358C83.0815 47.271 83.2176 47.074 83.3111 46.8561C83.4047 46.6383 83.454 46.4039 83.456 46.1668C83.4581 45.9297 83.4129 45.6946 83.3231 45.4751C83.2333 45.2557 83.1008 45.0563 82.9331 44.8886C82.7654 44.721 82.566 44.5884 82.3466 44.4986C82.1271 44.4088 81.892 44.3636 81.6549 44.3657C81.4178 44.3677 81.1835 44.417 80.9656 44.5106C80.7477 44.6042 80.5507 44.7402 80.386 44.9108H80.3574Z" fill="#E74C3D"/>
<path d="M94.6431 51.7858C94.6337 46.7266 92.8365 41.8337 89.5689 37.9714C86.3013 34.109 81.7736 31.526 76.786 30.6786V21.4286C76.7864 21.1939 76.7406 20.9615 76.6511 20.7446C76.5616 20.5276 76.4303 20.3305 76.2646 20.1643L61.9789 5.87861C61.8127 5.71289 61.6155 5.58154 61.3986 5.49207C61.1817 5.4026 60.9492 5.35676 60.7146 5.35718H17.8574C17.3838 5.35718 16.9296 5.54532 16.5947 5.8802C16.2598 6.21509 16.0717 6.66929 16.0717 7.14289V16.0715H7.14314C6.66954 16.0715 6.21533 16.2596 5.88045 16.5945C5.54556 16.9294 5.35742 17.3836 5.35742 17.8572V92.8572C5.35742 93.3308 5.54556 93.785 5.88045 94.1199C6.21533 94.4548 6.66954 94.6429 7.14314 94.6429H67.8574C68.331 94.6429 68.7852 94.4548 69.1201 94.1199C69.455 93.785 69.6431 93.3308 69.6431 92.8572V83.9286H75.0003C75.4739 83.9286 75.9281 83.7405 76.263 83.4056C76.5979 83.0707 76.786 82.6165 76.786 82.1429V72.8929C81.7736 72.0455 86.3013 69.4625 89.5689 65.6001C92.8365 61.7378 94.6337 56.8449 94.6431 51.7858ZM62.5003 11.4536L70.6896 19.6429H62.5003V11.4536ZM66.0717 91.0715H8.92885V19.6429H16.0717V82.1429C16.0717 82.6165 16.2598 83.0707 16.5947 83.4056C16.9296 83.7405 17.3838 83.9286 17.8574 83.9286H66.0717V91.0715ZM73.2146 80.3572H19.6431V8.92861H58.9288V21.4286C58.9288 21.9022 59.117 22.3564 59.4519 22.6913C59.7868 23.0262 60.241 23.2143 60.7146 23.2143H73.2146V30.3572C67.5314 30.3572 62.0809 32.6148 58.0623 36.6335C54.0436 40.6521 51.786 46.1025 51.786 51.7858C51.786 57.469 54.0436 62.9194 58.0623 66.938C62.0809 70.9567 67.5314 73.2143 73.2146 73.2143V80.3572ZM73.2146 69.6429C69.6828 69.6429 66.2303 68.5956 63.2937 66.6334C60.3571 64.6713 58.0683 61.8824 56.7167 58.6194C55.3652 55.3564 55.0115 51.7659 55.7005 48.302C56.3896 44.8381 58.0903 41.6562 60.5877 39.1588C63.085 36.6615 66.2669 34.9608 69.7308 34.2717C73.1948 33.5827 76.7852 33.9363 80.0482 35.2879C83.3112 36.6395 86.1001 38.9283 88.0622 41.8649C90.0244 44.8014 91.0717 48.2539 91.0717 51.7858C91.066 56.52 89.1828 61.0588 85.8352 64.4064C82.4876 67.754 77.9488 69.6372 73.2146 69.6429Z" fill="#E74C3D"/>
<path d="M37.5007 48.7357L31.9722 54.2857L29.8293 52.1428C29.4945 51.8075 29.0402 51.619 28.5663 51.6186C28.0924 51.6183 27.6378 51.8062 27.3025 52.1411C26.9672 52.4759 26.7787 52.9302 26.7783 53.4041C26.778 53.8779 26.9659 54.3325 27.3007 54.6678L30.7043 58.0678C31.0392 58.4026 31.4933 58.5907 31.9668 58.5907C32.4403 58.5907 32.8944 58.4026 33.2293 58.0678L40.0329 51.2821C40.3682 50.9473 40.5568 50.493 40.5571 50.0191C40.5574 49.5452 40.3695 49.0906 40.0347 48.7553C39.6998 48.42 39.2455 48.2315 38.7716 48.2311C38.2978 48.2308 37.8432 48.4187 37.5079 48.7536L37.5007 48.7357ZM37.5007 63.0214L31.9722 68.5714L29.8293 66.4286C29.6635 66.2625 29.4666 66.1308 29.2499 66.0408C29.0332 65.9509 28.8009 65.9045 28.5663 65.9043C28.3317 65.9042 28.0993 65.9502 27.8825 66.0399C27.6656 66.1295 27.4686 66.261 27.3025 66.4268C27.1365 66.5926 27.0048 66.7894 26.9148 67.0061C26.8249 67.2229 26.7785 67.4552 26.7783 67.6898C26.7782 67.9244 26.8242 68.1568 26.9138 68.3736C27.0035 68.5905 27.1349 68.7875 27.3007 68.9536L30.7043 72.3536C31.0392 72.6883 31.4933 72.8764 31.9668 72.8764C32.4403 72.8764 32.8944 72.6883 33.2293 72.3536L40.0329 65.5678C40.3682 65.233 40.5568 64.7787 40.5571 64.3048C40.5574 63.831 40.3695 63.3764 40.0347 63.0411C39.6998 62.7057 39.2455 62.5172 38.7716 62.5168C38.2978 62.5165 37.8432 62.7044 37.5079 63.0393L37.5007 63.0214ZM28.5722 19.6428H50.0007C50.4743 19.6428 50.9285 19.4547 51.2634 19.1198C51.5983 18.7849 51.7865 18.3307 51.7865 17.8571C51.7865 17.3835 51.5983 16.9293 51.2634 16.5944C50.9285 16.2595 50.4743 16.0714 50.0007 16.0714H28.5722C28.0986 16.0714 27.6444 16.2595 27.3095 16.5944C26.9746 16.9293 26.7865 17.3835 26.7865 17.8571C26.7865 18.3307 26.9746 18.7849 27.3095 19.1198C27.6444 19.4547 28.0986 19.6428 28.5722 19.6428ZM50.0007 26.7857H28.5722C28.0986 26.7857 27.6444 26.9738 27.3095 27.3087C26.9746 27.6436 26.7865 28.0978 26.7865 28.5714C26.7865 29.045 26.9746 29.4992 27.3095 29.8341C27.6444 30.169 28.0986 30.3571 28.5722 30.3571H50.0007C50.4743 30.3571 50.9285 30.169 51.2634 29.8341C51.5983 29.4992 51.7865 29.045 51.7865 28.5714C51.7865 28.0978 51.5983 27.6436 51.2634 27.3087C50.9285 26.9738 50.4743 26.7857 50.0007 26.7857ZM39.2865 37.5H28.5722C28.0986 37.5 27.6444 37.6881 27.3095 38.023C26.9746 38.3579 26.7865 38.8121 26.7865 39.2857C26.7865 39.7593 26.9746 40.2135 27.3095 40.5484C27.6444 40.8833 28.0986 41.0714 28.5722 41.0714H39.2865C39.7601 41.0714 40.2143 40.8833 40.5491 40.5484C40.884 40.2135 41.0722 39.7593 41.0722 39.2857C41.0722 38.8121 40.884 38.3579 40.5491 38.023C40.2143 37.6881 39.7601 37.5 39.2865 37.5Z" fill="#E74C3D"/>
</svg>
