<svg width="100" height="100" viewBox="0 0 100 100" fill="none" xmlns="http://www.w3.org/2000/svg">
<g clip-path="url(#clip0_16_1573)">
<path d="M93.3334 20C89.6566 20 86.6668 22.99 86.6668 26.6666C86.6668 30.3432 89.6568 33.3332 93.3334 33.3332C97.01 33.3332 100 30.3434 100 26.6666C100 22.99 97.01 20 93.3334 20ZM93.3334 30C91.4951 30 90 28.5051 90 26.6666C90 24.8283 91.4949 23.3332 93.3334 23.3332C95.1719 23.3332 96.6668 24.8281 96.6668 26.6666C96.6666 28.5051 95.1717 30 93.3334 30ZM6.6666 75C2.99004 75 0 77.99 0 81.6666C0 85.3432 2.99004 88.3332 6.6666 88.3332C10.3434 88.3332 13.3332 85.3432 13.3332 81.6666C13.3332 77.99 10.3434 75 6.6666 75ZM6.6666 85C4.82832 85 3.3332 83.5051 3.3332 81.6666C3.3332 79.8281 4.82812 78.3332 6.6666 78.3332C8.50488 78.3332 10 79.8281 10 81.6666C10 83.5051 8.50508 85 6.6666 85Z" fill="#E74C3D"/>
<path d="M90.1019 22.1063L75.7235 15.1647C74.8935 14.763 73.8985 15.113 73.4985 15.9415C73.0985 16.7698 73.4468 17.7665 74.2753 18.1665L88.6536 25.1081C88.8506 25.2036 89.0646 25.2592 89.2831 25.2718C89.5017 25.2845 89.7206 25.2538 89.9273 25.1817C90.134 25.1095 90.3244 24.9972 90.4876 24.8513C90.6508 24.7054 90.7836 24.5287 90.8784 24.3313C91.2784 23.503 90.9302 22.5063 90.1019 22.1063ZM75.0001 86.6663C71.3233 86.6663 68.3335 89.6563 68.3335 93.3329C68.3335 97.0094 71.3233 99.9997 75.0001 99.9997C78.6769 99.9997 81.6667 97.0096 81.6667 93.3331C81.6667 89.6565 78.6769 86.6663 75.0001 86.6663ZM75.0001 96.6663C73.1618 96.6663 71.6667 95.1714 71.6667 93.3329C71.6667 91.4944 73.1618 89.9997 75.0001 89.9997C76.8384 89.9997 78.3335 91.4946 78.3335 93.3331C78.3335 95.1716 76.8384 96.6663 75.0001 96.6663Z" fill="#E74C3D"/>
<path d="M71.7685 88.7734L57.3901 81.8318C57.1931 81.7363 56.9792 81.6807 56.7606 81.6681C56.542 81.6554 56.3231 81.6861 56.1164 81.7582C55.9096 81.8304 55.7192 81.9427 55.556 82.0886C55.3927 82.2345 55.2599 82.4112 55.1651 82.6086C54.7651 83.4369 55.1134 84.4336 55.9419 84.8336L70.3202 91.7752C70.5173 91.8706 70.7312 91.9262 70.9498 91.9389C71.1683 91.9515 71.3872 91.9208 71.5939 91.8486C71.8006 91.7765 71.9911 91.6642 72.1543 91.5183C72.3175 91.3724 72.4504 91.1958 72.5452 90.9984C72.945 90.1699 72.5968 89.1734 71.7685 88.7734ZM50.0001 45C46.3233 45 43.3335 47.99 43.3335 51.6666C43.3335 55.3434 46.3235 58.3332 50.0001 58.3332C53.6769 58.3332 56.6667 55.3432 56.6667 51.6666C56.6667 47.99 53.6769 45 50.0001 45ZM50.0001 55C48.1618 55 46.6667 53.5051 46.6667 51.6666C46.6667 49.8283 48.1616 48.3332 50.0001 48.3332C51.8384 48.3332 53.3335 49.8281 53.3335 51.6666C53.3335 53.5051 51.8384 55 50.0001 55Z" fill="#E74C3D"/>
<path d="M47.07 47.293L36.0251 38.6846C35.2983 38.1229 34.2519 38.2479 33.6851 38.9747C33.12 39.7014 33.2483 40.7479 33.9751 41.3147L45.02 49.9231C45.3124 50.1512 45.6726 50.275 46.0435 50.2749C46.2973 50.2753 46.5479 50.2177 46.7761 50.1065C47.0042 49.9953 47.204 49.8335 47.3601 49.6333C47.9251 48.9063 47.7968 47.8596 47.07 47.293ZM80.0001 43.3331C69.8917 43.3331 61.6667 51.5581 61.6667 61.6665C61.6667 71.7749 69.8917 79.9999 80.0001 79.9999C90.1085 79.9999 98.3335 71.7749 98.3335 61.6665C98.3335 51.5581 90.1085 43.3331 80.0001 43.3331ZM80.0001 76.6663C71.7284 76.6663 65.0001 69.938 65.0001 61.6663C65.0001 53.3946 71.7284 46.6663 80.0001 46.6663C88.2718 46.6663 95.0001 53.3946 95.0001 61.6663C95.0001 69.938 88.2718 76.6663 80.0001 76.6663Z" fill="#E74C3D"/>
<path d="M79.9999 50C76.3231 50 73.3333 52.99 73.3333 56.6666C73.3333 60.3434 76.3233 63.3332 79.9999 63.3332C83.6767 63.3332 86.6665 60.3432 86.6665 56.6666C86.6665 52.99 83.6767 50 79.9999 50ZM79.9999 60C78.1616 60 76.6665 58.5051 76.6665 56.6666C76.6665 54.8283 78.1614 53.3332 79.9999 53.3332C81.8382 53.3332 83.3333 54.8281 83.3333 56.6666C83.3333 58.5051 81.8382 60 79.9999 60ZM84.8349 66.6666H75.1649C72.3167 66.6666 69.9999 68.9217 69.9999 71.6916V76.085C69.9999 76.3773 70.0767 76.6646 70.2226 76.9179C70.3686 77.1712 70.5786 77.3817 70.8315 77.5283C73.6249 79.1449 76.7948 80 79.9999 80C83.205 80 86.3749 79.1449 89.1683 77.5283C89.4212 77.3821 89.6311 77.1719 89.7771 76.9189C89.9231 76.6658 89.9999 76.3788 89.9999 76.0867V71.6934C89.9999 68.9217 87.6833 66.6666 84.8349 66.6666ZM86.6665 75.0916C82.5183 77.1582 77.4815 77.1582 73.3331 75.0916V71.6934C73.3331 70.76 74.1548 70 75.1647 70H84.8347C85.8446 70 86.6663 70.76 86.6663 71.6934L86.6665 75.0916ZM39.9999 63.3334C29.8915 63.3334 21.6665 71.5584 21.6665 81.6668C21.6665 91.7752 29.8915 100 39.9999 100C50.1083 100 58.3333 91.775 58.3333 81.6666C58.3333 71.5582 50.1083 63.3334 39.9999 63.3334ZM39.9999 96.6666C31.7282 96.6666 24.9999 89.9383 24.9999 81.6666C24.9999 73.3949 31.7282 66.6666 39.9999 66.6666C48.2716 66.6666 54.9999 73.3949 54.9999 81.6666C54.9999 89.9383 48.2716 96.6666 39.9999 96.6666Z" fill="#E74C3D"/>
<path d="M40 70.0004C36.3232 70.0004 33.3334 72.9904 33.3334 76.667C33.3334 80.3437 36.3234 83.3336 40 83.3336C43.6766 83.3336 46.6666 80.3436 46.6666 76.667C46.6666 72.9904 43.6768 70.0004 40 70.0004ZM40 80.0004C38.1617 80.0004 36.6666 78.5055 36.6666 76.667C36.6666 74.8287 38.1615 73.3336 40 73.3336C41.8383 73.3336 43.3334 74.8285 43.3334 76.667C43.3334 78.5055 41.8383 80.0004 40 80.0004ZM44.835 86.667H35.165C32.3168 86.667 30 88.9221 30 91.692V96.0853C30 96.3777 30.0768 96.665 30.2227 96.9183C30.3687 97.1716 30.5787 97.3821 30.8316 97.5287C33.625 99.1453 36.7949 100 40 100C43.2051 100 46.375 99.1453 49.1684 97.5287C49.4213 97.3825 49.6313 97.1723 49.7772 96.9193C49.9232 96.6662 50 96.3792 50 96.0871V91.6937C50 88.9221 47.6834 86.667 44.835 86.667ZM46.6666 95.092C42.5182 97.1586 37.4816 97.1586 33.3332 95.092V91.6937C33.3332 90.7603 34.1549 90.0004 35.1648 90.0004H44.8348C45.8447 90.0004 46.6664 90.7603 46.6664 91.6937L46.6666 95.092ZM18.3334 21.667C8.225 21.667 0 29.892 0 40.0004C0 50.1088 8.225 58.3338 18.3334 58.3338C28.4418 58.3338 36.6668 50.1088 36.6668 40.0004C36.6666 29.892 28.4416 21.667 18.3334 21.667ZM18.3334 55.0004C10.0617 55.0004 3.3334 48.2721 3.3334 40.0004C3.3334 31.7287 10.0617 25.0004 18.3334 25.0004C26.6051 25.0004 33.3334 31.7287 33.3334 40.0004C33.3334 48.2721 26.6051 55.0004 18.3334 55.0004Z" fill="#E74C3D"/>
<path d="M18.3335 28.3334C14.6567 28.3334 11.6669 31.3234 11.6669 35C11.6669 38.6766 14.6569 41.6666 18.3335 41.6666C22.0103 41.6666 25.0001 38.6766 25.0001 35C25.0001 31.3234 22.0101 28.3334 18.3335 28.3334ZM18.3335 38.3334C16.4952 38.3334 15.0001 36.8385 15.0001 35C15.0001 33.1615 16.495 31.6666 18.3335 31.6666C20.1718 31.6666 21.6669 33.1615 21.6669 35C21.6669 36.8385 20.1718 38.3334 18.3335 38.3334ZM23.1685 45H13.4985C10.6503 45 8.3335 47.2551 8.3335 50.025V54.4184C8.33346 54.7107 8.41027 54.998 8.55623 55.2513C8.70219 55.5046 8.91218 55.7151 9.16514 55.8617C11.9585 57.4783 15.1284 58.3334 18.3335 58.3334C21.5386 58.3334 24.7085 57.4783 27.5019 55.8617C27.7548 55.7155 27.9647 55.5053 28.1107 55.2523C28.2567 54.9992 28.3335 54.7122 28.3335 54.4201V50.0268C28.3335 47.2551 26.0167 45 23.1685 45ZM25.0001 53.425C20.8519 55.4916 15.8151 55.4916 11.6667 53.425V50.0268C11.6667 49.0934 12.4884 48.3334 13.4983 48.3334H23.1683C24.1782 48.3334 24.9999 49.0934 24.9999 50.0268L25.0001 53.425ZM58.3335 0C48.2251 0 40.0001 8.225 40.0001 18.3334C40.0001 28.4418 48.2251 36.6668 58.3335 36.6668C68.4419 36.6668 76.6669 28.4418 76.6669 18.3334C76.6667 8.225 68.4417 0 58.3335 0ZM58.3335 33.3334C50.0618 33.3334 43.3335 26.6051 43.3335 18.3334C43.3335 10.0617 50.0618 3.3334 58.3335 3.3334C66.6052 3.3334 73.3335 10.0617 73.3335 18.3334C73.3335 26.6051 66.6052 33.3334 58.3335 33.3334Z" fill="#E74C3D"/>
<path d="M58.3332 6.66699C54.6565 6.66699 51.6666 9.65703 51.6666 13.3336C51.6666 17.0102 54.6567 20.0002 58.3332 20.0002C62.0098 20.0002 64.9998 17.0104 64.9998 13.3338C64.9998 9.65723 62.0098 6.66699 58.3332 6.66699ZM58.3332 16.667C56.4949 16.667 54.9998 15.1721 54.9998 13.3336C54.9998 11.4953 56.4947 10.0002 58.3332 10.0002C60.1717 10.0002 61.6666 11.4951 61.6666 13.3336C61.6664 15.1721 60.1715 16.667 58.3332 16.667ZM63.1682 23.3338H53.4983C50.65 23.3338 48.3332 25.5889 48.3332 28.3588V32.7521C48.3332 33.0445 48.41 33.3318 48.556 33.5851C48.7019 33.8384 48.9119 34.0489 49.1649 34.1955C51.9582 35.8121 55.1281 36.6672 58.3332 36.6672C61.5383 36.6672 64.7082 35.8121 67.5016 34.1955C67.7545 34.0493 67.9645 33.8391 68.1104 33.5861C68.2564 33.333 68.3332 33.046 68.3332 32.7539V28.3605C68.3332 25.5887 66.0164 23.3338 63.1682 23.3338ZM64.9998 31.7588C60.8516 33.8254 55.8149 33.8254 51.6664 31.7588V28.3605C51.6664 27.4271 52.4881 26.6672 53.4981 26.6672H63.168C64.1779 26.6672 64.9996 27.4271 64.9996 28.3605L64.9998 31.7588ZM42.9348 17.2486C42.3365 16.552 41.2848 16.4686 40.5848 17.067L29.0348 26.9504C28.3348 27.5486 28.2531 28.6004 28.8514 29.3004C28.9936 29.4669 29.1672 29.6037 29.3624 29.703C29.5575 29.8023 29.7704 29.8621 29.9887 29.879C30.207 29.8959 30.4265 29.8695 30.6346 29.8014C30.8427 29.7332 31.0353 29.6247 31.2014 29.482L42.7514 19.5986C43.4516 19.0004 43.5332 17.9486 42.9348 17.2486Z" fill="#E74C3D"/>
<path d="M79.6666 44.0018L69.6666 30.6684C69.1148 29.9301 68.0699 29.785 67.3332 30.335C66.5965 30.8867 66.4482 31.9316 66.9998 32.6666L76.9998 46C77.1552 46.2073 77.3567 46.3754 77.5885 46.4911C77.8202 46.6069 78.0757 46.6669 78.3348 46.6666C78.6949 46.6667 79.0453 46.5497 79.3332 46.3332C80.0699 45.7816 80.2184 44.7367 79.6666 44.0018ZM65.9883 67.1783C65.4365 66.4416 64.3916 66.2934 63.6549 66.8449L54.3449 73.8266C53.6082 74.3783 53.46 75.4232 54.0115 76.1582C54.1669 76.3655 54.3684 76.5336 54.6002 76.6494C54.8319 76.7651 55.0875 76.8251 55.3465 76.8248C55.7066 76.8243 56.0568 76.7074 56.3449 76.4914L65.6549 69.5098C66.3916 68.9584 66.54 67.9133 65.9883 67.1783ZM23.3334 80H11.6666C10.7467 80 10 80.7449 10 81.6666C10 82.5883 10.7467 83.3332 11.6666 83.3332H23.3332C24.2531 83.3332 24.9998 82.5883 24.9998 81.6666C24.9998 80.7449 24.2533 80 23.3334 80ZM18.3334 0C14.6566 0 11.6666 2.99004 11.6666 6.6666C11.6666 10.3434 14.6566 13.3332 18.3332 13.3332C22.01 13.3332 24.9998 10.3432 24.9998 6.6666C25 2.99004 22.01 0 18.3334 0ZM18.3334 10C16.4951 10 15 8.50508 15 6.6666C15 4.82832 16.4949 3.3332 18.3334 3.3332C20.1717 3.3332 21.6668 4.82812 21.6668 6.6666C21.6666 8.50508 20.1717 10 18.3334 10Z" fill="#E74C3D"/>
<path d="M18.3336 10C18.1147 9.99992 17.898 10.043 17.6957 10.1267C17.4935 10.2104 17.3097 10.3332 17.155 10.488C17.0002 10.6427 16.8774 10.8265 16.7937 11.0287C16.71 11.231 16.6669 11.4477 16.667 11.6666V23.3332C16.6669 23.5521 16.71 23.7688 16.7937 23.9711C16.8774 24.1733 17.0002 24.3571 17.155 24.5118C17.3097 24.6666 17.4935 24.7894 17.6957 24.8731C17.898 24.9568 18.1147 24.9999 18.3336 24.9998C18.5525 24.9999 18.7692 24.9568 18.9715 24.8731C19.1737 24.7894 19.3575 24.6666 19.5122 24.5118C19.667 24.3571 19.7898 24.1733 19.8735 23.9711C19.9572 23.7688 20.0003 23.5521 20.0002 23.3332V11.6666C20.0003 11.4477 19.9572 11.231 19.8735 11.0287C19.7898 10.8265 19.667 10.6427 19.5122 10.488C19.3575 10.3332 19.1737 10.2104 18.9715 10.1267C18.7692 10.043 18.5525 9.99992 18.3336 10Z" fill="#E74C3D"/>
</g>
<defs>
<clipPath id="clip0_16_1573">
<rect width="100" height="100" fill="white"/>
</clipPath>
</defs>
</svg>
