<svg width="100" height="100" viewBox="0 0 100 100" fill="none" xmlns="http://www.w3.org/2000/svg">
<path d="M49.9998 94.9994C45.4165 94.9994 42.0832 91.2494 39.5832 88.3327L38.3332 87.0827C35.8332 84.5827 34.9998 84.166 31.6665 84.166H29.9998C26.6665 84.166 22.0832 84.5827 18.7498 81.2494C15.4165 77.916 15.8332 73.3327 15.8332 69.9994V68.3327C15.8332 64.9994 15.4165 63.7494 12.9165 61.2494C7.9165 56.666 5.4165 54.166 5.4165 49.9994C5.4165 45.8327 7.9165 43.3327 12.9165 38.3327C14.9998 36.2493 15.8332 34.166 15.8332 31.2493V29.5827C15.8332 26.2494 15.4165 21.666 18.7498 18.3327C22.0832 14.9994 26.6665 15.416 29.9998 15.416C33.7498 15.416 35.8332 14.9993 38.3332 12.4993C43.3332 7.91602 45.8332 5.41602 49.9998 5.41602C54.1665 5.41602 56.6665 7.91602 61.6665 12.916C62.9165 14.166 62.9165 16.2493 61.6665 17.4993C60.4165 18.7493 58.3332 18.7493 57.0832 17.4993C53.3332 13.7493 51.2498 11.666 49.9998 11.666C48.3332 11.666 46.2498 13.7493 42.9165 17.4993C39.5832 20.416 35.8332 22.0827 31.6665 22.0827H29.9998C27.4998 22.0827 24.5832 22.0827 23.3332 23.3327C22.0832 24.5827 22.0832 27.4993 22.0832 29.9993V31.666C22.0832 36.2494 20.4165 39.5827 17.0832 42.916C13.3332 46.666 11.2498 48.7494 11.2498 49.9994C11.2498 51.666 13.3332 53.7494 17.0832 57.0827C20.8332 60.8327 22.0832 63.3327 22.0832 68.3327V69.9994C22.0832 72.4994 22.0832 75.416 23.3332 76.666C24.5832 77.916 27.4998 77.916 29.9998 77.916C36.2498 77.916 39.1665 78.7494 42.9165 82.4994C43.3332 82.916 43.7498 83.3327 44.1665 84.166C45.8332 86.2494 48.3332 88.7494 49.9998 88.7494C51.6665 88.7494 54.1665 86.2494 55.8332 84.166C56.2498 83.7494 56.6665 82.916 57.0832 82.4994C60.8332 78.7494 63.7498 77.916 69.9998 77.916C72.4998 77.916 75.4165 77.916 76.6665 76.666C77.9165 75.416 77.9165 72.4994 77.9165 69.9994V68.3327C77.9165 63.3327 79.1665 60.8327 82.9165 57.0827C86.6665 53.3327 88.7498 51.2494 88.7498 49.9994C88.7498 48.3327 86.6665 46.2494 82.9165 42.916C81.6665 41.666 81.6665 39.5827 82.9165 38.3327C84.1665 37.0827 86.2498 37.0827 87.4998 38.3327C92.4998 43.3327 94.9998 45.8327 94.9998 49.9994C94.9998 54.166 92.4998 56.666 87.4998 61.666C84.9998 64.166 84.5832 65.416 84.5832 68.7494V70.416C84.5832 73.7494 84.9998 78.3327 82.0832 81.2494C82.0832 81.666 81.6665 81.666 81.2498 82.0827C77.9165 84.9994 73.7498 84.5827 70.4165 84.5827H68.7498C65.4165 84.5827 64.1665 84.9994 62.0832 87.4994L60.8332 88.7494C57.9165 91.2494 54.5832 94.9994 49.9998 94.9994Z" fill="#E74C3D"/>
<path d="M49.9997 57.4988C49.1663 57.4988 48.333 57.0821 47.9163 56.6654L33.333 41.6654C32.083 40.4154 32.083 38.7488 33.333 37.4988C34.583 36.2488 36.2497 36.2488 37.4997 37.4988L49.583 49.5821L84.9997 10.4154C86.2497 9.16542 88.333 9.16542 89.583 9.99875C90.833 11.2488 90.833 13.3321 89.9997 14.5821L52.4997 56.2488C51.6663 57.0821 50.833 57.0821 49.9997 57.4988Z" fill="#E74C3D"/>
</svg>
