<svg width="100" height="100" viewBox="0 0 100 100" fill="none" xmlns="http://www.w3.org/2000/svg">
<path d="M84.936 59.6152C84.4478 59.6152 83.9728 59.429 83.6124 59.0873L78.0793 53.8379H65.3766C61.1395 53.8379 57.6924 50.3907 57.6924 46.1536V34.6071C57.6924 30.37 61.1395 26.9229 65.3766 26.9229H88.4697C92.7068 26.9229 96.1539 30.37 96.1539 34.6071V46.1536C96.1539 50.2057 93.001 53.5355 89.0195 53.8182L86.6564 58.5509C86.4969 58.8707 86.2514 59.1396 85.9475 59.3276C85.6436 59.5156 85.2934 59.6152 84.936 59.6152ZM65.3766 30.769C63.2603 30.769 61.5385 32.4907 61.5385 34.6071V46.1536C61.5385 48.27 63.2603 49.9917 65.3766 49.9917H78.8462C79.3388 49.9917 79.8125 50.1806 80.1699 50.5196L84.3757 54.5096L86.1001 51.0557C86.2597 50.736 86.5052 50.4671 86.8091 50.2792C87.1131 50.0912 87.4633 49.9917 87.8207 49.9917H88.4697C90.586 49.9917 92.3078 48.27 92.3078 46.1536V34.6071C92.3078 32.4907 90.586 30.769 88.4697 30.769H65.3766Z" fill="#E74C3D"/>
<path d="M86.5385 38.4614H67.3077C66.2458 38.4614 65.3847 37.6004 65.3847 36.5383C65.3847 35.4762 66.2458 34.6152 67.3077 34.6152H86.5385C87.6004 34.6152 88.4616 35.4762 88.4616 36.5383C88.4616 37.6004 87.6004 38.4614 86.5385 38.4614ZM86.5385 46.1537H67.3077C66.2458 46.1537 65.3847 45.2927 65.3847 44.2306C65.3847 43.1685 66.2458 42.3075 67.3077 42.3075H86.5385C87.6004 42.3075 88.4616 43.1685 88.4616 44.2306C88.4616 45.2927 87.6004 46.1537 86.5385 46.1537ZM15.0641 74.9999C14.7068 74.9999 14.3565 74.9003 14.0526 74.7124C13.7488 74.5244 13.5033 74.2555 13.3437 73.9358L10.9806 69.2031C6.99908 68.9202 3.84619 65.5904 3.84619 61.5383V49.9918C3.84619 45.7547 7.29331 42.3075 11.5304 42.3075H34.6233C38.8606 42.3075 42.3077 45.7547 42.3077 49.9918V61.5383C42.3077 65.7754 38.8606 69.2225 34.6235 69.2225H21.921L16.3877 74.472C16.0304 74.8109 15.5566 74.9999 15.0641 74.9999ZM11.5304 46.1537C9.41408 46.1537 7.69235 47.8754 7.69235 49.9918V61.5383C7.69235 63.6547 9.41408 65.3764 11.5304 65.3764H12.1795C12.9083 65.3764 13.5745 65.7885 13.9 66.4404L15.6245 69.8943L19.8302 65.9043C20.1875 65.5653 20.6612 65.3763 21.1537 65.3764H34.6233C36.7397 65.3764 38.4614 63.6547 38.4614 61.5383V49.9918C38.4614 47.8754 36.7397 46.1537 34.6233 46.1537H11.5304Z" fill="#E74C3D"/>
<path d="M32.6923 53.8457H13.4615C12.3994 53.8457 11.5385 52.9846 11.5385 51.9226C11.5385 50.8607 12.3994 49.9995 13.4615 49.9995H32.6923C33.7544 49.9995 34.6154 50.8607 34.6154 51.9226C34.6154 52.9846 33.7544 53.8457 32.6923 53.8457ZM32.6923 61.538H13.4615C12.3994 61.538 11.5385 60.6769 11.5385 59.6149C11.5385 58.553 12.3994 57.6919 13.4615 57.6919H32.6923C33.7544 57.6919 34.6154 58.553 34.6154 59.6149C34.6154 60.6769 33.7544 61.538 32.6923 61.538ZM73.0769 96.1534H26.9231C23.7419 96.1534 21.1538 93.5653 21.1538 90.3842V67.3072C21.1538 66.2453 22.0148 65.3842 23.0769 65.3842C24.139 65.3842 25 66.2453 25 67.3072V90.3842C25 91.4445 25.8627 92.3072 26.9231 92.3072H73.0769C74.1373 92.3072 75 91.4445 75 90.3842V51.9226C75 50.8607 75.8611 49.9995 76.9231 49.9995C77.985 49.9995 78.8461 50.8607 78.8461 51.9226V90.3842C78.8461 93.5653 76.2581 96.1534 73.0769 96.1534ZM23.0769 46.1534C22.0148 46.1534 21.1538 45.2924 21.1538 44.2303V9.61493C21.1538 6.43378 23.7419 3.8457 26.9231 3.8457H73.0769C76.2581 3.8457 78.8461 6.43378 78.8461 9.61493V28.8457C78.8461 29.9078 77.985 30.7688 76.9231 30.7688C75.8611 30.7688 75 29.9078 75 28.8457V9.61493C75 8.55455 74.1373 7.69186 73.0769 7.69186H26.9231C25.8627 7.69186 25 8.55455 25 9.61493V44.2303C25 45.2924 24.139 46.1534 23.0769 46.1534Z" fill="#E74C3D"/>
<path d="M76.9232 19.2306H23.077C22.0149 19.2306 21.1539 18.3697 21.1539 17.3075C21.1539 16.2454 22.0149 15.3845 23.077 15.3845H76.9232C77.9851 15.3845 78.8462 16.2454 78.8462 17.3075C78.8462 18.3697 77.9851 19.2306 76.9232 19.2306ZM76.9232 84.6152H23.077C22.0149 84.6152 21.1539 83.7541 21.1539 82.6922C21.1539 81.6302 22.0149 80.7691 23.077 80.7691H76.9232C77.9851 80.7691 78.8462 81.6302 78.8462 82.6922C78.8462 83.7541 77.9851 84.6152 76.9232 84.6152ZM51.9232 13.4614H48.077C47.0149 13.4614 46.1539 12.6004 46.1539 11.5383C46.1539 10.4762 47.0149 9.61523 48.077 9.61523H51.9232C52.9851 9.61523 53.8462 10.4762 53.8462 11.5383C53.8462 12.6004 52.9851 13.4614 51.9232 13.4614ZM51.9232 90.3845H48.077C47.0149 90.3845 46.1539 89.5233 46.1539 88.4614C46.1539 87.3995 47.0149 86.5383 48.077 86.5383H51.9232C52.9851 86.5383 53.8462 87.3995 53.8462 88.4614C53.8462 89.5233 52.9851 90.3845 51.9232 90.3845Z" fill="#E74C3D"/>
</svg>
