<svg width="100" height="100" viewBox="0 0 100 100" fill="none" xmlns="http://www.w3.org/2000/svg">
<g clip-path="url(#clip0_118_3152)">
<path d="M51.0016 47.7038C50.899 47.8815 50.7624 48.0374 50.5997 48.1623C50.4369 48.2873 50.251 48.3789 50.0528 48.4321C49.8546 48.4852 49.6478 48.4987 49.4443 48.4718C49.2409 48.445 49.0447 48.3783 48.867 48.2756L40.9619 43.7118C40.7244 43.5746 40.5271 43.3774 40.39 43.1399C40.2528 42.9024 40.1807 42.6329 40.1807 42.3586V30.5186C40.1807 30.1042 40.3453 29.7068 40.6383 29.4137C40.9313 29.1207 41.3288 28.9561 41.7432 28.9561C42.1576 28.9561 42.555 29.1207 42.848 29.4137C43.141 29.7068 43.3057 30.1042 43.3057 30.5186V41.4565L50.4295 45.5696C50.6072 45.6721 50.763 45.8087 50.8879 45.9714C51.0129 46.1342 51.1045 46.32 51.1576 46.5182C51.2108 46.7164 51.2243 46.9231 51.1975 47.1265C51.1708 47.3299 51.1042 47.5261 51.0016 47.7038ZM41.7434 21.7061C42.1578 21.7061 42.5552 21.5415 42.8482 21.2485C43.1412 20.9554 43.3059 20.558 43.3059 20.1436V17.4426C43.3059 17.0282 43.1412 16.6308 42.8482 16.3378C42.5552 16.0447 42.1578 15.8801 41.7434 15.8801C41.329 15.8801 40.9315 16.0447 40.6385 16.3378C40.3455 16.6308 40.1809 17.0282 40.1809 17.4426V20.1436C40.1809 20.558 40.3455 20.9554 40.6385 21.2485C40.9315 21.5415 41.329 21.7061 41.7434 21.7061ZM58.2566 23.6356L56.3469 25.5452C56.2018 25.6902 56.0867 25.8625 56.0082 26.052C55.9296 26.2416 55.8892 26.4448 55.8892 26.65C55.8892 26.8551 55.9296 27.0583 56.0082 27.2479C56.0867 27.4374 56.2018 27.6097 56.3469 27.7547C56.4918 27.9001 56.664 28.0153 56.8536 28.0939C57.0432 28.1725 57.2465 28.2128 57.4518 28.2125C57.657 28.2128 57.8603 28.1725 58.0499 28.094C58.2395 28.0155 58.4117 27.9002 58.5566 27.7549L60.4664 25.8454C60.7594 25.5523 60.9241 25.1549 60.9241 24.7405C60.9241 24.3261 60.7594 23.9286 60.4664 23.6356C60.1734 23.3426 59.7759 23.1779 59.3615 23.1779C58.9471 23.1779 58.5497 23.3426 58.2566 23.6356ZM24.9299 56.9624L23.0201 58.8721C22.875 59.0172 22.7599 59.1894 22.6814 59.379C22.6029 59.5686 22.5625 59.7717 22.5625 59.9769C22.5625 60.1821 22.6029 60.3853 22.6814 60.5748C22.7599 60.7644 22.875 60.9366 23.0201 61.0817C23.3252 61.3868 23.725 61.5393 24.125 61.5393C24.525 61.5393 24.9248 61.3868 25.2299 61.0815L27.1396 59.1717C27.4272 58.8776 27.5872 58.4819 27.5849 58.0705C27.5825 57.6592 27.4181 57.2653 27.1272 56.9745C26.8362 56.6836 26.4424 56.5192 26.031 56.5169C25.6196 56.5147 25.224 56.6747 24.9299 56.9624ZM25.2299 23.6356C24.9368 23.3426 24.5394 23.1781 24.1251 23.1781C23.7107 23.1782 23.3133 23.3428 23.0203 23.6358C22.8752 23.7809 22.7601 23.9531 22.6816 24.1427C22.6031 24.3322 22.5627 24.5354 22.5627 24.7406C22.5627 24.9458 22.6031 25.1489 22.6816 25.3385C22.7601 25.528 22.8752 25.7003 23.0203 25.8454L24.9301 27.7549C25.2352 28.06 25.635 28.2125 26.035 28.2125C26.435 28.2125 26.8348 28.06 27.1398 27.7547C27.2849 27.6097 27.4 27.4374 27.4786 27.2479C27.5571 27.0583 27.5975 26.8551 27.5975 26.65C27.5975 26.4448 27.5571 26.2416 27.4786 26.052C27.4 25.8625 27.2849 25.6902 27.1398 25.5452L25.2299 23.6356ZM63.9584 43.9211H66.6594C67.0738 43.9211 67.4712 43.7565 67.7642 43.4635C68.0573 43.1705 68.2219 42.773 68.2219 42.3586C68.2219 41.9442 68.0573 41.5468 67.7642 41.2538C67.4712 40.9608 67.0738 40.7961 66.6594 40.7961H63.9584C63.544 40.7961 63.1466 40.9608 62.8535 41.2538C62.5605 41.5468 62.3959 41.9442 62.3959 42.3586C62.3959 42.773 62.5605 43.1705 62.8535 43.4635C63.1466 43.7565 63.544 43.9211 63.9584 43.9211ZM19.5281 40.7961H16.8271C16.4127 40.7961 16.0153 40.9608 15.7223 41.2538C15.4293 41.5468 15.2646 41.9442 15.2646 42.3586C15.2646 42.773 15.4293 43.1705 15.7223 43.4635C16.0153 43.7565 16.4127 43.9211 16.8271 43.9211H19.5281C19.9425 43.9211 20.34 43.7565 20.633 43.4635C20.926 43.1705 21.0906 42.773 21.0906 42.3586C21.0906 41.9442 20.926 41.5468 20.633 41.2538C20.34 40.9608 19.9425 40.7961 19.5281 40.7961ZM100 59.7104V69.9417C100 72.0149 99.1389 73.8684 97.4437 75.4631V93.6252C97.4437 96.801 94.86 99.3846 91.6844 99.3846H47.8414C44.6656 99.3846 42.0818 96.8008 42.0818 93.6252V84.0981C41.9689 84.0991 41.8557 84.102 41.7432 84.102C30.5932 84.102 20.1105 79.76 12.2262 71.8756C4.34199 63.9915 0 53.5086 0 42.3586C0 19.3415 18.726 0.615479 41.7434 0.615479C64.7607 0.615479 83.4867 19.3415 83.4867 42.3586C83.4867 45.5579 83.1176 48.7463 82.3969 51.8442C82.4783 52.2397 82.5213 52.6491 82.5213 53.0682V55.9973H96.2871C98.3344 55.9973 100 57.6629 100 59.7104ZM96.2869 59.1223H86.2607L86.299 64.5416C86.307 65.6719 85.8693 66.7399 85.0666 67.5483C84.2578 68.3629 83.183 68.8116 82.0402 68.8116H57.4855C55.1537 68.8116 53.2434 66.9059 53.2268 64.5637L53.1883 59.1225H43.2391C42.9205 59.1225 42.6512 59.3918 42.6512 59.7106V69.9418C42.6512 71.2936 43.2818 72.4407 44.6359 73.5522C44.9727 73.8286 45.36 74.1057 45.7869 74.3758C48.7254 76.235 55.2412 77.5997 63.3611 78.0766C64.3428 75.4952 66.8416 73.6551 69.7633 73.6551C72.6836 73.6551 75.1813 75.4934 76.1639 78.0729C84.2945 77.5918 90.8109 76.2286 93.7395 74.3758C94.1658 74.1061 94.5518 73.8299 94.8871 73.5551L94.8889 73.5538L94.8902 73.5526C96.2445 72.4411 96.8752 71.2936 96.8752 69.9418V59.7106C96.875 59.3916 96.6057 59.1223 96.2869 59.1223ZM66.0402 80.5026C66.0402 82.5553 67.7102 84.2252 69.7631 84.2252C71.8156 84.2252 73.4857 82.5553 73.4857 80.5026C73.4857 78.4499 71.8158 76.7797 69.7631 76.7797C67.7104 76.7797 66.0402 78.4499 66.0402 80.5026ZM71.475 42.3586C71.475 25.9645 58.1373 12.627 41.7432 12.627C25.349 12.627 12.0117 25.9645 12.0117 42.3586C12.0117 58.1127 24.3287 71.0418 39.8385 72.0276C39.6309 71.36 39.5262 70.6641 39.5262 69.9415V59.7102C39.5262 57.6629 41.1918 55.9971 43.2391 55.9971H57.0053V53.068C57.0053 49.7299 59.7211 47.0143 63.0592 47.0143H71.11C71.3523 45.4742 71.4743 43.9177 71.475 42.3586ZM75.4201 54.1155H64.1062V55.9973H75.4201V54.1155ZM56.3135 59.1223L56.3518 64.5416C56.3561 65.1729 56.8646 65.6864 57.4855 65.6864H82.0406C82.1913 65.6863 82.3404 65.6562 82.4792 65.5979C82.6181 65.5395 82.7439 65.4541 82.8494 65.3465C83.0609 65.1333 83.1764 64.8553 83.1744 64.5637L83.1359 59.1223H56.3135ZM79.3961 55.9973V53.0682C79.3961 51.4532 78.0822 50.1395 76.4674 50.1395H63.059C61.4439 50.1395 60.1301 51.4534 60.1301 53.0682V55.9973H60.9811V53.0682C60.9811 51.9227 61.9131 50.9905 63.059 50.9905H76.4674C77.6129 50.9905 78.5449 51.9225 78.5449 53.0682V55.9973H79.3961ZM42.0818 80.9729V75.4624C41.9945 75.3803 41.909 75.2977 41.8262 75.2141C41.7984 75.2141 41.7709 75.2153 41.7432 75.2153C23.626 75.2153 8.88652 60.4758 8.88652 42.3584C8.88652 24.2413 23.626 9.50181 41.7432 9.50181C59.8604 9.50181 74.6 24.2413 74.6 42.3584C74.6 43.9163 74.4897 45.4754 74.2713 47.0143H76.4676C77.7084 47.0132 78.9192 47.3958 79.9342 48.1096C80.2188 46.2058 80.3617 44.2834 80.3615 42.3584C80.3615 21.0645 63.0375 3.74028 41.7432 3.74028C20.4488 3.74028 3.125 21.0647 3.125 42.3586C3.125 63.6528 20.449 80.977 41.7434 80.977C41.8557 80.977 41.9691 80.9739 42.0818 80.9729ZM94.3187 93.625V77.6258C90.6824 79.4346 84.3752 80.7004 76.577 81.1786C76.2363 84.6381 73.3107 87.35 69.7631 87.35C66.2166 87.35 63.2916 84.6401 62.9492 81.1823C55.158 80.7081 48.8502 79.4409 45.2068 77.6262V93.625C45.2068 95.0778 46.3887 96.2594 47.8414 96.2594H91.6844C93.1369 96.2596 94.3187 95.0778 94.3187 93.625Z" fill="#E74C3D"/>
</g>
<defs>
<clipPath id="clip0_118_3152">
<rect width="100" height="100" fill="white"/>
</clipPath>
</defs>
</svg>
