<svg width="100" height="100" viewBox="0 0 100 100" fill="none" xmlns="http://www.w3.org/2000/svg">
<path d="M88.9751 39.0625C89.2016 39.062 89.4252 39.0124 89.6307 38.9171C89.8361 38.8218 90.0184 38.683 90.165 38.5104C90.3116 38.3378 90.419 38.1355 90.4799 37.9173C90.5407 37.6992 90.5534 37.4704 90.5173 37.2469L89.1688 28.9797L94.8673 23.1391C95.0674 22.9332 95.207 22.6763 95.2708 22.3964C95.3345 22.1164 95.32 21.8244 95.2289 21.5522C95.1377 21.2799 94.9734 21.0381 94.7539 20.853C94.5344 20.668 94.2682 20.5469 93.9845 20.5031L86.1704 19.3078L82.6626 11.8344C82.5361 11.5664 82.336 11.34 82.0857 11.1815C81.8354 11.0229 81.5451 10.9389 81.2488 10.939C80.9525 10.9392 80.6624 11.0236 80.4122 11.1824C80.1621 11.3412 79.9622 11.5679 79.836 11.8359L76.3282 19.3094L68.5142 20.5047C68.2301 20.548 67.9635 20.6688 67.7437 20.8537C67.5238 21.0387 67.3592 21.2807 67.268 21.5531C67.1768 21.8256 67.1624 22.1179 67.2265 22.398C67.2906 22.678 67.4307 22.935 67.6313 23.1406L73.3298 28.9813L71.9813 37.2484C71.9357 37.5376 71.9719 37.8337 72.0859 38.1033C72.1999 38.3729 72.3871 38.6052 72.6264 38.7738C72.8656 38.9425 73.1473 39.0407 73.4395 39.0575C73.7317 39.0743 74.0228 39.0089 74.2798 38.8687L81.2501 35.0141L88.2204 38.8672C88.4548 38.9984 88.7157 39.0625 88.9751 39.0625ZM82.0048 31.8625C81.7739 31.7345 81.5142 31.6673 81.2501 31.6673C80.986 31.6673 80.7263 31.7345 80.4954 31.8625L75.5845 34.5766L76.5423 28.7062C76.5815 28.465 76.5636 28.2179 76.4901 27.9848C76.4165 27.7517 76.2894 27.5391 76.1189 27.3641L71.9923 23.1344L77.6235 22.2734C78.1376 22.1953 78.5798 21.8641 78.8017 21.3938L81.2501 16.1781L83.697 21.3938C83.8058 21.626 83.9702 21.8279 84.1757 21.9813C84.3812 22.1348 84.6215 22.2351 84.8751 22.2734L90.5063 23.1344L86.3798 27.3641C86.2091 27.5391 86.0819 27.7517 86.0084 27.9848C85.9348 28.2179 85.917 28.465 85.9564 28.7062L86.9142 34.5766L82.0048 31.8625ZM79.6876 1.5625H82.8126V7.8125H79.6876V1.5625ZM91.3407 12.6969L95.7595 8.27812L97.9688 10.4875L93.5501 14.9062L91.3407 12.6969ZM63.8657 10.4844L66.0751 8.27656L70.4939 12.6953L68.2845 14.9047L63.8657 10.4844ZM66.5751 33.7328L63.7048 30.2547C63.5037 30.0114 63.2337 29.8346 62.9303 29.7476C62.6269 29.6606 62.3042 29.6674 62.0048 29.7672L45.7782 35.1766C46.3857 34.1649 46.7529 33.0274 46.8517 31.8516C47.0082 29.7863 46.3395 27.7432 44.9923 26.1701C43.645 24.597 41.729 23.6222 39.6642 23.4594C38.6411 23.3798 37.6125 23.5027 36.6371 23.8213C35.6616 24.1398 34.7587 24.6476 33.9798 25.3156C33.1981 25.9808 32.5562 26.7946 32.0914 27.7098C31.6265 28.6249 31.348 29.6233 31.272 30.6469C31.1267 32.5141 31.6767 34.3156 32.7673 35.8156C32.0798 35.825 31.3907 35.9484 30.7657 36.2516L10.3892 43.8812C10.0279 44.0161 9.72943 44.2799 9.55114 44.6218C9.37284 44.9637 9.32739 45.3594 9.42354 45.7328L10.6157 50.3875C10.7164 50.781 10.9663 51.1198 11.3126 51.3321C11.6588 51.5444 12.0741 51.6136 12.4704 51.525L26.2173 48.4625L24.6173 54.9391L16.4485 66.0047L9.20635 66.8797C8.9961 66.9048 8.79316 66.9725 8.60985 67.0784C8.42654 67.1844 8.26669 67.3266 8.13999 67.4962C8.0133 67.6659 7.92241 67.8595 7.87284 68.0654C7.82328 68.2712 7.81607 68.485 7.85166 68.6937L8.92666 75.0453C8.99441 75.425 9.19889 75.7668 9.50146 76.006C9.80403 76.2453 10.1837 76.3654 10.5688 76.3438L21.5954 75.6297C22.0392 75.6 22.4501 75.3844 22.7251 75.0344L28.4298 67.7625L23.8142 84.9313C23.7545 85.1529 23.7444 85.3851 23.7846 85.6111C23.8248 85.8371 23.9143 86.0516 24.0467 86.2391C24.1792 86.4266 24.3514 86.5826 24.551 86.696C24.7506 86.8095 24.9728 86.8775 25.2017 86.8953L32.9907 87.4984L33.1142 87.5C33.8157 87.5 34.4407 87.0266 34.6235 86.3391L45.2438 46.4L66.061 36.1281C66.2726 36.0242 66.4577 35.8735 66.6025 35.6876C66.7473 35.5016 66.848 35.2852 66.897 35.0547C66.9469 34.8244 66.9439 34.5857 66.8881 34.3567C66.8324 34.1277 66.7253 33.9144 66.5751 33.7328ZM36.0142 27.6891C36.4803 27.2868 37.0218 26.9813 37.6071 26.7903C38.1924 26.5993 38.8099 26.5266 39.4235 26.5766C40.6623 26.6747 41.8117 27.2598 42.62 28.2037C43.4283 29.1476 43.8296 30.3733 43.736 31.6125C43.5626 33.8453 41.8376 35.5766 39.7095 35.8828L38.3595 35.8641C37.2484 35.7052 36.2325 35.1489 35.5001 34.2984C35.0983 33.8317 34.7931 33.2899 34.6021 32.7044C34.4112 32.1189 34.3382 31.5014 34.3876 30.8875C34.4339 30.2733 34.6014 29.6744 34.8806 29.1254C35.1598 28.5764 35.5451 28.0882 36.0142 27.6891ZM43.2251 43.9125C43.0249 44.0107 42.8482 44.1508 42.7069 44.3234C42.5656 44.4959 42.4631 44.6968 42.4063 44.9125L31.9376 84.2797L27.322 83.9219L33.4376 61.1766C33.5297 60.829 33.4992 60.4603 33.3513 60.1326C33.2034 59.8048 32.9471 59.5381 32.6255 59.3772C32.3039 59.2163 31.9367 59.1711 31.5858 59.2493C31.2348 59.3274 30.9215 59.5241 30.6985 59.8063L20.6985 72.5531L11.7751 73.1297L11.2095 69.7828L17.4923 69.025C17.9188 68.9734 18.3063 68.7469 18.5626 68.4016L27.3173 56.5422C27.4399 56.377 27.5281 56.1889 27.5767 55.9891L29.8579 46.7625C29.9215 46.5042 29.9181 46.234 29.848 45.9773C29.7779 45.7207 29.6435 45.4863 29.4574 45.2961C29.2714 45.106 29.0399 44.9666 28.7849 44.8909C28.5298 44.8153 28.2597 44.8061 28.0001 44.8641L13.2688 48.1469L12.8001 46.3172L31.9392 39.15C31.9954 39.1281 32.0501 39.1047 32.1048 39.0766C32.361 38.9438 32.6548 38.8891 33.0392 38.9141L43.7282 39.0625C43.8751 39.0609 44.0767 39.0359 44.2438 38.9813L61.9767 33.0719L62.9095 34.2L43.2251 43.9125ZM12.4376 81.6875L9.4376 80.8125C9.13603 81.85 8.1376 84.45 5.4126 86.1828C4.19703 86.9539 2.8204 87.435 1.38916 87.5891L1.7376 90.6953C3.64175 90.4884 5.4728 89.8464 7.08916 88.8188C10.7095 86.5156 12.036 83.0641 12.4376 81.6875ZM10.0142 92.4891C7.94072 94.0094 5.55947 94.9359 2.94072 95.2484L3.30947 98.3516C6.39987 97.991 9.34515 96.8399 11.861 95.0094C16.6407 91.5094 18.2392 86.6625 18.7063 84.7438L15.6704 84.0047C15.2829 85.5938 13.9626 89.5984 10.0142 92.4891ZM90.6251 87.5H93.7501V90.625H90.6251V87.5ZM90.6251 93.75H93.7501V96.875H90.6251V93.75ZM93.7501 90.625H96.8751V93.75H93.7501V90.625ZM87.5001 90.625H90.6251V93.75H87.5001V90.625ZM71.8751 75H75.0001V78.125H71.8751V75ZM71.8751 81.25H75.0001V84.375H71.8751V81.25ZM75.0001 78.125H78.1251V81.25H75.0001V78.125ZM68.7501 78.125H71.8751V81.25H68.7501V78.125Z" fill="#E74C3D"/>
</svg>
