<svg width="101" height="100" viewBox="0 0 101 100" fill="none" xmlns="http://www.w3.org/2000/svg">
<g clip-path="url(#clip0_85_265)">
<path d="M98.3332 6.69147H84.9996V0.0253906H81.6668V6.69147H68.3332V0.0253906H65.0004V6.69147H51.6668V0.0253906H48.3332V6.69147H34.9996V0.0253906H31.6668V6.69147H18.3332V0.0253906H15.0003V6.69147H1.66678C1.44787 6.69147 1.2311 6.7346 1.02885 6.81838C0.826606 6.90217 0.642845 7.02497 0.488065 7.17979C0.333286 7.3346 0.210519 7.51838 0.126776 7.72065C0.0430324 7.92291 -4.6128e-05 8.13969 3.70652e-08 8.35861V98.3586C3.70652e-08 99.2786 0.746221 100.025 1.66678 100.025H98.3332C99.2538 100.025 100 99.2786 100 98.3586V8.35861C100 8.13971 99.9569 7.92295 99.8732 7.7207C99.7894 7.51846 99.6666 7.33469 99.5119 7.1799C99.3571 7.02511 99.1733 6.90232 98.9711 6.81854C98.7689 6.73477 98.5521 6.69147 98.3332 6.69147ZM96.6671 66.692H81.6668C81.4479 66.692 81.2311 66.7351 81.0289 66.8188C80.8266 66.9026 80.6429 67.0254 80.4881 67.1801C80.3333 67.3349 80.2105 67.5187 80.1267 67.7209C80.0429 67.9231 79.9998 68.1399 79.9998 68.3588V83.3584H3.33304V26.6916H96.667L96.6671 66.692ZM94.3102 70.0249L83.3336 81.0022V70.025L94.3102 70.0249ZM3.33304 86.692H81.6668C82.1085 86.6909 82.5319 86.5153 82.8448 86.2034L96.667 72.3818V90.025H3.33304V86.692ZM3.33304 10.0252H15.0003V16.692H18.3332V10.0252H31.6668V16.692H34.9996V10.0252H48.3332V16.692H51.6668V10.0252H65.0004V16.692H68.3332V10.0252H81.6668V16.692H84.9996V10.0252H96.667V23.3586H3.33304V10.0252ZM96.667 96.6918H3.33304V93.3586H96.667V96.6918Z" fill="#E74C3D"/>
<path d="M45 43.3586H55C55.442 43.3586 55.866 43.183 56.1785 42.8705C56.4911 42.5579 56.6667 42.134 56.6668 41.692V31.6922C56.6668 31.4733 56.6237 31.2565 56.5399 31.0543C56.4561 30.852 56.3333 30.6683 56.1785 30.5135C56.0237 30.3587 55.84 30.236 55.6377 30.1522C55.4355 30.0685 55.2187 30.0254 54.9998 30.0254H45.0002C44.7813 30.0254 44.5645 30.0685 44.3623 30.1522C44.16 30.236 43.9763 30.3587 43.8215 30.5135C43.6667 30.6683 43.5439 30.852 43.4601 31.0543C43.3763 31.2565 43.3332 31.4733 43.3332 31.6922V41.692C43.3332 41.9109 43.3763 42.1277 43.4601 42.3299C43.5439 42.5321 43.6667 42.7159 43.8215 42.8707C43.9763 43.0254 44.16 43.1482 44.3623 43.232C44.5645 43.3157 44.7813 43.3588 45.0002 43.3588L45 43.3586ZM46.667 33.3584H53.333V40.025H46.667V33.3584ZM61.6666 43.3586H71.667C72.587 43.3586 73.333 42.6126 73.333 41.692V31.6922C73.333 30.7716 72.587 30.0254 71.667 30.0254H61.6666C60.7461 30.0254 60.0005 30.7716 60.0005 31.6922V41.692C60.0005 42.6126 60.7461 43.3586 61.6666 43.3586ZM63.3334 33.3584H70.0002V40.025H63.3334V33.3584ZM78.3337 43.3586H88.3334C88.5523 43.3586 88.769 43.3155 88.9713 43.2318C89.1735 43.1481 89.3573 43.0253 89.512 42.8705C89.6668 42.7158 89.7896 42.5321 89.8734 42.3298C89.9572 42.1276 90.0003 41.9109 90.0004 41.692V31.6922C90.0004 31.4733 89.9572 31.2565 89.8735 31.0543C89.7897 30.852 89.6669 30.6683 89.5121 30.5135C89.3573 30.3587 89.1735 30.236 88.9713 30.1522C88.7691 30.0685 88.5523 30.0254 88.3334 30.0254H78.3339C78.115 30.0254 77.8983 30.0685 77.696 30.1522C77.4938 30.236 77.31 30.3587 77.1552 30.5135C77.0004 30.6683 76.8776 30.852 76.7939 31.0543C76.7101 31.2565 76.667 31.4733 76.667 31.6922V41.692C76.667 41.9109 76.7101 42.1277 76.7939 42.3299C76.8776 42.5321 77.0004 42.7159 77.1552 42.8707C77.31 43.0254 77.4938 43.1482 77.696 43.232C77.8983 43.3157 78.115 43.3588 78.3339 43.3588L78.3337 43.3586ZM79.9998 33.3584H86.6666V40.025H79.9998V33.3584ZM61.6666 76.6916H71.667C72.1088 76.6916 72.5326 76.5161 72.8451 76.2037C73.1575 75.8912 73.333 75.4674 73.333 75.0256V65.025C73.333 64.5832 73.1575 64.1594 72.8451 63.8469C72.5326 63.5345 72.1088 63.359 71.667 63.359H61.6666C61.4478 63.3589 61.2311 63.4019 61.029 63.4856C60.8268 63.5693 60.6431 63.6921 60.4884 63.8468C60.3336 64.0015 60.2109 64.1852 60.1272 64.3874C60.0435 64.5895 60.0005 64.8062 60.0005 65.025V75.0256C60.0005 75.2444 60.0435 75.4611 60.1272 75.6632C60.2109 75.8654 60.3336 76.0491 60.4884 76.2038C60.6431 76.3585 60.8268 76.4813 61.029 76.565C61.2311 76.6487 61.4478 76.6917 61.6666 76.6916ZM63.3334 66.692H70.0002V73.3586H63.3334V66.692ZM28.3337 43.3586H38.3334C38.5523 43.3586 38.769 43.3155 38.9713 43.2318C39.1735 43.1481 39.3573 43.0253 39.512 42.8705C39.6668 42.7158 39.7896 42.5321 39.8734 42.3298C39.9572 42.1276 40.0003 41.9109 40.0004 41.692V31.6922C40.0004 31.4733 39.9572 31.2565 39.8735 31.0543C39.7897 30.852 39.6669 30.6683 39.5121 30.5135C39.3573 30.3587 39.1735 30.236 38.9713 30.1522C38.7691 30.0685 38.5523 30.0254 38.3334 30.0254H28.3339C28.115 30.0254 27.8983 30.0685 27.696 30.1522C27.4938 30.236 27.31 30.3587 27.1552 30.5135C27.0004 30.6683 26.8776 30.852 26.7939 31.0543C26.7101 31.2565 26.667 31.4733 26.667 31.6922V41.692C26.667 41.9109 26.7101 42.1277 26.7939 42.3299C26.8776 42.5321 27.0004 42.7159 27.1552 42.8707C27.31 43.0254 27.4938 43.1482 27.696 43.232C27.8983 43.3157 28.115 43.3588 28.3339 43.3588L28.3337 43.3586ZM29.9998 33.3584H36.6666V40.025H29.9998V33.3584ZM45 60.0252H55C55.4421 60.0252 55.866 59.8496 56.1786 59.537C56.4912 59.2244 56.6668 58.8005 56.6668 58.3584V48.3586C56.6668 48.1397 56.6237 47.923 56.5399 47.7207C56.4561 47.5185 56.3333 47.3347 56.1785 47.18C56.0237 47.0252 55.84 46.9024 55.6377 46.8186C55.4355 46.7349 55.2187 46.6918 54.9998 46.6918H45.0002C44.7813 46.6918 44.5645 46.7349 44.3623 46.8186C44.16 46.9024 43.9763 47.0252 43.8215 47.18C43.6667 47.3347 43.5439 47.5185 43.4601 47.7207C43.3763 47.923 43.3332 48.1397 43.3332 48.3586V58.3584C43.3332 58.5773 43.3763 58.7941 43.4601 58.9963C43.5439 59.1986 43.6667 59.3823 43.8215 59.5371C43.9763 59.6919 44.16 59.8146 44.3623 59.8984C44.5645 59.9821 44.7813 60.0252 45.0002 60.0252H45ZM46.667 50.0256H53.333V56.6916H46.667V50.0256ZM61.6666 60.0252H71.667C72.587 60.0252 73.333 59.279 73.333 58.3584V48.3586C73.333 47.438 72.587 46.6918 71.667 46.6918H61.6666C60.7461 46.6918 60.0005 47.438 60.0005 48.3586V58.3584C60.0005 59.279 60.7461 60.0252 61.6666 60.0252ZM63.3334 50.0256H70.0002V56.6916H63.3334V50.0256ZM78.3337 60.0252H88.3334C88.5523 60.0252 88.7691 59.9821 88.9713 59.8984C89.1735 59.8146 89.3573 59.6919 89.5121 59.5371C89.6669 59.3823 89.7897 59.1986 89.8735 58.9963C89.9572 58.7941 90.0004 58.5773 90.0004 58.3584V48.3586C90.0004 48.1397 89.9572 47.923 89.8735 47.7207C89.7897 47.5185 89.6669 47.3347 89.5121 47.18C89.3573 47.0252 89.1735 46.9024 88.9713 46.8186C88.7691 46.7349 88.5523 46.6918 88.3334 46.6918H78.3339C78.115 46.6918 77.8983 46.7349 77.696 46.8186C77.4938 46.9024 77.31 47.0252 77.1552 47.18C77.0004 47.3347 76.8776 47.5185 76.7939 47.7207C76.7101 47.923 76.667 48.1397 76.667 48.3586V58.3584C76.667 58.5773 76.7101 58.7941 76.7939 58.9963C76.8776 59.1986 77.0004 59.3823 77.1552 59.5371C77.31 59.6919 77.4938 59.8146 77.696 59.8984C77.8983 59.9821 78.115 60.0252 78.3339 60.0252H78.3337ZM79.9998 50.0256H86.6666V56.6916H79.9998V50.0256ZM11.6666 60.0252H21.667C22.587 60.0252 23.333 59.279 23.333 58.3584V48.3586C23.333 47.438 22.587 46.6918 21.667 46.6918H11.6666C10.7461 46.6918 10.0005 47.438 10.0005 48.3586V58.3584C10.0005 59.279 10.7461 60.0252 11.6666 60.0252ZM13.3334 50.0256H20.0002V56.6916H13.3334V50.0256ZM28.3337 60.0252H38.3334C38.5523 60.0252 38.7691 59.9821 38.9713 59.8984C39.1735 59.8146 39.3573 59.6919 39.5121 59.5371C39.6669 59.3823 39.7897 59.1986 39.8735 58.9963C39.9572 58.7941 40.0004 58.5773 40.0004 58.3584V48.3586C40.0004 48.1397 39.9572 47.923 39.8735 47.7207C39.7897 47.5185 39.6669 47.3347 39.5121 47.18C39.3573 47.0252 39.1735 46.9024 38.9713 46.8186C38.7691 46.7349 38.5523 46.6918 38.3334 46.6918H28.3339C28.115 46.6918 27.8983 46.7349 27.696 46.8186C27.4938 46.9024 27.31 47.0252 27.1552 47.18C27.0004 47.3347 26.8776 47.5185 26.7939 47.7207C26.7101 47.923 26.667 48.1397 26.667 48.3586V58.3584C26.667 58.5773 26.7101 58.7941 26.7939 58.9963C26.8776 59.1986 27.0004 59.3823 27.1552 59.5371C27.31 59.6919 27.4938 59.8146 27.696 59.8984C27.8983 59.9821 28.115 60.0252 28.3339 60.0252H28.3337ZM29.9998 50.0256H36.6666V56.6916H29.9998V50.0256ZM45 76.6916H55C55.9204 76.6916 56.6668 75.9461 56.6668 75.0256V65.025C56.6668 64.1045 55.9204 63.359 54.9998 63.359H45.0002C44.0794 63.359 43.3332 64.1045 43.3332 65.025V75.0256C43.3332 75.9461 44.0794 76.6916 45.0002 76.6916H45ZM46.667 66.692H53.333V73.3586H46.667V66.692ZM11.6666 76.6916H21.667C22.1088 76.6916 22.5326 76.5161 22.8451 76.2037C23.1575 75.8912 23.333 75.4674 23.333 75.0256V65.025C23.333 64.5832 23.1575 64.1594 22.8451 63.8469C22.5326 63.5345 22.1088 63.359 21.667 63.359H11.6666C11.4478 63.3589 11.2311 63.4019 11.029 63.4856C10.8268 63.5693 10.6431 63.6921 10.4884 63.8468C10.3336 64.0015 10.2109 64.1852 10.1272 64.3874C10.0435 64.5895 10.0005 64.8062 10.0005 65.025V75.0256C10.0005 75.2444 10.0435 75.4611 10.1272 75.6632C10.2109 75.8654 10.3336 76.0491 10.4884 76.2038C10.6431 76.3585 10.8268 76.4813 11.029 76.565C11.2311 76.6487 11.4478 76.6917 11.6666 76.6916ZM13.3334 66.692H20.0002V73.3586H13.3334V66.692ZM28.3337 76.6916H38.3334C39.254 76.6916 40.0004 75.9461 40.0004 75.0256V65.025C40.0004 64.1045 39.254 63.359 38.3334 63.359H28.3339C27.4132 63.359 26.667 64.1045 26.667 65.025V75.0256C26.667 75.9461 27.4132 76.6916 28.3339 76.6916H28.3337ZM29.9998 66.692H36.6666V73.3586H29.9998V66.692Z" fill="#E74C3D"/>
</g>
<defs>
<clipPath id="clip0_85_265">
<rect width="100.05" height="100" fill="white"/>
</clipPath>
</defs>
</svg>
