<svg width="100" height="100" viewBox="0 0 100 100" fill="none" xmlns="http://www.w3.org/2000/svg">
<path d="M68.8711 55.8152C68.8711 45.4096 60.4055 36.9437 49.9996 36.9437C39.5938 36.9437 31.1281 45.4096 31.1281 55.8152C31.1281 66.2211 39.5939 74.6869 49.9996 74.6869C60.4053 74.6869 68.8711 66.2211 68.8711 55.8152ZM34.2531 55.8152C34.2531 47.1326 41.317 40.0687 49.9996 40.0687C58.6822 40.0687 65.7461 47.1326 65.7461 55.8152C65.7461 59.5758 64.4193 63.0312 62.2117 65.742C60.7281 62.8779 58.2789 60.6322 55.3584 59.3799C57.0635 57.8861 58.1434 55.6951 58.1434 53.2555C58.1434 48.765 54.4902 45.1119 49.9998 45.1119C45.5094 45.1119 41.8563 48.7652 41.8563 53.2555C41.8563 55.6951 42.9361 57.8859 44.6412 59.3797C41.7205 60.6322 39.2711 62.8779 37.7877 65.7422C35.5799 63.0314 34.2531 59.576 34.2531 55.8152ZM44.9813 53.2555C44.9813 50.4883 47.2326 48.2369 49.9998 48.2369C52.767 48.2369 55.0184 50.4883 55.0184 53.2555C55.0184 56.0227 52.767 58.274 49.9998 58.274C47.2326 58.274 44.9813 56.0227 44.9813 53.2555ZM40.1461 68.085C41.7469 64.1035 45.6648 61.399 50 61.399C54.3346 61.399 58.2523 64.1035 59.8537 68.0846C57.1539 70.2574 53.7271 71.5619 49.9998 71.5619C46.2727 71.5619 42.8459 70.2576 40.1461 68.085ZM97.3254 20.9623C97.3254 17.8578 94.7996 15.3322 91.6953 15.3322H71.5873V7.80449C71.5873 3.60879 68.1738 0.195312 63.9781 0.195312H36.0211C31.8254 0.195312 28.4119 3.60879 28.4119 7.80449V15.332H8.30391C5.19941 15.332 2.67383 17.8576 2.67383 20.9621L2.67402 76.7307C2.67402 78.9912 3.55957 81.1219 5.16758 82.7299C6.77559 84.3381 8.90625 85.2236 11.167 85.2236H11.3932L7.90957 88.7072C6.68496 89.9318 6.01055 91.565 6.01055 93.3063C6.01055 95.0475 6.68496 96.6807 7.90957 97.9053C9.17754 99.1732 10.8432 99.8072 12.5086 99.8072C14.174 99.8072 15.8396 99.1732 17.1076 97.9053L29.7895 85.2234H88.8326C91.0934 85.2234 93.2238 84.3377 94.832 82.7295C96.44 81.1215 97.3256 78.9908 97.3256 76.7305L97.3254 20.9623ZM31.5369 7.80449C31.5369 5.33184 33.5486 3.32031 36.0211 3.32031H63.9781C66.4508 3.32031 68.4623 5.33184 68.4623 7.80449V15.332H65.6207V7.80449C65.6207 6.91406 64.8686 6.16191 63.9783 6.16191H36.0213C35.1309 6.16191 34.3787 6.91406 34.3787 7.80449V15.332H31.5369V7.80449ZM62.4957 15.332H37.5035V9.28691H62.4955V15.332H62.4957ZM5.79883 20.9623C5.79883 19.5811 6.92266 18.4572 8.30391 18.4572H91.6953C93.0766 18.4572 94.2004 19.5811 94.2004 20.9623V41.574C94.1986 46.0172 90.5834 49.6312 86.1398 49.6312H74.1877C73.3893 46.51 72.0002 43.6232 70.1484 41.0953H75.2004C75.6148 41.0953 76.0122 40.9307 76.3052 40.6377C76.5983 40.3446 76.7629 39.9472 76.7629 39.5328V28.5555C76.7629 28.1411 76.5983 27.7436 76.3052 27.4506C76.0122 27.1576 75.6148 26.993 75.2004 26.993H24.7988C24.3844 26.993 23.987 27.1576 23.694 27.4506C23.4009 27.7436 23.2363 28.1411 23.2363 28.5555V39.5328C23.2363 39.9472 23.4009 40.3446 23.694 40.6377C23.987 40.9307 24.3844 41.0953 24.7988 41.0953H29.8508C27.999 43.6232 26.6098 46.51 25.8115 49.6312H13.8596C9.41484 49.6312 5.79883 46.0152 5.79883 41.5705V20.9623ZM30.2264 80.3676L27.9355 82.6584L23.1566 77.8795L25.4475 75.5887L30.2264 80.3676ZM29.176 74.8979L31.507 72.5668C32.0589 73.1753 32.6401 73.7565 33.2486 74.3082L30.9176 76.6391L29.176 74.8979ZM28.1609 55.8152C28.1609 43.7734 37.9578 33.9768 49.9996 33.9768C62.0414 33.9768 71.8383 43.7734 71.8383 55.8152C71.8383 67.857 62.0418 77.6539 49.9998 77.6539C37.9578 77.6539 28.1609 67.857 28.1609 55.8152ZM67.4375 37.9705C62.9344 33.5691 56.7789 30.8516 49.9998 30.8516C43.2207 30.8516 37.065 33.5691 32.5621 37.9703H26.3615V30.118H73.6381V37.9703L67.4375 37.9705ZM11.167 82.0988C9.74102 82.0988 8.39512 81.5383 7.37734 80.5205C6.35957 79.5027 5.79902 78.1568 5.79902 76.7309L5.79922 49.3146C7.83594 51.4338 10.6951 52.7566 13.8594 52.7566H25.2234C25.0986 53.7715 25.036 54.793 25.0357 55.8154C25.0357 61.1281 26.7051 66.0574 29.5451 70.1094L26.966 72.6885L26.8484 72.5709C26.6648 72.3864 26.4465 72.2401 26.2059 72.1406C25.9654 72.041 25.7076 71.9902 25.4473 71.991C25.1869 71.9903 24.9291 72.0411 24.6885 72.1407C24.448 72.2402 24.2296 72.3864 24.0459 72.5709L14.5178 82.099L11.167 82.0988ZM14.8982 95.6959C13.5807 97.0133 11.4371 97.0135 10.1195 95.6959C9.48516 95.0615 9.13574 94.2129 9.13574 93.3064C9.13574 92.4 9.48516 91.5514 10.1195 90.917L20.9473 80.0893L25.7262 84.8682L14.8982 95.6959ZM92.6225 80.5203C91.6047 81.5383 90.2588 82.0988 88.8328 82.0988H32.9146L33.2445 81.769C34.0172 80.9963 34.0174 79.7391 33.2445 78.9664L33.127 78.8488L35.7061 76.2697C39.7578 79.1096 44.6871 80.7787 49.9996 80.7787C63.7646 80.7787 74.9631 69.5801 74.9631 55.815C74.9631 54.7795 74.8986 53.759 74.7754 52.7562H86.1395C89.3039 52.7562 92.1633 51.4332 94.2 49.3139L94.2002 76.7305C94.2008 78.1566 93.6402 79.5023 92.6225 80.5203Z" fill="#E74C3D"/>
</svg>
