<svg width="72" height="90" viewBox="0 0 72 90" fill="none" xmlns="http://www.w3.org/2000/svg">
<path fill-rule="evenodd" clip-rule="evenodd" d="M37.7128 63.8973C37.483 64.063 37.3119 64.2977 37.2244 64.5672C37.1368 64.8367 37.1374 65.1271 37.226 65.3963L37.3184 65.6781L37.076 65.4977C36.8462 65.3328 36.5705 65.2442 36.2877 65.2442C36.0049 65.2442 35.7292 65.3328 35.4994 65.4977L35.2594 65.6781L35.3518 65.3963C35.5322 64.8441 35.336 64.2355 34.865 63.8973L34.6226 63.7169H34.9224C35.2053 63.7174 35.4811 63.6283 35.7101 63.4622C35.9391 63.2961 36.1096 63.0617 36.197 62.7927L36.2882 62.5109L36.3806 62.7927C36.4677 63.0621 36.6382 63.2969 36.8676 63.4631C37.0969 63.6292 37.3732 63.7181 37.6564 63.7169H37.955L37.7128 63.8973ZM42.0922 61.0347L38.6256 61.0459L37.5618 57.7439C37.1652 56.5175 35.4132 56.5165 35.016 57.7439L33.9498 61.0459L30.482 61.0347C29.1916 61.0347 28.65 62.7035 29.6964 63.4577L32.506 65.4863L31.4286 68.7883C31.0288 70.0133 32.4486 71.0423 33.4888 70.2873L36.2882 68.2361L39.0888 70.2873C40.1088 71.0267 41.5558 70.0339 41.149 68.7883L40.0704 65.4863L42.8788 63.4577C43.9284 62.7023 43.3858 61.0347 42.0922 61.0347ZM60.1556 63.8973C59.6846 64.2353 59.4884 64.8439 59.6688 65.3963L59.7612 65.6781L59.5212 65.4977C59.2914 65.3328 59.0157 65.2442 58.7329 65.2442C58.4501 65.2442 58.1744 65.3328 57.9446 65.4977L57.7022 65.6781L57.7946 65.3963C57.975 64.8441 57.7788 64.2355 57.3078 63.8973L57.0656 63.7169H57.3664C57.6492 63.7175 57.9249 63.6284 58.1538 63.4623C58.3827 63.2962 58.5529 63.0617 58.64 62.7927L58.7324 62.5109L58.8238 62.7927C58.9109 63.0619 59.0812 63.2966 59.3103 63.4627C59.5394 63.6288 59.8154 63.7178 60.0984 63.7169H60.3982L60.1556 63.8973ZM64.5386 61.0347L61.0686 61.0459L60.0036 57.7439C59.607 56.5145 57.8548 56.5189 57.4588 57.7439L56.395 61.0459L52.925 61.0347C51.6332 61.0347 51.0948 62.7039 52.1394 63.4577L54.9478 65.4863L53.8716 68.7883C53.4722 70.0127 54.8914 71.0423 55.9306 70.2873L58.7322 68.2361L61.5328 70.2873C62.553 71.0269 63.9982 70.0333 63.5918 68.7883L62.5144 65.4863L65.324 63.4577C66.3684 62.7043 65.8294 61.0347 64.5386 61.0347ZM14.6918 63.8973C14.4622 64.0632 14.2912 64.2978 14.2037 64.5673C14.1162 64.8368 14.1167 65.1271 14.205 65.3963L14.2986 65.6781L14.0564 65.4977C13.8266 65.3328 13.5509 65.2442 13.2681 65.2442C12.9853 65.2442 12.7096 65.3328 12.4798 65.4977L12.2386 65.6781L12.331 65.3963C12.5114 64.8441 12.3152 64.2355 11.8442 63.8973L11.6018 63.7169H11.9016C12.4898 63.7169 12.9982 63.3449 13.1762 62.7927L13.2676 62.5109L13.36 62.7927C13.4472 63.0621 13.6178 63.2968 13.8471 63.4629C14.0765 63.629 14.3526 63.7179 14.6358 63.7169H14.9356L14.6918 63.8973ZM19.0758 61.0347L15.6058 61.0459L14.5408 57.7439C14.1454 56.5181 12.3922 56.5161 11.996 57.7439L10.9298 61.0459L7.46101 61.0347C6.17021 61.0347 5.62881 62.7035 6.67661 63.4577L9.48501 65.4863L8.40761 68.7883C8.00801 70.0123 9.42861 71.0425 10.4678 70.2873L13.2672 68.2361L16.0688 70.2873C17.0888 71.0267 18.534 70.0335 18.129 68.7883L17.0516 65.4863L19.86 63.4577C20.9044 62.7041 20.3664 61.0347 19.0758 61.0347ZM58.7322 74.7389C64.5746 74.7389 69.3282 69.9829 69.3282 64.1453C69.3282 58.2961 64.5746 53.5517 58.7322 53.5517C54.4384 53.5517 50.556 56.1663 48.932 60.1107C49.3378 61.3841 49.5598 62.7365 49.5598 64.1453C49.5598 65.5541 49.3378 66.9063 48.932 68.1799C50.556 72.1243 54.4384 74.7389 58.7322 74.7389ZM62.3792 84.5663L59.6778 81.8615C59.164 81.3507 58.2986 81.3517 57.7856 81.8615L55.0842 84.5663V76.9027C57.5048 77.6037 59.966 77.5835 62.3792 76.9027V84.5663ZM36.2882 74.7389C42.1316 74.7389 46.8842 69.9829 46.8842 64.1453C46.8842 58.2961 42.1316 53.5517 36.2882 53.5517C30.446 53.5517 25.6922 58.2963 25.6922 64.1453C25.6924 69.9831 30.446 74.7389 36.2882 74.7389ZM39.9364 84.5663L37.235 81.8615C36.7214 81.3511 35.8564 81.3511 35.3428 81.8615L32.6414 84.5663V76.9027C35.092 77.5939 37.4854 77.5927 39.9364 76.9027V84.5663ZM13.2674 74.7389C17.9162 74.7389 22.0308 71.6847 23.3934 67.2783C23.1431 66.2527 23.0168 65.2009 23.017 64.1453C23.017 63.0633 23.1488 62.0153 23.3934 61.0123C22.0342 56.6171 17.8824 53.5517 13.2674 53.5517C7.42501 53.5517 2.67141 58.2963 2.67141 64.1453C2.67141 69.9831 7.42501 74.7389 13.2674 74.7389ZM16.9164 84.5663L14.2138 81.8615C13.701 81.3521 12.8378 81.3497 12.3228 81.8615L9.62021 84.5663V76.9027C12.0344 77.5831 14.4964 77.6041 16.9164 76.9027V84.5663ZM3.51881 49.5281C3.51881 43.2847 8.59141 38.2131 14.8282 38.2131C18.368 38.2131 21.669 39.8697 23.8126 42.6761C22.671 44.7047 22.0162 47.0375 22.0162 49.5281V54.1601C16.5606 49.3833 8.38881 49.8815 3.51881 55.1519V49.5281ZM14.8282 23.7539C18.075 23.7539 20.7178 26.4023 20.7178 29.6481C20.7178 32.8939 18.075 35.5423 14.8282 35.5423C11.5802 35.5423 8.93961 32.8939 8.93961 29.6481C8.93961 26.4023 11.5802 23.7539 14.8282 23.7539ZM35.9986 38.2131C42.2354 38.2131 47.309 43.2845 47.309 49.5281V56.7633C44.9242 53.2133 40.874 50.8691 36.2882 50.8691C31.3712 50.8691 27.0716 53.5627 24.7806 57.5521C24.7502 57.4957 24.722 57.4395 24.6916 57.3943V49.5279C24.6916 43.2847 29.7652 38.2131 35.9986 38.2131ZM35.9986 23.7539C39.2466 23.7539 41.8894 26.4023 41.8894 29.6481C41.8894 32.8939 39.2466 35.5423 35.9986 35.5423C32.7518 35.5423 30.1112 32.8939 30.1112 29.6481C30.1112 26.4023 32.7518 23.7539 35.9986 23.7539ZM58.3436 3.53566L54.3766 7.50266C53.8536 8.03246 53.8536 8.87766 54.3766 9.39606L58.3436 13.3631H37.3364V3.53566H58.3436ZM57.1726 38.2131C63.4082 38.2131 68.4796 43.2845 68.4796 49.5281V55.1517C63.592 49.8597 55.442 49.4045 49.9834 54.1713V49.5281C49.9834 47.0375 49.3286 44.7047 48.188 42.6761C50.3318 39.8699 53.6304 38.2131 57.1726 38.2131ZM57.1702 23.7539C60.417 23.7539 63.061 26.4023 63.061 29.6481C63.061 32.8939 60.417 35.5423 57.1702 35.5423C53.9234 35.5423 51.2816 32.8939 51.2816 29.6481C51.2818 26.4023 53.9234 23.7539 57.1702 23.7539ZM72.0038 64.1453C72.0038 62.4999 71.703 60.9333 71.1552 59.4795V49.5281C71.1552 43.6115 67.4744 38.5625 62.2892 36.5113C64.3798 34.9447 65.7356 32.4541 65.7356 29.6479C65.7356 24.9259 61.8948 21.0827 57.1704 21.0827C52.4484 21.0827 48.6076 24.9257 48.6076 29.6479C48.6076 32.4541 49.9622 34.9447 52.0528 36.5113C49.9622 37.3341 48.0846 38.6639 46.588 40.3995C45.1035 38.6826 43.227 37.3489 41.1176 36.5113C43.207 34.9447 44.564 32.4541 44.564 29.6479C44.564 25.3767 41.4276 21.8379 37.3366 21.1843V16.0339H61.5736C62.7756 16.0339 63.3512 14.5895 62.5192 13.7573L57.2134 8.44906L62.5192 3.14086C63.3614 2.29866 62.7568 0.864258 61.5736 0.864258H35.9986C35.2604 0.864258 34.662 1.46166 34.662 2.19406V21.1839C30.5722 21.8375 27.4358 25.3763 27.4358 29.6475C27.4358 32.4537 28.7916 34.9443 30.8832 36.5109C28.7732 37.3481 26.8963 38.6819 25.4116 40.3991C23.915 38.6635 22.0374 37.3337 19.948 36.5109C22.0374 34.9443 23.3932 32.4537 23.3932 29.6475C23.3932 24.9255 19.5502 21.0823 14.828 21.0823C10.1048 21.0823 6.26401 24.9253 6.26401 29.6475C6.26401 32.4537 7.61981 34.9443 9.71141 36.5109C4.52501 38.5621 0.843008 43.6109 0.843008 49.5277V59.4791C0.281954 60.9706 -0.00512117 62.5513 -0.00439315 64.1449C-0.00439315 69.1713 2.80961 73.5553 6.94581 75.8093V87.8005C6.94581 88.9837 8.39441 89.5815 9.22801 88.7471L13.2672 84.7011L17.3086 88.7471C18.1354 89.5633 19.5908 88.9915 19.5908 87.8005V75.8093C21.7378 74.6373 23.5488 72.8903 24.7828 70.7491C26.009 72.8679 27.8054 74.6373 29.9658 75.8093V87.8005C29.9658 88.9935 31.4204 89.5619 32.249 88.7471L36.2882 84.7011L40.3284 88.7471C41.1616 89.5821 42.6116 88.9811 42.6116 87.8005V75.8093C44.6086 74.7273 46.2934 73.1383 47.5062 71.2225C48.7265 73.1411 50.4131 74.7192 52.4086 75.8093V87.8005C52.4086 88.9811 53.8586 89.5823 54.6918 88.7471L58.732 84.7011L62.7712 88.7471C63.5994 89.5629 65.0544 88.9923 65.0544 87.8005V75.8093C69.1896 73.5557 72.0038 69.1717 72.0038 64.1453Z" fill="#E74C3D"/>
</svg>
