<svg width="100" height="100" viewBox="0 0 100 100" fill="none" xmlns="http://www.w3.org/2000/svg">
<path d="M74.7721 41.7994C65.667 32.6953 50.9059 32.6958 41.8015 41.8006C32.697 50.9053 32.697 65.6666 41.8015 74.7712C50.9059 83.8758 65.6672 83.8765 74.7721 74.7724C76.9574 72.6188 78.6927 70.0522 79.8772 67.2219C81.0616 64.3916 81.6716 61.3541 81.6716 58.2859C81.6716 55.2178 81.0616 52.1802 79.8772 49.3499C78.6927 46.5196 76.9574 43.953 74.7721 41.7994ZM72.4156 72.4159C66.7004 78.1315 58.1051 79.8414 50.6375 76.7484C43.17 73.6554 38.301 66.3685 38.301 58.2858C38.301 50.2031 43.17 42.9163 50.6375 39.8233C58.1049 36.7303 66.7004 38.4402 72.4156 44.1557C74.2877 46.002 75.7743 48.2019 76.7889 50.6276C77.8036 53.0533 78.3261 55.6565 78.3261 58.2858C78.3261 60.9152 77.8036 63.5183 76.7889 65.944C75.7743 68.3697 74.2877 70.5696 72.4156 72.4159Z" fill="#E74C3D"/>
<path fill-rule="evenodd" clip-rule="evenodd" d="M58.2854 41.6329C56.0975 41.6268 53.9301 42.055 51.9088 42.8926C49.8875 43.7301 48.0526 44.9605 46.5102 46.5123C46.2974 46.7176 46.1432 46.9758 46.0634 47.2604C45.9835 47.5451 45.9809 47.8458 46.0557 48.1318C46.1306 48.4178 46.2802 48.6787 46.4893 48.8877C46.6984 49.0967 46.9593 49.2463 47.2453 49.3211C47.5313 49.3959 47.832 49.3933 48.1166 49.3135C48.4013 49.2337 48.6595 49.0796 48.8648 48.8669C50.0987 47.6254 51.5668 46.6411 53.1839 45.971C54.801 45.301 56.535 44.9585 58.2854 44.9634C59.2052 44.9634 59.9507 44.2179 59.9507 43.2982C59.9507 42.3784 59.2052 41.6329 58.2854 41.6329Z" fill="#E74C3D"/>
<path d="M89.5215 80.1009C89.1057 79.7023 88.5949 79.4167 88.0377 79.2709C87.4805 79.1252 86.8952 79.1243 86.3375 79.2682L82.6956 75.6263C85.2954 71.9707 87.0412 67.7779 87.8041 63.3574C88.567 58.9369 88.3277 54.4016 87.1036 50.0859C85.8796 45.7703 83.7022 41.7847 80.732 38.423C77.7618 35.0613 74.0747 32.4095 69.9428 30.6631V4.99585C69.9426 2.2367 67.7059 0 64.9467 0H4.99585C2.2367 0 0 2.2367 0 4.99585V78.269C0 81.0282 2.2367 83.2649 4.99585 83.2649H41.7024C52.0371 90.1269 65.5338 89.9023 75.6345 82.7003L79.2499 86.3157C79.171 86.5937 79.1296 86.881 79.1266 87.17C79.1251 87.6071 79.2106 88.0401 79.3782 88.4438C79.5457 88.8475 79.792 89.2138 80.1026 89.5213L88.5473 97.966C89.3687 98.8165 90.4016 99.4329 91.5401 99.7521C92.6785 100.071 93.8814 100.082 95.0252 99.7824C96.169 99.483 97.2125 98.8846 98.0486 98.0486C98.8846 97.2126 99.4831 96.1691 99.7826 95.0253C100.082 93.8815 100.072 92.6785 99.7523 91.5401C99.4331 90.4016 98.8165 89.3686 97.966 88.5473L89.5215 80.1009ZM4.99585 79.9343C4.07608 79.9343 3.33057 79.1888 3.33057 78.269V4.99585C3.33057 4.07608 4.07608 3.33057 4.99585 3.33057H64.9466C65.8663 3.33057 66.6119 4.07608 66.6119 4.99585V29.494C53.4752 25.6983 39.4347 31.2739 32.481 43.048C25.5274 54.8221 27.423 69.8096 37.0894 79.4813C37.256 79.6479 37.4224 79.7777 37.589 79.9343H4.99585ZM39.4442 77.125C30.4564 68.136 29.07 54.0501 36.1326 43.4813C43.1953 32.9125 56.7401 28.8044 68.4837 33.6694C80.2273 38.5343 86.8991 51.0174 84.4187 63.4845C81.9384 75.9517 70.9968 84.9306 58.2854 84.9303C51.2191 84.927 44.4428 82.1198 39.4442 77.125ZM79.4813 79.4813C79.8793 79.0833 80.229 78.6487 80.6003 78.2424L83.6362 81.2782L81.2782 83.6347L78.2457 80.6005C78.6587 80.2308 79.085 79.8778 79.4813 79.4813ZM95.6116 95.6116C94.294 96.8702 92.2197 96.8702 90.9021 95.6116L82.4574 87.1669L87.1669 82.4574L95.6116 90.9021C96.9117 92.2027 96.9117 94.3109 95.6116 95.6116Z" fill="#E74C3D"/>
<path d="M21.6489 36.6366C29.9263 36.6366 36.6366 29.9263 36.6366 21.6489C36.6366 13.3714 29.9263 6.66113 21.6489 6.66113C13.3714 6.66113 6.66113 13.3714 6.66113 21.6489C6.6703 29.9226 13.3752 36.6274 21.6489 36.6366ZM13.8969 30.3301C14.8337 29.178 16.0156 28.2492 17.3566 27.6113C18.6976 26.9733 20.1639 26.6423 21.6489 26.6423C23.1338 26.6423 24.6001 26.9733 25.9411 27.6113C27.2821 28.2492 28.464 29.178 29.4009 30.3301C24.9946 34.2983 18.3031 34.2983 13.8969 30.3301ZM18.3183 19.9836C18.3183 18.1442 19.8095 16.653 21.6489 16.653C23.4882 16.653 24.9794 18.1442 24.9794 19.9836C24.9794 21.8229 23.4882 23.3141 21.6489 23.3141C19.8095 23.3141 18.3183 21.8229 18.3183 19.9836ZM21.6489 9.99187C23.7246 9.98783 25.7635 10.5392 27.5543 11.5888C29.3451 12.6384 30.8225 14.1479 31.8332 15.9609C32.844 17.7739 33.3512 19.8243 33.3025 21.8995C33.2537 23.9746 32.6506 25.9989 31.5558 27.7624C30.2203 26.2477 28.5542 25.0608 26.6864 24.2936C29.0119 21.6055 28.8174 17.5653 26.2444 15.1132C23.6713 12.6611 19.6264 12.6611 17.0533 15.1132C14.4803 17.5653 14.2859 21.6055 16.6114 24.2936C14.7435 25.0608 13.0774 26.2477 11.7419 27.7624C9.51224 24.1711 9.40579 19.653 11.4642 15.9608C13.5227 12.2686 17.4217 9.98337 21.6489 9.99187ZM44.963 16.653H58.2854C61.0446 16.653 63.2813 14.4163 63.2813 11.6572C63.2813 8.898 61.0446 6.6613 58.2854 6.6613H44.963C42.2039 6.6613 39.9671 8.898 39.9671 11.6572C39.9671 14.4163 42.2039 16.653 44.963 16.653ZM44.963 9.99187H58.2854C59.2052 9.99187 59.9507 10.7374 59.9507 11.6572C59.9507 12.5769 59.2052 13.3224 58.2854 13.3224H44.963C44.0432 13.3224 43.2977 12.5769 43.2977 11.6572C43.2977 10.7374 44.0434 9.99187 44.963 9.99187Z" fill="#E74C3D"/>
<path fill-rule="evenodd" clip-rule="evenodd" d="M59.9507 19.9834H43.2977C42.3779 19.9834 41.6324 20.7289 41.6324 21.6487C41.6324 22.5685 42.3779 23.314 43.2977 23.314H59.9507C60.8705 23.314 61.616 22.5685 61.616 21.6487C61.616 20.7291 60.8705 19.9834 59.9507 19.9834ZM29.9754 41.6323C29.9754 40.7125 29.2299 39.967 28.3102 39.967H8.32642C7.40665 39.967 6.66113 40.7125 6.66113 41.6323C6.66113 42.552 7.40665 43.2975 8.32642 43.2975H28.31C29.2298 43.2975 29.9754 42.552 29.9754 41.6323ZM8.32642 49.9588H16.6528C17.5726 49.9588 18.3181 49.2133 18.3181 48.2936C18.3181 47.3738 17.5726 46.6283 16.6528 46.6283H8.32642C7.40665 46.6283 6.66113 47.3738 6.66113 48.2936C6.66113 49.2133 7.40681 49.9588 8.32642 49.9588ZM8.32642 59.9505H21.6489C22.5686 59.9505 23.3141 59.205 23.3141 58.2853C23.3141 57.3655 22.5686 56.62 21.6489 56.62H8.32642C7.40665 56.62 6.66113 57.3655 6.66113 58.2853C6.66113 59.205 7.40681 59.9505 8.32642 59.9505ZM9.99187 63.2811H8.32642C7.40665 63.2811 6.66113 64.0266 6.66113 64.9464C6.66113 65.8662 7.40665 66.6117 8.32642 66.6117H9.9917C10.9115 66.6117 11.657 65.8662 11.657 64.9464C11.657 64.0266 10.9115 63.2811 9.99187 63.2811ZM23.3141 63.2811H16.653C15.7332 63.2811 14.9877 64.0266 14.9877 64.9464C14.9877 65.8662 15.7332 66.6117 16.653 66.6117H23.3141C24.2339 66.6117 24.9794 65.8662 24.9794 64.9464C24.9794 64.0266 24.2339 63.2811 23.3141 63.2811Z" fill="#E74C3D"/>
</svg>
