<svg width="100" height="100" viewBox="0 0 100 100" fill="none" xmlns="http://www.w3.org/2000/svg">
<g clip-path="url(#clip0_85_283)">
<mask id="mask0_85_283" style="mask-type:luminance" maskUnits="userSpaceOnUse" x="0" y="0" width="100" height="100">
<path d="M0 0.000297546H99.9997V100H0V0.000297546Z" fill="white"/>
</mask>
<g mask="url(#mask0_85_283)">
<path d="M96.0935 96.0938H3.90624V92.1875H96.0935V96.0938ZM16.1117 68.1698H36.7563C37.835 68.1698 38.7095 67.2954 38.7095 66.2167C38.7095 65.1382 37.835 64.2636 36.7563 64.2636H15.2437L14.4615 60.7445C14.4505 60.698 14.4504 60.6496 14.4612 60.6031C14.4721 60.5566 14.4935 60.5133 14.524 60.4765C14.5675 60.422 14.6459 60.3573 14.772 60.3573H52.5592C52.7094 60.3573 52.837 60.4599 52.8696 60.6064L59.0196 88.2813H20.5808L16.1117 68.1698ZM75.3029 62.0202C86.7669 62.0202 96.0935 71.347 96.0935 82.8108V88.2813H63.0209L58.952 69.971C62.8813 64.979 68.9344 62.0202 75.3029 62.0202ZM65.3955 48.3693V44.8826H75.3029C78.8595 44.8826 82.3462 43.7285 85.2101 41.6615V48.3693C85.2101 51.8505 83.3285 55.0786 80.2974 56.795C77.2207 58.5415 73.3969 58.5441 70.3182 56.8005L70.2992 56.79C67.2742 55.0734 65.3955 51.8476 65.3955 48.3693ZM75.2918 30.6047C79.5451 30.6047 83.1796 33.3061 84.5744 37.0844C84.5677 37.091 84.5605 37.0965 84.554 37.1031C82.1296 39.5644 78.7578 40.9763 75.3029 40.9763H65.3955V40.584C65.3965 40.558 65.3994 40.5326 65.3994 40.5066C65.3994 35.0467 69.8371 30.6047 75.2918 30.6047ZM83.3675 59.4675C86.9437 56.9396 89.1163 52.8005 89.1163 48.3693V39.715C89.1163 39.5096 89.0837 39.3055 89.0199 39.1103C88.3181 32.1498 82.4292 26.6985 75.2918 26.6985C67.7353 26.6985 61.5811 32.809 61.4971 40.3512C61.4932 40.4025 61.4893 40.4541 61.4893 40.5066V48.3693C61.4893 52.8048 63.6666 56.9478 67.249 59.4749C63.7413 60.6898 60.5504 62.6751 57.9106 65.2849L56.6826 59.7591C56.25 57.8115 54.5543 56.4511 52.5592 56.4511H14.772C14.1392 56.4496 13.5142 56.5911 12.9437 56.8648C12.3731 57.1386 11.8717 57.5376 11.4769 58.0322C11.0798 58.5249 10.799 59.1008 10.6556 59.7172C10.5121 60.3335 10.5097 60.9743 10.6484 61.5917L16.5794 88.2813H1.95312C0.874412 88.2813 0 89.1559 0 90.2344V98.0469C0 99.1254 0.874412 100 1.95312 100H98.0466C99.1253 100 99.9997 99.1254 99.9997 98.0469V82.8108C99.9997 72.0159 93.0372 62.8177 83.3675 59.4675Z" fill="#E74C3D"/>
<path d="M44.5682 64.2637C44.0546 64.2637 43.5507 64.4725 43.1874 64.8359C42.8224 65.203 42.6168 65.6992 42.6151 66.2168C42.6151 66.7305 42.8241 67.2344 43.1874 67.5975C43.5544 67.9625 44.0506 68.1682 44.5682 68.1699C45.0819 68.1699 45.5858 67.9609 45.951 67.5975C46.3155 67.2303 46.5204 66.7341 46.5214 66.2168C46.5214 65.7029 46.3143 65.199 45.951 64.8359C45.5832 64.4709 45.0865 64.2653 44.5682 64.2637Z" fill="#E74C3D"/>
<path d="M24.9999 50C31.6776 50 37.9557 47.3996 42.6776 42.6778C50.1178 35.2375 52.103 23.8473 47.6174 14.3347C47.1575 13.3587 45.9934 12.9411 45.018 13.4009C44.0422 13.861 43.6243 15.0249 44.0842 16.0005C47.8688 24.0268 46.1934 33.6375 39.9153 39.9155C35.9313 43.8996 30.6343 46.0938 24.9999 46.0938C19.3656 46.0938 14.0685 43.8996 10.0845 39.9155C1.85994 31.6911 1.85994 18.3091 10.0845 10.0847C16.3212 3.8476 25.8851 2.15014 33.8823 5.86087C34.8604 6.31458 36.022 5.88958 36.4761 4.91126C36.93 3.93275 36.5048 2.77123 35.5264 2.31733C26.0482 -2.07993 14.7136 -0.0689964 7.32223 7.32239C-2.4252 17.0698 -2.4252 32.9303 7.32223 42.6778C12.0443 47.3996 18.3222 50 24.9999 50Z" fill="#E74C3D"/>
<path d="M39.9532 26.9717H41.3717C42.4504 26.9717 43.3249 26.0971 43.3249 25.0186C43.3249 23.94 42.4504 23.0654 41.3717 23.0654H39.9532C38.8745 23.0654 38.0001 23.94 38.0001 25.0186C38.0001 26.0971 38.8745 26.9717 39.9532 26.9717Z" fill="#E74C3D"/>
<path d="M8.62792 23.0283C7.54922 23.0283 6.6748 23.9029 6.6748 24.9815C6.6748 26.06 7.54922 26.9346 8.62792 26.9346H10.0465C11.1252 26.9346 11.9996 26.06 11.9996 24.9815C11.9996 23.9029 11.1252 23.0283 10.0465 23.0283H8.62792Z" fill="#E74C3D"/>
<path d="M23.0281 39.9533V41.3721C23.0281 42.4506 23.9025 43.3252 24.9812 43.3252C26.0599 43.3252 26.9343 42.4506 26.9343 41.3721V39.9533C26.9343 38.8748 26.0599 38.0002 24.9812 38.0002C23.9025 38.0002 23.0281 38.8748 23.0281 39.9533Z" fill="#E74C3D"/>
<path d="M29.6872 31.4453C29.9508 31.4457 30.2117 31.3925 30.4541 31.2891C30.6965 31.1856 30.9154 31.0341 31.0976 30.8436C31.8439 30.0648 31.8177 28.8285 31.0388 28.082L26.9542 24.1676L26.9718 10.1137C26.9732 9.03503 26.0999 8.15944 25.0212 8.15827H25.0187C23.9411 8.15827 23.0669 9.03093 23.0656 10.1089L23.0468 24.9975C23.0465 25.2614 23.0997 25.5227 23.2031 25.7655C23.3066 26.0083 23.4582 26.2276 23.6488 26.4102L28.3363 30.9023C28.6994 31.2513 29.1836 31.4459 29.6872 31.4453Z" fill="#E74C3D"/>
<path d="M41.2967 10.6562C41.8104 10.6562 42.3143 10.4475 42.6776 10.084C43.0409 9.72071 43.2499 9.2168 43.2499 8.70313C43.2499 8.18946 43.0409 7.68556 42.6776 7.32247C42.3106 6.95739 41.8144 6.75171 41.2967 6.75001C40.7831 6.75001 40.2792 6.959 39.9159 7.32247C39.5509 7.68949 39.3453 8.18555 39.3436 8.70313C39.3436 9.2168 39.5526 9.72071 39.9159 10.084C40.2829 10.449 40.7791 10.6546 41.2967 10.6562Z" fill="#E74C3D"/>
</g>
</g>
<defs>
<clipPath id="clip0_85_283">
<rect width="100" height="100" fill="white"/>
</clipPath>
</defs>
</svg>
