<svg width="100" height="100" viewBox="0 0 100 100" fill="none" xmlns="http://www.w3.org/2000/svg">
<g clip-path="url(#clip0_118_3162)">
<path d="M21.667 50C20.6781 50 19.7114 50.2932 18.8891 50.8426C18.0669 51.392 17.426 52.1729 17.0476 53.0865C16.6692 54.0002 16.5701 55.0055 16.7631 55.9754C16.956 56.9453 17.4322 57.8362 18.1315 58.5355C18.8307 59.2348 19.7216 59.711 20.6915 59.9039C21.6614 60.0968 22.6668 59.9978 23.5804 59.6194C24.494 59.2409 25.2749 58.6001 25.8243 57.7778C26.3737 56.9556 26.667 55.9889 26.667 55C26.667 53.6739 26.1402 52.4021 25.2025 51.4644C24.2648 50.5267 22.9931 50 21.667 50ZM21.667 56.6666C21.3374 56.6666 21.0151 56.5689 20.741 56.3857C20.467 56.2026 20.2533 55.9423 20.1272 55.6378C20.001 55.3332 19.968 54.9981 20.0324 54.6748C20.0967 54.3515 20.2554 54.0545 20.4885 53.8214C20.7216 53.5884 21.0185 53.4296 21.3418 53.3653C21.6651 53.301 22.0003 53.334 22.3048 53.4602C22.6093 53.5863 22.8696 53.7999 23.0528 54.074C23.2359 54.3481 23.3337 54.6703 23.3337 55C23.3337 55.442 23.1581 55.8659 22.8455 56.1785C22.5329 56.491 22.109 56.6666 21.667 56.6666ZM43.3337 41.6666C40.6966 41.6666 38.1187 42.4486 35.9261 43.9137C33.7334 45.3788 32.0244 47.4612 31.0153 49.8975C30.0061 52.3339 29.7421 55.0148 30.2565 57.6012C30.771 60.1876 32.0409 62.5633 33.9056 64.428C35.7703 66.2927 38.146 67.5626 40.7325 68.0771C43.3189 68.5916 45.9998 68.3275 48.4361 67.3184C50.8725 66.3092 52.9548 64.6002 54.4199 62.4076C55.885 60.2149 56.667 57.637 56.667 55C56.663 51.465 55.257 48.0759 52.7574 45.5763C50.2577 43.0766 46.8687 41.6706 43.3337 41.6666ZM43.3337 65C41.3559 65 39.4225 64.4135 37.778 63.3147C36.1335 62.2158 34.8517 60.6541 34.0949 58.8268C33.338 56.9995 33.14 54.9889 33.5258 53.0491C33.9117 51.1092 34.8641 49.3274 36.2626 47.9289C37.6611 46.5304 39.4429 45.578 41.3828 45.1921C43.3226 44.8063 45.3332 45.0043 47.1605 45.7612C48.9878 46.518 50.5495 47.7998 51.6484 49.4443C52.7472 51.0887 53.3337 53.0221 53.3337 55C53.331 57.6513 52.2766 60.1933 50.4018 62.0681C48.527 63.9429 45.985 64.9973 43.3337 65Z" fill="#E74C3D"/>
<path d="M86.6667 55.6167V15C86.664 12.7907 85.7852 10.6726 84.223 9.11037C82.6607 7.54814 80.5427 6.66931 78.3333 6.66667V5C78.3333 3.67392 77.8065 2.40215 76.8689 1.46447C75.9312 0.526784 74.6594 0 73.3333 0C72.0072 0 70.7355 0.526784 69.7978 1.46447C68.8601 2.40215 68.3333 3.67392 68.3333 5V6.66667H63.3333V5C63.3333 3.67392 62.8065 2.40215 61.8689 1.46447C60.9312 0.526784 59.6594 0 58.3333 0C57.0072 0 55.7355 0.526784 54.7978 1.46447C53.8601 2.40215 53.3333 3.67392 53.3333 5V6.66667H48.3333V5C48.3333 3.67392 47.8065 2.40215 46.8689 1.46447C45.9312 0.526784 44.6594 0 43.3333 0C42.0073 0 40.7355 0.526784 39.7978 1.46447C38.8601 2.40215 38.3333 3.67392 38.3333 5V6.66667H33.3333V5C33.3333 3.67392 32.8065 2.40215 31.8689 1.46447C30.9312 0.526784 29.6594 0 28.3333 0C27.0072 0 25.7355 0.526784 24.7978 1.46447C23.8601 2.40215 23.3333 3.67392 23.3333 5V6.66667H18.3333V5C18.3333 3.67392 17.8065 2.40215 16.8689 1.46447C15.9312 0.526784 14.6594 0 13.3333 0C12.0073 0 10.7355 0.526784 9.7978 1.46447C8.86012 2.40215 8.33333 3.67392 8.33333 5V6.66667C6.12401 6.66931 4.00593 7.54814 2.4437 9.11037C0.88147 10.6726 0.00264643 12.7907 0 15L0 85C0.00264643 87.2093 0.88147 89.3274 2.4437 90.8896C4.00593 92.4519 6.12401 93.3307 8.33333 93.3333H60.3683C62.7882 95.7045 65.6959 97.5196 68.8888 98.6524C72.0817 99.7852 75.4832 100.208 78.8564 99.8927C82.2296 99.5769 85.4934 98.5296 88.4206 96.8239C91.3478 95.1181 93.868 92.7948 95.8057 90.0157C97.7435 87.2366 99.0522 84.0686 99.6407 80.7322C100.229 77.3957 100.083 73.9711 99.2136 70.6968C98.3436 67.4224 96.7705 64.3771 94.6036 61.7727C92.4367 59.1683 89.7282 57.0675 86.6667 55.6167ZM71.6667 5C71.6667 4.55797 71.8423 4.13405 72.1548 3.82149C72.4674 3.50893 72.8913 3.33333 73.3333 3.33333C73.7754 3.33333 74.1993 3.50893 74.5118 3.82149C74.8244 4.13405 75 4.55797 75 5V11.6667C75 12.1087 74.8244 12.5326 74.5118 12.8452C74.1993 13.1577 73.7754 13.3333 73.3333 13.3333C72.8913 13.3333 72.4674 13.1577 72.1548 12.8452C71.8423 12.5326 71.6667 12.1087 71.6667 11.6667V5ZM56.6667 5C56.6667 4.55797 56.8423 4.13405 57.1548 3.82149C57.4674 3.50893 57.8913 3.33333 58.3333 3.33333C58.7754 3.33333 59.1993 3.50893 59.5118 3.82149C59.8244 4.13405 60 4.55797 60 5V11.6667C60 12.1087 59.8244 12.5326 59.5118 12.8452C59.1993 13.1577 58.7754 13.3333 58.3333 13.3333C57.8913 13.3333 57.4674 13.1577 57.1548 12.8452C56.8423 12.5326 56.6667 12.1087 56.6667 11.6667V5ZM41.6667 5C41.6667 4.55797 41.8423 4.13405 42.1548 3.82149C42.4674 3.50893 42.8913 3.33333 43.3333 3.33333C43.7754 3.33333 44.1993 3.50893 44.5118 3.82149C44.8244 4.13405 45 4.55797 45 5V11.6667C45 12.1087 44.8244 12.5326 44.5118 12.8452C44.1993 13.1577 43.7754 13.3333 43.3333 13.3333C42.8913 13.3333 42.4674 13.1577 42.1548 12.8452C41.8423 12.5326 41.6667 12.1087 41.6667 11.6667V5ZM26.6667 5C26.6667 4.55797 26.8423 4.13405 27.1548 3.82149C27.4674 3.50893 27.8913 3.33333 28.3333 3.33333C28.7754 3.33333 29.1993 3.50893 29.5118 3.82149C29.8244 4.13405 30 4.55797 30 5V11.6667C30 12.1087 29.8244 12.5326 29.5118 12.8452C29.1993 13.1577 28.7754 13.3333 28.3333 13.3333C27.8913 13.3333 27.4674 13.1577 27.1548 12.8452C26.8423 12.5326 26.6667 12.1087 26.6667 11.6667V5ZM11.6667 5C11.6667 4.55797 11.8423 4.13405 12.1548 3.82149C12.4674 3.50893 12.8913 3.33333 13.3333 3.33333C13.7754 3.33333 14.1993 3.50893 14.5118 3.82149C14.8244 4.13405 15 4.55797 15 5V11.6667C15 12.1087 14.8244 12.5326 14.5118 12.8452C14.1993 13.1577 13.7754 13.3333 13.3333 13.3333C12.8913 13.3333 12.4674 13.1577 12.1548 12.8452C11.8423 12.5326 11.6667 12.1087 11.6667 11.6667V5ZM8.33333 10V11.6667C8.33333 12.9928 8.86012 14.2645 9.7978 15.2022C10.7355 16.1399 12.0073 16.6667 13.3333 16.6667C14.6594 16.6667 15.9312 16.1399 16.8689 15.2022C17.8065 14.2645 18.3333 12.9928 18.3333 11.6667V10H23.3333V11.6667C23.3333 12.9928 23.8601 14.2645 24.7978 15.2022C25.7355 16.1399 27.0072 16.6667 28.3333 16.6667C29.6594 16.6667 30.9312 16.1399 31.8689 15.2022C32.8065 14.2645 33.3333 12.9928 33.3333 11.6667V10H38.3333V11.6667C38.3333 12.9928 38.8601 14.2645 39.7978 15.2022C40.7355 16.1399 42.0073 16.6667 43.3333 16.6667C44.6594 16.6667 45.9312 16.1399 46.8689 15.2022C47.8065 14.2645 48.3333 12.9928 48.3333 11.6667V10H53.3333V11.6667C53.3333 12.9928 53.8601 14.2645 54.7978 15.2022C55.7355 16.1399 57.0072 16.6667 58.3333 16.6667C59.6594 16.6667 60.9312 16.1399 61.8689 15.2022C62.8065 14.2645 63.3333 12.9928 63.3333 11.6667V10H68.3333V11.6667C68.3333 12.9928 68.8601 14.2645 69.7978 15.2022C70.7355 16.1399 72.0072 16.6667 73.3333 16.6667C74.6594 16.6667 75.9312 16.1399 76.8689 15.2022C77.8065 14.2645 78.3333 12.9928 78.3333 11.6667V10C79.6594 10 80.9312 10.5268 81.8689 11.4645C82.8065 12.4021 83.3333 13.6739 83.3333 15V20H3.33333V15C3.33333 13.6739 3.86012 12.4021 4.7978 11.4645C5.73548 10.5268 7.00725 10 8.33333 10ZM3.33333 85V23.3333H83.3333V54.3167C81.7048 53.834 80.028 53.5327 78.3333 53.4183V36.6667C78.3333 35.7826 77.9821 34.9348 77.357 34.3096C76.7319 33.6845 75.8841 33.3333 75 33.3333H11.6667C10.7826 33.3333 9.93476 33.6845 9.30964 34.3096C8.68452 34.9348 8.33333 35.7826 8.33333 36.6667V73.3333C8.33333 74.2174 8.68452 75.0652 9.30964 75.6904C9.93476 76.3155 10.7826 76.6667 11.6667 76.6667H53.3333C53.3316 81.4386 54.8024 86.0949 57.545 90H8.33333C7.00725 90 5.73548 89.4732 4.7978 88.5355C3.86012 87.5979 3.33333 86.3261 3.33333 85ZM69.9333 54.3333C69.7667 53.0773 69.1284 51.9318 68.148 51.1293C67.1675 50.3267 65.9184 49.9274 64.6543 50.0122C63.3901 50.097 62.2056 50.6597 61.3412 51.5861C60.4768 52.5124 59.9973 53.733 60 55C60.0013 55.7139 60.1585 56.4188 60.4605 57.0656C60.7624 57.7125 61.202 58.2856 61.7483 58.745C57.3227 62.4337 54.42 67.6307 53.6 73.3333H19.85C19.5008 71.29 18.526 69.4055 17.0603 67.9397C15.5945 66.474 13.71 65.4992 11.6667 65.15V44.85C13.71 44.5008 15.5945 43.5261 17.0603 42.0603C18.526 40.5945 19.5008 38.71 19.85 36.6667H66.8167C67.1659 38.71 68.1406 40.5945 69.6064 42.0603C71.0722 43.5261 72.9567 44.5008 75 44.85V53.4183C73.2823 53.5336 71.5829 53.8405 69.9333 54.3333ZM63.3333 55C63.3333 54.558 63.5089 54.1341 63.8215 53.8215C64.134 53.5089 64.558 53.3333 65 53.3333C65.442 53.3333 65.866 53.5089 66.1785 53.8215C66.4911 54.1341 66.6667 54.558 66.6667 55C66.6638 55.2423 66.6068 55.4809 66.5 55.6983C65.9133 55.985 65.3433 56.2917 64.7867 56.6233C64.3885 56.5756 64.0214 56.3844 63.7539 56.0857C63.4865 55.7869 63.337 55.401 63.3333 55ZM11.6667 68.57C12.8121 68.8695 13.8571 69.4686 14.6942 70.3058C15.5314 71.1429 16.1305 72.1879 16.43 73.3333H11.6667V68.57ZM11.6667 41.43V36.6667H16.43C16.1305 37.8121 15.5314 38.8571 14.6942 39.6942C13.8571 40.5314 12.8121 41.1305 11.6667 41.43ZM75 41.43C73.8539 41.1319 72.8081 40.5333 71.9708 39.6959C71.1334 38.8585 70.5347 37.8128 70.2367 36.6667H75V41.43ZM76.6667 96.6667C72.711 96.6667 68.8442 95.4937 65.5553 93.2961C62.2663 91.0984 59.7028 87.9749 58.1891 84.3203C56.6753 80.6658 56.2793 76.6445 57.051 72.7649C57.8227 68.8852 59.7275 65.3216 62.5245 62.5245C65.3216 59.7275 68.8852 57.8227 72.7649 57.051C76.6445 56.2793 80.6658 56.6753 84.3203 58.1891C87.9749 59.7028 91.0984 62.2663 93.2961 65.5553C95.4937 68.8442 96.6667 72.711 96.6667 76.6667C96.6609 81.9692 94.5519 87.053 90.8025 90.8025C87.053 94.552 81.9692 96.6609 76.6667 96.6667Z" fill="#E74C3D"/>
<path d="M71.4715 88C71.0705 88 70.6695 87.818 70.469 87.636L63.4511 81.0846C62.8496 80.5386 62.8496 79.8107 63.4511 79.2647C64.0527 78.7187 64.8547 78.7187 65.4562 79.2647L71.271 84.5423L88.3144 67.4357C88.9159 66.8897 89.9185 66.8897 90.52 67.2537C91.1215 67.7996 91.1215 68.7095 90.7205 69.2555L72.6746 87.454C72.2736 87.818 71.8726 87.818 71.4715 88Z" fill="#E74C3D"/>
</g>
<defs>
<clipPath id="clip0_118_3162">
<rect width="100" height="100" fill="white"/>
</clipPath>
</defs>
</svg>
