<svg width="60" height="60" viewBox="0 0 60 60" fill="none" xmlns="http://www.w3.org/2000/svg">
<g clip-path="url(#clip0_116_2328)">
<path d="M55.854 4.14871C50.3224 -1.38294 41.3209 -1.38075 35.7881 4.14871L25.7552 14.1816C25.5467 14.383 25.3804 14.6239 25.266 14.8902C25.1516 15.1565 25.0914 15.443 25.0889 15.7328C25.0864 16.0227 25.1416 16.3102 25.2513 16.5784C25.3611 16.8467 25.5232 17.0904 25.7282 17.2954C25.9331 17.5004 26.1769 17.6625 26.4451 17.7722C26.7134 17.882 27.0009 17.9372 27.2907 17.9347C27.5806 17.9322 27.867 17.872 28.1334 17.7576C28.3997 17.6432 28.6406 17.4768 28.8419 17.2684L38.8749 7.23543C39.786 6.32312 40.8688 5.60047 42.0609 5.10925C43.253 4.61802 44.5307 4.36797 45.82 4.37355C48.4537 4.37355 50.9205 5.39082 52.7662 7.23652C54.6119 9.08222 55.6292 11.549 55.6292 14.1827C55.6348 15.4722 55.3847 16.7499 54.8933 17.942C54.4019 19.1342 53.6789 20.217 52.7662 21.1278L39.6476 34.2497C35.8165 38.0786 29.5852 38.0786 25.7541 34.2497C25.5528 34.0412 25.3119 33.8749 25.0455 33.7605C24.7792 33.6461 24.4928 33.5858 24.2029 33.5833C23.9131 33.5808 23.6256 33.636 23.3573 33.7458C23.089 33.8556 22.8453 34.0176 22.6404 34.2226C22.4354 34.4276 22.2733 34.6713 22.1635 34.9396C22.0538 35.2079 21.9985 35.4953 22.0011 35.7852C22.0036 36.075 22.0638 36.3615 22.1782 36.6278C22.2926 36.8941 22.4589 37.135 22.6674 37.3364C25.4332 40.1022 29.0668 41.4851 32.7003 41.4851C36.3339 41.4851 39.9674 40.1022 42.7333 37.3364L55.854 24.2157C58.5249 21.5459 59.9962 17.9822 59.9962 14.1827C59.9962 10.3822 58.5249 6.81957 55.854 4.14871Z" fill="white"/>
<path d="M29.6138 44.2815L21.1242 52.7711C20.2132 53.6838 19.1302 54.4069 17.9379 54.8983C16.7456 55.3897 15.4676 55.6398 14.178 55.634C12.8885 55.6397 11.6105 55.3895 10.4182 54.8981C9.22595 54.4067 8.14293 53.6837 7.23183 52.7711C3.40181 48.941 3.40181 42.7087 7.23183 38.8787L19.5809 26.5296C20.4921 25.6172 21.5752 24.8944 22.7675 24.4032C23.9597 23.912 25.2376 23.662 26.5271 23.6677C29.1598 23.6677 31.6265 24.685 33.4722 26.5296C33.6736 26.7381 33.9145 26.9044 34.1808 27.0188C34.4471 27.1332 34.7336 27.1934 35.0234 27.1959C35.3133 27.1985 35.6007 27.1432 35.869 27.0335C36.1373 26.9237 36.381 26.7616 36.586 26.5567C36.791 26.3517 36.953 26.108 37.0628 25.8397C37.1726 25.5714 37.2278 25.2839 37.2253 24.9941C37.2228 24.7042 37.1625 24.4178 37.0481 24.1515C36.9337 23.8851 36.7674 23.6443 36.5589 23.4429C31.0284 17.9123 22.0269 17.9112 16.4931 23.4429L4.14402 35.793C1.47425 38.4628 0.00292969 42.0265 0.00292969 45.826C0.00292969 49.6243 1.47425 53.188 4.14511 55.8578C5.46024 57.1773 7.02407 58.2229 8.74606 58.9339C10.468 59.6449 12.314 60.0073 14.1769 60C17.9764 60 21.5401 58.5286 24.2099 55.8578L32.6994 47.3682C33.0916 46.9556 33.3071 46.406 33.2999 45.8368C33.2927 45.2676 33.0634 44.7237 32.661 44.3211C32.2585 43.9184 31.7147 43.689 31.1454 43.6816C30.5762 43.6742 30.0266 43.8895 29.6138 44.2815Z" fill="white"/>
</g>
<defs>
<clipPath id="clip0_116_2328">
<rect width="60" height="60" fill="white"/>
</clipPath>
</defs>
</svg>
