<svg width="60" height="60" viewBox="0 0 60 60" fill="none" xmlns="http://www.w3.org/2000/svg">
<g clip-path="url(#clip0_85_1493)">
<path d="M29.0323 23.1765V25.2897C27.9085 25.6903 27.0968 26.755 27.0968 28.0151C27.0968 29.6156 28.3996 30.9183 30 30.9183C30.534 30.9183 30.9678 31.3518 30.9678 31.8861C30.9678 32.4201 30.534 32.8538 30 32.8538C29.4661 32.8538 29.0323 32.4201 29.0323 31.8861H27.0968C27.0968 33.1459 27.9085 34.2106 29.0323 34.6112V36.7249H30.9678V34.6111C32.0916 34.2105 32.9033 33.1458 32.9033 31.8861C32.9033 30.2851 31.6004 28.9828 30 28.9828C29.4661 28.9828 29.0323 28.5491 29.0323 28.0151C29.0323 27.4807 29.4661 27.0474 30 27.0474C30.534 27.0474 30.9678 27.4807 30.9678 28.0151H32.9033C32.9033 26.7549 32.0916 25.6902 30.9678 25.2896V23.1763L29.0323 23.1765Z" fill="#E74C3D"/>
<path d="M19.3549 29.9508C19.3549 35.8202 24.1307 40.596 30 40.596C35.8694 40.596 40.6452 35.8202 40.6452 29.9508C40.6452 24.081 35.8694 19.3057 30 19.3057C24.1307 19.3057 19.3549 24.081 19.3549 29.9508ZM38.7097 29.9508C38.7097 34.7536 34.8028 38.6605 30 38.6605C25.1972 38.6605 21.2903 34.7536 21.2903 29.9508C21.2903 25.1476 25.1972 21.2411 30 21.2411C34.8028 21.2411 38.7097 25.1476 38.7097 29.9508Z" fill="#E74C3D"/>
<path d="M26.129 13.9777C18.9225 15.7257 13.5484 22.2144 13.5484 29.9509C13.5484 39.0225 20.9284 46.4025 30 46.4025C39.0716 46.4025 46.4516 39.0225 46.4516 29.9509C46.4516 22.2144 41.0775 15.7257 33.871 13.9777V9.62817H37.7419V4.78946C37.7419 3.18845 36.4391 1.88623 34.8387 1.88623H25.1613C23.5609 1.88623 22.2581 3.18845 22.2581 4.78946V9.62817H26.129V13.9777ZM44.5161 29.9507C44.5161 37.9549 38.0042 44.4669 30 44.4669C21.9958 44.4669 15.4839 37.9549 15.4839 29.9507C15.4839 21.9466 21.9958 15.4346 30 15.4346C38.0042 15.4346 44.5161 21.9466 44.5161 29.9507ZM31.9355 13.6229C31.2994 13.5482 30.6564 13.4991 30 13.4991C29.3436 13.4991 28.7006 13.5482 28.0645 13.6229V9.62817H31.9355V13.6229ZM24.1936 4.78946C24.1936 4.25502 24.6274 3.82171 25.1613 3.82171H34.8387C35.3727 3.82171 35.8065 4.25502 35.8065 4.78946V7.69268H24.1936V4.78946Z" fill="#E74C3D"/>
<path d="M43.1543 49.6439L49.6936 43.1042L47.7406 39.8262C48.5011 38.4618 49.1007 37.0138 49.5273 35.5112L53.2258 34.5745V25.3258L49.5273 24.3893C49.1011 22.8864 48.5015 21.4383 47.7406 20.0741L49.6927 16.7953L43.1544 10.2573L39.8759 12.2094C38.6908 11.5488 37.4422 11.0092 36.149 10.5989L35.5635 12.4432C36.8999 12.867 38.1829 13.4434 39.3873 14.161L39.8834 14.4572L42.8495 12.6899L47.2597 17.1L45.4923 20.0661L45.7887 20.5627C46.6917 22.0772 47.3698 23.715 47.8016 25.4246L47.9429 25.9841L51.2903 26.8326V33.0676L47.9429 33.9153L47.8016 34.4748C47.3698 36.1845 46.6917 37.8222 45.7887 39.3368L45.4923 39.8333L47.2587 42.7985L42.8494 47.2086L39.8834 45.4422L39.3873 45.7386C37.8726 46.6415 36.2347 47.3194 34.5249 47.751L33.966 47.8923L33.1182 51.2412H26.8826L26.035 47.8938L25.476 47.7525C23.7663 47.3205 22.1284 46.6424 20.6136 45.7396L20.1175 45.4432L17.1514 47.2096L12.7421 42.7995L14.5085 39.8343L14.2122 39.3376C13.3092 37.8231 12.6311 36.1854 12.1993 34.4758L12.058 33.9163L8.70965 33.0686V26.8335L12.0571 25.9858L12.1984 25.4263C12.6302 23.7167 13.3082 22.079 14.2113 20.5645L14.5076 20.0679L12.7403 17.1018L17.1504 12.6922L20.1165 14.4589L20.6118 14.1641C21.8313 13.4375 23.1313 12.8555 24.4855 12.4299L23.9053 10.5832C22.5928 10.9959 21.3258 11.5413 20.124 12.2111L16.8457 10.2593L10.3073 16.7971L12.2593 20.076C11.4988 21.4404 10.8992 22.8885 10.4726 24.3912L6.77417 25.3266V34.5755L10.4726 35.512C10.8988 37.0148 11.4984 38.4629 12.2593 39.8272L10.3063 43.1051L16.8457 49.6449L20.124 47.6925C21.4886 48.4527 22.9366 49.052 24.4392 49.4786L25.3762 53.1766H34.6246L35.5617 49.4777C37.0645 49.0517 38.5126 48.4521 39.8768 47.691L43.1543 49.6439Z" fill="#E74C3D"/>
<path d="M18.0918 4.54149L17.4321 8.50173L19.3412 8.81879L20.4455 2.19677L13.8541 0L13.2417 1.83484L16.7776 3.01331C6.51109 8.03395 0 18.3573 0 29.9509H1.93548C1.93548 18.9347 8.22387 9.15097 18.0918 4.54149ZM0 31.8864H1.93548V33.8219H0V31.8864ZM0 35.7573H1.93548V37.6928H0V35.7573ZM41.9082 55.3597L42.5679 51.3994L40.6588 51.0825L39.5545 57.7044L46.1459 59.9012L46.7583 58.0664L43.2224 56.8879C53.4889 51.8673 60 41.5443 60 29.9508H58.0645C58.0645 40.9664 51.7761 50.7501 41.9082 55.3597ZM58.0645 26.0799H60V28.0154H58.0645V26.0799ZM58.0645 22.209H60V24.1444H58.0645V22.209Z" fill="#E74C3D"/>
</g>
<defs>
<clipPath id="clip0_85_1493">
<rect width="60" height="60" fill="white"/>
</clipPath>
</defs>
</svg>
