<svg width="60" height="60" viewBox="0 0 60 60" fill="none" xmlns="http://www.w3.org/2000/svg">
<g clip-path="url(#clip0_85_1522)">
<path d="M60 44.3682V34.9875L56.1446 34.3454C55.9981 33.9498 55.8354 33.5604 55.657 33.1782L57.9317 29.9933L51.2978 23.3595L48.113 25.6357C47.731 25.4567 47.3418 25.2936 46.9464 25.1467L46.4516 22.1777V8.30891L38.1426 0H15.4839V7.74194H2.90323V29.0323H1.93548C0.868064 29.0323 0 29.9003 0 30.9677V58.0645C0 59.1319 0.868064 60 1.93548 60H36.7742C37.8416 60 38.7097 59.1319 38.7097 58.0645H46.3037L46.9464 54.2101C47.3417 54.0632 47.7309 53.9002 48.113 53.7214L51.2979 55.9972L57.9318 49.3633L55.657 46.1785C55.838 45.7905 56.0006 45.4006 56.1445 45.0119L60 44.3682ZM38.7097 3.30399L43.1477 7.74194H38.7097V3.30399ZM17.4194 1.93548H36.7742V9.67742H44.5161V21.2903H36.9221L36.2794 25.1447C35.8841 25.2916 35.4949 25.4547 35.1128 25.6334L33.871 24.7458V17.4194H42.5806V15.4839H33.871V13.5484H42.5806V11.6129H33.871V7.74194H17.4194V1.93548ZM4.83871 9.67742H31.9355V23.3633L31.9288 23.3585L31.1412 24.1462C30.6105 23.583 29.8644 23.2258 29.0323 23.2258H9.67742C8.07702 23.2258 6.77419 24.5286 6.77419 26.129V29.0323H4.83871V9.67742ZM8.70968 29.0323V26.129C8.70968 25.5951 9.14443 25.1613 9.67742 25.1613H29.0323C29.5652 25.1613 30 25.5951 30 26.129V29.0323H8.70968ZM36.7742 30.9677V35.2588L24.1935 42.8069V42.5806C24.1935 41.5132 23.3255 40.6452 22.2581 40.6452H16.4516C15.3842 40.6452 14.5161 41.5132 14.5161 42.5806V42.807L1.93548 35.2588V30.9677H36.7742ZM38.7097 34.6652C39.5915 34.1545 40.5823 33.871 41.6129 33.871C44.8153 33.871 47.4194 36.475 47.4194 39.6774C47.4194 42.8798 44.8153 45.4839 41.6129 45.4839C40.5804 45.4839 39.5915 45.2003 38.7097 44.6886V34.6652ZM38.7097 46.8329C39.6273 47.2052 40.6035 47.4194 41.6129 47.4194C45.8819 47.4194 49.3548 43.9464 49.3548 39.6774C49.3548 35.4085 45.8819 31.9355 41.6129 31.9355C40.6045 31.9355 39.6273 32.1477 38.7097 32.52V30.9677C38.7097 30.7943 38.6799 30.6299 38.6359 30.4702C39.5974 30.1582 40.602 29.9995 41.6129 30C46.9492 30 51.2903 34.3412 51.2903 39.6774C51.2903 45.0137 46.9492 49.3548 41.6129 49.3548C40.6182 49.3548 39.6452 49.1979 38.7097 48.9031V46.8329ZM22.259 46.4516H16.4516V42.5806H22.2581L22.259 46.4516ZM1.93548 58.0645V56.129H30.9677V54.1935H1.93548V37.5156L14.5161 45.0638V46.4516C14.5161 47.519 15.3842 48.3871 16.4516 48.3871H22.2581C23.3255 48.3871 24.1935 47.519 24.1935 46.4516V45.0638L36.7742 37.5156L36.7752 54.1935H32.9032V56.129H36.7752V58.0645H1.93548ZM55.4032 49.1526L51.089 53.4677L48.2902 51.4694L47.7657 51.7363C47.1056 52.0742 46.4407 52.3521 45.7877 52.5629L45.2283 52.7447L44.6641 56.129H38.7097V50.9137C39.6532 51.1575 40.6239 51.2903 41.6129 51.2903C48.0167 51.2903 53.2258 46.0811 53.2258 39.6774C53.2258 33.2738 48.0166 28.0645 41.6129 28.0645C39.987 28.0645 38.4206 28.4014 36.9467 29.0498C36.8895 29.045 36.8332 29.0323 36.7742 29.0323H31.9355V26.129C31.9355 26.1163 31.9317 26.1048 31.9317 26.0921L32.1368 25.8871L34.9356 27.8855L35.4601 27.6184C36.1202 27.2806 36.7851 27.0027 37.4381 26.7919L37.9975 26.6101L38.5617 23.2258H44.6641L45.2283 26.6101L45.7877 26.7919C46.4407 27.0036 47.1056 27.2815 47.7657 27.6184L48.2902 27.8855L51.089 25.8871L55.4032 30.2023L53.4048 33.0011L53.6719 33.5246C54.0088 34.1838 54.2867 34.8481 54.4984 35.5037L54.6794 36.063L58.0645 36.6263V42.7294L54.6794 43.2928L54.4984 43.8523C54.2867 44.5077 54.0079 45.1725 53.6719 45.8313L53.4048 46.3547L55.4032 49.1526Z" fill="#E74C3D"/>
<path d="M40.6451 24.1937H42.5806V26.1292H40.6451V24.1937ZM50.5088 29.4132L51.8772 28.0448L53.2461 29.4132L51.8772 30.7817L50.5088 29.4132ZM55.1613 38.7098H57.0967V40.6453H55.1613V38.7098ZM50.5088 49.9419L51.8772 48.5734L53.2456 49.9419L51.8772 51.3103L50.5088 49.9419ZM40.6451 53.2259H42.5806V55.1614H40.6451V53.2259ZM6.77417 11.613H30V13.5485H6.77417V11.613ZM6.77417 15.484H8.70965V17.4195H6.77417V15.484ZM10.6451 15.484H12.5806V17.4195H10.6451V15.484ZM14.5161 15.484H30V17.4195H14.5161V15.484ZM6.77417 19.355H30V21.2904H6.77417V19.355ZM19.3548 3.87109H21.2903V5.80658H19.3548V3.87109ZM23.2258 3.87109H30.9677V5.80658H23.2258V3.87109ZM32.9032 3.87109H34.8387V5.80658H32.9032V3.87109Z" fill="#E74C3D"/>
</g>
<defs>
<clipPath id="clip0_85_1522">
<rect width="60" height="60" fill="white"/>
</clipPath>
</defs>
</svg>
