<svg width="60" height="60" viewBox="0 0 60 60" fill="none" xmlns="http://www.w3.org/2000/svg">
<path d="M29.0066 50.1641H30.9738V52.1313H29.0066V50.1641Z" fill="#E74C3D"/>
<path d="M52.6132 12.7869V7.86885H43.7607V2.95082C43.7607 1.32418 42.4365 0 40.8099 0H19.1705C17.5439 0 16.2197 1.32418 16.2197 2.95082V7.86885H7.36725V34.4262C7.36725 37.1379 9.5736 39.3443 12.2853 39.3443H21.3131C21.7366 41.2221 22.9594 42.8312 24.735 43.7181C24.9434 43.8229 25.0722 44.0313 25.0722 44.2623C25.0722 44.4933 24.9434 44.7017 24.736 44.8065C22.5157 45.9159 21.1377 48.1458 21.1377 50.6283V54.0984C20.0528 54.0984 19.1705 54.9807 19.1705 56.0656V58.0328C19.1705 59.1177 20.0528 60 21.1377 60H38.8427C39.9276 60 40.8099 59.1177 40.8099 58.0328V56.0656C40.8099 54.9807 39.9276 54.0984 38.8427 54.0984V50.6283C38.8427 48.1468 37.4648 45.9159 35.2454 44.8065C35.037 44.7017 34.9082 44.4933 34.9082 44.2623C34.9082 44.0313 35.037 43.8229 35.2444 43.7181C37.02 42.831 38.2438 41.2212 38.6673 39.3443H47.6951C50.4068 39.3443 52.6132 37.1379 52.6132 34.4262V12.7869ZM50.6459 12.7869C50.6459 16.5835 47.5563 19.6721 43.7607 19.6721H40.8099V18.6885C40.8099 17.0619 39.4857 15.7377 37.8591 15.7377C36.2324 15.7377 34.9082 17.0619 34.9082 18.6885V19.6721H25.0722V18.6885C25.0722 17.0619 23.748 15.7377 22.1213 15.7377C20.4947 15.7377 19.1705 17.0619 19.1705 18.6885V19.6721H16.2197C12.4241 19.6721 9.33446 16.5835 9.33446 12.7869V9.83607H50.6459V12.7869ZM38.8427 18.6885V22.623C38.8427 23.1647 38.4018 23.6066 37.8591 23.6066C37.3163 23.6066 36.8754 23.1647 36.8754 22.623V18.6885C36.8754 18.1468 37.3163 17.7049 37.8591 17.7049C38.4018 17.7049 38.8427 18.1468 38.8427 18.6885ZM23.105 18.6885V22.623C23.105 23.1647 22.6641 23.6066 22.1213 23.6066C21.5786 23.6066 21.1377 23.1647 21.1377 22.623V18.6885C21.1377 18.1468 21.5786 17.7049 22.1213 17.7049C22.6641 17.7049 23.105 18.1468 23.105 18.6885ZM37.8591 7.86885H22.1213V5.90164H37.8591V7.86885ZM18.1869 2.95082C18.1869 2.4091 18.6278 1.96721 19.1705 1.96721H40.8099C41.3526 1.96721 41.7935 2.4091 41.7935 2.95082V7.86885H39.8263V3.93443H20.1541V7.86885H18.1869V2.95082ZM38.8427 58.0328H21.1377V56.0656H38.8427V58.0328ZM36.8754 50.6283V54.0984H23.105V50.6283C23.105 48.8959 24.0679 47.3399 25.6173 46.5657C26.4934 46.1262 27.0394 45.2431 27.0394 44.2623H29.0066V48.1967H30.9738V44.2623H32.941C32.941 45.2431 33.487 46.1262 34.3641 46.5657C35.9125 47.3399 36.8754 48.8961 36.8754 50.6283ZM34.3631 41.9589C34.1826 42.0492 34.0259 42.1702 33.8757 42.2951H26.1047C25.9545 42.1702 25.797 42.0492 25.6163 41.9589C24.0679 41.1847 23.105 39.6285 23.105 37.8963V34.4262H32.941V32.459H21.1377V30.4918H38.8427V32.459H34.9082V34.4262H36.8754V37.8963C36.8754 39.6286 35.9125 41.1847 34.3631 41.9589ZM47.6951 37.377H38.8427V34.4262C39.9276 34.4262 40.8099 33.5439 40.8099 32.459V30.4918C40.8099 29.4069 39.9276 28.5246 38.8427 28.5246H21.1377C20.0528 28.5246 19.1705 29.4069 19.1705 30.4918V32.459C19.1705 33.5439 20.0528 34.4262 21.1377 34.4262V37.377H12.2853C10.6586 37.377 9.33446 36.0529 9.33446 34.4262V18.3384C10.9583 20.3489 13.4398 21.6393 16.2197 21.6393H19.1705V22.623C19.1705 24.2496 20.4947 25.5738 22.1213 25.5738C23.748 25.5738 25.0722 24.2496 25.0722 22.623V21.6393H34.9082V22.623C34.9082 24.2496 36.2324 25.5738 37.8591 25.5738C39.4857 25.5738 40.8099 24.2496 40.8099 22.623V21.6393H43.7607C46.5406 21.6393 49.0221 20.3489 50.6459 18.3384V34.4262C50.6459 36.0529 49.3218 37.377 47.6951 37.377Z" fill="#E74C3D"/>
<path d="M13.2689 49.1802H15.2361V51.1474H13.2689V49.1802ZM17.2033 49.1802H19.1705V51.1474H17.2033V49.1802ZM9.33445 49.1802H11.3017V51.1474H9.33445V49.1802ZM5.40002 49.1802H7.36724V51.1474H5.40002V49.1802ZM48.6787 49.1802H50.6459V51.1474H48.6787V49.1802ZM52.6131 49.1802H54.5804V51.1474H52.6131V49.1802ZM44.7443 49.1802H46.7115V51.1474H44.7443V49.1802ZM40.8099 49.1802H42.7771V51.1474H40.8099V49.1802Z" fill="#E74C3D"/>
</svg>
