<svg width="60" height="60" viewBox="0 0 60 60" fill="none" xmlns="http://www.w3.org/2000/svg">
<g clip-path="url(#clip0_85_1504)">
<path d="M23.4375 17.8125C23.4375 14.7103 20.9147 12.1875 17.8125 12.1875C14.7103 12.1875 12.1875 14.7103 12.1875 17.8125C12.1875 20.9147 14.7103 23.4375 17.8125 23.4375C20.9147 23.4375 23.4375 20.9147 23.4375 17.8125ZM14.0625 17.8125C14.0625 15.7444 15.7444 14.0625 17.8125 14.0625C19.8806 14.0625 21.5625 15.7444 21.5625 17.8125C21.5625 19.8806 19.8806 21.5625 17.8125 21.5625C15.7444 21.5625 14.0625 19.8806 14.0625 17.8125ZM45.9375 33.75C45.9375 32.0081 44.7384 30.5522 43.125 30.1331V24.375H41.25V30.1331C39.6366 30.5522 38.4375 32.0081 38.4375 33.75C38.4375 35.8181 40.1194 37.5 42.1875 37.5C42.8813 37.5 43.5225 37.2984 44.0803 36.9684L46.2122 39.1003L47.5378 37.7747L45.4059 35.6428C45.7506 35.0714 45.9342 34.4173 45.9375 33.75ZM42.1875 35.625C41.1534 35.625 40.3125 34.7841 40.3125 33.75C40.3125 32.7159 41.1534 31.875 42.1875 31.875C43.2216 31.875 44.0625 32.7159 44.0625 33.75C44.0625 34.7841 43.2216 35.625 42.1875 35.625Z" fill="#E74C3D"/>
<path d="M42.1875 16.875C39.4912 16.875 36.9506 17.5266 34.6875 18.6553V14.2575L32.2172 13.6763C31.9055 12.5892 31.4712 11.5413 30.9225 10.5525L32.2594 8.39438L27.2316 3.36656L25.0725 4.7025C24.0839 4.15349 23.0359 3.71912 21.9488 3.40781L21.3675 0.9375H14.2575L13.6763 3.40688C12.5887 3.71906 11.5425 4.15219 10.5525 4.70156L8.39344 3.36656L3.36562 8.39438L4.7025 10.5525C4.15381 11.5413 3.71946 12.5892 3.40781 13.6763L0.9375 14.2575V21.3675L3.40781 21.9488C3.71946 23.0358 4.15381 24.0837 4.7025 25.0725L3.36562 27.2306L7.62469 31.4888C7.54688 31.9191 7.5 32.3606 7.5 32.8125C7.50066 34.0506 7.80795 35.2692 8.39443 36.3595C8.9809 37.4499 9.8283 38.378 10.8609 39.0609C5.12063 40.8328 0.9375 46.1859 0.9375 52.5V55.3125C0.9375 57.3806 2.61937 59.0625 4.6875 59.0625H12.6562C13.5741 59.0625 14.4038 58.6847 15 58.0753C15.3049 58.3881 15.6694 58.6366 16.0719 58.8062C16.4745 58.9757 16.9069 59.0629 17.3438 59.0625H25.3125C27.3806 59.0625 29.0625 57.3806 29.0625 55.3125V52.5C29.0625 46.1859 24.8794 40.8328 19.1391 39.0609C20.283 38.304 21.1974 37.2478 21.7826 36.0072C22.3678 34.7666 22.6013 33.3892 22.4578 32.025C23.3662 31.7297 24.2494 31.3781 25.0725 30.9225L25.5263 31.2028C25.3904 32.0452 25.3189 32.8967 25.3125 33.75C25.3125 43.0547 32.8828 50.625 42.1875 50.625C51.4922 50.625 59.0625 43.0547 59.0625 33.75C59.0625 24.4453 51.4922 16.875 42.1875 16.875ZM57.1397 34.6875C56.935 38.0087 55.6255 41.1662 53.4197 43.6575L50.805 41.0428L49.4794 42.3684L52.0941 44.9831C49.6029 47.1885 46.4458 48.4976 43.125 48.7022V45H41.25V48.7022C37.9292 48.4975 34.7722 47.1884 32.2809 44.9831L34.8956 42.3684L33.57 41.0428L30.9553 43.6575C28.7495 41.1662 27.44 38.0087 27.2353 34.6875H30.9375V32.8125H27.2353C27.44 29.4913 28.7495 26.3338 30.9553 23.8425L33.57 26.4572L34.8956 25.1316L32.2809 22.5169C34.7721 20.3115 37.9292 19.0024 41.25 18.7978V22.5H43.125V18.7978C46.4458 19.0025 49.6028 20.3116 52.0941 22.5169L49.4794 25.1316L50.805 26.4572L53.4197 23.8425C55.6255 26.3338 56.935 29.4913 57.1397 32.8125H53.4375V34.6875H57.1397ZM18.2738 40.7719L15 44.5134L11.7263 40.7719C12.7697 40.4803 13.8647 40.3125 15 40.3125C16.1353 40.3125 17.2303 40.4803 18.2738 40.7719ZM27.1875 52.5V55.3125C27.1875 56.3466 26.3466 57.1875 25.3125 57.1875H17.3438C16.5684 57.1875 15.9375 56.5566 15.9375 55.7812C15.9375 55.0059 16.5684 54.375 17.3438 54.375H24.375V52.5H22.5V48.75H20.625V52.5H17.3438C16.4259 52.5 15.5962 52.8778 15 53.4872C14.6951 53.1744 14.3306 52.9259 13.9281 52.7563C13.5255 52.5868 13.0931 52.4996 12.6562 52.5H9.375V48.75H7.5V52.5H5.625V54.375H12.6562C13.4316 54.375 14.0625 55.0059 14.0625 55.7812C14.0625 56.5566 13.4316 57.1875 12.6562 57.1875H4.6875C3.65344 57.1875 2.8125 56.3466 2.8125 55.3125V52.5C2.8125 47.6231 5.69812 43.4184 9.84562 41.4722L15 47.3616L20.1544 41.4722C24.3019 43.4184 27.1875 47.6231 27.1875 52.5ZM15 38.4375C11.8978 38.4375 9.375 35.9147 9.375 32.8125C9.375 29.7103 11.8978 27.1875 15 27.1875C18.1022 27.1875 20.625 29.7103 20.625 32.8125C20.625 35.9147 18.1022 38.4375 15 38.4375ZM8.4375 17.8125C8.4375 12.6431 12.6431 8.4375 17.8125 8.4375C22.9819 8.4375 27.1875 12.6431 27.1875 17.8125C27.195 19.9712 26.4521 22.0654 25.0858 23.7368C23.7195 25.4081 21.8149 26.5527 19.6978 26.9747C18.7373 26.1967 17.5986 25.6695 16.3839 25.4404C15.1692 25.2113 13.9167 25.2875 12.7388 25.6622C10.0828 23.94 8.4375 20.9794 8.4375 17.8125ZM25.0931 28.7306L24.6028 29.0288C23.7994 29.5163 22.9359 29.9156 22.0294 30.2213C21.8104 29.6247 21.5161 29.0586 21.1537 28.5366C23.4491 27.8358 25.4578 26.4144 26.8823 24.4829C28.3067 22.5514 29.0712 20.2125 29.0625 17.8125C29.0625 11.6091 24.0159 6.5625 17.8125 6.5625C11.6091 6.5625 6.5625 11.6091 6.5625 17.8125C6.5625 21.24 8.16094 24.4753 10.8112 26.5941C9.7321 27.3265 8.86127 28.3262 8.28375 29.4956L5.74312 26.955L6.89531 25.0931L6.59719 24.6019C5.90811 23.4664 5.39687 22.2321 5.08125 20.9419L4.94438 20.3841L2.8125 19.8825V15.7425L4.94344 15.2409L5.08031 14.6831C5.39611 13.393 5.90733 12.1587 6.59625 11.0231L6.89437 10.5319L5.74219 8.67L8.67 5.74219L10.5319 6.89437L11.0222 6.59625C12.1577 5.90665 13.3919 5.39479 14.6822 5.07844L15.24 4.94156L15.7425 2.8125H19.8825L20.3841 4.9425L20.9419 5.07938C22.2328 5.39531 23.4638 5.90625 24.6019 6.59719L25.0922 6.89531L26.9541 5.74312L29.8819 8.67094L28.7297 10.5328L29.0278 11.0241C29.7169 12.1596 30.2281 13.3939 30.5438 14.6841L30.6806 15.2419L32.8125 15.7425V19.7288C29.4579 21.9814 27.0201 25.3601 25.9397 29.2537L25.0931 28.7306Z" fill="#E74C3D"/>
</g>
<defs>
<clipPath id="clip0_85_1504">
<rect width="60" height="60" fill="white"/>
</clipPath>
</defs>
</svg>
