<svg width="100" height="100" viewBox="0 0 100 100" fill="none" xmlns="http://www.w3.org/2000/svg">
<g clip-path="url(#clip0_1_760)">
<path d="M98.5294 55.0067C98.0603 54.4806 97.4854 54.0596 96.8423 53.7713C96.1992 53.4829 95.5025 53.3337 94.7977 53.3333H59.3394L48.5077 39.7933C46.971 37.8733 44.7043 36.7567 42.2593 36.6817C43.0743 34.6083 43.5377 32.3583 43.5377 30V14.85C48.2593 14.0533 51.871 9.94667 51.871 5V1.66667C51.871 0.745 51.1243 0 50.2043 0H18.5377C12.1043 0 6.87101 5.235 6.87101 11.6667V30C6.87101 32.3683 7.33768 34.625 8.15768 36.705C3.74268 36.9083 0.204346 40.535 0.204346 45V85C0.204346 87.735 1.54768 90.1467 3.58935 91.6667H3.53768V100H6.87101V93.165C7.40935 93.275 7.96768 93.3333 8.53768 93.3333H15.2043V95C15.2043 97.7567 17.4477 100 20.2043 100H90.566C93.106 100 95.2427 98.0967 95.5327 95.5733L99.7627 58.9083C99.8435 58.2078 99.7755 57.4981 99.5629 56.8257C99.3504 56.1533 98.9982 55.5334 98.5294 55.0067ZM10.2043 11.6667C10.2043 7.07167 13.9427 3.33333 18.5377 3.33333H48.5377V5C48.5377 8.67667 45.5477 11.6667 41.871 11.6667H18.5377C17.6177 11.6667 16.871 12.4117 16.871 13.3333V16.6667C16.871 20.6917 14.0027 24.0583 10.2043 24.8317V11.6667ZM10.2043 28.2C15.8493 27.3867 20.2043 22.5317 20.2043 16.6667V15H40.2043V30C40.2043 32.7683 39.4377 35.355 38.1243 37.5833C37.8258 38.0883 37.4986 38.5757 37.1443 39.0433C37.1027 39.0983 37.0627 39.155 37.0193 39.21C36.2445 40.2016 35.3486 41.0924 34.3527 41.8617C34.311 41.895 34.2677 41.925 34.2243 41.9567C33.7408 42.3236 33.2354 42.6609 32.711 42.9667L32.671 42.9917C31.5852 43.6158 30.4257 44.1018 29.2193 44.4383C29.121 44.4667 29.021 44.49 28.921 44.515C28.4352 44.6389 27.9434 44.7385 27.4477 44.8133C27.3077 44.835 27.1693 44.86 27.0293 44.8767C26.426 44.9517 25.8177 45 25.2043 45C24.591 45 23.9827 44.9517 23.381 44.8783C23.2393 44.8617 23.1027 44.835 22.9627 44.815C22.4669 44.7401 21.9752 44.6406 21.4893 44.5167C21.3893 44.4917 21.2893 44.4667 21.191 44.44C19.9827 44.1 18.821 43.6167 17.7393 42.9933L17.6993 42.9683C17.1752 42.6621 16.6699 42.3249 16.186 41.9583C16.1427 41.9267 16.0993 41.895 16.0577 41.8633C15.0613 41.0945 14.1654 40.2037 13.391 39.2117C13.3477 39.1567 13.3077 39.1 13.266 39.045C12.9103 38.5785 12.583 38.0909 12.286 37.585C10.971 35.355 10.2043 32.7683 10.2043 30V28.2ZM8.53768 90C5.78101 90 3.53768 87.7567 3.53768 85V45C3.53768 42.2433 5.78101 40 8.53768 40H9.85601C9.86101 40.0083 9.86768 40.015 9.87268 40.0233C10.2844 40.6509 10.7335 41.2531 11.2177 41.8267C11.236 41.8483 11.256 41.8683 11.276 41.89C11.721 42.41 12.196 42.8983 12.696 43.3667C12.7827 43.4467 12.8693 43.525 12.9577 43.6033C13.4392 44.039 13.9438 44.4485 14.4693 44.83C14.5177 44.865 14.5643 44.9033 14.6143 44.9383C15.8115 45.7902 17.107 46.4947 18.4727 47.0367C18.5277 47.0583 18.5843 47.0767 18.6393 47.0983C19.2346 47.3275 19.8416 47.525 20.4577 47.69C20.6027 47.7283 20.746 47.7667 20.8927 47.8017C21.444 47.9347 22.0013 48.0415 22.5627 48.1217C22.7293 48.1467 22.8927 48.1783 23.061 48.1983C23.7643 48.28 24.4777 48.3333 25.2043 48.3333C25.931 48.3333 26.6443 48.28 27.3493 48.1967C27.5177 48.1767 27.681 48.145 27.8477 48.12C28.409 48.039 28.9662 47.9323 29.5177 47.8C29.6627 47.765 29.8077 47.7267 29.9527 47.6883C30.5688 47.5233 31.1758 47.3258 31.771 47.0967C31.826 47.075 31.8827 47.0567 31.9377 47.035C33.3034 46.493 34.5988 45.7885 35.796 44.9367C35.8443 44.9017 35.891 44.8633 35.941 44.8283C36.4665 44.4468 36.9711 44.0373 37.4527 43.6017C37.541 43.5233 37.6277 43.445 37.7143 43.365C38.2127 42.8983 38.6893 42.4083 39.1343 41.8883C39.1527 41.8667 39.1727 41.8467 39.1927 41.825C39.6781 41.2525 40.1273 40.6502 40.5377 40.0217C40.5427 40.0133 40.5493 40.0067 40.5543 39.9983H42.001C43.5277 39.9983 44.951 40.6817 45.906 41.875L55.0694 53.3333H48.1743C45.6343 53.3333 43.4977 55.2367 43.2077 57.76L39.4877 90H36.7543C35.9293 83.4333 30.3227 78.3333 23.536 78.3333H15.2027V60H11.871V80C11.871 80.9217 12.6177 81.6667 13.5377 81.6667H23.5377C28.4843 81.6667 32.6027 85.2767 33.3993 90H8.53768ZM96.4527 58.525L92.221 95.1917C92.1745 95.5979 91.98 95.9727 91.6748 96.2448C91.3696 96.5168 90.9749 96.667 90.566 96.6667H20.2043C19.286 96.6667 18.5377 95.92 18.5377 95V93.3333H40.9727C41.3817 93.3333 41.7764 93.1827 42.0816 92.9104C42.3868 92.6381 42.5812 92.263 42.6277 91.8567L46.5177 58.1417C46.5655 57.7354 46.7608 57.3608 47.0665 57.0889C47.3721 56.8171 47.7669 56.6668 48.176 56.6667H94.7977C95.2794 56.6667 95.721 56.865 96.041 57.225C96.1984 57.3998 96.3166 57.6062 96.3876 57.8304C96.4586 58.0547 96.4808 58.2915 96.4527 58.525Z" fill="#E74C3D"/>
<path d="M70.2044 68.3334C66.5277 68.3334 63.5377 71.3234 63.5377 75.0001C63.5377 78.6768 66.5277 81.6668 70.2044 81.6668C73.8811 81.6668 76.8711 78.6768 76.8711 75.0001C76.8711 71.3234 73.8811 68.3334 70.2044 68.3334ZM70.2044 78.3334C68.3661 78.3334 66.871 76.8384 66.871 75.0001C66.871 73.1618 68.3661 71.6668 70.2044 71.6668C72.0427 71.6668 73.5377 73.1618 73.5377 75.0001C73.5377 76.8384 72.0427 78.3334 70.2044 78.3334ZM97.7227 10.2468L97.7277 10.2368L81.0627 0.23844C80.8034 0.0838249 80.5071 0.00219727 80.2052 0.00219727C79.9033 0.00219727 79.607 0.0838249 79.3477 0.23844L62.681 10.2384L62.6861 10.2484C62.1877 10.5468 61.871 11.0801 61.871 11.6668V35.0001C61.871 35.9218 62.6177 36.6668 63.5377 36.6668H96.871C97.7911 36.6668 98.5377 35.9218 98.5377 35.0001V11.6668C98.5377 11.0801 98.2211 10.5468 97.7227 10.2468ZM80.2044 3.61011L93.8111 11.7751L80.2044 21.2984L66.5977 11.7734L80.2044 3.61011ZM65.2044 14.8684L77.2977 23.3334L65.2044 31.7984V14.8684ZM68.8244 33.3334L80.2044 25.3684L91.5844 33.3334H68.8244ZM95.2044 31.7984L83.1111 23.3334L95.2044 14.8684V31.7984ZM78.5377 40.0001H81.871V43.3334H78.5377V40.0001ZM78.5377 46.6668H81.871V50.0001H78.5377V46.6668ZM85.2044 46.6668H88.5377V50.0001H85.2044V46.6668ZM71.8711 46.6668H75.2044V50.0001H71.8711V46.6668ZM16.8711 30.0001H13.5377C13.5377 36.4318 18.7711 41.6668 25.2044 41.6668V38.3334C20.6094 38.3334 16.8711 34.5951 16.8711 30.0001Z" fill="#E74C3D"/>
</g>
<defs>
<clipPath id="clip0_1_760">
<rect width="100" height="100" fill="white"/>
</clipPath>
</defs>
</svg>
