<svg width="100" height="100" viewBox="0 0 100 100" fill="none" xmlns="http://www.w3.org/2000/svg">
<g clip-path="url(#clip0_1_132)">
<path d="M98.4375 0H1.5625C1.1481 0 0.750671 0.16462 0.457646 0.457646C0.16462 0.750671 0 1.1481 0 1.5625L0 67.1875C0 67.6019 0.16462 67.9993 0.457646 68.2924C0.750671 68.5854 1.1481 68.75 1.5625 68.75H56.7969C56.4377 69.7528 56.2527 70.8098 56.25 71.875H46.875C46.4606 71.875 46.0632 72.0396 45.7701 72.3326C45.4771 72.6257 45.3125 73.0231 45.3125 73.4375V98.4375C45.3125 98.8519 45.4771 99.2493 45.7701 99.5424C46.0632 99.8354 46.4606 100 46.875 100H85.9375C90.2453 100 93.75 96.4953 93.75 92.1875V71.875C93.75 70.7922 93.5437 69.7422 93.1906 68.75H98.4375C98.8519 68.75 99.2493 68.5854 99.5424 68.2924C99.8354 67.9993 100 67.6019 100 67.1875V1.5625C100 1.1481 99.8354 0.750671 99.5424 0.457646C99.2493 0.16462 98.8519 0 98.4375 0ZM61.2094 67.4563L63.6594 71.875H59.375C59.375 70.1516 60.0766 68.5875 61.2094 67.4563ZM67.1875 54.6875C67.1875 50.3797 70.6922 46.875 75 46.875C79.3078 46.875 82.8125 50.3797 82.8125 54.6875C82.8125 58.9953 79.3078 62.5 75 62.5C70.6922 62.5 67.1875 58.9953 67.1875 54.6875ZM76.9281 65.625L75 68.8375L73.0719 65.625H76.9281ZM76.5625 72.3078L80.5719 65.625H84.375C84.9656 65.625 85.5422 65.7062 86.0969 65.8672L81.4469 74.2406C81.3175 74.4728 81.2498 74.7342 81.25 75V87.5H76.5625V72.3078ZM69.4281 65.625L73.4375 72.3078V87.5H70.3125V73.4375C70.3125 73.0231 70.1479 72.6257 69.8549 72.3326C69.5618 72.0396 69.1644 71.875 68.75 71.875H67.2328L63.9156 65.8922C64.4625 65.7359 65.0281 65.625 65.625 65.625H69.4281ZM62.5 89.0625V96.875H48.4375V75H67.1875V87.5H64.0625C63.6481 87.5 63.2507 87.6646 62.9576 87.9576C62.6646 88.2507 62.5 88.6481 62.5 89.0625ZM90.625 92.1875C90.625 94.7719 88.5219 96.875 85.9375 96.875H65.625V90.625H82.8125C83.2269 90.625 83.6243 90.4604 83.9174 90.1674C84.2104 89.8743 84.375 89.4769 84.375 89.0625V75.4047L88.7906 67.4547C89.9635 68.627 90.6232 70.2168 90.625 71.875V92.1875ZM96.875 65.625H91.3328C90.6852 64.8934 89.9258 64.269 89.0828 63.775C87.656 62.9362 86.0301 62.4959 84.375 62.5H82.6406C83.6842 61.484 84.5135 60.2693 85.0798 58.9274C85.646 57.5856 85.9377 56.1439 85.9375 54.6875V7.8125H82.8125V47.0469C81.9099 46.1267 80.852 45.3729 79.6875 44.8203V7.8125H76.5625V43.875C76.05 43.8016 75.5312 43.75 75 43.75C74.4688 43.75 73.95 43.8016 73.4375 43.875V7.8125H70.3125V44.8203C69.1483 45.3735 68.0905 46.1272 67.1875 47.0469V7.8125H64.0625V54.6875C64.0625 57.7469 65.3281 60.5125 67.3594 62.5H65.625C62.8578 62.5 60.375 63.7125 58.6562 65.625H3.125V3.125H96.875V65.625Z" fill="#E74C3D"/>
<path d="M7.8125 7.8125H10.9375V60.9375H7.8125V7.8125ZM14.0625 7.8125H17.1875V60.9375H14.0625V7.8125ZM20.3125 7.8125H23.4375V60.9375H20.3125V7.8125ZM26.5625 7.8125H29.6875V60.9375H26.5625V7.8125ZM32.8125 7.8125H35.9375V60.9375H32.8125V7.8125ZM39.0625 7.8125H42.1875V60.9375H39.0625V7.8125ZM45.3125 7.8125H48.4375V60.9375H45.3125V7.8125ZM51.5625 7.8125H54.6875V60.9375H51.5625V7.8125ZM57.8125 7.8125H60.9375V60.9375H57.8125V7.8125ZM89.0625 7.8125H92.1875V60.9375H89.0625V7.8125ZM56.25 85.2906L54.2297 83.2703L52.0203 85.4797L55.1453 88.6047C55.2901 88.7503 55.4622 88.8658 55.6518 88.9447C55.8414 89.0235 56.0447 89.0641 56.25 89.0641C56.4553 89.0641 56.6586 89.0235 56.8482 88.9447C57.0378 88.8658 57.2099 88.7503 57.3547 88.6047L63.6047 82.3547L61.3953 80.1453L56.25 85.2906ZM39.0625 90.625H42.1875V93.75H39.0625V90.625ZM32.8125 90.625H35.9375V93.75H32.8125V90.625ZM26.5625 90.625H29.6875V93.75H26.5625V90.625ZM20.3125 90.625H23.4375V93.75H20.3125V90.625ZM14.0625 90.625H17.1875V93.75H14.0625V90.625ZM14.0625 84.375H17.1875V87.5H14.0625V84.375ZM14.0625 78.125H17.1875V81.25H14.0625V78.125ZM14.0625 71.875H17.1875V75H14.0625V71.875Z" fill="#E74C3D"/>
</g>
<defs>
<clipPath id="clip0_1_132">
<rect width="100" height="100" fill="white"/>
</clipPath>
</defs>
</svg>
