<svg width="100" height="100" viewBox="0 0 100 100" fill="none" xmlns="http://www.w3.org/2000/svg">
<g clip-path="url(#clip0_1_919)">
<path d="M98.4376 51.5625H92.1876V45.0906C94.8751 44.3922 96.8751 41.9656 96.8751 39.0625V31.25C96.8751 30.8356 96.7105 30.4382 96.4174 30.1451C96.1244 29.8521 95.727 29.6875 95.3126 29.6875H85.9376C85.5232 29.6875 85.1257 29.8521 84.8327 30.1451C84.5397 30.4382 84.3751 30.8356 84.3751 31.25V39.0625C84.3751 41.9656 86.3751 44.3922 89.0626 45.0906V51.5625H82.8126V44.1719C82.8126 42.4281 82.686 40.6359 82.4376 38.8438C82.0407 36.0312 81.3438 33.2922 80.3688 30.7031C78.8851 26.746 78.1251 22.5543 78.1251 18.3281V12.5C78.1251 12.0856 77.9605 11.6882 77.6674 11.3951C77.3744 11.1021 76.977 10.9375 76.5626 10.9375H71.8751C71.4607 10.9375 71.0632 11.1021 70.7702 11.3951C70.4772 11.6882 70.3126 12.0856 70.3126 12.5V18.3281C70.3126 22.5531 69.5579 26.7172 68.0688 30.6984C66.4556 35.0075 65.628 39.5708 65.6251 44.1719V51.5625H64.0626C63.6482 51.5625 63.2507 51.7271 62.9577 52.0201C62.6647 52.3132 62.5001 52.7106 62.5001 53.125V57.8125C62.5001 58.2269 62.6647 58.6243 62.9577 58.9174C63.2507 59.2104 63.6482 59.375 64.0626 59.375H72.072L68.7266 60.8078C68.3515 60.9633 68.0107 61.1913 67.7238 61.4788C67.437 61.7662 67.2096 62.1074 67.0548 62.4828L62.5001 73.4312V65.625C62.5001 60.1453 59.7032 55.1609 55.0157 52.2906L54.9532 52.2562L54.9313 52.2438C53.1811 51.1888 51.2426 50.484 49.2235 50.1688L49.2032 50.1672H49.2001C48.4295 50.061 47.6529 50.0051 46.8751 50H42.1876V48.4375C42.1873 48.1823 42.1246 47.931 42.0049 47.7057C41.8852 47.4803 41.7122 47.2876 41.5009 47.1444C41.2896 47.0013 41.0465 46.912 40.7928 46.8844C40.5391 46.8567 40.2825 46.8916 40.0454 46.9859L39.8891 47.0484L39.2845 43.4844C40.9159 42.5083 42.2996 41.1684 43.3277 39.5693C44.3558 37.9701 45.0003 36.155 45.211 34.2656C45.4954 34.3312 45.7891 34.375 46.0938 34.375C48.247 34.375 50.0001 32.6219 50.0001 30.4688V17.6875C50.0001 7.93437 42.2891 0 32.8126 0H29.6876C20.211 0 12.5001 7.93437 12.5001 17.6875V30.4688C12.5001 32.6219 14.2532 34.375 16.4063 34.375C16.7126 34.375 17.0063 34.3313 17.2923 34.2641C17.5177 36.1641 18.1765 37.9869 19.2178 39.5921C20.2592 41.1972 21.6553 42.5417 23.2985 43.5219L22.661 47.0688L22.4579 46.9875C22.2208 46.8914 21.9636 46.855 21.7092 46.8817C21.4547 46.9085 21.2107 46.9974 20.9987 47.1407C20.7867 47.2839 20.6133 47.4772 20.4936 47.7033C20.3739 47.9295 20.3118 48.1816 20.3126 48.4375V50H15.6251C14.9235 50 14.172 50.0547 13.3079 50.1688L13.2907 50.1703L13.2391 50.175C11.2317 50.4927 9.30461 51.1957 7.56414 52.2453L7.54695 52.2547C7.52508 52.2688 7.50164 52.2781 7.4782 52.2922C5.18823 53.6815 3.29631 55.6392 1.98603 57.9753C0.675759 60.3114 -0.00835727 62.9466 7.70539e-05 65.625V98.4375C7.70539e-05 98.8519 0.164697 99.2493 0.457723 99.5424C0.750748 99.8354 1.14818 100 1.56258 100H61.0313C62.6441 99.9973 64.2167 99.4969 65.5345 98.5671C66.8522 97.6372 67.8508 96.3233 68.3938 94.8047L75.5188 74.775L77.7985 68.3719L89.8641 63.5437C90.7603 63.1857 91.5597 62.6218 92.1976 61.8976C92.8355 61.1734 93.294 60.3092 93.536 59.375H98.4376C98.852 59.375 99.2494 59.2104 99.5424 58.9174C99.8355 58.6243 100 58.2269 100 57.8125V53.125C100 52.7106 99.8355 52.3132 99.5424 52.0201C99.2494 51.7271 98.852 51.5625 98.4376 51.5625ZM87.5001 39.0625V32.8125H93.7501V39.0625C93.7501 40.7859 92.3485 42.1875 90.6251 42.1875C88.9016 42.1875 87.5001 40.7859 87.5001 39.0625ZM70.9954 31.7969C72.6103 27.49 73.4375 22.9278 73.4376 18.3281V14.0625H75.0001V18.3281C75.0001 22.9281 75.822 27.4594 77.4438 31.8016C78.1329 33.6297 78.6657 35.5406 79.0423 37.5H69.3938C69.765 35.557 70.3008 33.6491 70.9954 31.7969ZM68.7501 44.1719C68.7501 43.0078 68.8329 41.8187 68.9532 40.625H79.4845C79.6063 41.8187 79.6876 43.0094 79.6876 44.1719V45.3125H71.8751C71.4607 45.3125 71.0632 45.4771 70.7702 45.7701C70.4772 46.0632 70.3126 46.4606 70.3126 46.875C70.3126 47.2894 70.4772 47.6868 70.7702 47.9799C71.0632 48.2729 71.4607 48.4375 71.8751 48.4375H79.6876V51.5625H68.7501V44.1719ZM73.1907 72.0141L67.7048 69.0609L68.9501 66.0703L74.2829 68.9437L73.1907 72.0141ZM37.5001 85.9375H35.9376C35.9352 85.1495 35.6347 84.3915 35.0965 83.8159C34.5582 83.2403 33.8221 82.8896 33.036 82.8344L49.8095 53.4781C50.7626 53.7109 51.6782 54.0547 52.5516 54.5016L48.5766 96.875H42.8798C43.4433 95.9296 43.7438 94.8506 43.7501 93.75V92.1875C43.7501 88.7406 40.947 85.9375 37.5001 85.9375ZM12.6891 53.4766L29.4501 82.8125H12.611L9.94851 54.5016C10.8189 54.0541 11.7387 53.7101 12.6891 53.4766ZM32.8126 85.9375V96.875H9.37508V85.9375H32.8126ZM39.0626 50.7453V53.4906L36.3204 51.8453L39.0626 50.7453ZM46.8751 30.4688C46.8751 30.676 46.7928 30.8747 46.6463 31.0212C46.4997 31.1677 46.301 31.25 46.0938 31.25C45.8866 31.25 45.6879 31.1677 45.5414 31.0212C45.3949 30.8747 45.3126 30.676 45.3126 30.4688V25.7812C45.3126 25.574 45.3949 25.3753 45.5414 25.2288C45.6879 25.0823 45.8866 25 46.0938 25C46.301 25 46.4997 25.0823 46.6463 25.2288C46.7928 25.3753 46.8751 25.574 46.8751 25.7812V30.4688ZM29.6876 3.125H32.8126C40.5657 3.125 46.8751 9.65781 46.8751 17.6875V21.9547C46.3596 21.8495 45.8281 21.8495 45.3126 21.9547V20.3125C45.3124 20.0887 45.2641 19.8675 45.171 19.664C45.0779 19.4604 44.9422 19.2792 44.773 19.1327C44.6038 18.9862 44.4051 18.8777 44.1903 18.8147C43.9756 18.7516 43.7498 18.7354 43.5282 18.7672C34.7907 20.0172 29.361 13.6359 28.1251 11.9984V7.8125C28.1251 7.3981 27.9605 7.00067 27.6674 6.70765C27.3744 6.41462 26.977 6.25 26.5626 6.25C26.1482 6.25 25.7507 6.41462 25.4577 6.70765C25.1647 7.00067 25.0001 7.3981 25.0001 7.8125V12.2031C23.5485 16.1047 18.1048 18.8875 18.0501 18.9156C17.522 19.1812 17.1876 19.7219 17.1876 20.3125V21.9547C16.6721 21.8495 16.1406 21.8495 15.6251 21.9547V17.6875C15.6251 9.65781 21.9345 3.125 29.6876 3.125ZM16.4063 31.25C16.1991 31.25 16.0004 31.1677 15.8539 31.0212C15.7074 30.8747 15.6251 30.676 15.6251 30.4688V25.7812C15.6251 25.574 15.7074 25.3753 15.8539 25.2288C16.0004 25.0823 16.1991 25 16.4063 25C16.6135 25 16.8122 25.0823 16.9588 25.2288C17.1053 25.3753 17.1876 25.574 17.1876 25.7812V30.4688C17.1876 30.676 17.1053 30.8747 16.9588 31.0212C16.8122 31.1677 16.6135 31.25 16.4063 31.25ZM20.3126 32.8125V21.2359C21.8298 20.35 24.9532 18.2641 26.8641 15.3359C29.3251 18.0125 34.5579 22.4109 42.1876 22.0297V32.8125C42.1876 36.4531 40.1563 39.6906 36.8876 41.2625C35.6163 41.8739 34.2233 42.1901 32.8126 42.1875H29.6876C28.305 42.1925 26.9392 41.8848 25.6923 41.2875C24.0847 40.5298 22.7255 39.3308 21.773 37.8304C20.8206 36.3299 20.3141 34.5897 20.3126 32.8125ZM26.2423 44.8109C27.3614 45.1394 28.5213 45.3082 29.6876 45.3125H32.8126C34.0204 45.3125 35.1954 45.125 36.3376 44.7891L36.922 48.2375L34.7235 49.1188C34.1814 48.683 33.5081 48.443 32.8126 48.4375H29.6876C28.9798 48.4375 28.3266 48.6937 27.786 49.1219L25.6235 48.2547L26.2423 44.8109ZM29.6876 53.125V51.5625H32.8126V53.125H29.6876ZM23.4376 50.7484L26.1798 51.8453L23.4376 53.4906V50.7484ZM21.1048 57.6094C21.3454 57.7464 21.6182 57.8168 21.895 57.8132C22.1719 57.8096 22.4428 57.7323 22.6798 57.5891L27.1345 54.9156C27.7001 55.7203 28.6313 56.25 29.6876 56.25V65.625C29.6876 66.0394 29.8522 66.4368 30.1452 66.7299C30.4382 67.0229 30.8357 67.1875 31.2501 67.1875C31.6645 67.1875 32.0619 67.0229 32.3549 66.7299C32.648 66.4368 32.8126 66.0394 32.8126 65.625V56.25C33.8688 56.25 34.8001 55.7203 35.3657 54.9172L39.8204 57.5906C40.0577 57.7321 40.3283 57.8082 40.6046 57.8113C40.8809 57.8144 41.1531 57.7442 41.3935 57.6081C41.6339 57.4719 41.834 57.2746 41.9735 57.036C42.113 56.7975 42.1868 56.5263 42.1876 56.25V53.125H46.4126L32.8126 76.9281V70.3125C32.8126 69.8981 32.648 69.5007 32.3549 69.2076C32.0619 68.9146 31.6645 68.75 31.2501 68.75C30.8357 68.75 30.4382 68.9146 30.1452 69.2076C29.8522 69.5007 29.6876 69.8981 29.6876 70.3125V76.9281L16.0876 53.125H20.3126V56.25C20.3126 56.5264 20.3859 56.7979 20.5251 57.0367C20.6643 57.2755 20.8643 57.4731 21.1048 57.6094ZM3.12508 65.625C3.12508 62.1453 4.5532 58.9312 7.00789 56.6L9.47195 82.8125H9.37508C7.65164 82.8125 6.25008 84.2141 6.25008 85.9375V96.875H3.12508V65.625ZM35.9376 96.875V89.0625H37.5001C39.2235 89.0625 40.6251 90.4641 40.6251 92.1875V93.75C40.6251 95.4734 39.2235 96.875 37.5001 96.875H35.9376ZM65.4501 93.7563C65.124 94.6676 64.5247 95.4562 63.7339 96.0143C62.943 96.5725 61.9993 96.873 61.0313 96.875H51.7157L55.4923 56.6016C56.7209 57.7611 57.6992 59.1598 58.367 60.7117C59.0347 62.2635 59.3778 63.9356 59.3751 65.625V81.25C59.3747 81.4553 59.4148 81.6587 59.4932 81.8484C59.5716 82.0382 59.6866 82.2106 59.8318 82.3558C59.977 82.5009 60.1494 82.616 60.3391 82.6944C60.5289 82.7728 60.7323 82.8129 60.9376 82.8125C61.2461 82.8124 61.5478 82.7209 61.8044 82.5496C62.0611 82.3784 62.2613 82.1349 62.3798 81.85L66.4985 71.9594L72.1298 74.9922L65.4501 93.7563ZM88.7016 60.6437L76.6298 65.475C76.263 65.6283 75.9281 65.8487 75.6423 66.125L70.597 63.4063L80.0079 59.375H90.1704C89.8322 59.9467 89.3164 60.3922 88.7016 60.6437ZM96.8751 56.25H65.6251V54.6875H96.8751V56.25Z" fill="#E74C3D"/>
</g>
<defs>
<clipPath id="clip0_1_919">
<rect width="100" height="100" fill="white"/>
</clipPath>
</defs>
</svg>
