<svg width="100" height="100" viewBox="0 0 100 100" fill="none" xmlns="http://www.w3.org/2000/svg">
<g clip-path="url(#clip0_1_52)">
<path d="M98.1632 89.0989H88.0141L85.55 65.6929L88.277 69.7824L88.9525 73.1649C89.1122 73.9681 89.4471 74.7262 89.9334 75.385C90.4197 76.0439 91.0455 76.5874 91.7659 76.9766C92.5803 77.4196 93.4926 77.6518 94.4197 77.6521C95.1201 77.6521 95.8239 77.519 96.4944 77.2512C97.2103 76.9639 97.8591 76.5316 98.3999 75.9816C98.9408 75.4316 99.3621 74.7757 99.6373 74.055C99.9105 73.3336 100.032 72.5634 99.9929 71.7929C99.9543 71.0224 99.7567 70.2683 99.4127 69.5778L97.9885 66.7277C97.9835 66.7161 97.9735 66.7094 97.9669 66.6994C97.9635 66.6911 97.9635 66.6828 97.9602 66.6745L87.9775 48.3729C87.7919 48.0335 87.4944 47.7689 87.1356 47.6242L82.6268 45.8206C86.0109 43.0721 88.1805 38.8827 88.1805 34.1941C88.1805 31.6868 87.52 29.2177 86.3054 27.0082L85.4469 18.4198C88.1256 17.2851 89.8443 15.0573 89.8443 12.5649C89.8443 8.98281 86.2888 6.05289 81.8531 5.9148C80.9783 4.39539 79.7183 3.13348 78.2003 2.2563C76.6822 1.37911 74.9597 0.91766 73.2064 0.918458C71.4532 0.91766 69.7307 1.37911 68.2126 2.2563C66.6946 3.13348 65.4346 4.39539 64.5598 5.9148C60.1241 6.05289 56.5686 8.98281 56.5686 12.5649C56.5686 15.0573 58.2873 17.2851 60.966 18.4198L60.1075 27.0082C58.8929 29.2177 58.2324 31.6868 58.2324 34.1941C58.2324 38.8827 60.402 43.0721 63.7878 45.819L59.2789 47.6225C59.0122 47.7295 58.7778 47.9038 58.5984 48.1283L52.9832 55.1478L46.1983 49.7205L44.3864 46.7008C44.0786 46.1867 43.6859 45.7508 43.2617 45.3531V40.8492C43.2617 38.683 41.8658 36.8528 39.9341 36.164V29.2028H41.5979C44.3498 29.2028 46.5892 26.9633 46.5892 24.2114V14.2287C46.5892 11.4768 44.3498 9.23737 41.5979 9.23737H34.9428C32.1909 9.23737 29.9514 11.4768 29.9514 14.2287V24.2114C29.9514 26.9633 32.1909 29.2028 34.9428 29.2028H36.6066V36.164C34.6749 36.8528 33.279 38.683 33.279 40.8492V47.511C32.863 48.501 32.6767 49.5808 32.8115 50.6855C33.0494 52.6105 34.1392 54.2876 35.8013 55.2859L38.9492 57.1743L50.01 66.8525C51.8684 68.4764 54.592 68.5113 56.4921 66.929L61.1424 63.0524L58.3988 89.0989H29.3125L31.2641 85.1957C34.3787 83.9928 36.6032 80.9863 36.6032 77.4525V73.8188C38.5349 73.13 39.9308 71.2998 39.9308 69.1336C39.9308 66.3817 37.6913 64.1422 34.9394 64.1422H4.99135C2.23945 64.1422 0 66.3817 0 69.1336C0 71.2998 1.39591 73.13 3.32757 73.8188V77.4525C3.32757 80.9863 5.55204 83.9928 8.66665 85.1957L10.6183 89.0989H1.66378C0.745375 89.0989 0 89.8443 0 90.7627V97.4179C0 98.3363 0.745375 99.0816 1.66378 99.0816H98.1632C99.0816 99.0816 99.827 98.3363 99.827 97.4179V90.7627C99.827 89.8443 99.0816 89.0989 98.1632 89.0989ZM36.6032 25.8752H34.9394C34.0227 25.8752 33.2757 25.1282 33.2757 24.2114V14.2287C33.2757 13.312 34.0227 12.5649 34.9394 12.5649H36.6032V25.8752ZM96.4362 71.0635C96.5769 71.3416 96.6577 71.646 96.6735 71.9573C96.6893 72.2685 96.6396 72.5796 96.5277 72.8704C96.4181 73.1619 96.2487 73.4273 96.0303 73.6494C95.812 73.8714 95.5495 74.0453 95.2599 74.1599C94.9534 74.2825 94.6237 74.3361 94.2941 74.3168C93.9646 74.2976 93.6433 74.2059 93.3532 74.0484C93.0625 73.8913 92.8099 73.6722 92.6135 73.4065C92.4171 73.1408 92.2817 72.835 92.2168 72.511L91.7876 70.3631L95.6093 69.4081L96.4362 71.0635ZM85.3437 50.4909L94.0087 66.3767L90.578 67.2335L84.7281 58.4587L82.3123 49.278L85.3437 50.4909ZM81.6917 60.8146L84.6699 89.0989H61.7446L64.7212 60.8146H81.6917ZM65.3833 57.4871L67.8358 48.1616C67.9023 48.1865 67.9705 48.2048 68.0371 48.2281C68.3715 48.3512 68.7076 48.4694 69.052 48.5692C69.1834 48.6075 69.3165 48.6374 69.448 48.6707C69.7657 48.7539 70.0835 48.8337 70.408 48.8953C70.571 48.9269 70.7357 48.9452 70.8988 48.9702C71.1999 49.0168 71.4994 49.0667 71.8055 49.0966C72.0202 49.1166 72.2365 49.1182 72.4511 49.1299C72.704 49.1432 72.9519 49.1682 73.2064 49.1682C73.461 49.1682 73.7089 49.1432 73.9618 49.1299C74.1781 49.1182 74.3927 49.1166 74.6073 49.0966C74.9135 49.0683 75.213 49.0184 75.5141 48.9702C75.6772 48.9452 75.8419 48.9269 76.0049 48.8953C76.3294 48.8337 76.6471 48.7522 76.9649 48.6707C77.0964 48.6357 77.2295 48.6075 77.3609 48.5692C77.7053 48.4694 78.0431 48.3529 78.3758 48.2281C78.4424 48.2032 78.5106 48.1865 78.5771 48.1616L81.0312 57.4871H65.3833ZM59.8962 12.5649C59.8962 10.7614 62.1822 9.23737 64.8875 9.23737C64.984 9.23737 65.0755 9.24902 65.1687 9.259L65.4366 9.28396C66.137 9.32555 66.8092 8.93456 67.092 8.2807C68.1436 5.82995 70.5444 4.24602 73.2064 4.24602C75.8685 4.24602 78.2693 5.82995 79.3225 8.2807C79.6037 8.93456 80.2858 9.33886 80.978 9.28396L81.2458 9.259C81.3373 9.24902 81.4289 9.23737 81.5254 9.23737C84.2307 9.23737 86.5167 10.7614 86.5167 12.5649C86.5167 13.8943 85.1724 15.1654 83.2474 15.6579C82.8617 15.7562 82.524 15.9896 82.2956 16.3156C82.0673 16.6416 81.9634 17.0387 82.0029 17.4348L83.0144 27.539H63.3984L64.4084 17.4365C64.4478 17.0404 64.3439 16.6433 64.1156 16.3173C63.8872 15.9912 63.5496 15.7579 63.1639 15.6596C61.2405 15.1654 59.8962 13.8943 59.8962 12.5649ZM61.56 34.1941C61.56 33.0661 61.728 31.9447 62.0508 30.8665H84.3604C84.6861 31.9458 84.852 33.0668 84.8529 34.1941C84.8529 38.8128 82.1426 42.8009 78.2361 44.6826C77.8601 44.8636 77.4747 45.0241 77.0814 45.1634L77.0265 45.1834C74.5524 46.0502 71.8571 46.0502 69.3831 45.1834L69.3282 45.1634C68.935 45.0238 68.5496 44.8633 68.1735 44.6826C64.2703 42.8009 61.56 38.8128 61.56 34.1941ZM39.9308 12.5649H41.5946C42.5113 12.5649 43.2584 13.312 43.2584 14.2287V24.2114C43.2584 25.1282 42.5113 25.8752 41.5946 25.8752H39.9308V12.5649ZM38.267 39.1855C39.1838 39.1855 39.9308 39.9325 39.9308 40.8492V43.7409C39.9208 43.7392 39.9092 43.7392 39.8992 43.7376C39.8592 43.7326 39.8243 43.7143 39.7844 43.7093C39.6929 43.6976 39.603 43.7143 39.5132 43.706C39.2254 43.6827 38.9363 43.6793 38.648 43.696C38.5033 43.7043 38.3602 43.7043 38.2188 43.7226C37.876 43.7659 37.5416 43.8457 37.2105 43.9455C37.0691 43.9888 36.9327 44.0337 36.7946 44.0853C36.7313 44.1086 36.6664 44.1236 36.6049 44.1485V40.8492H36.6032C36.6032 39.9325 37.3503 39.1855 38.267 39.1855ZM37.5133 52.4325C37.1302 52.2048 36.8046 51.8921 36.5617 51.5185C36.3188 51.1449 36.1651 50.7204 36.1124 50.2779C36.0392 49.6906 36.1607 49.1166 36.4202 48.6058C36.4269 48.5925 36.4385 48.5842 36.4452 48.5709C36.5167 48.4344 36.5882 48.318 36.6615 48.2098C36.7513 48.085 36.8395 47.9586 36.9493 47.8488C37.1822 47.6142 37.4534 47.4362 37.7379 47.2981C37.7612 47.2864 37.7845 47.2714 37.8078 47.2598C38.0923 47.1317 38.3951 47.0518 38.7046 47.0202C38.7279 47.0186 38.7495 47.0152 38.7728 47.0136C39.0739 46.9886 39.3784 47.0152 39.6779 47.0834C39.7095 47.0901 39.7411 47.0967 39.7711 47.1051C40.0822 47.1883 40.385 47.3164 40.6629 47.506C40.6712 47.511 40.6812 47.5144 40.6895 47.5194C41.0239 47.7523 41.3151 48.0501 41.533 48.4128L42.8291 50.5741L39.6746 53.7286L37.5133 52.4325ZM54.3591 64.3718C53.7269 64.8976 52.8168 64.8892 52.1979 64.3469L42.3632 55.7418L45.0436 53.0614L52.1995 58.7865C52.37 58.9231 52.5657 59.0248 52.7755 59.0857C52.9853 59.1466 53.205 59.1655 53.4221 59.1414C53.6393 59.1173 53.8495 59.0506 54.0408 58.9452C54.2322 58.8398 54.4008 58.6976 54.5371 58.5269L60.9177 50.5508L64.0972 49.2796L61.7463 58.2158L54.3591 64.3718ZM4.99135 70.7973C4.0746 70.7973 3.32757 70.0503 3.32757 69.1336C3.32757 68.2168 4.0746 67.4698 4.99135 67.4698H34.9394C35.8562 67.4698 36.6032 68.2168 36.6032 69.1336C36.6032 70.0503 35.8562 70.7973 34.9394 70.7973H4.99135ZM6.65513 77.4525V74.1249H33.2757V77.4525C33.2757 80.2044 31.0362 82.4438 28.2843 82.4438H11.6465C8.89458 82.4438 6.65513 80.2044 6.65513 77.4525ZM27.2561 85.7714L25.5923 89.0989H21.6292V85.7714H27.2561ZM18.3016 85.7714V89.0989H14.3385L12.6747 85.7714H18.3016ZM96.4994 95.7541H3.32757V92.4265H96.4994V95.7541Z" fill="#E74C3D"/>
<path d="M78.1978 67.4697H68.2151C67.2967 67.4697 66.5513 68.2151 66.5513 69.1335V74.1248C66.5513 77.7952 69.5361 80.78 73.2064 80.78C76.8767 80.78 79.8615 77.7952 79.8615 74.1248V69.1335C79.8615 68.2151 79.1162 67.4697 78.1978 67.4697ZM76.534 74.1248C76.534 75.96 75.0416 77.4524 73.2064 77.4524C71.3713 77.4524 69.8788 75.96 69.8788 74.1248V70.7973H76.534V74.1248ZM18.3016 50.8319H21.6291V59.1508H18.3016V50.8319ZM26.6205 54.1595H29.9481V60.8146H26.6205V54.1595ZM9.98267 54.1595H13.3102V60.8146H9.98267V54.1595ZM18.3016 44.1768H21.6291V47.5043H18.3016V44.1768ZM9.98267 47.5043H13.3102V50.8319H9.98267V47.5043ZM26.6205 47.5043H29.9481V50.8319H26.6205V47.5043Z" fill="#E74C3D"/>
</g>
<defs>
<clipPath id="clip0_1_52">
<rect width="100" height="100" fill="white"/>
</clipPath>
</defs>
</svg>
