<svg width="100" height="100" viewBox="0 0 100 100" fill="none" xmlns="http://www.w3.org/2000/svg">
<path d="M43.7596 35.9375C44.6212 35.9375 45.3197 35.2379 45.3197 34.375C45.3197 33.5121 44.6212 32.8125 43.7596 32.8125C42.8979 32.8125 42.1995 33.5121 42.1995 34.375C42.1995 35.2379 42.8979 35.9375 43.7596 35.9375Z" fill="#E74C3D"/>
<path d="M56.2404 35.9375C57.102 35.9375 57.8005 35.2379 57.8005 34.375C57.8005 33.5121 57.102 32.8125 56.2404 32.8125C55.3788 32.8125 54.6803 33.5121 54.6803 34.375C54.6803 35.2379 55.3788 35.9375 56.2404 35.9375Z" fill="#E74C3D"/>
<path d="M56.1484 45.1422L57.5384 43.0547L54.9424 41.3219L53.5524 43.4094C52.7598 44.6 51.4306 45.3125 50 45.3125C48.5694 45.3125 47.2402 44.6 46.4476 43.4078L45.0576 41.3203L42.4615 43.0531L43.8516 45.1406C45.2245 47.2047 47.5225 48.4375 50 48.4375C52.4775 48.4375 54.7755 47.2047 56.1484 45.1422Z" fill="#E74C3D"/>
<path d="M82.7623 76.5625C82.7623 74.8391 81.3629 73.4375 79.6421 73.4375H79.5656C78.9151 66.4516 73.9445 60.4828 67.1612 58.6031V57.8125C67.1612 56.0891 65.7618 54.6875 64.041 54.6875H60.9208C60.3175 54.6886 59.7275 54.8648 59.2222 55.1948C58.7168 55.5248 58.3179 55.9945 58.0736 56.5469C57.879 56.4444 57.708 56.3022 57.5718 56.1294C57.4355 55.9566 57.337 55.7571 57.2826 55.5438L56.7256 53.3094C62.3982 50.8797 66.5028 45.4734 67.0832 39.0625H68.7213C71.3017 39.0625 73.4016 36.9594 73.4016 34.375C73.4016 31.7906 71.3017 29.6875 68.7213 29.6875H69.6355C70.634 29.6863 71.5912 29.2885 72.2972 28.5814C73.0032 27.8743 73.4004 26.9156 73.4016 25.9156C73.4016 24.9078 73.01 23.9609 72.2986 23.2484L70.2471 21.1938C69.907 12.5563 63.1892 5.53906 54.6803 4.76719V4.6875C54.6803 2.96406 53.2809 1.5625 51.5601 1.5625H48.4399C46.7191 1.5625 45.3197 2.96406 45.3197 4.6875V4.76719C36.8108 5.53906 30.093 12.5563 29.7529 21.1938L27.7013 23.2484C27.3505 23.5979 27.0724 24.0135 26.8831 24.4714C26.6937 24.9292 26.597 25.4201 26.5983 25.9156C26.5996 26.9156 26.9968 27.8743 27.7028 28.5814C28.4088 29.2885 29.366 29.6863 30.3645 29.6875H31.2787C28.6983 29.6875 26.5983 31.7906 26.5983 34.375C26.5983 36.9594 28.6983 39.0625 31.2787 39.0625H32.9184C33.4987 45.4734 37.6034 50.8797 43.2759 53.3094L42.719 55.5438C42.6097 55.9797 42.3149 56.3422 41.928 56.5469C41.6832 55.9945 41.2839 55.5249 40.7784 55.1949C40.2728 54.8649 39.6827 54.6887 39.0792 54.6875H35.959C34.2382 54.6875 32.8388 56.0891 32.8388 57.8125V58.6031C26.0539 60.4844 21.0849 66.4531 20.4344 73.4375H20.3579C18.6371 73.4375 17.2377 74.8391 17.2377 76.5625C17.2377 77.7016 17.5918 78.7844 18.2455 79.6875C17.5876 80.596 17.2347 81.6902 17.2377 82.8125C17.2377 84.5359 18.6371 85.9375 20.3579 85.9375V98.4375H79.6421V85.9375C81.3629 85.9375 82.7623 84.5359 82.7623 82.8125C82.7623 81.6734 82.4081 80.5906 81.7545 79.6875C82.4124 78.779 82.7653 77.6848 82.7623 76.5625ZM76.422 73.4375H69.3703C68.8351 72.4592 68.0785 71.6201 67.1612 70.9875V61.8719C69.6318 62.737 71.81 64.2799 73.4474 66.3248C75.0848 68.3697 76.1155 70.8343 76.422 73.4375ZM33.3146 75.0766C33.8653 75.9656 34.8404 76.5625 35.959 76.5625H39.0792V85.9375C37.3584 85.9375 35.959 87.3391 35.959 89.0625V95.3125H32.8388V76.9313C32.8388 76.2656 33.0244 75.6422 33.3146 75.0766ZM54.4822 69.1984L57.8005 66.9813V70.3125H42.1994V66.9813L45.5178 69.1969L50 64.7094L54.4822 69.1984ZM60.9208 70.3125H64.041V73.4375H60.9208V70.3125ZM48.4399 79.6875H51.5601V85.9375H48.4399V79.6875ZM54.6803 82.8125H57.8005V85.9375H54.6803V82.8125ZM45.3197 85.9375H42.1994V76.5625H45.3197V85.9375ZM39.0792 73.4375H35.959V70.3125H39.0792V73.4375ZM39.0792 89.0625H60.9208V95.3125H39.0792V89.0625ZM60.9208 85.9375V82.8125C60.9208 81.0891 59.5213 79.6875 57.8005 79.6875H54.6803C54.6803 77.9641 53.2809 76.5625 51.5601 76.5625H48.4399C48.4399 74.8391 47.0405 73.4375 45.3197 73.4375H57.8005C57.8005 75.1609 59.2 76.5625 60.9208 76.5625H64.041C65.1596 76.5625 66.1346 75.9656 66.6854 75.0766C66.9755 75.6422 67.1612 76.2656 67.1612 76.9313V95.3125H64.041V89.0625C64.041 87.3391 62.6416 85.9375 60.9208 85.9375ZM64.041 57.8125V67.1875H60.9208V57.8125H64.041ZM57.8005 59.7438V63.2266L54.8784 65.1766L51.4821 61.775L55.6663 58.6328C56.2638 59.1734 56.9924 59.5688 57.8005 59.7438ZM70.2814 34.375C70.2814 35.2359 69.5809 35.9375 68.7213 35.9375H67.1612V32.8125H68.7213C69.5809 32.8125 70.2814 33.5141 70.2814 34.375ZM67.0691 20.3125H60.9208V14.0625H57.8005V20.3125H54.6803V7.90469C57.8426 8.26353 60.7897 9.68612 63.0401 11.9399C65.2904 14.1937 66.7109 17.1454 67.0691 20.3125ZM51.5601 4.6875V20.3125H48.4399V4.6875H51.5601ZM45.3197 7.90469V20.3125H42.1994V14.0625H39.0792V20.3125H32.9308C33.2891 17.1454 34.7095 14.1937 36.9599 11.9399C39.2102 9.68612 42.1574 8.26353 45.3197 7.90469ZM30.3645 26.5625C30.2369 26.5619 30.1124 26.5236 30.0065 26.4524C29.9006 26.3812 29.8181 26.2803 29.7693 26.1623C29.7205 26.0443 29.7075 25.9145 29.7321 25.7892C29.7566 25.6639 29.8176 25.5486 29.9073 25.4578L31.9246 23.4375H68.0754L70.0926 25.4578C70.1824 25.5486 70.2433 25.6639 70.2679 25.7892C70.2925 25.9145 70.2795 26.0443 70.2307 26.1623C70.1819 26.2803 70.0993 26.3812 69.9935 26.4524C69.8876 26.5236 69.7631 26.5619 69.6355 26.5625H30.3645ZM29.7186 34.375C29.7186 33.5141 30.4191 32.8125 31.2787 32.8125H32.8388V35.9375H31.2787C30.4191 35.9375 29.7186 35.2359 29.7186 34.375ZM35.959 37.5V29.6875H64.041V37.5C64.041 45.2531 57.7413 51.5625 50 51.5625C42.2587 51.5625 35.959 45.2531 35.959 37.5ZM50 54.6875C51.2886 54.6875 52.5383 54.5328 53.7458 54.2625L54.1468 55.8688L50 58.9844L45.8532 55.8703L46.2542 54.2625C47.4617 54.5328 48.7113 54.6875 50 54.6875ZM44.3321 58.6344L48.5163 61.7766L45.12 65.1781L42.1994 63.2266V59.7453C42.9949 59.5675 43.73 59.1845 44.3321 58.6344ZM35.959 57.8125H39.0792V67.1875H35.9574L35.9559 57.8125H35.959ZM32.8388 61.8719V70.9875C31.9221 71.6209 31.1657 72.4598 30.6297 73.4375H23.578C23.8845 70.8343 24.9152 68.3697 26.5526 66.3248C28.19 64.2799 30.3682 62.737 32.8388 61.8719ZM21.0038 78.125C20.5917 77.7095 20.3597 77.1481 20.3579 76.5625H29.7435C29.7373 76.6859 29.7186 76.8063 29.7186 76.9313V82.8125H20.3579C20.3579 82.2312 20.5935 81.6609 21.0038 81.25L22.5639 79.6875L21.0038 78.125ZM23.4781 85.9375H29.7186V95.3125H23.4781V85.9375ZM76.5218 95.3125H70.2814V85.9375H76.5218V95.3125ZM78.9962 81.25C79.4065 81.6609 79.6421 82.2312 79.6421 82.8125H70.2814V76.9313C70.2814 76.8063 70.2627 76.6859 70.2565 76.5625H79.6421C79.6421 77.1438 79.4065 77.7141 78.9962 78.125L77.4361 79.6875L78.9962 81.25Z" fill="#E74C3D"/>
</svg>
