<svg width="100" height="100" viewBox="0 0 100 100" fill="none" xmlns="http://www.w3.org/2000/svg">
<g clip-path="url(#clip0_85_1558)">
<path d="M41.8347 17.8686L45.8607 25.9208H54.2926L58.3187 17.8686L54.2926 9.81641H45.8605L41.8347 17.8686ZM52.3025 13.0373L54.7181 17.8686L52.3025 22.6999H47.8508L45.4352 17.8686L47.8508 13.0373H52.3025Z" fill="#E74C3D"/>
<path d="M66.1806 9.81601V7.15959L50.0763 0L33.9719 7.15959V9.81601H0.152771V11.4264C0.152771 15.866 3.76518 19.4786 8.20495 19.4786H17.016L7.15213 42.0247H1.14017L5.4352 54.9082H36.7435L41.0385 42.0247H35.0255L25.1616 19.4786H35.1842C36.7191 24.3437 39.6602 28.6607 43.6343 31.8816V83.896H35.5822C32.9189 83.896 30.7508 86.0631 30.7508 88.7273V90.3378H29.1404C26.4772 90.3378 24.3091 92.5048 24.3091 95.1691V96.7795H6.59431V100H93.5578V96.7795H75.843V95.1691C75.843 92.5048 73.6758 90.3378 71.0117 90.3378H69.4013V88.7273C69.4013 86.0631 67.2341 83.896 64.57 83.896H56.5178V31.8816C60.4928 28.6623 63.4346 24.3437 64.9678 19.4786H74.9913L65.1274 42.0247H59.1144L63.4093 54.9082H94.7178L99.0128 42.0247H92.9994L83.1355 19.4786H91.9474C96.388 19.4786 99.9996 15.866 99.9996 11.4264V9.81601H66.1806ZM34.4216 51.6873H7.75584L5.60913 45.2456H36.5716L34.4216 51.6873ZM31.5098 42.0247H10.6677L20.5316 19.4786H21.6475L31.5098 42.0247ZM8.20475 16.2577C6.10534 16.2577 4.31414 14.9106 3.64883 13.0369H34.0224C34.0801 14.1173 34.2053 15.193 34.3975 16.2577H8.20475ZM72.6222 95.1691V96.7795H27.53V95.1691C27.53 94.2797 28.2537 93.5587 29.1404 93.5587H71.0117C71.8997 93.5587 72.6222 94.2797 72.6222 95.1691ZM66.1804 88.7273V90.3378H33.9717V88.7273C33.9717 87.838 34.6954 87.1169 35.5822 87.1169H64.57C65.4579 87.1169 66.1804 87.838 66.1804 88.7273ZM53.2969 83.896H46.8552V34.1094C47.6834 34.5938 48.5319 35.0497 49.4228 35.4453L50.0763 35.7356L50.7305 35.4437C51.6191 35.0481 52.4698 34.5922 53.2971 34.1092L53.2969 83.896ZM62.9596 11.6694C62.9596 20.427 57.9269 28.4067 50.0761 32.1976C42.2252 28.4067 37.1926 20.427 37.1926 11.6694V9.25054L50.0761 3.52524L62.9596 9.25054V11.6694ZM92.3973 51.6873H65.7315L63.5848 45.2456H94.5472L92.3973 51.6873ZM89.4855 42.0247H68.6434L78.5073 19.4786H79.6231L89.4855 42.0247ZM91.9474 16.2577H65.7561C65.9475 15.1929 66.0727 14.1172 66.1311 13.0369H96.5037C95.8384 14.9106 94.0478 16.2577 91.9476 16.2577H91.9474ZM0.152771 96.7795H3.37364V100H0.152771V96.7795ZM96.7789 96.7795H99.9998V100H96.7789V96.7795Z" fill="#E74C3D"/>
</g>
<defs>
<clipPath id="clip0_85_1558">
<rect width="99.847" height="100" fill="white" transform="translate(0.0764771)"/>
</clipPath>
</defs>
</svg>
