<svg width="100" height="100" viewBox="0 0 100 100" fill="none" xmlns="http://www.w3.org/2000/svg">
<path d="M55.2016 91.4345H55.1938C51.0953 91.4157 47.7594 87.4563 47.7594 82.6095V72.0735C47.7594 71.6591 47.924 71.2617 48.217 70.9687C48.5101 70.6757 48.9075 70.511 49.3219 70.511C49.7363 70.511 50.1337 70.6757 50.4268 70.9687C50.7198 71.2617 50.8844 71.6591 50.8844 72.0735V82.6095C50.8844 85.7407 52.8235 88.2985 55.2094 88.3095C55.4146 88.31 55.6177 88.3509 55.807 88.4299C55.9964 88.5089 56.1684 88.6244 56.3131 88.7699C56.4578 88.9153 56.5725 89.0879 56.6506 89.2776C56.7286 89.4674 56.7685 89.6707 56.768 89.8759C56.7675 90.0811 56.7266 90.2841 56.6476 90.4735C56.5686 90.6629 56.453 90.8349 56.3076 90.9796C56.1621 91.1243 55.9896 91.239 55.7998 91.317C55.6101 91.3951 55.4068 91.435 55.2016 91.4345ZM44.5532 68.0267C44.4699 68.0269 44.3868 68.0201 44.3047 68.0063C34.0141 66.3438 32.175 60.9282 32.1016 60.6985C32.0005 60.3797 32.0043 60.0369 32.1125 59.7204L35.5219 49.7126C35.5847 49.5143 35.6864 49.3305 35.8211 49.1721C35.9559 49.0136 36.1209 48.8837 36.3065 48.7898C36.4921 48.696 36.6946 48.6401 36.9021 48.6256C37.1096 48.611 37.3179 48.638 37.5148 48.705C37.7117 48.772 37.8932 48.8776 38.0488 49.0157C38.2043 49.1537 38.3307 49.3215 38.4206 49.509C38.5105 49.6966 38.562 49.9002 38.5722 50.108C38.5823 50.3157 38.5509 50.5234 38.4797 50.7188L35.2781 60.1189C35.836 61.0282 37.7547 63.3782 43.1531 64.6017L44.3328 51.4735L44.3266 42.6079C44.3266 42.1935 44.4912 41.7961 44.7842 41.5031C45.0773 41.21 45.4747 41.0454 45.8891 41.0454C46.3035 41.0454 46.7009 41.21 46.9939 41.5031C47.287 41.7961 47.4516 42.1935 47.4516 42.6079V51.6142L46.111 66.6032C46.0769 66.9925 45.8979 67.3549 45.6094 67.6185C45.3209 67.8821 44.9439 68.0278 44.5532 68.0267Z" fill="#E74C3D"/>
<path d="M37 51.7796C36.7513 51.7796 36.5063 51.7202 36.2852 51.6064C36.0641 51.4927 35.8733 51.3278 35.7288 51.1255C35.5842 50.9231 35.49 50.6892 35.454 50.4432C35.4181 50.1972 35.4413 49.9461 35.5219 49.7108C36.5859 46.5905 38.9516 44.0124 42.0156 42.6358L53.1156 37.653L53.1844 33.2905C53.1844 32.8761 53.349 32.4787 53.642 32.1857C53.9351 31.8926 54.3325 31.728 54.7469 31.728H54.7484C55.1626 31.7284 55.5596 31.8932 55.8523 32.1862C56.145 32.4792 56.3094 32.8764 56.3094 33.2905L56.3063 37.578C56.3021 38.1974 56.1197 38.8024 55.7808 39.3208C55.4419 39.8392 54.9609 40.2491 54.3953 40.5015L43.2938 45.4843C41.0188 46.5062 39.2641 48.414 38.4781 50.7171C38.3736 51.0264 38.1749 51.2953 37.9098 51.4858C37.6447 51.6764 37.3265 51.7791 37 51.7796Z" fill="#E74C3D"/>
<path d="M58.3719 53.1765H51.2094C50.795 53.1765 50.3976 53.0119 50.1045 52.7189C49.8115 52.4258 49.6469 52.0284 49.6469 51.614V40.2234C49.6469 39.809 49.8115 39.4116 50.1045 39.1185C50.3976 38.8255 50.795 38.6609 51.2094 38.6609C51.6238 38.6609 52.0212 38.8255 52.3142 39.1185C52.6073 39.4116 52.7719 39.809 52.7719 40.2234V50.0515H58.3719C58.7863 50.0515 59.1837 50.2161 59.4767 50.5092C59.7698 50.8022 59.9344 51.1996 59.9344 51.614C59.9344 52.0284 59.7698 52.4258 59.4767 52.7189C59.1837 53.0119 58.7863 53.1765 58.3719 53.1765Z" fill="#E74C3D"/>
<path d="M65.4485 53.1765H58.286C57.8716 53.1765 57.4741 53.0119 57.1811 52.7189C56.8881 52.4258 56.7235 52.0284 56.7235 51.614C56.7235 51.1996 56.8881 50.8022 57.1811 50.5092C57.4741 50.2161 57.8716 50.0515 58.286 50.0515H63.886V40.2234C63.886 39.809 64.0506 39.4116 64.3436 39.1185C64.6366 38.8255 65.0341 38.6609 65.4485 38.6609C65.8629 38.6609 66.2603 38.8255 66.5533 39.1185C66.8463 39.4116 67.011 39.809 67.011 40.2234V51.614C67.011 52.0284 66.8463 52.4258 66.5533 52.7189C66.2603 53.0119 65.8629 53.1765 65.4485 53.1765ZM29.6453 78.4031C29.3436 78.4031 29.0484 78.3157 28.7953 78.1516C28.5422 77.9874 28.342 77.7535 28.2189 77.4781C28.0958 77.2027 28.0551 76.8975 28.1016 76.5994C28.1482 76.3014 28.28 76.0232 28.4813 75.7984L30.6609 73.3656C30.8969 73.1078 31.075 72.8031 31.1984 72.4437L34.436 62.6015C34.5655 62.2076 34.8461 61.8813 35.2162 61.6944C35.5863 61.5074 36.0155 61.4751 36.4094 61.6046C36.8033 61.7341 37.1296 62.0148 37.3165 62.3849C37.5035 62.755 37.5358 63.1842 37.4063 63.5781L34.161 73.4406C33.9104 74.1902 33.5071 74.8797 32.9766 75.4656L30.811 77.8828C30.5 78.2265 30.0735 78.4031 29.6453 78.4031ZM33.1063 84.3625C32.7982 84.362 32.4972 84.2705 32.2409 84.0996C31.9846 83.9287 31.7845 83.6859 31.6657 83.4017C31.5469 83.1175 31.5146 82.8045 31.573 82.5021C31.6314 82.1996 31.7777 81.9211 31.9938 81.7015L37.5422 76.0718C37.8719 75.7421 38.1094 75.3437 38.2375 74.9093L41.0703 65.6046C41.2017 65.221 41.477 64.9034 41.8381 64.7188C42.1992 64.5342 42.6178 64.4971 43.0057 64.6153C43.3937 64.7334 43.7205 64.9976 43.9174 65.3522C44.1143 65.7067 44.1657 66.1238 44.061 66.5156L41.2313 75.8078C40.9527 76.7394 40.4469 77.5873 39.7594 78.275L34.2188 83.8953C34.0737 84.0431 33.9005 84.1606 33.7095 84.2408C33.5185 84.321 33.3134 84.3624 33.1063 84.3625Z" fill="#E74C3D"/>
<path d="M72.9469 66.7079C72.5763 66.7075 72.218 66.5755 71.9358 66.3354C71.6536 66.0952 71.4659 65.7626 71.4062 65.3969L69.1969 51.8719C69.1831 51.7888 69.1763 51.7046 69.1766 51.6204V43.6391L62.2156 40.511C61.6493 40.2587 61.1678 39.8485 60.8288 39.3294C60.4899 38.8103 60.3079 38.2044 60.3047 37.5844V33.0657C60.3047 32.6513 60.4693 32.2538 60.7623 31.9608C61.0554 31.6678 61.4528 31.5032 61.8672 31.5032C62.2816 31.5032 62.679 31.6678 62.972 31.9608C63.2651 32.2538 63.4297 32.6513 63.4297 33.0657V37.5844L71.2375 41.1391C71.3391 41.1719 71.4359 41.2172 71.5281 41.2688L74.5922 42.6422C77.6203 43.9938 79.9672 46.5219 81.05 49.5922L86.0234 59.2829C86.1588 59.546 86.2165 59.8422 86.1896 60.1369C86.1628 60.4316 86.0526 60.7126 85.8719 60.9469C82.3453 65.5438 73.5094 66.6516 73.1359 66.6954C73.0733 66.7041 73.0101 66.7083 72.9469 66.7079ZM72.3 51.4938L74.2375 63.3532C76.7172 62.8657 80.6266 61.7391 82.7469 59.75L78.2172 50.9219C78.1827 50.8543 78.153 50.7843 78.1281 50.7125C77.3437 48.4125 75.5891 46.5125 73.3141 45.4954L72.3 45.0407V51.4938Z" fill="#E74C3D"/>
<path d="M81.5797 84.1421C81.258 84.144 80.9435 84.0464 80.6795 83.8625C80.4154 83.6787 80.2147 83.4177 80.1048 83.1153C79.995 82.8129 79.9813 82.4839 80.0658 82.1734C80.1502 81.863 80.3287 81.5862 80.5766 81.3812L84.8438 77.8249C87.1625 75.9093 87.8125 72.7359 86.425 70.1046L82.0953 61.9296C81.9993 61.7482 81.9399 61.5497 81.9206 61.3454C81.9013 61.141 81.9225 60.9349 81.9828 60.7388C82.0432 60.5426 82.1416 60.3602 82.2724 60.2021C82.4032 60.044 82.5639 59.9132 82.7453 59.8171C82.9267 59.7211 83.1252 59.6617 83.3296 59.6424C83.5339 59.6231 83.74 59.6442 83.9362 59.7046C84.1324 59.765 84.3147 59.8634 84.4729 59.9942C84.631 60.125 84.7618 60.2857 84.8578 60.4671L89.1875 68.6452C91.275 72.6046 90.3078 77.3687 86.836 80.2327L82.5766 83.7812C82.2968 84.0145 81.944 84.1422 81.5797 84.1421ZM75.6375 72.1859H46.8235C46.4091 72.1859 46.0116 72.0212 45.7186 71.7282C45.4256 71.4352 45.261 71.0378 45.261 70.6234C45.261 70.209 45.4256 69.8115 45.7186 69.5185C46.0116 69.2255 46.4091 69.0609 46.8235 69.0609H75.6375C76.0519 69.0609 76.4494 69.2255 76.7424 69.5185C77.0354 69.8115 77.2 70.209 77.2 70.6234C77.2 71.0378 77.0354 71.4352 76.7424 71.7282C76.4494 72.0212 76.0519 72.1859 75.6375 72.1859ZM63.2266 94.9171C63.1625 94.9171 63.0047 94.9062 62.9406 94.8968C62.0766 94.8968 61.4281 94.1999 61.4281 93.3359C61.4281 92.4718 62.1781 91.7749 63.0422 91.7749C63.1063 91.7749 63.2641 91.7859 63.3281 91.7952C64.1922 91.7952 64.8406 92.4921 64.8406 93.3562C64.8406 94.2202 64.0906 94.9171 63.2266 94.9171Z" fill="#E74C3D"/>
<path d="M64.8297 95.0374L64.5844 95.0359C59.6703 94.7483 56.2203 93.4593 54.2656 91.1983C52.9172 89.6405 52.3047 87.639 52.4953 85.4093C52.5395 84.8551 52.706 84.3176 52.983 83.8356C53.2599 83.3536 53.6404 82.939 54.0969 82.6218C54.5815 82.2864 55.1344 82.0627 55.7158 81.9668C56.2973 81.8709 56.8928 81.9051 57.4594 82.0671C59.9781 82.7546 62.6281 82.9937 65.3313 82.7749C67.5518 82.5734 69.6529 81.6792 71.3375 80.2187L76.1031 76.053L76.1125 76.0452L79.4 73.178C79.5229 73.0685 79.6213 72.9342 79.6886 72.7839C79.7559 72.6336 79.7907 72.4708 79.7906 72.3062C79.787 72.1111 79.7367 71.9198 79.6438 71.7483L76.0688 64.8983C75.9738 64.7163 75.9155 64.5174 75.8974 64.3129C75.8793 64.1084 75.9016 63.9023 75.9632 63.7064C76.0247 63.5106 76.1242 63.3287 76.256 63.1713C76.3877 63.0139 76.5493 62.884 76.7313 62.789C76.9133 62.694 77.1122 62.6357 77.3167 62.6176C77.5212 62.5995 77.7273 62.6218 77.9232 62.6833C78.119 62.7449 78.3009 62.8444 78.4583 62.9762C78.6157 63.108 78.7456 63.2695 78.8406 63.4515L82.4203 70.3108C82.7469 70.9452 82.9156 71.6327 82.9156 72.3062C82.9156 73.5249 82.3875 74.6968 81.4688 75.5187L79.311 77.4015L84.3953 83.5405C84.6502 83.8494 84.7768 84.2444 84.7489 84.6439C84.7209 85.0434 84.5407 85.417 84.2453 85.6874C83.8266 86.0702 73.9375 95.0358 64.8297 95.0374ZM56.3578 85.0405C56.1897 85.0384 56.025 85.0881 55.886 85.1827C55.8062 85.2366 55.7397 85.308 55.6915 85.3913C55.6434 85.4747 55.6147 85.5679 55.6078 85.664C55.4875 87.064 55.8313 88.2327 56.6266 89.1515C57.9891 90.7265 60.7813 91.6812 64.7016 91.9108C71.0438 92.0265 78.2594 86.5968 81.0078 84.3421L76.9563 79.4562L73.3875 82.5749C71.2002 84.4705 68.4719 85.6299 65.5891 85.889C62.5771 86.1445 59.5437 85.87 56.6266 85.078C56.5391 85.0535 56.4487 85.0409 56.3578 85.0405ZM41.6031 96.389C41.2053 96.3885 40.8226 96.2363 40.5331 95.9633C40.2437 95.6904 40.0692 95.3173 40.0453 94.9202C39.7375 89.7812 41.9328 78.128 42.0266 77.6343C42.119 77.242 42.3592 76.9006 42.6971 76.6811C43.0351 76.4616 43.4448 76.381 43.8407 76.4562C44.2366 76.5313 44.5882 76.7564 44.8223 77.0845C45.0563 77.4125 45.1547 77.8183 45.0969 78.2171C45.075 78.3343 42.8797 89.9796 43.1656 94.7311C43.1904 95.1447 43.0499 95.5512 42.7751 95.8612C42.5003 96.1712 42.1136 96.3593 41.7 96.3843C41.6672 96.389 41.6344 96.389 41.6031 96.389ZM12.7453 39.9046C12.3309 39.9046 11.9335 39.74 11.6405 39.4469C11.3475 39.1539 11.1828 38.7565 11.1828 38.3421V31.7155C11.1828 31.3017 11.347 30.9047 11.6394 30.6118C11.9317 30.3188 12.3283 30.1539 12.7422 30.153L35.9031 30.1187H35.9063C36.3207 30.1187 36.7181 30.2833 37.0111 30.5763C37.3041 30.8693 37.4688 31.2668 37.4688 31.6812V38.3077C37.4688 38.7221 37.3041 39.1195 37.0111 39.4126C36.7181 39.7056 36.3207 39.8702 35.9063 39.8702C35.4919 39.8702 35.0944 39.7056 34.8014 39.4126C34.5084 39.1195 34.3438 38.7221 34.3438 38.3077V33.2452L14.3078 33.2765V38.3437C14.3074 38.7578 14.1426 39.1548 13.8496 39.4475C13.5567 39.7402 13.1595 39.9046 12.7453 39.9046Z" fill="#E74C3D"/>
<path d="M18.5359 37.25C18.1215 37.25 17.7241 37.0854 17.4311 36.7924C17.1381 36.4993 16.9734 36.1019 16.9734 35.6875V33.5594C16.9734 33.145 17.1381 32.7475 17.4311 32.4545C17.7241 32.1615 18.1215 31.9969 18.5359 31.9969C18.9504 31.9969 19.3478 32.1615 19.6408 32.4545C19.9338 32.7475 20.0984 33.145 20.0984 33.5594V35.6875C20.0984 36.1019 19.9338 36.4993 19.6408 36.7924C19.3478 37.0854 18.9504 37.25 18.5359 37.25ZM24.325 37.25C23.9106 37.25 23.5132 37.0854 23.2202 36.7924C22.9271 36.4993 22.7625 36.1019 22.7625 35.6875V33.5531C22.7625 33.3479 22.8029 33.1448 22.8815 32.9552C22.96 32.7656 23.0751 32.5934 23.2202 32.4483C23.3652 32.3032 23.5375 32.1881 23.7271 32.1096C23.9166 32.031 24.1198 31.9906 24.325 31.9906C24.5302 31.9906 24.7334 32.031 24.923 32.1096C25.1125 32.1881 25.2848 32.3032 25.4299 32.4483C25.575 32.5934 25.6901 32.7656 25.7686 32.9552C25.8471 33.1448 25.8875 33.3479 25.8875 33.5531V35.6875C25.8875 36.1019 25.7229 36.4993 25.4299 36.7924C25.1368 37.0854 24.7394 37.25 24.325 37.25ZM30.1156 37.25C29.7012 37.25 29.3038 37.0854 29.0108 36.7924C28.7178 36.4993 28.5531 36.1019 28.5531 35.6875V33.5469C28.5531 33.1325 28.7178 32.735 29.0108 32.442C29.3038 32.149 29.7012 31.9844 30.1156 31.9844C30.53 31.9844 30.9275 32.149 31.2205 32.442C31.5135 32.735 31.6781 33.1325 31.6781 33.5469V35.6875C31.6781 36.1019 31.5135 36.4993 31.2205 36.7924C30.9275 37.0854 30.53 37.25 30.1156 37.25ZM24.3266 82.5312C23.9122 82.5312 23.5147 82.3666 23.2217 82.0736C22.9287 81.7806 22.7641 81.3832 22.7641 80.9688V39.5063C22.7641 39.0919 22.9287 38.6944 23.2217 38.4014C23.5147 38.1084 23.9122 37.9438 24.3266 37.9438C24.741 37.9438 25.1384 38.1084 25.4314 38.4014C25.7245 38.6944 25.8891 39.0919 25.8891 39.5063V80.9688C25.8891 81.3832 25.7245 81.7806 25.4314 82.0736C25.1384 82.3666 24.741 82.5312 24.3266 82.5312ZM24.3266 96.0719C23.9122 96.0719 23.5147 95.9073 23.2217 95.6142C22.9287 95.3212 22.7641 94.9238 22.7641 94.5094V91.7766C22.7641 91.3622 22.9287 90.9647 23.2217 90.6717C23.5147 90.3787 23.9122 90.2141 24.3266 90.2141C24.741 90.2141 25.1384 90.3787 25.4314 90.6717C25.7245 90.9647 25.8891 91.3622 25.8891 91.7766V94.5094C25.8891 94.9238 25.7245 95.3212 25.4314 95.6142C25.1384 95.9073 24.741 96.0719 24.3266 96.0719Z" fill="#E74C3D"/>
<path d="M23.1953 93.0344C22.2669 93.0337 21.3566 92.7774 20.5641 92.2938C19.5383 91.6829 18.689 90.8158 18.0995 89.7776C17.51 88.7394 17.2006 87.5658 17.2016 86.3719C17.2016 83.1656 19.4219 80.3844 22.6 79.6109C23.2878 79.4533 24.0054 79.4852 24.6765 79.7031C25.3476 79.921 25.947 80.3168 26.4109 80.8484C29.2922 84.1469 29.6031 87.8406 27.2641 90.9781C26.794 91.6153 26.181 92.1332 25.4743 92.4903C24.7677 92.8474 23.9871 93.0338 23.1953 93.0344ZM23.475 82.6328C23.4281 82.6328 23.3813 82.6375 23.3375 82.6484C21.5641 83.0797 20.325 84.6109 20.325 86.3719C20.325 87.7016 21.0188 88.9156 22.1828 89.6219C23.0578 90.1531 24.1406 89.9391 24.7563 89.1109C26.1984 87.1766 25.9625 85.0875 24.0563 82.9031C23.9834 82.8203 23.8941 82.7535 23.794 82.7069C23.694 82.6604 23.5853 82.6352 23.475 82.6328ZM63.1969 71.5C62.7825 71.5 62.3851 71.3354 62.092 71.0424C61.799 70.7493 61.6344 70.3519 61.6344 69.9375V64.5938H56.8234V69.9375C56.8234 70.3519 56.6588 70.7493 56.3658 71.0424C56.0728 71.3354 55.6753 71.5 55.2609 71.5C54.8465 71.5 54.4491 71.3354 54.1561 71.0424C53.8631 70.7493 53.6984 70.3519 53.6984 69.9375V63.0312C53.6984 62.6168 53.8631 62.2194 54.1561 61.9264C54.4491 61.6334 54.8465 61.4688 55.2609 61.4688H63.1969C63.6113 61.4688 64.0087 61.6334 64.3017 61.9264C64.5948 62.2194 64.7594 62.6168 64.7594 63.0312V69.9375C64.7594 70.3519 64.5948 70.7493 64.3017 71.0424C64.0087 71.3354 63.6113 71.5 63.1969 71.5Z" fill="#E74C3D"/>
<path d="M59.2281 64.5938C58.8137 64.5938 58.4163 64.4291 58.1233 64.1361C57.8303 63.8431 57.6656 63.4457 57.6656 63.0312V59.9734H53.375C52.9606 59.9734 52.5632 59.8088 52.2702 59.5158C51.9771 59.2228 51.8125 58.8253 51.8125 58.4109C51.8125 57.9965 51.9771 57.5991 52.2702 57.3061C52.5632 57.0131 52.9606 56.8484 53.375 56.8484H59.2281C59.6425 56.8484 60.04 57.0131 60.333 57.3061C60.626 57.5991 60.7906 57.9965 60.7906 58.4109V63.0312C60.7906 63.4457 60.626 63.8431 60.333 64.1361C60.04 64.4291 59.6425 64.5938 59.2281 64.5938ZM37.3594 41.0672H11.2938C10.8794 41.0672 10.4819 40.9026 10.1889 40.6095C9.89588 40.3165 9.73126 39.9191 9.73126 39.5047C9.73126 39.0903 9.89588 38.6929 10.1889 38.3998C10.4819 38.1068 10.8794 37.9422 11.2938 37.9422H37.3594C37.7738 37.9422 38.1712 38.1068 38.4642 38.3998C38.7573 38.6929 38.9219 39.0903 38.9219 39.5047C38.9219 39.9191 38.7573 40.3165 38.4642 40.6095C38.1712 40.9026 37.7738 41.0672 37.3594 41.0672ZM68.925 18.5C68.5946 18.5005 68.2725 18.3963 68.0051 18.2023C67.7377 18.0083 67.5386 17.7345 67.4365 17.4203C67.3344 17.106 67.3346 16.7675 67.4369 16.4534C67.5393 16.1392 67.7386 15.8656 68.0063 15.6719C68.6683 15.1959 69.2084 14.5701 69.5826 13.8456C69.9568 13.1212 70.1544 12.3185 70.1594 11.5031C70.1594 8.60625 67.7203 6.25 64.7203 6.25C62.5438 6.25 60.5813 7.49531 59.7188 9.425C59.6349 9.61234 59.515 9.78133 59.3659 9.92234C59.2168 10.0633 59.0413 10.1736 58.8496 10.2468C58.6579 10.32 58.4536 10.3547 58.2484 10.349C58.0433 10.3432 57.8413 10.2971 57.6539 10.2133C57.4666 10.1295 57.2976 10.0096 57.1566 9.86043C57.0156 9.7113 56.9053 9.53586 56.8321 9.34412C56.7589 9.15238 56.7242 8.9481 56.73 8.74295C56.7357 8.53779 56.7818 8.33578 56.8656 8.14844C58.2313 5.09688 61.3141 3.125 64.7203 3.125C69.4422 3.125 73.2844 6.88281 73.2844 11.5031C73.2787 12.8122 72.9638 14.1015 72.3654 15.2658C71.7669 16.4301 70.9019 17.4366 69.8406 18.2031C69.5743 18.3961 69.2539 18.5 68.925 18.5Z" fill="#E74C3D"/>
<path d="M58.3156 35.1249H58.2828C54.2734 35.1108 50.5484 32.4937 48.5563 28.2858L48.3938 27.9827C45.5484 22.7296 45.1547 17.9624 47.2266 13.814C50.1578 7.92803 57.9953 7.86084 58.3266 7.86084C58.6578 7.86084 66.4516 7.92803 69.3844 13.8155C71.4563 17.9655 71.0625 22.7343 68.2141 27.9858L68.0422 28.3093C66.0609 32.4921 62.3375 35.1108 58.3281 35.1233L58.3156 35.1249ZM58.325 10.9858C58.2703 10.9858 52.0891 11.064 50.0234 15.2093C47.6266 20.0077 50.2719 24.889 51.1422 26.4937C51.2406 26.6749 51.3172 26.8202 51.3703 26.9265C52.8547 30.0608 55.5078 31.9952 58.3063 31.9999C61.1031 31.9952 63.7563 30.0608 65.2313 26.9499C65.2938 26.8202 65.3719 26.678 65.4688 26.4968C66.3391 24.8937 68.9859 20.0124 66.5891 15.2108C64.525 11.064 58.3859 10.9858 58.325 10.9858ZM30.1172 91.4343C29.7843 91.4341 29.4601 91.3276 29.192 91.1304C28.9239 90.9331 28.7257 90.6553 28.6265 90.3376C28.5273 90.0198 28.5321 89.6786 28.6403 89.3638C28.7485 89.049 28.9545 88.777 29.2281 88.5874L33.0938 85.914L27.3797 76.0609C27.1949 75.7039 27.1546 75.2896 27.2671 74.9037C27.3797 74.5179 27.6364 74.1902 27.9841 73.9886C28.3318 73.787 28.7438 73.727 29.1346 73.8211C29.5253 73.9151 29.8649 74.1559 30.0828 74.4937L36.5203 85.5952C36.7176 85.9351 36.7794 86.337 36.6934 86.7205C36.6074 87.104 36.3798 87.4409 36.0563 87.664L31.0047 91.1577C30.7438 91.3378 30.4342 91.4343 30.1172 91.4343Z" fill="#E74C3D"/>
<path d="M68.6859 23.7499C68.6225 23.7429 68.5594 23.733 68.4969 23.7202C63.4188 22.9968 59.4125 19.0093 56.9625 15.7968C54.5734 19.8046 51.6125 22.3968 48.2375 23.5015C47.4141 23.778 46.5344 23.3233 46.2656 22.503C45.9969 21.6827 46.4438 20.8015 47.2641 20.5327C50.5688 19.4515 52.9547 16.4718 54.375 14.1624C54.9063 13.2983 55.8328 12.753 56.8531 12.703C57.3516 12.6729 57.8498 12.7669 58.303 12.9766C58.7562 13.1863 59.1503 13.5051 59.45 13.9046C61.5438 16.653 64.9094 20.0546 69.0469 20.6468L68.6859 23.7499ZM77.9016 96.8749C77.504 96.8744 77.1215 96.7224 76.8321 96.4498C76.5426 96.1772 76.368 95.8046 76.3438 95.4077C76.2703 94.2093 75.6375 90.728 75.4 89.489C75.3219 89.0818 75.4087 88.6603 75.6414 88.3172C75.874 87.974 76.2335 87.7374 76.6406 87.6593C77.0478 87.5812 77.4693 87.668 77.8124 87.9006C78.1555 88.1333 78.3922 88.4927 78.4703 88.8999C78.5625 89.3764 79.3656 93.603 79.4641 95.2186C79.4884 95.6322 79.3479 96.0387 79.0731 96.3488C78.7984 96.659 78.412 96.8476 77.9984 96.8733L77.9016 96.8749Z" fill="#E74C3D"/>
</svg>
