<svg width="100" height="100" viewBox="0 0 100 100" fill="none" xmlns="http://www.w3.org/2000/svg">
<path d="M5.86914 75.7133C5.67675 75.7132 5.48624 75.751 5.30848 75.8246C5.13072 75.8982 4.96921 76.0061 4.83317 76.1422C4.69713 76.2782 4.58923 76.4397 4.51564 76.6175C4.44206 76.7952 4.40422 76.9857 4.4043 77.1781V98.5344C4.4043 98.7267 4.44219 98.9172 4.5158 99.0949C4.58942 99.2727 4.69732 99.4342 4.83334 99.5702C4.96936 99.7062 5.13085 99.8141 5.30857 99.8877C5.48629 99.9613 5.67677 99.9992 5.86914 99.9992C6.06151 99.9992 6.25199 99.9613 6.42971 99.8877C6.60743 99.8141 6.76892 99.7062 6.90494 99.5702C7.04097 99.4342 7.14886 99.2727 7.22248 99.0949C7.2961 98.9172 7.33398 98.7267 7.33398 98.5344V77.1781C7.33398 76.7896 7.17965 76.417 6.90494 76.1423C6.63023 75.8676 6.25764 75.7133 5.86914 75.7133ZM31.298 62.1689H14.0527C13.6642 62.1689 13.2916 62.3233 13.0169 62.598C12.7422 62.8727 12.5879 63.2453 12.5879 63.6338V89.9971C12.5879 90.8057 13.2441 91.4619 14.0527 91.4619H31.2982C31.6867 91.4619 32.0593 91.3076 32.334 91.0329C32.6088 90.7582 32.7631 90.3856 32.7631 89.9971V63.6338C32.7631 62.8242 32.1076 62.1689 31.298 62.1689ZM25.1176 88.5322H21.624V81.4941H25.1176V88.5322ZM29.8332 88.5322H28.0473V80.0293C28.0473 79.6408 27.8929 79.2682 27.6182 78.9935C27.3435 78.7188 26.9709 78.5645 26.5824 78.5645H20.1592C19.9668 78.5644 19.7763 78.6022 19.5985 78.6758C19.4208 78.7494 19.2592 78.8573 19.1232 78.9933C18.9872 79.1294 18.8793 79.2909 18.8057 79.4686C18.7321 79.6464 18.6943 79.8369 18.6943 80.0293V88.5322H15.5174V65.0986H29.8332V88.5322Z" fill="#E74C3D"/>
<path d="M96.4082 36.6592C96.4082 29.5959 91.2574 23.7168 84.5162 22.5709C86.6363 20.343 87.9418 17.3332 87.9418 14.0229C87.9418 12.1682 87.542 10.3828 86.7523 8.71738C84.5932 3.42031 79.509 0 73.7885 0H64.7445C64.356 0 63.9834 0.154331 63.7087 0.429043C63.434 0.703754 63.2797 1.07634 63.2797 1.46484C63.2793 3.66711 63.799 5.83835 64.7965 7.80176C63.7002 9.68789 63.1248 11.8209 63.1248 14.0236C63.1248 17.6133 64.6584 20.8496 67.1035 23.1178C65.871 23.5343 64.7015 24.1178 63.6275 24.8521C63.0027 24.0334 62.0201 23.5023 60.9131 23.5023H43.9072C42.0227 23.5023 40.4893 25.0359 40.4893 26.9203V32.9193C40.4893 33.3078 40.6436 33.6804 40.9183 33.9551C41.193 34.2298 41.5656 34.3842 41.9541 34.3842C42.3426 34.3842 42.7152 34.2298 42.9899 33.9551C43.2646 33.6804 43.4189 33.3078 43.4189 32.9193V26.9203C43.4189 26.651 43.6377 26.432 43.9072 26.432H60.9131C61.1283 26.432 61.309 26.5725 61.374 26.7662C61.3076 26.835 61.2396 26.902 61.1748 26.973C58.7518 29.6006 57.4119 33.0117 57.3936 36.5859L57.3922 48.8953H43.4189V39.5943C43.4189 39.2058 43.2646 38.8332 42.9899 38.5585C42.7152 38.2838 42.3426 38.1295 41.9541 38.1295C41.5656 38.1295 41.193 38.2838 40.9183 38.5585C40.6436 38.8332 40.4893 39.2058 40.4893 39.5943V48.8951H36.8293V37.2467C36.8293 37.2283 36.8271 37.2102 36.8264 37.1918C36.8271 37.1734 36.8293 37.1551 36.8293 37.1369C36.8293 34.2506 35.7438 31.6146 33.9621 29.6111C35.9152 27.1027 36.6027 23.7947 35.7545 20.6826L34.0217 14.3287C32.4836 8.68828 27.3254 4.74863 21.4783 4.74863C15.6313 4.74863 10.4736 8.6875 8.93476 14.3285L7.20215 20.6824C6.35371 23.7928 7.04199 27.1018 8.99512 29.6109C7.22578 31.6 6.14473 34.2131 6.12949 37.0748C6.12871 37.0855 6.12715 37.0955 6.12715 37.1061V48.8943H1.46484C1.07634 48.8943 0.703754 49.0487 0.429043 49.3234C0.154331 49.5981 0 49.9707 0 50.3592L0 58.2662C0 59.0758 0.655273 59.7311 1.46484 59.7311H4.4043V69.3854C4.4043 69.5777 4.44219 69.7682 4.5158 69.9459C4.58942 70.1236 4.69732 70.2851 4.83334 70.4212C4.96936 70.5572 5.13085 70.6651 5.30857 70.7387C5.48629 70.8123 5.67677 70.8502 5.86914 70.8502C6.06151 70.8502 6.25199 70.8123 6.42971 70.7387C6.60743 70.6651 6.76892 70.5572 6.90494 70.4212C7.04097 70.2851 7.14886 70.1236 7.22248 69.9459C7.29609 69.7682 7.33398 69.5777 7.33398 69.3854V59.7311H57.3922V62.168H45.9121C45.5236 62.168 45.151 62.3223 44.8763 62.597C44.6016 62.8717 44.4473 63.2443 44.4473 63.6328V74.4375C44.4473 75.2471 45.1027 75.9023 45.9121 75.9023H65.0559V77.7266H45.9121C45.5236 77.7266 45.151 77.8809 44.8763 78.1556C44.6016 78.4303 44.4473 78.8029 44.4473 79.1914V89.9961C44.4473 90.8057 45.1027 91.4609 45.9121 91.4609H65.0559V98.5352C65.0559 98.9237 65.2102 99.2962 65.4849 99.571C65.7596 99.8457 66.1322 100 66.5207 100C66.9092 100 67.2818 99.8457 67.5565 99.571C67.8312 99.2962 67.9855 98.9237 67.9855 98.5352V62.9297H85.8147V98.5352C85.8147 98.9237 85.969 99.2962 86.2437 99.571C86.5184 99.8457 86.891 100 87.2795 100C87.668 100 88.0406 99.8457 88.3153 99.571C88.59 99.2962 88.7443 98.9237 88.7443 98.5352V73.7998C89.2129 73.9111 89.6957 73.9693 90.1863 73.9693C93.6172 73.9693 96.408 71.1777 96.408 67.7475V56.8789C96.408 56.4904 96.2537 56.1178 95.979 55.8431C95.7043 55.5684 95.3317 55.4141 94.9432 55.4141C94.5547 55.4141 94.1821 55.5684 93.9074 55.8431C93.6327 56.1178 93.4783 56.4904 93.4783 56.8789V67.7477C93.4783 69.5627 92.0014 71.0398 90.1863 71.0398C89.6813 71.0398 89.1906 70.9262 88.7443 70.7078V62.5871C89.7912 62.0607 90.5119 60.9797 90.5119 59.7307V38.2676H93.4783V50.2031C93.4783 50.5916 93.6327 50.9642 93.9074 51.2389C94.1821 51.5136 94.5547 51.668 94.9432 51.668C95.7527 51.668 96.408 51.0125 96.408 50.2031C96.408 50.2031 96.4059 36.7547 96.4041 36.7309C96.4059 36.7074 96.4082 36.6836 96.4082 36.6592ZM66.0547 14.0229C66.0547 12.9334 66.2393 11.8666 66.5963 10.8598C66.851 11.2054 67.1224 11.5384 67.4096 11.8576C67.5467 12.0099 67.7144 12.1317 67.9017 12.2149C68.089 12.2981 68.2917 12.341 68.4967 12.3406C68.8469 12.3406 69.1986 12.2154 69.4785 11.9621C70.0781 11.4197 70.1256 10.4928 69.5824 9.89297C68.4594 8.6502 67.852 7.29922 67.8367 7.26543C67.8143 7.21372 67.7886 7.16348 67.7598 7.11504C66.9979 5.83228 66.5035 4.40858 66.3064 2.92969H73.7885C78.3242 2.92988 82.3531 5.64902 84.0531 9.85664C84.0645 9.88477 84.0766 9.9123 84.0896 9.93984C84.7016 11.2199 85.0121 12.5934 85.0121 14.023C85.0121 19.25 80.7602 23.5018 75.5332 23.5018C70.3063 23.5018 66.0547 19.2496 66.0547 14.0229ZM65.0559 62.4443V70.5238C64.6069 70.7434 64.1136 70.8572 63.6139 70.8564C61.798 70.8564 60.3219 69.3795 60.3219 67.5645V38.0844H63.5422V59.7305C63.5422 60.8758 64.1486 61.8789 65.0559 62.4443ZM29.5074 48.8945V38.7115H33.8996V48.8945H29.5074ZM17.4348 28.7285C18.6432 29.3662 20.0188 29.7303 21.4783 29.7303C22.9379 29.7303 24.3133 29.3662 25.5219 28.7283C29.6836 28.7438 33.1406 31.7971 33.7891 35.7818H29.5074V34.5338C29.5074 34.1453 29.3531 33.7727 29.0784 33.498C28.8037 33.2233 28.4311 33.0689 28.0426 33.0689C27.6541 33.0689 27.2815 33.2233 27.0068 33.498C26.7321 33.7727 26.5777 34.1453 26.5777 34.5338V37.1062C26.5777 37.1299 26.5801 37.1529 26.5809 37.1766C26.5801 37.2 26.5777 37.223 26.5777 37.2469V44.5229H16.3789V34.5336C16.3789 34.1451 16.2246 33.7725 15.9499 33.4978C15.6752 33.2231 15.3026 33.0687 14.9141 33.0687C14.5256 33.0687 14.153 33.2231 13.8783 33.4978C13.6036 33.7725 13.4492 34.1451 13.4492 34.5336V35.6414H9.19258C9.89922 31.726 13.3225 28.743 17.4348 28.7285ZM21.4783 26.8006C18.3021 26.8006 15.7182 24.2156 15.7182 21.0396C15.7182 19.9996 15.9975 18.9918 16.5176 18.1121C18.7402 19.7021 22.1596 21.3059 27.1904 21.7773C26.8266 24.6063 24.4049 26.8006 21.4783 26.8006ZM16.3787 47.4525H26.5779V48.8953H16.3787V47.4525ZM10.0289 21.4531L11.7613 15.0994C12.9531 10.7299 16.9488 7.67754 21.4781 7.67754C26.0074 7.67754 30.0035 10.7299 31.1949 15.0994L32.9285 21.4529C33.5184 23.6168 33.0613 25.9125 31.743 27.684C30.7378 27.0162 29.6319 26.5142 28.4676 26.1971C29.396 24.9457 29.9685 23.4665 30.1246 21.9162C30.1621 21.9162 30.1988 21.917 30.2369 21.917C30.6254 21.917 30.998 21.7627 31.2727 21.4879C31.5474 21.2132 31.7018 20.8406 31.7018 20.4521C31.7018 20.0636 31.5474 19.6911 31.2727 19.4163C30.998 19.1416 30.6254 18.9873 30.2369 18.9873C19.0621 18.9873 15.6861 13.2889 15.535 13.0225C15.3481 12.6839 15.0348 12.4331 14.6636 12.3248C14.2924 12.2164 13.8933 12.2594 13.5537 12.4443C13.3846 12.5361 13.2353 12.6602 13.1143 12.8097C12.9932 12.9592 12.9028 13.1311 12.8483 13.3155C12.7937 13.5 12.776 13.6934 12.7963 13.8846C12.8165 14.0759 12.8743 14.2613 12.9662 14.4303C13.015 14.5219 13.4102 15.2229 14.2854 16.1627C13.3083 17.6013 12.7868 19.3006 12.7885 21.0396C12.7865 22.8968 13.3828 24.7053 14.4891 26.1971C13.3248 26.5143 12.2189 27.0163 11.2137 27.684C9.89609 25.9125 9.43906 23.616 10.0289 21.4531ZM9.05684 38.5711H13.4492V48.8945H9.05684V38.5711ZM2.92969 56.8016V51.825H57.3922V56.8016H2.92969ZM47.377 65.0984H57.3922V67.5645C57.3922 69.8791 58.6639 71.9018 60.5445 72.9729H47.377V65.0984ZM47.377 88.5322V80.6572H65.0559V88.5322H47.377ZM89.0473 32.5203C88.6588 32.5203 88.2862 32.6746 88.0115 32.9494C87.7368 33.2241 87.5824 33.5967 87.5824 33.9852V59.7305C87.5824 59.8793 87.4611 60 87.3123 60H66.7422C66.7067 60.0001 66.6716 59.9932 66.6389 59.9797C66.6061 59.9661 66.5763 59.9463 66.5512 59.9213C66.5261 59.8962 66.5062 59.8665 66.4926 59.8337C66.4791 59.801 66.4721 59.7659 66.4721 59.7305V33.9852C66.4721 33.5967 66.3177 33.2241 66.043 32.9494C65.7683 32.6746 65.3957 32.5203 65.0072 32.5203C64.6187 32.5203 64.2461 32.6746 63.9714 32.9494C63.6967 33.2241 63.5424 33.5967 63.5424 33.9852V35.1547H60.4258C61.1186 30.0461 65.2789 25.9033 70.4957 25.3594C72.0808 26.0672 73.7974 26.4327 75.5334 26.432C77.3223 26.433 79.09 26.0449 80.7139 25.2945H82.1139C87.9328 25.2945 92.7424 29.692 93.3992 35.3379H90.5123V33.9852C90.5123 33.1766 89.8561 32.5203 89.0475 32.5203H89.0473Z" fill="#E74C3D"/>
<path d="M76.9004 65.5642C76.5119 65.5642 76.1393 65.7185 75.8646 65.9932C75.5899 66.2679 75.4355 66.6405 75.4355 67.029V98.5353C75.4355 98.9238 75.5899 99.2963 75.8646 99.5711C76.1393 99.8458 76.5119 100 76.9004 100C77.2889 100 77.6615 99.8458 77.9362 99.5711C78.2109 99.2963 78.3652 98.9238 78.3652 98.5353V67.0288C78.3652 66.2202 77.7092 65.5642 76.9004 65.5642Z" fill="#E74C3D"/>
</svg>
