<svg width="100" height="100" viewBox="0 0 100 100" fill="none" xmlns="http://www.w3.org/2000/svg">
<g clip-path="url(#clip0_1_747)">
<path d="M58.3333 20H29.815C31.9833 17.88 33.3333 14.93 33.3333 11.6667C33.3333 5.235 28.0983 0 21.6667 0C15.235 0 10 5.235 10 11.6667C10 14.93 11.35 17.88 13.5183 20H11.6667C5.235 20 0 25.235 0 31.6667V58.3333C0 59.255 0.745 60 1.66667 60H8.33333V89.31L3.82167 93.8217C3.57422 94.0688 3.41081 94.3876 3.35457 94.7328C3.29834 95.0779 3.35213 95.4321 3.50833 95.745L5.175 99.0783C5.31362 99.3552 5.52656 99.5881 5.79001 99.7509C6.05345 99.9137 6.35699 99.9999 6.66667 100H36.6667C37.2983 100 37.875 99.6433 38.1583 99.0783L39.825 95.745C39.9813 95.4321 40.0352 95.0779 39.979 94.7327C39.9227 94.3875 39.7592 94.0688 39.5117 93.8217L35 89.31V31.6667H58.3333C59.255 31.6667 60 30.9217 60 30V23.3333H63.3333V20H58.3333ZM13.3333 11.6667C13.3333 7.07167 17.0717 3.33333 21.6667 3.33333C26.2617 3.33333 30 7.07167 30 11.6667C30.0006 12.7892 29.7726 13.9001 29.33 14.9317C27.8133 14.6217 26.6667 13.275 26.6667 11.6667H23.3333C23.3333 14.3867 24.9733 16.7217 27.3133 17.7567C25.825 19.1367 23.85 20 21.6667 20C17.0717 20 13.3333 16.2617 13.3333 11.6667ZM24.5367 23.3333C23.9583 24.325 22.895 25 21.6667 25C20.4383 25 19.375 24.325 18.7967 23.3333H24.5367ZM3.33333 56.6667V40H8.33333V56.6667H3.33333ZM20 96.6667H7.69667L7.02833 95.3283L10.69 91.6667H20V96.6667ZM20 61.6667V88.3333H11.6667V55H31.6667V88.3333H23.3333V61.6667H20ZM36.305 95.3283L35.6367 96.6667H23.3333V91.6667H32.6433L36.305 95.3283ZM38.3333 28.3333H33.3333C32.4117 28.3333 31.6667 29.0783 31.6667 30V51.6667H11.6667V31.6667H8.33333V36.6667H3.33333V31.6667C3.33333 27.0717 7.07167 23.3333 11.6667 23.3333H15.2367C15.9817 26.2017 18.5683 28.3333 21.6667 28.3333C24.765 28.3333 27.3517 26.2017 28.0967 23.3333H38.3333V28.3333ZM56.6667 28.3333H41.6667V23.3333H56.6667V28.3333ZM98.3333 0H68.3333C67.4117 0 66.6667 0.745 66.6667 1.66667V35C66.6667 35.9217 67.4117 36.6667 68.3333 36.6667H98.3333C99.255 36.6667 100 35.9217 100 35V1.66667C100 0.745 99.255 0 98.3333 0ZM96.6667 33.3333H70V3.33333H96.6667V33.3333Z" fill="#E74C3D"/>
<path d="M91.6666 10H86.6666C86.4083 10 86.1516 10.06 85.9216 10.175L83.3333 11.47L80.745 10.1767C80.5139 10.0602 80.2587 9.99966 80 10H75C74.0783 10 73.3333 10.745 73.3333 11.6667V18.3333C73.3333 19.255 74.0783 20 75 20H76.6666V26.6667C76.6666 27.5883 77.4116 28.3333 78.3333 28.3333H88.3333C89.255 28.3333 90 27.5883 90 26.6667V20H91.6666C92.5883 20 93.3333 19.255 93.3333 18.3333V11.6667C93.3333 10.745 92.5883 10 91.6666 10ZM90 16.6667H88.3333C87.4116 16.6667 86.6666 17.4117 86.6666 18.3333V25H80V18.3333C80 17.4117 79.255 16.6667 78.3333 16.6667H76.6666V13.3333H79.6066L82.5883 14.825C82.8198 14.9409 83.0752 15.0012 83.3341 15.0012C83.5931 15.0012 83.8484 14.9409 84.08 14.825L87.06 13.3333H90V16.6667ZM98.3333 46.6667H68.3333C67.4116 46.6667 66.6666 47.4117 66.6666 48.3333V81.6667C66.6666 82.5883 67.4116 83.3333 68.3333 83.3333H98.3333C99.255 83.3333 100 82.5883 100 81.6667V48.3333C100 47.4117 99.255 46.6667 98.3333 46.6667ZM96.6666 80H70V50H96.6666V80Z" fill="#E74C3D"/>
<path d="M91.6667 56.6667H86.6667C86.4083 56.6667 86.1517 56.7267 85.9217 56.8417L83.3333 58.1367L80.745 56.8434C80.514 56.7269 80.2588 56.6664 80 56.6667H75C74.0783 56.6667 73.3333 57.4117 73.3333 58.3334V65.0001C73.3333 65.9217 74.0783 66.6667 75 66.6667H76.6667V73.3334C76.6667 74.2551 77.4117 75.0001 78.3333 75.0001H88.3333C89.255 75.0001 90 74.2551 90 73.3334V66.6667H91.6667C92.5883 66.6667 93.3333 65.9217 93.3333 65.0001V58.3334C93.3333 57.4117 92.5883 56.6667 91.6667 56.6667ZM90 63.3334H88.3333C87.4117 63.3334 86.6667 64.0784 86.6667 65.0001V71.6667H80V65.0001C80 64.0784 79.255 63.3334 78.3333 63.3334H76.6667V60.0001H79.6067L82.5883 61.4918C82.8199 61.6076 83.0752 61.668 83.3342 61.668C83.5931 61.668 83.8485 61.6076 84.08 61.4918L87.06 60.0001H90V63.3334ZM98.3333 93.3334H68.3333C67.4117 93.3334 66.6667 94.0784 66.6667 95.0001V100H70V96.6667H96.6667V100H100V95.0001C100 94.0784 99.255 93.3334 98.3333 93.3334ZM81.6667 40.0001H85V43.3334H81.6667V40.0001ZM81.6667 86.6668H85V90.0001H81.6667V86.6668ZM25 31.6667H28.3333V35.0001H25V31.6667Z" fill="#E74C3D"/>
</g>
<defs>
<clipPath id="clip0_1_747">
<rect width="100" height="100" fill="white"/>
</clipPath>
</defs>
</svg>
