<svg width="100" height="100" viewBox="0 0 100 100" fill="none" xmlns="http://www.w3.org/2000/svg">
<path d="M7.24221 74.7734L34.7969 85.4844C35.0012 85.5597 35.2186 85.593 35.4361 85.5822C35.6536 85.5715 35.8666 85.5169 36.0625 85.4219L44.5313 81.1719C48.9594 83.0293 53.5783 84.3943 58.3047 85.2422L56.4297 89.7265C56.0078 90.7734 56.2969 91.5703 57.1641 91.9297C57.3686 92.0226 57.5907 92.0703 57.8153 92.0696C58.0399 92.0689 58.2617 92.0198 58.4656 91.9257C58.6695 91.8315 58.8507 91.6945 58.9968 91.524C59.143 91.3534 59.2507 91.1534 59.3125 90.9375L61.4375 85.8437C63.9389 86.2878 66.3889 86.984 68.75 87.9219C72.6563 90.539 75.0391 91.8281 78.7891 90.8672C81.7344 90.0859 83.9453 85.5547 84.7188 82.7031C84.9114 82.0236 84.9048 81.3031 84.6998 80.6273C84.4949 79.9514 84.1001 79.3486 83.5625 78.8906C83.711 77.7969 83.5625 76.1797 81.3985 74.9844C79.2894 74.0022 76.9003 73.8002 74.6563 74.414C72.0469 75.1953 72.0391 76.4687 70.4531 76.1719C69.9531 75.9765 67.9688 74.6094 67.2344 74.1719C69.1875 71.1406 73.6563 62.7344 74.9688 58.1094C76.6953 52.0469 75.6719 48.6328 75.086 47.3359C75.4219 44.6562 76.1797 41 77.086 39.2187C77.785 39.5383 78.5544 39.6728 79.3203 39.6094C80.0924 39.5035 80.8085 39.1474 81.3588 38.5957C81.9091 38.044 82.2634 37.327 82.3672 36.5547C82.3672 36.3594 82.8516 33.3203 82.9688 33.0078C83.8184 32.8975 84.5974 32.4774 85.1563 31.8281C85.4922 31.3828 85.7422 31.0469 85.2031 27.9219C88.9922 27.9219 92.9375 24.7109 93.3985 24.3281C93.6019 24.1585 93.7589 23.9399 93.8547 23.6928C93.9505 23.4458 93.9819 23.1785 93.946 22.9161C93.91 22.6536 93.8079 22.4045 93.6493 22.1924C93.4907 21.9802 93.2807 21.8118 93.0391 21.7031L85.0781 18.1172C84.875 17.4844 84.5938 16.6328 84.2188 15.5547C83.0391 12.2265 78.4531 7.65623 70.6563 8.71092C64.7344 9.49217 61.2813 13.0625 60.4219 19.25C59.9766 22.375 61.4297 26.2812 61.6797 27.7265C61.6371 29.374 61.4117 31.0116 61.0078 32.6094C59.2422 32.9922 55.6797 33.789 53.4922 34.414L23.5547 26.9062C23.2578 26.8316 22.9454 26.8459 22.6565 26.9473C22.3677 27.0487 22.1149 27.2327 21.9297 27.4765L15.3907 36.0703C15.258 36.2444 15.1634 36.4444 15.113 36.6573C15.0626 36.8703 15.0575 37.0915 15.098 37.3065C15.1385 37.5216 15.2237 37.7257 15.3482 37.9058C15.4726 38.0858 15.6335 38.2377 15.8203 38.3515C16.7535 38.8671 17.7682 39.2185 18.8203 39.3906L6.32034 72.7578C6.24787 72.9506 6.21425 73.1559 6.2214 73.3617C6.22856 73.5676 6.27635 73.77 6.36202 73.9574C6.4477 74.1447 6.56958 74.3132 6.72063 74.4533C6.87169 74.5933 7.04895 74.7021 7.24221 74.7734ZM44.7422 46.5937C46.0391 43.8984 49.8047 39.2109 53.1953 37.7812C54.1045 37.4693 55.0305 37.2085 55.9688 37C57.625 38.2812 62.5 43.539 55.3438 56.1797C53.7266 59.0234 50.5235 64.1015 49.3985 65.875C48.836 65.808 48.2696 65.7792 47.7032 65.789C47.2887 65.7994 46.8954 65.974 46.6097 66.2743C46.324 66.5747 46.1694 66.9762 46.1797 67.3906C46.1901 67.805 46.3646 68.1983 46.665 68.484C46.9653 68.7697 47.3669 68.9244 47.7813 68.914C53.3438 68.8047 61.3594 74.0547 65.6719 76.8828L67.0235 77.7734C66.9248 79.7996 66.3521 81.7744 65.3516 83.539C64.125 83.2187 62.8125 82.914 61.5469 82.6875C44.5313 79.625 40.961 75.414 39.0078 74.5469C37.336 73.5547 37.1407 73.2344 37.4453 70.5078C37.8427 68.1608 38.5004 65.8653 39.4063 63.664C41.5235 58.0156 42.4219 51.4453 44.7657 46.5937H44.7422ZM61.6016 35.6562C63.1641 37.7109 65.2578 41.6406 65.711 44.539C66.5781 50.0078 64.8594 55.5781 60.4688 61.5547C58.9186 63.66 57.2022 65.6377 55.336 67.4687C54.4375 67.1015 53.5391 66.789 52.6485 66.5234C54.0782 64.2656 56.6172 60.2109 58.0391 57.7031C61.8047 51.039 63.0469 45.2422 61.7188 40.4687C61.2837 38.8829 60.5257 37.4041 59.4922 36.125L61.6016 35.6562ZM38.2266 80.8359L39.1719 78.3047C39.7578 78.664 40.3672 79.0312 41.0391 79.414L38.2266 80.8359ZM75.4531 77.3437C76.8969 76.9625 78.4261 77.0669 79.8047 77.6406C80.1719 77.8515 80.3438 77.9531 80.3985 78.1172C80.2189 78.1645 80.0438 78.2272 79.875 78.3047C79.5181 78.4893 79.246 78.8045 79.1154 79.1845C78.9847 79.5646 79.0055 79.9804 79.1735 80.3455C79.3415 80.7106 79.6437 80.9969 80.0173 81.145C80.3909 81.2931 80.8072 81.2915 81.1797 81.1406C81.336 81.0703 81.8125 81.3047 81.6641 81.8594C80.8828 84.875 79.0078 87.539 77.9531 87.8125C75.8828 88.3672 74.6485 88.1015 70.461 85.289C69.8125 84.9334 69.1293 84.6454 68.4219 84.4297C69.2357 82.784 69.7841 81.0201 70.0469 79.2031C73.0703 79.6875 73.5938 77.914 75.4531 77.3437ZM71.875 57.2109C70.6485 61.5234 66.3047 69.7109 64.5235 72.4297C62.6563 71.25 60.5547 69.9844 58.3672 68.875C60.0315 67.1616 61.5743 65.3342 62.9844 63.4062C67.8985 56.7265 69.8047 50.3984 68.7969 44.0547C70.5547 46.2656 71.875 48.164 72.0938 48.4375C72.3125 48.7109 73.5781 51.2812 71.875 57.2109ZM79.6875 32.9297C79.625 33.3594 79.2031 35.7109 79.1797 36.2187C79.0631 36.3412 78.9141 36.4279 78.75 36.4687C77.7969 36.2656 74.9219 34.9062 74.5469 33.125C74.5048 32.9239 74.4236 32.7331 74.3078 32.5634C74.1919 32.3937 74.0438 32.2485 73.8719 32.136C73.7 32.0236 73.5076 31.9461 73.3057 31.908C73.1038 31.8699 72.8964 31.872 72.6953 31.914C72.4942 31.9561 72.3034 32.0374 72.1337 32.1532C71.9641 32.269 71.8188 32.4171 71.7064 32.589C71.5939 32.761 71.5165 32.9534 71.4784 33.1552C71.4403 33.3571 71.4423 33.5645 71.4844 33.7656C71.9034 35.3657 72.8961 36.756 74.2735 37.6719C73.3999 39.5638 72.7799 41.5629 72.4297 43.6172C67.8906 37.625 65.8282 36.1328 63.9922 33.5937C64.3672 31.9062 65.0157 28.6562 64.7735 27.2109C64.6719 26.6328 64.4531 25.8359 64.25 25.0781C67.7909 25.0171 71.3198 24.6485 74.7969 23.9765C77.0169 25.4113 79.4183 26.5436 81.9375 27.3437C82.1094 28.2734 82.2735 29.2187 82.3594 29.8594C81.0469 30.164 79.9922 30.8515 79.6875 32.9297ZM84.375 21.2812L89.25 23.4375C87.8906 24.2187 86.2188 24.9375 84.8906 24.8125C82.8678 24.5055 80.9156 23.8415 79.125 22.8515C81.9063 22.0781 84.2656 21.3281 84.4219 21.2812H84.375ZM63.4688 19.7187C63.9688 16.4062 65.2422 12.6015 71.0938 11.8125C76.4141 11.0859 80.2656 13.6953 81.25 16.6015C81.5625 17.4609 81.7969 18.164 81.9844 18.7578C79.9766 19.3672 76.3125 20.4375 73.5078 21.0312C70.2175 21.5829 66.8905 21.8884 63.5547 21.9453C63.4417 21.1951 63.4286 20.4333 63.5157 19.6797L63.4688 19.7187ZM23.7969 30.1875L49.2188 36.5625C47.253 38.0866 45.5119 39.8803 44.0469 41.8906L25.7813 34.8203C25.5201 34.7223 25.2375 34.6959 24.9627 34.744C24.688 34.7921 24.4311 34.9128 24.2188 35.0937C23.5165 35.6396 22.7058 36.0293 21.8409 36.2368C20.9759 36.4443 20.0766 36.4648 19.2032 36.2969L23.7969 30.1875ZM22.1719 39.3594C23.3243 39.1134 24.4245 38.6665 25.4219 38.039L42.2969 44.5703C39.6641 49.375 38.5391 57.0703 36.5078 62.5859C35.5153 65.0079 34.7998 67.5344 34.375 70.1172C33.9766 73.2422 34.1953 74.9453 36.4532 76.6094L34.4531 82.0312L9.81253 72.4219L22.1719 39.3594ZM59.375 10.9375C59.375 10.5231 59.2104 10.1257 58.9174 9.83263C58.6244 9.5396 58.2269 9.37498 57.8125 9.37498H51.5625C51.1481 9.37498 50.7507 9.5396 50.4577 9.83263C50.1646 10.1257 50 10.5231 50 10.9375C50 11.3519 50.1646 11.7493 50.4577 12.0423C50.7507 12.3354 51.1481 12.5 51.5625 12.5H57.8125C58.2269 12.5 58.6244 12.3354 58.9174 12.0423C59.2104 11.7493 59.375 11.3519 59.375 10.9375Z" fill="#E74C3D"/>
<path d="M57.0312 17.1875C57.0312 16.7731 56.8666 16.3757 56.5736 16.0826C56.2806 15.7896 55.8832 15.625 55.4688 15.625H45.3125C44.8981 15.625 44.5007 15.7896 44.2076 16.0826C43.9146 16.3757 43.75 16.7731 43.75 17.1875C43.75 17.6019 43.9146 17.9993 44.2076 18.2924C44.5007 18.5854 44.8981 18.75 45.3125 18.75H55.4688C55.8832 18.75 56.2806 18.5854 56.5736 18.2924C56.8666 17.9993 57.0312 17.6019 57.0312 17.1875ZM35.9375 25H54.6875C55.1019 25 55.4993 24.8354 55.7924 24.5424C56.0854 24.2493 56.25 23.8519 56.25 23.4375C56.25 23.0231 56.0854 22.6257 55.7924 22.3326C55.4993 22.0396 55.1019 21.875 54.6875 21.875H35.9375C35.5231 21.875 35.1257 22.0396 34.8326 22.3326C34.5396 22.6257 34.375 23.0231 34.375 23.4375C34.375 23.8519 34.5396 24.2493 34.8326 24.5424C35.1257 24.8354 35.5231 25 35.9375 25Z" fill="#E74C3D"/>
</svg>
