<svg width="100" height="100" viewBox="0 0 100 100" fill="none" xmlns="http://www.w3.org/2000/svg">
<g clip-path="url(#clip0_1_1103)">
<path d="M93.4496 87.7032L83.8192 85.7742V83.4452C85.4381 82.3093 86.7322 80.769 87.5731 78.9774C90.8729 78.7016 93.4818 75.9565 93.4818 72.5806V64.5161C93.4818 55.6226 86.2574 48.3871 77.3774 48.3871C75.7386 48.3869 74.1093 48.6377 72.5461 49.1306V47.2242C72.5461 43.3935 69.8245 40.0661 66.0722 39.3161L56.4418 37.3871V35.0581C58.0607 33.9222 59.3548 32.382 60.1957 30.5903C63.4955 30.3145 66.1044 27.5694 66.1044 24.1935V16.129C66.1044 7.23548 58.88 0 50 0C41.1201 0 33.8957 7.23548 33.8957 16.129V24.1935C33.8957 27.5694 36.5046 30.3145 39.8044 30.5919C40.6452 32.3831 41.9394 33.9228 43.5583 35.0581V37.3871L33.9279 39.3161C30.1756 40.0677 27.4539 43.3935 27.4539 47.2242V49.1306C25.8907 48.6377 24.2615 48.3869 22.6226 48.3871C13.7427 48.3871 6.51828 55.6226 6.51828 64.5161V72.5806C6.51828 75.9565 9.12719 78.7016 12.427 78.979C13.2678 80.7702 14.562 82.3099 16.1809 83.4452V85.7742L6.55049 87.7032C2.79817 88.4548 0.0765381 91.7806 0.0765381 95.6113V100H45.1687V95.6113C45.1687 91.7806 42.4471 88.4532 38.6948 87.7032L29.0644 85.7742V83.4452C30.6833 82.3093 31.9774 80.769 32.8183 78.9774C36.1181 78.7016 38.727 75.9565 38.727 72.5806V64.5161C38.727 59.2371 36.1696 54.5565 32.2434 51.6129H67.7567C63.8305 54.5565 61.2731 59.2371 61.2731 64.5161V72.5806C61.2731 75.9565 63.882 78.7016 67.1818 78.979C68.0226 80.7702 69.3168 82.3099 70.9357 83.4452V85.7742L61.3053 87.7032C57.553 88.4548 54.8313 91.7806 54.8313 95.6113V100H99.9235V95.6113C99.9235 91.7806 97.2019 88.4548 93.4496 87.7032ZM88.5845 75.3935C88.6263 74.9984 88.6505 74.5984 88.6505 74.1935V69.8032C89.6087 70.3629 90.2609 71.3919 90.2609 72.5806C90.2609 73.7952 89.5781 74.8435 88.5845 75.3935ZM61.2071 27.0065C61.2489 26.6113 61.2731 26.2113 61.2731 25.8065V21.4161C62.2313 21.9758 62.8835 23.0048 62.8835 24.1935C62.8835 25.4081 62.2007 26.4565 61.2071 27.0065ZM37.1166 24.1935C37.1166 23.0048 37.7688 21.9758 38.727 21.4161V25.8065C38.727 26.2113 38.7511 26.6113 38.793 27.0065C37.7994 26.4565 37.1166 25.4081 37.1166 24.1935ZM40.3374 16.129H38.727V17.971C38.162 18.1181 37.6201 18.3428 37.1166 18.6387V16.129C37.1166 9.01452 42.8964 3.22581 50 3.22581C57.1037 3.22581 62.8835 9.01452 62.8835 16.129V18.6387C62.38 18.3428 61.8381 18.1181 61.2731 17.971V16.129H59.6627C56.9781 16.129 54.4529 15.0823 52.5542 13.1806L50 10.6226L47.4459 13.1806C45.5472 15.0823 43.022 16.129 40.3374 16.129ZM41.9479 25.8065V19.2581C44.8837 18.9048 47.6005 17.5871 49.723 15.4613L50 15.1839L50.277 15.4613C52.3996 17.5871 55.1164 18.9065 58.0522 19.2581V25.8065C58.0522 30.2532 54.44 33.871 50 33.871C45.5601 33.871 41.9479 30.2532 41.9479 25.8065ZM53.2209 36.621V38.0419L50 41.2677L46.7792 38.0419V36.621C47.8002 36.9274 48.8808 37.0968 50 37.0968C51.1193 37.0968 52.1999 36.9274 53.2209 36.621ZM9.73915 72.5806C9.73915 71.3919 10.3914 70.3629 11.3496 69.8032V74.1935C11.3496 74.5984 11.3737 74.9984 11.4156 75.3935C10.422 74.8435 9.73915 73.7952 9.73915 72.5806ZM38.0635 90.8645C40.3133 91.3161 41.9479 93.3129 41.9479 95.6113V96.7742H3.29741V95.6113C3.29741 93.3113 4.932 91.3161 7.18178 90.8661L17.2615 88.8484L22.6226 94.2161L27.9838 88.8468L38.0635 90.8645ZM19.4018 86.429V85.0081C20.4228 85.3145 21.5034 85.4839 22.6226 85.4839C23.7419 85.4839 24.8225 85.3145 25.8435 85.0081V86.429L22.6226 89.6548L19.4018 86.429ZM30.6748 74.1935C30.6748 78.6403 27.0626 82.2581 22.6226 82.2581C18.1827 82.2581 14.5705 78.6403 14.5705 74.1935V66.129H30.6748V74.1935ZM33.8297 75.3935C33.8715 74.9984 33.8957 74.5984 33.8957 74.1935V69.8032C34.8539 70.3629 35.5061 71.3919 35.5061 72.5806C35.5061 73.7952 34.8233 74.8435 33.8297 75.3935ZM35.5061 64.5161V67.0258C35.0026 66.7299 34.4607 66.5052 33.8957 66.3581V62.9032H11.3496V66.3581C10.7846 66.5052 10.2426 66.7299 9.73915 67.0258V64.5161C9.73915 57.4016 15.519 51.6129 22.6226 51.6129C29.7263 51.6129 35.5061 57.4016 35.5061 64.5161ZM30.6748 48.3871V47.2242C30.6748 44.9242 32.3094 42.929 34.5592 42.479L44.6389 40.4613L50 45.829L55.3612 40.4597L65.4409 42.4774C67.6907 42.929 69.3253 44.9258 69.3253 47.2242V48.3871H30.6748ZM64.494 72.5806C64.494 71.3919 65.1462 70.3629 66.1044 69.8032V74.1935C66.1044 74.5984 66.1286 74.9984 66.1704 75.3935C65.1768 74.8435 64.494 73.7952 64.494 72.5806ZM66.354 66.2806C65.6857 66.4258 65.0673 66.6919 64.494 67.0258V64.5161C64.494 57.4016 70.2738 51.6129 77.3774 51.6129C84.4811 51.6129 90.2609 57.4016 90.2609 64.5161V67.0258C89.6876 66.6903 89.0692 66.4242 88.4009 66.2806C87.7776 64.329 85.9707 62.9032 83.8192 62.9032H70.9357C68.7842 62.9032 66.9773 64.329 66.354 66.2806ZM69.3253 74.1935V67.7419C69.3253 66.8516 70.0467 66.129 70.9357 66.129H83.8192C84.7081 66.129 85.4296 66.8516 85.4296 67.7419V74.1935C85.4296 78.6403 81.8174 82.2581 77.3774 82.2581C72.9375 82.2581 69.3253 78.6403 69.3253 74.1935ZM80.5983 85.0081V87.0968C80.5983 88.8758 79.1538 90.3226 77.3774 90.3226C75.6011 90.3226 74.1566 88.8758 74.1566 87.0968V85.0081C75.1776 85.3145 76.2582 85.4839 77.3774 85.4839C78.4967 85.4839 79.5773 85.3145 80.5983 85.0081ZM96.7027 96.7742H58.0522V95.6113C58.0522 93.3113 59.6868 91.3161 61.9366 90.8661L71.2546 89C72.0711 91.6258 74.4899 93.5484 77.3774 93.5484C80.265 93.5484 82.6838 91.6258 83.5003 89L92.8183 90.8661C95.0681 91.3161 96.7027 93.3129 96.7027 95.6113V96.7742Z" fill="#E74C3D"/>
<path d="M51.6105 72.5805V67.7418H48.3896V72.5805H43.5583V75.8063H48.3896V80.645H51.6105V75.8063H56.4418V72.5805H51.6105ZM48.3896 61.2902H51.6105V64.516H48.3896V61.2902ZM48.3896 54.8386H51.6105V58.0644H48.3896V54.8386ZM19.4018 20.9676V16.1289H16.1809V20.9676H11.3496V24.1934H16.1809V29.0321H19.4018V24.1934H24.2331V20.9676H19.4018ZM16.1809 32.2579H19.4018V35.4837H16.1809V32.2579ZM16.1809 38.7096H19.4018V41.9354H16.1809V38.7096ZM83.8192 20.9676V16.1289H80.5983V20.9676H75.767V24.1934H80.5983V29.0321H83.8192V24.1934H88.6505V20.9676H83.8192ZM80.5983 32.2579H83.8192V35.4837H80.5983V32.2579ZM80.5983 38.7096H83.8192V41.9354H80.5983V38.7096Z" fill="#E74C3D"/>
</g>
<defs>
<clipPath id="clip0_1_1103">
<rect width="99.847" height="100" fill="white" transform="translate(0.0765381)"/>
</clipPath>
</defs>
</svg>
