<svg width="100" height="100" viewBox="0 0 100 100" fill="none" xmlns="http://www.w3.org/2000/svg">
<path d="M28.1585 23.4375C29.0201 23.4375 29.7186 22.7379 29.7186 21.875C29.7186 21.0121 29.0201 20.3125 28.1585 20.3125C27.2969 20.3125 26.5984 21.0121 26.5984 21.875C26.5984 22.7379 27.2969 23.4375 28.1585 23.4375Z" fill="#E74C3D"/>
<path d="M85.8825 1.5625V42.1875H82.7623V10.9375H70.2814V42.1875H67.1612V20.3125H54.6803V42.1875H51.5601V29.6875H39.0792V45.3125H68.0754L57.4511 55.9531C56.8635 56.5444 56.1647 57.0132 55.395 57.3323C54.6254 57.6515 53.8003 57.8147 52.9673 57.8125C51.4322 57.8129 49.9492 57.2548 48.794 56.2422L42.8625 51.0437C39.818 48.3698 36.0415 46.6736 32.0229 46.175L26.5984 45.4953V41.9062L27.2988 42.0469C28.349 42.2557 29.4323 42.229 30.4709 41.9686C31.5095 41.7083 32.4776 41.2207 33.3056 40.5409C34.1337 39.8611 34.8011 39.0061 35.2598 38.0373C35.7186 37.0684 35.9574 36.0098 35.959 34.9375V28.7719L39.7251 25L38.6221 23.8953C37.775 23.0515 37.1034 22.0478 36.6463 20.9422C36.1892 19.8367 35.9556 18.6513 35.959 17.4547V15.5844C37.8421 14.1578 39.0792 11.9172 39.0792 9.375C39.0792 5.06719 35.5799 1.5625 31.2787 1.5625H17.3921C14.939 1.5682 12.5544 2.37338 10.5986 3.85638C8.64274 5.33938 7.22198 7.41963 6.55095 9.78281C5.08425 10.4521 3.84092 11.5301 2.96948 12.888C2.09804 14.2459 1.63532 15.8264 1.6366 17.4406C1.6366 24.6203 5.05948 31.4766 10.7944 35.7844L14.1175 38.2812V45.6547L11.0909 46.4125C8.38903 47.0858 5.99009 48.6457 4.27659 50.8436C2.56308 53.0414 1.63368 55.7506 1.6366 58.5391V65.625C1.6366 71.7328 5.55248 76.9297 10.9973 78.8672V98.4375H39.0792V85.9375H42.1994C43.9203 85.9375 45.3197 84.5359 45.3197 82.8125V68.3547C47.7216 69.6344 50.3996 70.3065 53.1202 70.3125C57.5618 70.3125 61.7351 68.5813 64.8756 65.4359L77.8963 52.3953C79.0227 51.2688 79.6421 49.7641 79.6421 48.0859C79.6354 47.1159 79.3877 46.1627 78.9213 45.3125H98.3634V1.5625H85.8825ZM48.4399 42.1875H42.1994V32.8125H48.4399V42.1875ZM73.4016 14.0625H79.6421V42.1875H73.4016V14.0625ZM57.8005 23.4375H64.041V42.1875H57.8005V23.4375ZM27.745 48.7891L27.0289 52.375L24.1958 50.9562L25.8011 48.5453L27.745 48.7891ZM35.3818 24.9313L32.8388 27.4781V32.8125H29.7186C27.9978 32.8125 26.5984 31.4109 26.5984 29.6875H23.4781C23.4781 33.1344 26.277 35.9375 29.7186 35.9375H32.7031C32.4476 36.9638 31.8078 37.8523 30.9162 38.4192C30.0247 38.9861 28.9496 39.1879 27.9135 38.9828L20.6653 37.5313L20.0521 40.5953L23.4781 41.2813V46.4016L21.5342 49.3219L17.2377 46.0938V29.0406L14.5746 26.3734C14.4292 26.2284 14.314 26.056 14.2356 25.8661C14.1571 25.6762 14.117 25.4727 14.1175 25.2672V25C14.1175 24.1391 14.818 23.4375 15.6776 23.4375H17.2377V20.3125C17.2377 16.8656 20.0365 14.0625 23.4781 14.0625H23.7652C24.0859 14.9738 24.6804 15.7634 25.4669 16.3229C26.2535 16.8824 27.1937 17.1844 28.1585 17.1875H31.2787C31.8122 17.1875 32.3349 17.1328 32.8388 17.0297V17.4547C32.8388 20.1953 33.7327 22.7984 35.3818 24.9313ZM12.6666 33.2859C10.2163 31.4356 8.22704 29.0421 6.85475 26.2931C5.48247 23.544 4.7644 20.5141 4.75682 17.4406C4.75682 15.1594 6.20928 13.1422 8.37004 12.4203L9.2281 12.1328L9.40595 11.2438C9.77964 9.39698 10.7784 7.73601 12.2335 6.54147C13.6885 5.34693 15.5107 4.69206 17.3921 4.6875H31.2787C33.8591 4.6875 35.959 6.79062 35.959 9.375C35.959 11.9594 33.8591 14.0625 31.2787 14.0625H28.1585C27.2988 14.0625 26.5984 13.3609 26.5984 12.5C26.5984 11.6391 27.2988 10.9375 28.1585 10.9375H29.7186V7.8125H28.1585C27.1937 7.8156 26.2535 8.11762 25.4669 8.67712C24.6804 9.23663 24.0859 10.0262 23.7652 10.9375H23.4781C18.3157 10.9375 14.1175 15.1422 14.1175 20.3125V20.5797C13.2056 20.904 12.4162 21.503 11.8576 22.2944C11.2989 23.0857 10.9984 24.0308 10.9973 25V25.2672C10.9973 26.5187 11.484 27.6969 12.3686 28.5828L14.1175 30.3344V34.375L12.6666 33.2859ZM15.3359 48.5719L19.5435 51.7328L17.3438 53.9359L13.3031 49.0813L15.3359 48.5719ZM15.6776 79.6875H23.4781V82.8125H14.1175V79.5953C14.6308 79.6531 15.1503 79.6875 15.6776 79.6875ZM26.5984 70.3125C28.3192 70.3125 29.7186 71.7141 29.7186 73.4375C29.7186 75.1609 28.3192 76.5625 26.5984 76.5625H23.4781V70.3125H26.5984ZM35.959 95.3125H26.5984V89.0625H23.4781V95.3125H14.1175V85.9375H35.959V95.3125ZM42.1994 82.8125H26.5984V79.6875C27.7942 79.6845 28.9641 79.3374 29.9687 78.6875C30.9732 78.0377 31.7702 77.1124 32.2647 76.0219C32.9074 76.3562 33.6266 76.5625 34.3989 76.5625C36.9793 76.5625 39.0792 74.4594 39.0792 71.875C39.0792 69.2906 36.9793 67.1875 34.3989 67.1875C32.9636 67.1875 31.6921 67.8516 30.8325 68.875C29.6865 67.794 28.1726 67.1906 26.5984 67.1875V60.9375H42.1994V82.8125ZM32.8388 71.875C32.8388 71.0141 33.5393 70.3125 34.3989 70.3125C35.2585 70.3125 35.959 71.0141 35.959 71.875C35.959 72.7359 35.2585 73.4375 34.3989 73.4375C33.5393 73.4375 32.8388 72.7359 32.8388 71.875ZM62.6696 63.2266C61.4186 64.4865 59.9303 65.4853 58.2911 66.1652C56.652 66.8451 54.8944 67.1926 53.1202 67.1875C50.3251 67.1797 47.6007 66.3071 45.3197 64.6891V60.9375C45.3197 59.2141 43.9203 57.8125 42.1994 57.8125H26.5984C24.8776 57.8125 23.4781 59.2141 23.4781 60.9375V67.1875H15.6776C14.818 67.1875 14.1175 66.4859 14.1175 65.625V60.9375H10.9973V65.625C10.9973 68.2094 13.0972 70.3125 15.6776 70.3125H20.3579V76.5625H15.6776C9.65557 76.5625 4.75682 71.6562 4.75682 65.625V58.5391C4.75736 56.771 5.25849 55.0394 6.20207 53.5451C7.14565 52.0508 8.49298 50.8552 10.0877 50.0969L17.1316 58.5641L22.2254 53.4625L29.2864 56.9984L30.8481 49.175L31.6344 49.2734C35.0348 49.6957 38.2301 51.1312 40.8063 53.3938L46.7394 58.5938C48.4635 60.1055 50.6773 60.9385 52.9689 60.9375C55.4963 60.9375 57.8723 59.9516 59.6586 58.1625L67.1628 50.6469L71.1956 54.6875L62.6696 63.2266ZM75.7106 46.125C76.2332 46.6484 76.5219 47.3469 76.5219 48.1562C76.5219 48.9281 76.227 49.6484 75.6919 50.1844L73.4016 52.4781L69.3672 48.4375L71.6528 46.1484C72.191 45.6094 72.9071 45.3125 73.7527 45.3125C74.4922 45.3125 75.188 45.6016 75.7106 46.125ZM95.2432 42.1875H89.0027V4.6875H95.2432V42.1875Z" fill="#E74C3D"/>
<path d="M60.9208 73.4375C54.0392 73.4375 48.4399 79.0453 48.4399 85.9375C48.4399 92.8297 54.0392 98.4375 60.9208 98.4375C67.8025 98.4375 73.4017 92.8297 73.4017 85.9375C73.4017 79.0453 67.8025 73.4375 60.9208 73.4375ZM59.3607 76.7031V85.0344L52.1561 89.2C51.764 88.157 51.5622 87.052 51.5602 85.9375C51.5602 81.3016 54.9409 77.4516 59.3607 76.7031ZM60.9208 95.3125C59.5431 95.3127 58.1824 95.0079 56.9361 94.4198C55.6897 93.8318 54.5886 92.975 53.7116 91.9109L60.9208 87.7422L68.1301 91.9109C67.253 92.975 66.1519 93.8318 64.9056 94.4198C63.6592 95.0079 62.2985 95.3127 60.9208 95.3125ZM69.6855 89.2016L62.4809 85.0344V76.7031C66.9007 77.45 70.2815 81.3 70.2815 85.9375C70.2815 87.0859 70.0646 88.1828 69.6855 89.2016ZM76.5219 95.3125H79.6421V98.4375H76.5219V95.3125ZM82.7623 95.3125H98.3634V98.4375H82.7623V95.3125ZM76.5219 89.0625H79.6421V92.1875H76.5219V89.0625ZM82.7623 89.0625H98.3634V92.1875H82.7623V89.0625ZM76.5219 82.8125H79.6421V85.9375H76.5219V82.8125ZM82.7623 82.8125H98.3634V85.9375H82.7623V82.8125ZM76.5219 76.5625H79.6421V79.6875H76.5219V76.5625ZM82.7623 76.5625H98.3634V79.6875H82.7623V76.5625ZM73.4017 70.3125H95.2432V73.4375H73.4017V70.3125ZM73.4017 64.0625H95.2432V67.1875H73.4017V64.0625ZM76.5219 57.8125H82.7623V60.9375H76.5219V57.8125ZM85.8826 57.8125H95.2432V60.9375H85.8826V57.8125Z" fill="#E74C3D"/>
</svg>
