<svg width="100" height="100" viewBox="0 0 100 100" fill="none" xmlns="http://www.w3.org/2000/svg">
<rect width="100" height="100" fill="#E74C3D"/>
<path d="M25.2448 55.0658L25.2284 55.0407V52.4098L33.0265 52.3947L30.6813 58.4156C32.4445 64.9711 38.3726 69.8075 45.3997 69.8075H53.5996C54.7803 69.8075 55.9282 69.6695 57.0271 69.4119L58.3388 74.2139C56.7971 74.5879 55.2065 74.7795 53.5913 74.7795H45.0635C39.7994 74.6949 34.8631 72.5798 31.1325 68.8054C27.4835 65.1125 25.4088 60.2603 25.2448 55.0658ZM33.7637 50.883C29.9505 47.0329 27.8516 41.9072 27.8516 36.4548C27.8516 31.0056 29.9505 25.8862 33.7637 22.0271C37.5684 18.168 42.6355 16.0429 48.0229 16.0429H52.1965H65.2423H68.9079L65.7096 23.7679L60.9047 21.0217H48.0229C39.6101 21.0217 32.7716 27.9412 32.7716 36.4548C32.7716 44.9684 39.6101 51.8886 48.0229 51.8886H56.5507L54.9108 56.8664H48.0229C42.6355 56.8664 37.5762 54.7421 33.7637 50.883ZM67.8596 39.9497C71.6724 43.7992 73.7718 48.9249 73.7718 54.3774C73.7718 59.8269 71.6724 64.946 67.8596 68.8054C67.3103 69.3709 66.7283 69.8929 66.1211 70.3738L70.1882 74.374V78.4057H66.2031L52.4524 64.89V60.8576H56.4373L62.5459 66.8634C66.3671 64.0602 68.852 59.5032 68.852 54.3774C68.852 45.864 62.0132 38.9441 53.6004 38.9441H45.0726L46.7125 33.9661H53.6004C58.9875 33.9661 64.0469 36.0903 67.8596 39.9497ZM83.7962 18.7742V61.5865C83.7962 69.063 79.5542 75.9513 72.8939 79.2482L50.4776 90.3322L26.15 78.9282H26.1497C19.4843 75.8044 15.1949 68.997 15.1949 61.5865V18.7769L11.2413 9.22041H87.755L83.7962 18.7742ZM5 5L11.0515 19.6287V61.5865C11.0515 70.6566 16.2912 78.953 24.4169 82.7621L50.5249 95L74.7062 83.0449C82.7827 79.0445 87.9404 70.6876 87.9404 61.5865V19.6287L94 5H5Z" fill="white"/>
</svg>
