<svg width="260" height="74" viewBox="0 0 260 74" fill="none" xmlns="http://www.w3.org/2000/svg">
<g clip-path="url(#clip0_85_1690)">
<path d="M16.6467 41.164L16.6333 41.1433V38.98L23.0455 38.9676L21.1171 43.9183C22.5669 49.3086 27.4414 53.2854 33.2196 53.2854H39.9622C40.933 53.2854 41.8769 53.1719 42.7805 52.9601L43.8591 56.9085C42.5914 57.2161 41.2835 57.3736 39.9554 57.3736H32.9432C28.6146 57.3041 24.5557 55.5649 21.488 52.4614C18.4876 49.4249 16.7817 45.4351 16.6467 41.164ZM23.6516 37.7246C20.5162 34.5589 18.7903 30.3442 18.7903 25.861C18.7903 21.3803 20.5162 17.1709 23.6516 13.9977C26.7801 10.8245 30.9467 9.07717 35.3766 9.07717H38.8085H49.5357H52.5498L49.92 15.4291L45.969 13.171H35.3766C28.459 13.171 22.8358 18.8606 22.8358 25.861C22.8358 32.8613 28.459 38.5515 35.3766 38.5515H42.3888L41.0404 42.6445H35.3766C30.9467 42.6445 26.7866 40.8978 23.6516 37.7246ZM51.6878 28.7346C54.823 31.8999 56.5493 36.1146 56.5493 40.5979C56.5493 45.0788 54.823 49.288 51.6878 52.4614C51.2362 52.9264 50.7576 53.3556 50.2583 53.751L53.6025 57.0402V60.3552H50.3257L39.0189 49.2419V45.9262H42.2955L47.3185 50.8646C50.4606 48.5596 52.5039 44.8126 52.5039 40.5979C52.5039 33.5978 46.8805 27.9078 39.9629 27.9078H32.9506L34.2991 23.8146H39.9629C44.3926 23.8146 48.5527 25.5613 51.6878 28.7346ZM64.7921 11.323V46.5256C64.7921 52.6732 61.304 58.3371 55.8274 61.048L37.3951 70.1619L17.3911 60.7849H17.3909C11.91 58.2163 8.38302 52.6189 8.38302 46.5256V11.3252L5.13203 3.46737H68.0473L64.7921 11.323ZM0 -0.00287628L4.97598 12.0256V46.5256C4.97598 53.9836 9.28446 60.8053 15.966 63.9374L37.434 74L57.3176 64.1699C63.9587 60.8805 68.1998 54.009 68.1998 46.5256V12.0256L73.1824 -0.00287628H0Z" fill="#2D3E52"/>
<path d="M260.002 46.9363V52.9905C258.74 54.156 257.039 54.8253 254.791 54.8253C250.674 54.8253 248.537 52.4353 248.369 49.1666C248.202 46.2801 248.369 43.6078 248.369 41.6156C248.369 39.7268 248.369 34.2356 248.314 32.4604C248.202 28.7909 247.654 27.7392 246.065 27.2976V26.9123C249.354 25.3051 250.842 23.7442 253.09 20.0311L253.47 20.0878L253.146 25.5324H259.791V31.7472H259.466C258.426 29.9125 257.273 29.2458 254.856 29.2458C254.252 29.2458 253.648 29.3027 253.045 29.3568C252.877 34.8584 252.822 40.7448 252.822 46.2905C252.822 49.1768 253.426 50.6834 255.618 50.6834C257.151 50.6834 258.583 49.6859 259.68 46.957H260.002V46.9363ZM232.687 53.5464C232.083 53.5464 231.758 53.988 231.479 54.6547H231.154V45.9954H231.535C233.347 49.3241 234.712 50.7736 237.184 50.7736C239.488 50.7736 240.696 49.3806 240.696 46.7219C240.696 44.275 239.488 43.1091 236.636 41.5586C233.403 39.8945 231.043 38.3338 231.043 33.0132C231.043 27.853 234.275 24.9096 238.336 24.9096C241.077 24.9096 242.015 26.1887 242.889 26.1887C243.437 26.1887 243.761 25.8606 244.096 25.0802H244.421V33.2977H244.096C242.285 30.07 240.808 28.9615 238.94 28.9615C236.748 28.9615 235.595 30.4112 235.595 32.8998C235.595 35.401 236.748 36.5121 239.6 38.0057C242.889 39.6696 245.248 41.2772 245.248 46.5513C245.248 51.7682 241.737 54.8253 237.62 54.8253C234.599 54.8253 233.672 53.5464 232.687 53.5464ZM223.738 37.5537C223.85 32.5612 223.19 28.8944 220.886 28.8944C218.861 28.8944 217.754 31.8943 217.485 37.5537H223.738ZM228.191 40.4942H217.441C217.496 47.4894 218.761 50.7164 222.329 50.7164C224.577 50.7164 226.557 49.6056 227.709 46.3807H228.033V52.5385C226.77 53.9315 224.745 54.8126 221.948 54.8126C215.752 54.8126 212.508 50.2618 212.508 40.3265C212.508 30.0598 215.64 24.9433 221.009 24.9433C225.998 24.9433 228.358 28.9383 228.358 37.2692C228.347 38.4479 228.347 39.5561 228.191 40.4942ZM210.572 53.8745L210.461 54.2596H203.872L203.816 53.8745C203.984 51.8692 204.04 49.5386 204.096 47.2075C202.832 52.9238 200.64 54.8126 197.843 54.8126C194.498 54.8126 192.955 52.7091 192.686 49.4817C192.407 46.267 192.63 44.4347 192.63 41.9335C192.63 38.6619 192.575 32.6077 192.407 30.3879C192.183 27.4447 191.422 26.2791 190.65 25.8375L190.706 25.5092H197.564L197.675 25.8375C197.071 31.4397 197.071 39.499 197.071 44.3211C197.071 48.6574 197.843 50.3187 200.147 50.3187C202.452 50.3187 203.984 47.9312 204.152 44.3782V39.8843C204.152 36.8844 204.096 32.9461 203.928 30.7263C203.704 27.5584 203 26.3362 202.228 25.8375L202.283 25.5092H209.141L209.197 25.8375C208.704 29.8892 208.649 35.2771 208.592 39.7707C208.592 42.329 208.649 46.3236 208.816 48.9855C209.096 52.2104 209.745 53.3758 210.572 53.8745ZM178.424 50.5465C181.769 50.5465 183.525 45.9954 183.525 35.662C183.525 25.2278 181.769 20.5635 178.424 20.5635C175.136 20.5635 173.435 25.2278 173.435 35.662C173.424 45.9954 175.124 50.5465 178.424 50.5465ZM185.606 56.1487L186.097 56.205L185.986 61.3084C185.057 62.0351 183.738 62.4199 182.641 62.4199C178.414 62.4199 177.104 60.5285 176.601 54.6442C171.064 53.6468 168.212 47.6497 168.212 35.6516C168.212 22.2739 171.668 16.2737 178.414 16.2737C185.214 16.2737 188.671 22.2739 188.671 35.6516C188.671 47.1971 186.042 53.1379 180.874 54.5308C181.154 57.3037 181.802 57.9701 183.234 57.9701C184.286 57.9834 184.789 57.3141 185.606 56.1487ZM164.397 17.067V22.84H164.017C162.809 21.1756 161.768 20.3386 160.013 20.3386C158.256 20.3386 157.216 21.5037 157.216 24.2197C157.216 25.3281 157.216 26.3799 157.328 27.4912H163.256V33.6024H162.932C162.003 31.7678 160.795 31.2148 158.648 31.2148C158.324 31.2148 157.876 31.2148 157.439 31.2715C157.384 32.6618 157.328 34.8817 157.328 38.595C157.328 42.0911 157.384 47.1402 157.495 48.9156C157.775 52.13 158.424 53.3523 159.52 53.8615L159.464 54.2465H150.963L150.907 53.8615C151.679 53.3654 152.339 52.143 152.607 48.9156C152.831 46.585 152.887 43.4709 152.887 38.6493C152.887 35.3234 152.719 31.7111 152.562 30.7626C152.283 29.3699 151.578 29.0984 150.146 28.6564V28.2716C151.846 27.9871 152.618 27.548 152.674 26.3258C152.731 25.2147 152.619 24.1627 152.619 22.7131C152.619 18.5477 155.202 16.2737 159.588 16.2737C161.489 16.2971 163.2 16.568 164.397 17.067ZM150.739 17.067V22.84H150.359C149.151 21.1756 148.111 20.3386 146.354 20.3386C144.598 20.3386 143.558 21.5037 143.558 24.2197C143.558 25.3281 143.558 26.3799 143.67 27.4912H149.598V33.6024H149.274C148.345 31.7678 147.137 31.2148 144.99 31.2148C144.665 31.2148 144.218 31.2148 143.782 31.2715C143.725 32.6618 143.67 34.8817 143.67 38.595C143.67 42.0911 143.725 47.1402 143.837 48.9156C144.117 52.13 144.766 53.3523 145.862 53.8615L145.806 54.2465H137.305L137.249 53.8615C138.021 53.3654 138.681 52.143 138.949 48.9156C139.173 46.585 139.229 43.4709 139.229 38.6493C139.229 35.3234 139.061 31.7111 138.905 30.7626C138.625 29.3699 137.92 29.0984 136.489 28.6564V28.2716C138.189 27.9871 138.96 27.548 139.017 26.3258C139.072 25.2147 138.96 24.1627 138.96 22.7131C138.96 18.5477 141.545 16.2737 145.929 16.2737C147.831 16.2971 149.531 16.568 150.739 17.067ZM129.285 45.4967V41.1066H127.965C125.168 41.1066 123.468 42.329 123.468 45.9389C123.468 49.0525 124.296 50.5465 125.996 50.4893C127.808 50.4893 129.117 48.8254 129.285 45.4967ZM135.705 53.8745L135.65 54.2596H129.005L128.893 53.8745C129.117 52.2104 129.173 50.151 129.217 48.1017C128.121 52.934 126.141 54.7688 123.681 54.7688C120.605 54.7688 118.524 52.3241 118.524 46.719C118.524 41.006 122.204 38.3338 127.417 38.3338H129.285C129.285 34.2821 129.34 32.5043 128.849 31.1683C128.301 29.7782 127.26 29.008 125.224 29.008C123.2 29.008 121.052 30.3981 119.687 33.1167H119.363V27.0027C120.895 25.7237 123.043 24.8992 125.728 24.8992C129.564 24.8992 132.372 26.5635 133.189 29.3931C134.016 32.109 133.737 34.4397 133.737 40.1661C133.737 42.3855 133.792 45.9954 133.96 49.0525C134.229 52.2104 134.878 53.3758 135.705 53.8745ZM116.555 46.9363V52.9905C115.291 54.156 113.591 54.8253 111.342 54.8253C107.226 54.8253 105.09 52.4353 104.922 49.1666C104.754 46.2801 104.922 43.6078 104.922 41.6156C104.922 39.7268 104.922 34.2356 104.866 32.4604C104.754 28.7909 104.206 27.7392 102.617 27.2976V26.9123C105.906 25.3051 107.394 23.7442 109.643 20.0311L110.023 20.0878L109.698 25.5324H116.342V31.7472H116.007C114.967 29.9125 113.814 29.2458 111.399 29.2458C110.795 29.2458 110.19 29.3027 109.586 29.3568C109.419 34.8584 109.362 40.7448 109.362 46.2905C109.362 49.1768 109.967 50.6834 112.159 50.6834C113.691 50.6834 115.123 49.6859 116.22 46.957H116.555V46.9363ZM86.2188 52.9905C85.5034 52.9905 85.1788 53.4892 84.7428 54.4845H84.351L84.4624 44.05H84.8991C86.8231 48.4868 89.1833 50.5465 92.0358 50.5465C94.6195 50.5465 96.3758 48.8254 96.3758 44.8871C96.3758 41.7166 94.3512 39.499 91.4877 37.6102C87.5838 35.0625 84.5745 32.5043 84.5745 26.393C84.5745 19.9533 88.0314 16.2298 92.5839 16.2298C96.208 16.2298 97.4163 18.0617 98.5682 18.0617C99.2841 18.0617 99.5524 17.62 100.045 16.612H100.425L100.257 26.8349H99.877C97.6846 22.1707 95.8725 20.5063 93.2326 20.5063C90.8724 20.5063 89.4516 22.5556 89.4516 26.2224C89.4516 29.437 91.2642 31.7237 94.1719 33.6024C98.0092 36.0471 101.197 38.9336 101.197 44.7633C101.197 51.2592 97.36 54.8126 92.4162 54.8126C88.2997 54.8253 87.3712 52.9905 86.2188 52.9905Z" fill="#2D3E52"/>
</g>
<defs>
<clipPath id="clip0_85_1690">
<rect width="260" height="74" fill="white"/>
</clipPath>
</defs>
</svg>
