<svg width="300" height="87" viewBox="0 0 300 87" fill="none" xmlns="http://www.w3.org/2000/svg">
<g clip-path="url(#clip0_103_743)">
<path d="M19.2078 48.3234L19.1923 48.2995V45.7938L26.5909 45.7794L24.3658 51.5138C26.0387 57.7574 31.6632 62.3636 38.3303 62.3636H46.1102C47.2304 62.3636 48.3195 62.2322 49.3621 61.9869L50.6067 66.5604C49.1439 66.9166 47.6349 67.099 46.1024 67.099H38.0114C33.0169 67.0185 28.3334 65.0041 24.7939 61.4092C21.3318 57.8921 19.3635 53.2707 19.2078 48.3234ZM27.2904 44.3396C23.6725 40.6727 21.6811 35.7909 21.6811 30.5979C21.6811 25.408 23.6725 20.5322 27.2904 16.8567C30.9001 13.1812 35.7077 11.1572 40.8192 11.1572H44.779H57.1566H60.6344L57.5999 18.5147L53.0411 15.8992H40.8192C32.8373 15.8992 26.349 22.4894 26.349 30.5979C26.349 38.7064 32.8373 45.2974 40.8192 45.2974H48.9102L47.3543 50.0383H40.8192C35.7077 50.0383 30.9076 48.0151 27.2904 44.3396ZM59.6398 33.9265C63.2573 37.5928 65.2492 42.4747 65.2492 47.6677C65.2492 52.8579 63.2573 57.7335 59.6398 61.4092C59.1186 61.9478 58.5664 62.4449 57.9903 62.903L61.8491 66.7129V70.5527H58.0681L45.0218 57.6801V53.8396H48.8025L54.5982 59.5596C58.2238 56.8898 60.5814 52.5496 60.5814 47.6677C60.5814 39.5595 54.0929 32.9688 46.111 32.9688H38.02L39.5759 28.2276H46.111C51.2222 28.2276 56.0224 30.2508 59.6398 33.9265ZM74.7601 13.7586V54.5338C74.7601 61.6546 70.7354 68.2151 64.4162 71.3551L43.1482 81.9118L20.0666 71.0503H20.0664C13.7423 68.0751 9.67271 61.5917 9.67271 54.5338V13.7611L5.92157 4.6594H78.5161L74.7601 13.7586ZM0 0.639809L5.74152 14.5724V54.5338C5.74152 63.1724 10.7128 71.074 18.4223 74.7019L43.193 86.3574L66.1357 74.9712C73.7985 71.1611 78.6921 63.2018 78.6921 54.5338V14.5724L84.4412 0.639809H0Z" fill="white"/>
<path d="M300.002 55.0107V62.0232C298.547 63.3732 296.584 64.1484 293.989 64.1484C289.239 64.1484 286.774 61.3801 286.58 57.5939C286.387 54.2505 286.58 51.1553 286.58 48.8476C286.58 46.6598 286.58 40.2994 286.516 38.2431C286.387 33.9928 285.755 32.7746 283.922 32.2631V31.8168C287.716 29.9552 289.433 28.1472 292.027 23.8463L292.466 23.9119L292.091 30.2185H299.759V37.4171H299.384C298.184 35.2919 296.853 34.5196 294.065 34.5196C293.368 34.5196 292.671 34.5856 291.975 34.6483C291.782 41.0208 291.717 47.839 291.717 54.2626C291.717 57.6058 292.414 59.3509 294.944 59.3509C296.713 59.3509 298.365 58.1955 299.631 55.0346H300.002V55.0107ZM268.485 62.6671C267.788 62.6671 267.414 63.1786 267.091 63.9508H266.716V53.9208H267.156C269.247 57.7764 270.821 59.4553 273.674 59.4553C276.332 59.4553 277.726 57.8419 277.726 54.7622C277.726 51.928 276.332 50.5776 273.042 48.7816C269.312 46.8541 266.588 45.0464 266.588 38.8835C266.588 32.9065 270.317 29.4971 275.003 29.4971C278.165 29.4971 279.249 30.9786 280.256 30.9786C280.889 30.9786 281.263 30.5986 281.65 29.6947H282.024V39.213H281.65C279.56 35.4744 277.855 34.1904 275.7 34.1904C273.17 34.1904 271.841 35.8695 271.841 38.7521C271.841 41.6493 273.17 42.9362 276.461 44.6662C280.256 46.5935 282.979 48.4557 282.979 54.5646C282.979 60.6074 278.927 64.1484 274.177 64.1484C270.692 64.1484 269.621 62.6671 268.485 62.6671ZM258.159 44.1427C258.289 38.36 257.527 34.1127 254.868 34.1127C252.533 34.1127 251.254 37.5875 250.945 44.1427H258.159ZM263.297 47.5488H250.893C250.957 55.6513 252.416 59.3891 256.533 59.3891C259.127 59.3891 261.412 58.1024 262.741 54.3671H263.115V61.4997C261.658 63.1131 259.321 64.1338 256.094 64.1338C248.944 64.1338 245.201 58.8626 245.201 47.3545C245.201 35.4626 248.816 29.5361 255.01 29.5361C260.767 29.5361 263.49 34.1635 263.49 43.8132C263.477 45.1784 263.477 46.4622 263.297 47.5488ZM242.968 63.0472L242.839 63.4932H235.237L235.173 63.0472C235.366 60.7244 235.431 58.0249 235.496 55.3248C234.037 61.946 231.507 64.1338 228.28 64.1338C224.421 64.1338 222.64 61.6973 222.33 57.9589C222.008 54.2354 222.266 52.113 222.266 49.2159C222.266 45.4264 222.201 38.4138 222.008 35.8426C221.749 32.4335 220.872 31.0833 219.981 30.5719L220.046 30.1915H227.958L228.087 30.5719C227.389 37.0609 227.389 46.396 227.389 51.9814C227.389 57.0042 228.28 58.9285 230.939 58.9285C233.598 58.9285 235.366 56.163 235.56 52.0476V46.8423C235.56 43.3674 235.496 38.8057 235.302 36.2346C235.044 32.5651 234.231 31.1495 233.34 30.5719L233.404 30.1915H241.317L241.381 30.5719C240.813 35.265 240.749 41.5058 240.684 46.7106C240.684 49.674 240.749 54.3009 240.942 57.3843C241.264 61.1196 242.013 62.4695 242.968 63.0472ZM205.874 59.1923C209.733 59.1923 211.76 53.9208 211.76 41.9516C211.76 29.8656 209.733 24.4629 205.874 24.4629C202.08 24.4629 200.118 29.8656 200.118 41.9516C200.105 53.9208 202.067 59.1923 205.874 59.1923ZM214.16 65.6813L214.728 65.7465L214.599 71.6579C213.528 72.4995 212.005 72.9453 210.74 72.9453C205.862 72.9453 204.351 70.7545 203.77 63.9387C197.381 62.7834 194.091 55.837 194.091 41.9395C194.091 26.4441 198.079 19.4941 205.862 19.4941C213.709 19.4941 217.697 26.4441 217.697 41.9395C217.697 55.3127 214.664 62.1939 208.701 63.8074C209.023 67.0192 209.772 67.7911 211.424 67.7911C212.638 67.8065 213.218 67.0312 214.16 65.6813ZM189.689 20.413V27.0998H189.251C187.856 25.172 186.656 24.2024 184.63 24.2024C182.604 24.2024 181.403 25.5521 181.403 28.6979C181.403 29.9819 181.403 31.2002 181.532 32.4874H188.372V39.5659H187.999C186.927 37.441 185.533 36.8004 183.055 36.8004C182.681 36.8004 182.165 36.8004 181.661 36.8661C181.597 38.4765 181.532 41.0477 181.532 45.3489C181.532 49.3984 181.597 55.2468 181.725 57.3032C182.048 61.0265 182.797 62.4423 184.061 63.0321L183.997 63.4781H174.188L174.124 63.0321C175.014 62.4575 175.776 61.0416 176.085 57.3032C176.344 54.6037 176.408 50.9967 176.408 45.4118C176.408 41.5594 176.214 37.3753 176.033 36.2766C175.711 34.6634 174.898 34.349 173.246 33.837V33.3913C175.207 33.0618 176.098 32.5531 176.163 31.1375C176.228 29.8505 176.098 28.632 176.098 26.9529C176.098 22.1281 179.08 19.4941 184.14 19.4941C186.333 19.5212 188.308 19.835 189.689 20.413ZM173.93 20.413V27.0998H173.491C172.097 25.172 170.897 24.2024 168.871 24.2024C166.844 24.2024 165.644 25.5521 165.644 28.6979C165.644 29.9819 165.644 31.2002 165.773 32.4874H172.613V39.5659H172.239C171.168 37.441 169.774 36.8004 167.296 36.8004C166.922 36.8004 166.406 36.8004 165.902 36.8661C165.837 38.4765 165.773 41.0477 165.773 45.3489C165.773 49.3984 165.837 55.2468 165.966 57.3032C166.289 61.0265 167.038 62.4423 168.302 63.0321L168.238 63.4781H158.429L158.365 63.0321C159.255 62.4575 160.017 61.0416 160.326 57.3032C160.584 54.6037 160.649 50.9967 160.649 45.4118C160.649 41.5594 160.455 37.3753 160.275 36.2766C159.952 34.6634 159.138 34.349 157.487 33.837V33.3913C159.449 33.0618 160.339 32.5531 160.404 31.1375C160.468 29.8505 160.339 28.632 160.339 26.9529C160.339 22.1281 163.321 19.4941 168.38 19.4941C170.574 19.5212 172.536 19.835 173.93 20.413ZM149.175 53.3431V48.2581H147.652C144.425 48.2581 142.463 49.674 142.463 53.8554C142.463 57.4618 143.418 59.1923 145.38 59.1261C147.471 59.1261 148.981 57.1987 149.175 53.3431ZM156.583 63.0472L156.519 63.4932H148.852L148.723 63.0472C148.981 61.1196 149.045 58.7342 149.097 56.3605C147.832 61.9578 145.548 64.083 142.709 64.083C139.159 64.083 136.758 61.2513 136.758 54.759C136.758 48.1416 141.005 45.0464 147.02 45.0464H149.175C149.175 40.3532 149.239 38.294 148.672 36.7465C148.039 35.1364 146.839 34.2443 144.489 34.2443C142.154 34.2443 139.675 35.8545 138.101 39.0033H137.727V31.9215C139.495 30.44 141.973 29.485 145.071 29.485C149.498 29.485 152.737 31.4128 153.679 34.6903C154.634 37.8362 154.312 40.5358 154.312 47.1687C154.312 49.7394 154.376 53.9208 154.57 57.4618C154.879 61.1196 155.628 62.4695 156.583 63.0472ZM134.487 55.0107V62.0232C133.028 63.3732 131.067 64.1484 128.472 64.1484C123.723 64.1484 121.257 61.3801 121.064 57.5939C120.87 54.2505 121.064 51.1553 121.064 48.8476C121.064 46.6598 121.064 40.2994 120.999 38.2431C120.87 33.9928 120.238 32.7746 118.405 32.2631V31.8168C122.199 29.9552 123.916 28.1472 126.511 23.8463L126.949 23.9119L126.575 30.2185H134.241V37.4171H133.855C132.654 35.2919 131.324 34.5196 128.537 34.5196C127.84 34.5196 127.143 34.5856 126.446 34.6483C126.252 41.0208 126.187 47.839 126.187 54.2626C126.187 57.6058 126.885 59.3509 129.415 59.3509C131.183 59.3509 132.835 58.1955 134.1 55.0346H134.487V55.0107ZM99.4833 62.0232C98.6579 62.0232 98.2834 62.6009 97.7802 63.7537H97.3281L97.4568 51.6675H97.9605C100.181 56.8066 102.904 59.1923 106.195 59.1923C109.176 59.1923 111.203 57.1987 111.203 52.637C111.203 48.9646 108.867 46.396 105.563 44.2082C101.058 41.2571 97.586 38.294 97.586 31.2152C97.586 23.7561 101.575 19.4432 106.828 19.4432C111.009 19.4432 112.403 21.5651 113.733 21.5651C114.559 21.5651 114.868 21.0535 115.436 19.8859H115.875L115.682 31.7272H115.243C112.713 26.3246 110.622 24.3968 107.576 24.3968C104.853 24.3968 103.213 26.7704 103.213 31.0177C103.213 34.7412 105.305 37.3899 108.66 39.5659C113.088 42.3976 116.765 45.741 116.765 52.4936C116.765 60.0179 112.339 64.1338 106.634 64.1338C101.884 64.1484 100.813 62.0232 99.4833 62.0232Z" fill="white"/>
</g>
<defs>
<clipPath id="clip0_103_743">
<rect width="300" height="85.7143" fill="white" transform="translate(0 0.642578)"/>
</clipPath>
</defs>
</svg>
