<svg width="30" height="30" viewBox="0 0 30 30" fill="none" xmlns="http://www.w3.org/2000/svg">
<g clip-path="url(#clip0_16_176)">
<path d="M15 0.75C7.1625 0.75 0.75 7.1625 0.75 15C0.75 22.8375 7.1625 29.25 15 29.25C22.8375 29.25 29.25 22.8375 29.25 15C29.25 7.1625 22.8375 0.75 15 0.75ZM11.8686 20.112L8.5632 16.7064C8.37977 16.5174 8.27805 16.2638 8.28001 16.0004C8.28198 15.7371 8.38747 15.485 8.5737 15.2988L9.1608 14.7117C9.25393 14.6186 9.36449 14.5447 9.48618 14.4943C9.60786 14.4439 9.73829 14.4179 9.87 14.4179C10.0017 14.4179 10.1321 14.4439 10.2538 14.4943C10.3755 14.5447 10.4861 14.6186 10.5792 14.7117L12.5775 16.71L19.4208 9.9957C19.6095 9.81057 19.8636 9.70741 20.1279 9.70864C20.3922 9.70988 20.6454 9.81541 20.8323 10.0023L21.4158 10.5858C21.5089 10.6789 21.5828 10.7895 21.6332 10.9112C21.6836 11.0329 21.7096 11.1633 21.7096 11.295C21.7096 11.4267 21.6836 11.5571 21.6332 11.6788C21.5828 11.8005 21.5089 11.9111 21.4158 12.0042L13.2972 20.1228C13.2032 20.2168 13.0914 20.2911 12.9684 20.3415C12.8454 20.3919 12.7136 20.4173 12.5806 20.4163C12.4477 20.4153 12.3163 20.3879 12.1941 20.3357C12.0718 20.2834 11.9612 20.2074 11.8686 20.112Z" fill="#E74C3D"/>
</g>
<defs>
<clipPath id="clip0_16_176">
<rect width="30" height="30" fill="white"/>
</clipPath>
</defs>
</svg>
