<svg width="80" height="80" viewBox="0 0 80 80" fill="none" xmlns="http://www.w3.org/2000/svg">
<g clip-path="url(#clip0_1_381)">
<path d="M73.3333 10.6667H66.6667V5.33333C66.6667 2.392 64.2747 0 61.3333 0C58.392 0 56 2.392 56 5.33333V10.6667H24V5.33333C24 2.392 21.608 0 18.6667 0C15.7253 0 13.3333 2.392 13.3333 5.33333V10.6667H6.66667C2.99067 10.6667 0 13.6573 0 17.3333V73.3333C0 77.0093 2.99067 80 6.66667 80H73.3333C77.0093 80 80 77.0093 80 73.3333V17.3333C80 13.6573 77.0093 10.6667 73.3333 10.6667ZM58.6667 5.33333C58.6667 3.86267 59.8627 2.66667 61.3333 2.66667C62.804 2.66667 64 3.86267 64 5.33333V16C64 17.4707 62.804 18.6667 61.3333 18.6667C59.8627 18.6667 58.6667 17.4707 58.6667 16V5.33333ZM16 5.33333C16 3.86267 17.196 2.66667 18.6667 2.66667C20.1373 2.66667 21.3333 3.86267 21.3333 5.33333V16C21.3333 17.4707 20.1373 18.6667 18.6667 18.6667C17.196 18.6667 16 17.4707 16 16V5.33333ZM77.3333 73.3333C77.3333 75.5387 75.5387 77.3333 73.3333 77.3333H6.66667C4.46133 77.3333 2.66667 75.5387 2.66667 73.3333V29.3333H77.3333V73.3333ZM77.3333 26.6667H2.66667V17.3333C2.66667 15.128 4.46133 13.3333 6.66667 13.3333H13.3333V16C13.3333 18.9413 15.7253 21.3333 18.6667 21.3333C21.608 21.3333 24 18.9413 24 16V13.3333H56V16C56 18.9413 58.392 21.3333 61.3333 21.3333C64.2747 21.3333 66.6667 18.9413 66.6667 16V13.3333H73.3333C75.5387 13.3333 77.3333 15.128 77.3333 17.3333V26.6667Z" fill="#E74C3D"/>
<path d="M38.6665 21.3334H41.3332V24H38.6665V21.3334ZM43.9998 21.3334H46.6665V24H43.9998V21.3334ZM33.3332 21.3334H35.9998V24H33.3332V21.3334ZM19.9998 36H7.99984C7.26384 36 6.6665 36.5974 6.6665 37.3334V49.3334C6.6665 50.0694 7.26384 50.6667 7.99984 50.6667H19.9998C20.7358 50.6667 21.3332 50.0694 21.3332 49.3334V37.3334C21.3332 36.5974 20.7358 36 19.9998 36ZM18.6665 48H9.33317V38.6667H18.6665V48ZM37.3332 36H25.3332C24.5972 36 23.9998 36.5974 23.9998 37.3334V49.3334C23.9998 50.0694 24.5972 50.6667 25.3332 50.6667H37.3332C38.0692 50.6667 38.6665 50.0694 38.6665 49.3334V37.3334C38.6665 36.5974 38.0692 36 37.3332 36ZM35.9998 48H26.6665V38.6667H35.9998V48ZM54.6665 36H42.6665C41.9305 36 41.3332 36.5974 41.3332 37.3334V49.3334C41.3332 50.0694 41.9305 50.6667 42.6665 50.6667H54.6665C55.4025 50.6667 55.9998 50.0694 55.9998 49.3334V37.3334C55.9998 36.5974 55.4025 36 54.6665 36ZM51.4478 38.6667L48.6665 41.448L45.8852 38.6667H51.4478ZM43.9998 40.552L46.7812 43.3334L43.9998 46.1147V40.552ZM45.8852 48L48.6665 45.2187L51.4478 48H45.8852ZM53.3332 46.1147L50.5518 43.3334L53.3332 40.552V46.1147ZM71.9998 36H59.9998C59.2638 36 58.6665 36.5974 58.6665 37.3334V49.3334C58.6665 50.0694 59.2638 50.6667 59.9998 50.6667H71.9998C72.7358 50.6667 73.3332 50.0694 73.3332 49.3334V37.3334C73.3332 36.5974 72.7358 36 71.9998 36ZM70.6665 48H61.3332V38.6667H70.6665V48ZM19.9998 54.6667H7.99984C7.26384 54.6667 6.6665 55.264 6.6665 56V68C6.6665 68.736 7.26384 69.3334 7.99984 69.3334H19.9998C20.7358 69.3334 21.3332 68.736 21.3332 68V56C21.3332 55.264 20.7358 54.6667 19.9998 54.6667ZM18.6665 66.6667H9.33317V57.3334H18.6665V66.6667ZM37.3332 54.6667H25.3332C24.5972 54.6667 23.9998 55.264 23.9998 56V68C23.9998 68.736 24.5972 69.3334 25.3332 69.3334H37.3332C38.0692 69.3334 38.6665 68.736 38.6665 68V56C38.6665 55.264 38.0692 54.6667 37.3332 54.6667ZM35.9998 66.6667H26.6665V57.3334H35.9998V66.6667ZM54.6665 54.6667H42.6665C41.9305 54.6667 41.3332 55.264 41.3332 56V68C41.3332 68.736 41.9305 69.3334 42.6665 69.3334H54.6665C55.4025 69.3334 55.9998 68.736 55.9998 68V56C55.9998 55.264 55.4025 54.6667 54.6665 54.6667ZM53.3332 66.6667H43.9998V57.3334H53.3332V66.6667ZM71.9998 54.6667H59.9998C59.2638 54.6667 58.6665 55.264 58.6665 56V68C58.6665 68.736 59.2638 69.3334 59.9998 69.3334H71.9998C72.7358 69.3334 73.3332 68.736 73.3332 68V56C73.3332 55.264 72.7358 54.6667 71.9998 54.6667ZM70.6665 66.6667H61.3332V57.3334H70.6665V66.6667Z" fill="#E74C3D"/>
</g>
<defs>
<clipPath id="clip0_1_381">
<rect width="80" height="80" fill="white"/>
</clipPath>
</defs>
</svg>
