<svg width="80" height="80" viewBox="0 0 80 80" fill="none" xmlns="http://www.w3.org/2000/svg">
<path d="M39.9997 40.4038V46.4797M56.9668 55.5443H23.0327V51.1363C23.0327 48.7338 24.9804 46.7861 27.3829 46.7861H52.6166C55.0191 46.7861 56.9668 48.7338 56.9668 51.1363V55.5443Z" stroke="#E74C3D" stroke-width="3" stroke-miterlimit="10" stroke-linecap="round" stroke-linejoin="round"/>
<path d="M64.0006 33.8475V49.4338C64.0006 52.8085 61.2675 55.5441 57.8959 55.5441H22.1037C18.7321 55.5441 15.999 52.8083 15.999 49.4338V33.8475" stroke="#E74C3D" stroke-width="3" stroke-miterlimit="10" stroke-linecap="round" stroke-linejoin="round"/>
<path d="M39.9997 55.8422V70.5369M25.6833 70.5369V64.0073H54.3162V70.5369M52.3833 40.2475H27.6162C25.0847 40.2475 23.0327 38.1955 23.0327 35.6641V6.14594C23.0327 3.61453 25.0847 1.5625 27.6162 1.5625H52.3835C54.9149 1.5625 56.9669 3.61453 56.9669 6.14594V35.6642C56.9668 38.1955 54.9147 40.2475 52.3833 40.2475Z" stroke="#E74C3D" stroke-width="3" stroke-miterlimit="10" stroke-linecap="round" stroke-linejoin="round"/>
<path d="M25.6836 78.4375C27.841 78.4375 29.5898 76.687 29.5898 74.5276C29.5898 72.3683 27.841 70.6178 25.6836 70.6178C23.5262 70.6178 21.7773 72.3683 21.7773 74.5276C21.7773 76.687 23.5262 78.4375 25.6836 78.4375Z" stroke="#E74C3D" stroke-width="3" stroke-miterlimit="10" stroke-linecap="round" stroke-linejoin="round"/>
<path d="M40 78.4375C42.1574 78.4375 43.9062 76.687 43.9062 74.5276C43.9062 72.3683 42.1574 70.6178 40 70.6178C37.8426 70.6178 36.0938 72.3683 36.0938 74.5276C36.0938 76.687 37.8426 78.4375 40 78.4375Z" stroke="#E74C3D" stroke-width="3" stroke-miterlimit="10" stroke-linecap="round" stroke-linejoin="round"/>
<path d="M54.3164 78.4375C56.4738 78.4375 58.2227 76.687 58.2227 74.5276C58.2227 72.3683 56.4738 70.6178 54.3164 70.6178C52.159 70.6178 50.4102 72.3683 50.4102 74.5276C50.4102 76.687 52.159 78.4375 54.3164 78.4375Z" stroke="#E74C3D" stroke-width="3" stroke-miterlimit="10" stroke-linecap="round" stroke-linejoin="round"/>
<path d="M35.533 16.1193C35.533 15.9073 35.5477 15.6987 35.5761 15.4945C35.8833 13.2862 37.7953 11.5936 40.092 11.64C42.4155 11.6868 44.34 13.5533 44.4605 15.8811C44.5939 18.4606 42.5456 20.5998 39.9999 20.5998V24.0648M69.7475 38.7033H64.0005V31.1181H69.7475C71.8411 31.1181 73.5383 32.8153 73.5383 34.9089V34.9125C73.5385 37.0059 71.8413 38.7033 69.7475 38.7033ZM15.9991 38.7033H10.2522C8.15861 38.7033 6.46143 37.0061 6.46143 34.9125V34.9089C6.46143 32.8153 8.15861 31.1181 10.2522 31.1181H15.9992V38.7033H15.9991Z" stroke="#E74C3D" stroke-width="3" stroke-miterlimit="10" stroke-linecap="round" stroke-linejoin="round"/>
</svg>
