<svg width="80" height="80" viewBox="0 0 80 80" fill="none" xmlns="http://www.w3.org/2000/svg">
<g clip-path="url(#clip0_1_777)">
<path d="M56.0002 57.088C56.804 56.8074 57.4965 56.2762 57.9759 55.5727C58.4554 54.8691 58.6964 54.0303 58.6636 53.1795C58.6307 52.3288 58.3258 51.511 57.7935 50.8465C57.2613 50.182 56.5299 49.7058 55.7068 49.488C56.0802 48.588 56.0975 47.5787 55.7548 46.6667H56.0002C57.061 46.6667 58.0784 46.2452 58.8286 45.4951C59.5787 44.745 60.0002 43.7275 60.0002 42.6667C60.0002 41.6058 59.5787 40.5884 58.8286 39.8382C58.0784 39.0881 57.061 38.6667 56.0002 38.6667H48.0002C46.9393 38.6667 45.9219 39.0881 45.1717 39.8382C44.4216 40.5884 44.0002 41.6058 44.0002 42.6667C44.0042 43.1213 44.0882 43.5733 44.2455 44H44.0002C42.9393 44 41.9219 44.4214 41.1717 45.1716C40.4216 45.9217 40.0002 46.9391 40.0002 48C40.0042 48.4547 40.0882 48.9067 40.2455 49.3333H35.7548C35.9122 48.9067 35.9948 48.4547 36.0002 48C36.0002 46.9391 35.5787 45.9217 34.8286 45.1716C34.0784 44.4214 33.061 44 32.0002 44H26.6668C26.3132 44 25.9741 43.8595 25.724 43.6095C25.474 43.3594 25.3335 43.0203 25.3335 42.6667C25.3335 41.8653 25.0935 41.0813 24.6402 40.42C25.8387 39.7363 26.7956 38.6976 27.3788 37.4472C27.962 36.1967 28.1429 34.796 27.8964 33.4384C27.65 32.0808 26.9883 30.8331 26.0028 29.8674C25.0172 28.9017 23.7563 28.2656 22.394 28.0469C21.0316 27.8281 19.635 28.0374 18.3966 28.646C17.1583 29.2546 16.1393 30.2324 15.4801 31.4446C14.821 32.6568 14.5543 34.0436 14.7167 35.4138C14.8791 36.7841 15.4626 38.0701 16.3868 39.0947C15.1046 39.5599 13.9962 40.4078 13.2116 41.5236C12.427 42.6394 12.0042 43.9693 12.0002 45.3333V57.3333C12.0051 58.7806 12.4858 60.1862 13.3682 61.3333H9.3335V41.3333C9.3335 40.9797 9.19302 40.6406 8.94297 40.3905C8.69292 40.1405 8.35378 40 8.00016 40C7.64654 40 7.3074 40.1405 7.05735 40.3905C6.80731 40.6406 6.66683 40.9797 6.66683 41.3333V72C6.31321 72 5.97407 72.1405 5.72402 72.3905C5.47397 72.6406 5.3335 72.9797 5.3335 73.3333C5.3335 73.687 5.47397 74.0261 5.72402 74.2761C5.97407 74.5262 6.31321 74.6667 6.66683 74.6667H62.6668C63.0205 74.6667 63.3596 74.5262 63.6096 74.2761C63.8597 74.0261 64.0002 73.687 64.0002 73.3333C64.0002 72.9797 63.8597 72.6406 63.6096 72.3905C63.3596 72.1405 63.0205 72 62.6668 72H56.0002V57.088ZM53.3335 57.3333V72H37.3335V57.3333H53.3335ZM54.6668 54.6667H28.0002C27.6465 54.6667 27.3074 54.5262 27.0574 54.2761C26.8073 54.0261 26.6668 53.687 26.6668 53.3333C26.6668 52.9797 26.8073 52.6406 27.0574 52.3905C27.3074 52.1405 27.6465 52 28.0002 52H54.6668C55.0205 52 55.3596 52.1405 55.6096 52.3905C55.8597 52.6406 56.0002 52.9797 56.0002 53.3333C56.0002 53.687 55.8597 54.0261 55.6096 54.2761C55.3596 54.5262 55.0205 54.6667 54.6668 54.6667ZM46.6668 42.6667C46.6668 42.313 46.8073 41.9739 47.0574 41.7239C47.3074 41.4738 47.6465 41.3333 48.0002 41.3333H56.0002C56.3538 41.3333 56.6929 41.4738 56.943 41.7239C57.193 41.9739 57.3335 42.313 57.3335 42.6667C57.3335 43.0203 57.193 43.3594 56.943 43.6095C56.6929 43.8595 56.3538 44 56.0002 44H48.0002C47.6465 44 47.3074 43.8595 47.0574 43.6095C46.8073 43.3594 46.6668 43.0203 46.6668 42.6667ZM42.6668 48C42.6668 47.6464 42.8073 47.3072 43.0574 47.0572C43.3074 46.8071 43.6465 46.6667 44.0002 46.6667H52.0002C52.3538 46.6667 52.6929 46.8071 52.943 47.0572C53.193 47.3072 53.3335 47.6464 53.3335 48C53.3335 48.3536 53.193 48.6928 52.943 48.9428C52.6929 49.1929 52.3538 49.3333 52.0002 49.3333H44.0002C43.6465 49.3333 43.3074 49.1929 43.0574 48.9428C42.8073 48.6928 42.6668 48.3536 42.6668 48ZM21.3335 30.6667C22.3944 30.6667 23.4118 31.0881 24.1619 31.8382C24.9121 32.5884 25.3335 33.6058 25.3335 34.6667C25.3335 35.7275 24.9121 36.745 24.1619 37.4951C23.4118 38.2452 22.3944 38.6667 21.3335 38.6667C20.2726 38.6667 19.2552 38.2452 18.5051 37.4951C17.7549 36.745 17.3335 35.7275 17.3335 34.6667C17.3335 33.6058 17.7549 32.5884 18.5051 31.8382C19.2552 31.0881 20.2726 30.6667 21.3335 30.6667ZM14.6668 45.3333C14.6668 44.2725 15.0883 43.2551 15.8384 42.5049C16.5885 41.7548 17.606 41.3333 18.6668 41.3333H21.3335C21.6871 41.3333 22.0263 41.4738 22.2763 41.7239C22.5264 41.9739 22.6668 42.313 22.6668 42.6667C22.6668 43.7275 23.0883 44.745 23.8384 45.4951C24.5885 46.2452 25.606 46.6667 26.6668 46.6667H32.0002C32.3538 46.6667 32.6929 46.8071 32.943 47.0572C33.193 47.3072 33.3335 47.6464 33.3335 48C33.3335 48.3536 33.193 48.6928 32.943 48.9428C32.6929 49.1929 32.3538 49.3333 32.0002 49.3333H22.9815C22.334 49.3347 21.699 49.1547 21.1485 48.8138C20.598 48.4728 20.154 47.9844 19.8668 47.404C19.7088 47.0875 19.4314 46.8468 19.0959 46.7348C18.7603 46.6227 18.394 46.6486 18.0775 46.8067C17.761 46.9647 17.5203 47.2421 17.4082 47.5776C17.2962 47.9132 17.3221 48.2795 17.4802 48.596C17.9888 49.6197 18.7735 50.4808 19.7455 51.0823C20.7176 51.6838 21.8384 52.0016 22.9815 52H24.2455C23.9183 52.8588 23.9183 53.8079 24.2455 54.6667H14.6668V45.3333ZM9.3335 64H18.6668V72H9.3335V64ZM21.3335 72V64H24.0002V72H21.3335ZM26.6668 72V64C26.6668 63.2928 26.3859 62.6145 25.8858 62.1144C25.3857 61.6143 24.7074 61.3333 24.0002 61.3333H18.6668C17.606 61.3333 16.5885 60.9119 15.8384 60.1618C15.0883 59.4116 14.6668 58.3942 14.6668 57.3333H28.0002C28.3538 57.3333 28.6929 57.4738 28.943 57.7239C29.193 57.9739 29.3335 58.313 29.3335 58.6667V72H26.6668ZM31.7548 57.3333H34.6668V72H32.0002V58.6667C31.9957 58.2114 31.9127 57.7603 31.7548 57.3333Z" fill="#E74C3D"/>
<path d="M38.6668 37.3333C40.5128 37.3333 42.3173 36.7859 43.8522 35.7603C45.387 34.7348 46.5833 33.2771 47.2897 31.5717C47.9961 29.8662 48.181 27.9896 47.8208 26.1791C47.4607 24.3686 46.5718 22.7056 45.2665 21.4003C43.9612 20.095 42.2982 19.2061 40.4877 18.846C38.6772 18.4858 36.8006 18.6707 35.0951 19.3771C33.3897 20.0835 31.932 21.2798 30.9064 22.8146C29.8809 24.3495 29.3335 26.154 29.3335 28C29.3363 30.4745 30.3206 32.8468 32.0703 34.5965C33.82 36.3462 36.1923 37.3305 38.6668 37.3333ZM38.6668 21.3333C40.4349 21.3333 42.1306 22.0357 43.3809 23.2859C44.6311 24.5362 45.3335 26.2319 45.3335 28C45.3335 29.7681 44.6311 31.4638 43.3809 32.714C42.1306 33.9642 40.4349 34.6666 38.6668 34.6666C36.8987 34.6666 35.203 33.9642 33.9528 32.714C32.7025 31.4638 32.0002 29.7681 32.0002 28C32.0002 26.2319 32.7025 24.5362 33.9528 23.2859C35.203 22.0357 36.8987 21.3333 38.6668 21.3333Z" fill="#E74C3D"/>
<path d="M39.0573 30.2759C39.3088 30.5188 39.6456 30.6532 39.9952 30.6502C40.3448 30.6471 40.6792 30.5069 40.9264 30.2597C41.1736 30.0125 41.3139 29.6781 41.3169 29.3285C41.3199 28.9789 41.1855 28.6421 40.9427 28.3906L40.2893 27.7373L41.1933 25.9293C41.3514 25.6128 41.3773 25.2465 41.2652 24.9109C41.1532 24.5753 40.9125 24.298 40.596 24.1399C40.2795 23.9819 39.9132 23.956 39.5776 24.068C39.2421 24.1801 38.9647 24.4208 38.8067 24.7373L37.4733 27.4039C37.3484 27.6543 37.3054 27.9376 37.3504 28.2137C37.3953 28.4899 37.5261 28.7449 37.724 28.9426L39.0573 30.2759Z" fill="#E74C3D"/>
<path d="M69.3133 10.4373H69.288C69.2383 10.1308 69.0816 9.85186 68.8459 9.6498C68.6101 9.44773 68.3105 9.33562 68 9.33333H60V4C60 2.93913 59.5786 1.92172 58.8284 1.17157C58.0783 0.421427 57.0609 0 56 0C54.9391 0 53.9217 0.421427 53.1716 1.17157C52.4214 1.92172 52 2.93913 52 4V9.33333H45.3333V4C45.3333 2.93913 44.9119 1.92172 44.1618 1.17157C43.4116 0.421427 42.3942 0 41.3333 0C40.2725 0 39.2551 0.421427 38.5049 1.17157C37.7548 1.92172 37.3333 2.93913 37.3333 4V9.33333H30.6667V4C30.6667 2.93913 30.2452 1.92172 29.4951 1.17157C28.7449 0.421427 27.7275 0 26.6667 0C25.6058 0 24.5884 0.421427 23.8382 1.17157C23.0881 1.92172 22.6667 2.93913 22.6667 4V9.33333H16V4C16 2.93913 15.5786 1.92172 14.8284 1.17157C14.0783 0.421427 13.0609 0 12 0C10.9391 0 9.92172 0.421427 9.17157 1.17157C8.42143 1.92172 8 2.93913 8 4V9.33333H2.66667C1.95942 9.33333 1.28115 9.61429 0.781049 10.1144C0.280952 10.6145 0 11.2928 0 12L0 77.3333C0 78.0406 0.280952 78.7189 0.781049 79.219C1.28115 79.7191 1.95942 80 2.66667 80H66.6667C67.3739 80 68.0522 79.7191 68.5523 79.219C69.0524 78.7189 69.3333 78.0406 69.3333 77.3333V74.6667H77.3333C77.723 74.6671 78.108 74.5822 78.4612 74.4179C78.8145 74.2535 79.1275 74.0137 79.3781 73.7154C79.6287 73.4171 79.811 73.0675 79.912 72.6912C80.013 72.3149 80.0303 71.9211 79.9627 71.5373L69.3133 10.4373ZM54.6667 4C54.6667 3.64638 54.8071 3.30724 55.0572 3.05719C55.3072 2.80714 55.6464 2.66667 56 2.66667C56.3536 2.66667 56.6928 2.80714 56.9428 3.05719C57.1929 3.30724 57.3333 3.64638 57.3333 4V12C57.3333 12.3536 57.1929 12.6928 56.9428 12.9428C56.6928 13.1929 56.3536 13.3333 56 13.3333C55.6464 13.3333 55.3072 13.1929 55.0572 12.9428C54.8071 12.6928 54.6667 12.3536 54.6667 12V4ZM40 4C40 3.64638 40.1405 3.30724 40.3905 3.05719C40.6406 2.80714 40.9797 2.66667 41.3333 2.66667C41.687 2.66667 42.0261 2.80714 42.2761 3.05719C42.5262 3.30724 42.6667 3.64638 42.6667 4V12C42.6667 12.3536 42.5262 12.6928 42.2761 12.9428C42.0261 13.1929 41.687 13.3333 41.3333 13.3333C40.9797 13.3333 40.6406 13.1929 40.3905 12.9428C40.1405 12.6928 40 12.3536 40 12V4ZM25.3333 4C25.3333 3.64638 25.4738 3.30724 25.7239 3.05719C25.9739 2.80714 26.313 2.66667 26.6667 2.66667C27.0203 2.66667 27.3594 2.80714 27.6095 3.05719C27.8595 3.30724 28 3.64638 28 4V12C28 12.3536 27.8595 12.6928 27.6095 12.9428C27.3594 13.1929 27.0203 13.3333 26.6667 13.3333C26.313 13.3333 25.9739 13.1929 25.7239 12.9428C25.4738 12.6928 25.3333 12.3536 25.3333 12V4ZM10.6667 4C10.6667 3.64638 10.8071 3.30724 11.0572 3.05719C11.3072 2.80714 11.6464 2.66667 12 2.66667C12.3536 2.66667 12.6928 2.80714 12.9428 3.05719C13.1929 3.30724 13.3333 3.64638 13.3333 4V12C13.3333 12.3536 13.1929 12.6928 12.9428 12.9428C12.6928 13.1929 12.3536 13.3333 12 13.3333C11.6464 13.3333 11.3072 13.1929 11.0572 12.9428C10.8071 12.6928 10.6667 12.3536 10.6667 12V4ZM66.6667 77.3333H2.66667V12H8C8 13.0609 8.42143 14.0783 9.17157 14.8284C9.92172 15.5786 10.9391 16 12 16C13.0609 16 14.0783 15.5786 14.8284 14.8284C15.5786 14.0783 16 13.0609 16 12H22.6667C22.6667 13.0609 23.0881 14.0783 23.8382 14.8284C24.5884 15.5786 25.6058 16 26.6667 16C27.7275 16 28.7449 15.5786 29.4951 14.8284C30.2452 14.0783 30.6667 13.0609 30.6667 12H37.3333C37.3333 13.0609 37.7548 14.0783 38.5049 14.8284C39.2551 15.5786 40.2725 16 41.3333 16C42.3942 16 43.4116 15.5786 44.1618 14.8284C44.9119 14.0783 45.3333 13.0609 45.3333 12H52C52 13.0609 52.4214 14.0783 53.1716 14.8284C53.9217 15.5786 54.9391 16 56 16C57.0609 16 58.0783 15.5786 58.8284 14.8284C59.5786 14.0783 60 13.0609 60 12H66.6667V77.3333ZM69.3333 72V26.092L77.3333 72H69.3333Z" fill="#E74C3D"/>
</g>
<defs>
<clipPath id="clip0_1_777">
<rect width="80" height="80" fill="white"/>
</clipPath>
</defs>
</svg>
