<svg width="80" height="80" viewBox="0 0 80 80" fill="none" xmlns="http://www.w3.org/2000/svg">
<g clip-path="url(#clip0_1_277)">
<path d="M18.0645 74.8388C25.1794 74.8388 30.9678 69.0504 30.9678 61.9355C30.9678 54.8207 25.1794 49.0322 18.0645 49.0322C10.9497 49.0322 5.16125 54.8207 5.16125 61.9355C5.16125 69.0504 10.9497 74.8388 18.0645 74.8388ZM18.0645 51.613C23.7564 51.613 28.3872 56.2436 28.3872 61.9357C28.3872 67.6277 23.7566 72.2583 18.0645 72.2583C12.3725 72.2583 7.74188 67.6277 7.74188 61.9357C7.74188 56.2436 12.3727 51.613 18.0645 51.613Z" fill="#E74C3D"/>
<path d="M24.2054 57.614L22.246 55.9343L15.4109 63.9087L13.8156 62.3134L11.9907 64.1382L15.5567 67.7042L24.2054 57.614Z" fill="#E74C3D"/>
<path d="M71.4105 54.1936C69.8703 54.1936 68.393 54.598 67.0967 55.3534V18.0645C67.0967 16.6416 65.9389 15.4839 64.5161 15.4839V2.58063C64.5161 1.15781 63.3584 0 61.9355 0H7.74188C6.31891 0 5.16125 1.15781 5.16125 2.58063V20.6452C3.73828 20.6452 2.58063 21.803 2.58063 23.2258V52.6402C0.943281 55.3577 0 58.5384 0 61.9355C0 71.8962 8.10375 80 18.0645 80C28.0253 80 36.1291 71.8962 36.1291 61.9355C36.1291 51.9747 28.0253 43.8709 18.0645 43.8709C17.1884 43.8709 16.3272 43.935 15.4839 44.0561V30.9677H64.5161V56.7741H56.7742V52.9031C56.7742 49.3458 53.88 46.4516 50.3227 46.4516H42.5808C40.4463 46.4516 38.7098 48.188 38.7098 50.3225V76.1289C38.7098 78.2634 40.4463 79.9998 42.5808 79.9998H50.3227C53.88 79.9998 56.7742 77.1056 56.7742 73.5483V69.6773H65.2722L65.337 69.7422C66.9592 71.3644 69.1162 72.258 71.4106 72.258C76.1469 72.258 80.0002 68.4047 80.0002 63.6684V62.783C80 58.0467 76.1467 54.1936 71.4105 54.1936ZM61.9355 15.4839H47.2491C46.2652 15.4839 45.3808 16.0305 44.9408 16.9105L43.0736 20.6452H18.0645V2.58063H61.9355V15.4839ZM12.9033 20.6452V2.58063H15.4839V20.6452H12.9033ZM7.74188 2.58063H10.3225V20.6452H7.74188V2.58063ZM5.16125 23.2258H7.74188V47.1195C6.81569 47.767 5.95176 48.4992 5.16125 49.3067V23.2258ZM33.5484 61.9355C33.5484 70.4734 26.6025 77.4194 18.0645 77.4194C9.52656 77.4194 2.58063 70.4734 2.58063 61.9355C2.58063 53.3975 9.52656 46.4516 18.0645 46.4516C26.6025 46.4516 33.5484 53.3977 33.5484 61.9355ZM10.3227 45.6162V23.2258H12.9033V44.6236C12.0188 44.8875 11.156 45.2194 10.3227 45.6162ZM15.4839 28.387V23.2258H43.0736C44.0575 23.2258 44.9419 22.6792 45.3819 21.7992L47.2491 18.0645H64.5161V28.3872L15.4839 28.387ZM41.2903 76.1291V50.3227C41.2903 49.6113 41.8692 49.0323 42.5806 49.0323H43.8709V77.4194H42.5806C41.8692 77.4194 41.2903 76.8405 41.2903 76.1291ZM77.4194 63.6686C77.4194 66.982 74.7239 69.6775 71.4105 69.6775C69.8055 69.6775 68.2964 69.0525 67.1616 67.9175L66.3408 67.0969H54.1936V73.5484C54.1936 75.683 52.4572 77.4194 50.3227 77.4194H46.4516V49.0322H50.3225C52.457 49.0322 54.1934 50.7686 54.1934 52.9031V59.3547H66.3406L67.1612 58.5341C68.2962 57.3991 69.8052 56.7741 71.4102 56.7741C74.7237 56.7741 77.4192 59.4695 77.4192 62.783V63.6686H77.4194Z" fill="#E74C3D"/>
<path d="M49.0322 20.6451H51.6128V23.2257H49.0322V20.6451ZM54.1936 20.6451H56.7742V23.2257H54.1936V20.6451ZM59.3548 20.6451H61.9355V23.2257H59.3548V20.6451ZM20.6451 7.74182H23.2258V10.3224H20.6451V7.74182ZM25.8064 7.74182H38.7097V10.3224H25.8064V7.74182ZM20.6451 12.9032H38.7097V15.4839H20.6451V12.9032Z" fill="#E74C3D"/>
</g>
<defs>
<clipPath id="clip0_1_277">
<rect width="80" height="80" fill="white"/>
</clipPath>
</defs>
</svg>
