<svg width="80" height="80" viewBox="0 0 80 80" fill="none" xmlns="http://www.w3.org/2000/svg">
<path fill-rule="evenodd" clip-rule="evenodd" d="M69.2032 41.6273H44.8464C43.7365 41.6273 42.7997 40.6896 42.7997 39.5796C42.7997 38.4697 43.7365 37.5329 44.8464 37.5329H69.2032C68.8515 38.8751 68.8515 40.2852 69.2032 41.6273ZM70.1264 35.382C70.5109 34.7563 70.9798 34.1865 71.5198 33.6888H44.887C41.6398 33.6888 38.997 36.3307 38.997 39.5798C38.997 42.827 41.6398 45.4699 44.887 45.4699H71.5198C70.9796 44.9726 70.5107 44.403 70.1264 43.7774H44.8464C42.5325 43.7774 40.6488 41.8937 40.6488 39.5798C40.6488 37.2649 42.5325 35.3822 44.8464 35.3822H70.1264V35.382ZM52.7461 55.5568H28.391C27.2811 55.5568 26.3443 54.6208 26.3443 53.511C26.3443 52.4012 27.2811 51.4633 28.391 51.4633H52.7461C52.3947 52.7953 52.3939 54.2254 52.7461 55.5568ZM53.6693 49.3132C54.0544 48.6879 54.5232 48.1181 55.0627 47.6198H28.4299C25.1818 47.6198 22.5398 50.2617 22.5398 53.5108C22.5398 56.758 25.1818 59.4 28.4299 59.4H55.0645C54.5181 58.8998 54.0525 58.3281 53.6691 57.7067H28.391C26.0752 57.7067 24.1934 55.8249 24.1934 53.5108C24.1934 51.196 26.0754 49.3132 28.391 49.3132H53.6693ZM38.0982 69.4878H13.7422C12.6323 69.4878 11.6947 68.55 11.6947 67.4411C11.6947 66.3321 12.6325 65.3944 13.7422 65.3944H38.0982C37.7466 66.7362 37.7466 68.146 38.0982 69.4878ZM39.0214 63.2444C39.4058 62.6185 39.8747 62.0487 40.4149 61.551H13.7822C10.535 61.551 7.89215 64.1929 7.89215 67.4411C7.89215 70.6883 10.535 73.3312 13.7822 73.3312H40.415C39.8746 72.8338 39.4057 72.2639 39.0216 71.6379H13.7422C11.4282 71.6379 9.54367 69.7552 9.54367 67.4411C9.54367 65.1262 11.4283 63.2443 13.7422 63.2443H39.0214V63.2444ZM9.28463 56.8369C8.93583 57.5563 9.13695 58.388 9.49215 58.8945C10.3941 60.179 11.8824 59.3123 13.1181 56.4011L20.2621 39.5752C20.3323 39.41 20.4429 39.2651 20.5836 39.1537C20.7243 39.0423 20.8907 38.9679 21.0675 38.9374L28.7498 37.5984C29.5458 37.46 30.2067 38.2244 29.9547 38.9918L28.2949 44.0584C28.1526 44.495 28.6672 45.1456 29.336 45.3721C30.0282 45.6068 30.5065 45.3214 30.7992 44.4952L34.1098 35.1412C32.8915 34.2566 28.3838 33.8595 26.8126 33.7233L23.357 33.4208C22.6032 33.3558 22.1542 32.5492 22.4872 31.8742L24.6853 27.4201C25.4363 25.8971 26.1014 25.4776 27.5955 25.059L40.4883 21.4448C42.719 20.8204 42.7723 20.2742 42.8077 19.9126C42.8677 19.3121 42.5877 19.1979 41.9678 19.3219L26.6006 22.3979C26.4947 22.4182 26.389 22.4397 26.2835 22.4622C24.2957 22.8782 23.9147 22.6576 22.008 22.2656C20.283 21.911 18.4086 23.1161 17.901 24.8704C17.7261 25.4747 17.4896 26.2158 17.2395 26.9995C16.3398 29.8227 14.9808 34.0891 15.267 35.972C15.7219 38.9681 10.2077 54.6371 9.31071 56.7825C9.30191 56.8006 9.29455 56.8179 9.28463 56.8369ZM17.7261 14.8406L20.784 16.1796C20.9201 16.2393 21.0671 16.2701 21.2158 16.2701C21.3644 16.2701 21.5114 16.2393 21.6475 16.1796L24.7597 14.8179L24.7398 16.4596C24.7398 18.3876 23.1715 19.956 21.2426 19.956C19.3146 19.956 17.7462 18.3876 17.7462 16.4468L17.7261 14.8406ZM21.2152 7.95196L28.1491 10.9872L21.2152 14.0206L14.2822 10.9872L21.2152 7.95196ZM39.1194 15.6451L45.2378 15.6569C45.4652 15.6569 45.6868 15.5848 45.8708 15.451C46.0547 15.3172 46.1916 15.1285 46.2616 14.9121L48.1406 9.0918L50.0189 14.9121C50.0893 15.1286 50.2265 15.3173 50.4107 15.4511C50.5949 15.5849 50.8168 15.6569 51.0445 15.6569L57.1619 15.6451L52.205 19.2302C52.0206 19.364 51.8835 19.5528 51.8133 19.7696C51.7431 19.9863 51.7435 20.2196 51.8144 20.4361L53.7152 26.2492L48.7746 22.6451C48.5903 22.5112 48.3685 22.4392 48.1408 22.4392C47.9131 22.4392 47.6912 22.5112 47.507 22.6451L42.5656 26.2492L43.8883 22.2028C44.5325 21.652 44.8632 20.9796 44.9483 20.1262C45.1333 18.2611 43.7939 16.7667 41.5443 17.2132L41.3422 17.2531L39.1194 15.6451ZM26.5274 45.6992C26.1306 45.0179 25.981 44.2132 26.2518 43.3897L27.3546 40.0248L22.0126 40.9553L15.0978 57.2411C14.7245 58.1217 14.3312 58.8294 13.9354 59.4001H22.9648C21.3819 57.9305 20.3899 55.8348 20.3899 53.511C20.3899 49.7337 23.0091 46.5561 26.5274 45.6992ZM73.7678 34.6592C73.9182 34.5617 74.0419 34.4282 74.1275 34.2707C74.2131 34.1133 74.2579 33.9369 74.2579 33.7577V32.6144C74.2577 32.3292 74.1444 32.0558 73.9428 31.8541C73.7411 31.6524 73.4677 31.539 73.1825 31.5388H44.887C40.4539 31.5388 36.8469 35.1457 36.8469 39.5798C36.8469 41.9038 37.839 43.9993 39.4218 45.4699H32.7264C32.7627 45.3865 32.7952 45.3024 32.8269 45.2126L36.2019 35.6748C36.3968 35.124 36.3306 34.5505 36.0134 34.0593C34.7598 32.1171 29.3968 31.7896 25.1112 31.4164L26.6134 28.3713C27.0446 27.4988 27.1462 27.4172 28.1763 27.1283L41.0691 23.516C41.1171 23.5016 41.1634 23.4888 41.2114 23.4744L39.4862 28.7475C39.1618 29.739 40.3042 30.5611 41.1416 29.9497L48.1406 24.8451L55.1389 29.9497C55.9749 30.5601 57.1157 29.7305 56.795 28.7475L54.1024 20.5144L61.1197 15.4342C61.9625 14.8246 61.5266 13.488 60.4882 13.4889L51.8256 13.5043L49.1637 5.26124C48.8446 4.27132 47.4368 4.27132 47.1179 5.26124L44.4569 13.5043L35.7907 13.4889C34.7541 13.4889 34.3198 14.8259 35.161 15.4342L38.4698 17.8289L26.1776 20.2888L25.2054 20.4809C26.2438 19.4571 26.8898 18.0382 26.8898 16.4744L26.9232 13.8705L29.7546 12.632V15.2006C29.7546 15.794 30.2365 16.2761 30.8299 16.2761C31.4234 16.2761 31.9045 15.794 31.9045 15.2006L31.8891 10.8108C31.8189 10.4616 31.5926 10.1275 31.2694 10.0062L31.2469 9.99532L21.6475 5.79308C21.5114 5.73349 21.3644 5.70273 21.2158 5.70273C21.0671 5.70273 20.9201 5.73349 20.784 5.79308L11.1701 10.0024C10.3138 10.3761 10.3141 11.5964 11.1701 11.9721L15.5626 13.8947L15.5962 16.4596C15.5962 18.403 16.5837 20.1209 18.0814 21.1374C17.0341 21.884 16.2123 22.9739 15.8354 24.2723C15.6686 24.8476 15.4368 25.5761 15.1902 26.3472C14.1157 29.7195 12.7784 33.9144 13.1418 36.2936C13.1762 36.5264 13.2306 38.0702 10.8358 45.7588C9.52575 49.9628 7.97455 54.3942 7.33679 55.9264C6.70975 57.2473 6.86287 58.8928 7.73183 60.1304C8.02895 60.5516 8.39055 60.8942 8.79007 61.1451C6.93551 62.6184 5.74223 64.8924 5.74223 67.4411C5.74223 71.8744 9.34911 75.4812 13.7824 75.4812H42.0784C42.3634 75.4812 42.6367 75.368 42.8382 75.1665C43.0397 74.965 43.153 74.6917 43.153 74.4067V73.2641C43.153 72.8998 42.9682 72.5601 42.6629 72.3608C39.0802 70.0318 39.108 64.8216 42.6629 62.5212C43.0112 62.2958 43.153 61.9563 43.153 61.5508H56.7262C56.8674 61.5508 57.0072 61.523 57.1376 61.4689C57.2681 61.4148 57.3866 61.3356 57.4864 61.2357C57.5861 61.1358 57.6653 61.0173 57.7192 60.8868C57.7732 60.7563 57.8009 60.6165 57.8008 60.4753V59.3328C57.8008 58.9686 57.6177 58.6288 57.3107 58.4294C53.7291 56.108 53.7561 50.8852 57.3107 48.5899C57.6611 48.3636 57.8008 48.0252 57.8008 47.6195H73.1825C73.3238 47.6195 73.4636 47.5918 73.5941 47.5378C73.7246 47.4837 73.8432 47.4045 73.9431 47.3047C74.043 47.2048 74.1222 47.0862 74.1762 46.9557C74.2302 46.8252 74.258 46.6854 74.2579 46.5441V45.4016C74.2579 45.0374 74.0731 44.6976 73.7678 44.5001C70.1997 42.1907 70.2026 36.9705 73.7678 34.6592Z" fill="#E74C3D"/>
</svg>
