<svg width="80" height="80" viewBox="0 0 80 80" fill="none" xmlns="http://www.w3.org/2000/svg">
<path d="M40.0024 2.50399C39.3334 2.48279 38.6669 2.59618 38.0425 2.83741C37.4182 3.07865 36.8486 3.44283 36.3677 3.90834C35.8867 4.37385 35.5042 4.93122 35.2427 5.54738C34.9812 6.16354 34.8462 6.82594 34.8455 7.49528C34.8449 8.16462 34.9787 8.82728 35.239 9.44393C35.4993 10.0606 35.8808 10.6187 36.3609 11.0851C36.841 11.5515 37.4098 11.9168 38.0337 12.1592C38.6576 12.4016 39.3239 12.5162 39.9929 12.4963C40.6493 12.4969 41.2994 12.3683 41.9061 12.1176C42.5128 11.867 43.0642 11.4993 43.5288 11.0356C43.9934 10.5719 44.3621 10.0212 44.6139 9.41501C44.8656 8.8088 44.9955 8.15893 44.9962 7.50252C44.9968 6.8461 44.8681 6.19599 44.6175 5.5893C44.3669 4.98262 43.9992 4.43124 43.5355 3.96664C43.0718 3.50205 42.5211 3.13334 41.9149 2.88157C41.3086 2.62979 40.6588 2.50461 40.0024 2.50399ZM40.0024 4.99853C40.6652 4.99728 41.3014 5.25939 41.771 5.72721C42.2406 6.19502 42.5051 6.83022 42.5063 7.49307C42.5076 8.15591 42.2455 8.79211 41.7777 9.2617C41.3099 9.73128 40.6747 9.9958 40.0118 9.99705C39.349 9.99831 38.7128 9.73619 38.2432 9.26838C37.7736 8.80056 37.5091 8.16536 37.5078 7.50252C37.5066 6.83967 37.7687 6.20348 38.2365 5.73389C38.7043 5.2643 39.3395 4.99978 40.0024 4.99853ZM31.5928 10.0018L14.8586 17.7169C13.3467 18.3783 14.3578 20.6933 15.9027 19.9847L32.6463 12.2743C33.8133 11.7546 33.5109 9.97816 32.2022 9.88367C31.9918 9.87102 31.7818 9.90863 31.5928 10.0018ZM64.0973 19.9941C65.6422 20.6981 66.6533 18.3878 65.1462 17.7216L48.4073 10.0018C48.2178 9.90985 48.0081 9.86758 47.7978 9.87894C46.4938 9.97343 46.1915 11.7498 47.3584 12.2695L64.0973 19.9941ZM36.7236 16.7625C36.0324 17.0945 35.4995 17.6851 35.2401 18.4067C35.0322 18.898 34.9566 19.1768 34.6968 19.4933C34.4369 19.8098 33.9645 20.2162 32.8778 20.6744C31.7817 21.1374 31.1486 21.2036 30.7234 21.1752C30.303 21.1469 30.0526 21.0193 29.5754 20.8303C28.8959 20.5287 28.1294 20.4867 27.421 20.7122C26.5848 20.9862 25.7674 21.6524 24.8509 22.5784C23.8587 23.5847 23.2587 24.4115 23.0225 25.1722C22.8139 25.8802 22.8727 26.6402 23.1879 27.3076C23.3816 27.7801 23.5091 28.0399 23.5469 28.4557C23.5847 28.8714 23.528 29.5093 23.0839 30.6053C22.6398 31.7014 22.2382 32.1975 21.9217 32.4668C21.6099 32.7408 21.3359 32.8258 20.8729 33.0243C20.1798 33.272 19.6038 33.7688 19.2571 34.418C18.8886 35.1267 18.7374 36.1188 18.7516 37.4984C18.7421 38.7645 18.8508 39.8039 19.2571 40.5788C19.6046 41.2273 20.1803 41.724 20.8729 41.9725C21.3359 42.1709 21.5957 42.2512 21.9122 42.5205C22.2241 42.7945 22.6398 43.2953 23.0839 44.3914C23.5233 45.4639 23.58 46.097 23.5469 46.5175C23.5139 46.9285 23.3957 47.1789 23.2068 47.6277C22.8986 48.2652 22.8201 48.9895 22.9847 49.6782C23.1812 50.3435 23.5233 50.9568 23.9863 51.4735C23.1359 52.8719 22.465 54.3554 22.002 55.9617C21.1064 54.6447 19.9074 53.5623 18.5059 52.8058C19.1561 52.0395 19.6119 51.1276 19.8344 50.1475C20.0569 49.1674 20.0396 48.1482 19.784 47.1762C19.5284 46.2042 19.042 45.3083 18.3662 44.5645C17.6903 43.8207 16.8449 43.2509 15.9018 42.9037C14.9587 42.5564 13.9458 42.4418 12.9489 42.5697C11.9521 42.6975 11.0008 43.064 10.1759 43.6381C9.351 44.2122 8.6768 44.9768 8.21056 45.8672C7.74432 46.7575 7.49981 47.7471 7.49779 48.7521C7.49307 50.2971 8.05528 51.7097 8.99546 52.8058C7.40403 53.6652 6.0757 54.9404 5.15213 56.4955C4.22857 58.0506 3.7444 59.8272 3.75126 61.6359V63.1005C3.75126 66.2328 6.27414 68.751 9.37342 68.751H18.1185C19.276 68.751 20.3532 68.4061 21.2508 67.7966V72.5117C21.2508 74.0093 21.7233 75.4787 22.8666 76.4472C24.0099 77.4157 25.6871 77.7181 27.6005 77.3448L27.6856 77.3259L39.9929 74.0093L52.3522 77.3354C54.3082 77.7133 55.9381 77.4535 57.1334 76.4472C58.2767 75.4834 58.7492 74.0188 58.7492 72.5258V67.8013C59.6468 68.4108 60.724 68.7462 61.8815 68.7462H70.6266C73.7259 68.7462 76.2487 66.2328 76.2487 63.1052V61.6359C76.2487 57.8137 74.1463 54.5019 71.0045 52.801C71.9494 51.7144 72.5069 50.2971 72.5069 48.7521C72.5091 47.7435 72.2672 46.7492 71.802 45.8542C71.3368 44.9592 70.662 44.1899 69.8353 43.612C69.0085 43.0342 68.0543 42.6648 67.0539 42.5354C66.0535 42.4061 65.0367 42.5206 64.0902 42.8691C63.1436 43.2177 62.2954 43.79 61.6178 44.5372C60.9403 45.2845 60.4534 46.1845 60.1989 47.1606C59.9444 48.1366 59.9296 49.1597 60.156 50.1427C60.3824 51.1257 60.8431 52.0393 61.4988 52.8058C60.1004 53.5617 58.9004 54.6342 57.998 55.9712C57.5399 54.3887 56.8726 52.8745 56.0137 51.4687C56.477 50.9541 56.8192 50.3423 57.0153 49.6782C57.1799 48.9895 57.1014 48.2652 56.7932 47.6277C56.6043 47.1789 56.4862 46.9285 56.4531 46.5127C56.42 46.097 56.4767 45.4639 56.9161 44.3867C57.3602 43.2953 57.7759 42.7945 58.0925 42.5205C58.409 42.2512 58.6594 42.1709 59.1319 41.9725C59.8244 41.724 60.4002 41.2273 60.7477 40.5788C61.1492 39.8039 61.2626 38.7693 61.2532 37.4984C61.2626 36.1141 61.1114 35.1267 60.7477 34.418C60.4005 33.7691 59.8247 33.2724 59.1319 33.0243C58.6594 32.8258 58.3949 32.7408 58.0783 32.4668C57.7618 32.1975 57.3602 31.7014 56.9161 30.6053C56.472 29.5093 56.4153 28.8714 56.4531 28.4557C56.4909 28.0399 56.6184 27.7848 56.8169 27.3076C57.1329 26.6404 57.1917 25.8801 56.9822 25.1722C56.746 24.4162 56.146 23.5847 55.1538 22.5784C54.2373 21.6524 53.4152 20.991 52.579 20.7122C51.653 20.4099 50.9065 20.6461 50.4293 20.8351C49.9522 21.024 49.697 21.1469 49.2766 21.1752C48.8514 21.2036 48.2183 21.1374 47.1269 20.6744C46.0356 20.2162 45.5678 19.8098 45.308 19.4933C45.0481 19.1768 44.9678 18.898 44.7599 18.4067C44.5005 17.6851 43.9677 17.0945 43.2764 16.7625C42.4686 16.3704 41.4953 16.2476 40.0024 16.2428C38.5047 16.2428 37.5362 16.3704 36.7236 16.7625ZM7.49779 17.4948C6.84169 17.4945 6.19194 17.6235 5.58566 17.8742C4.97938 18.125 4.42844 18.4928 3.96428 18.9565C3.50012 19.4202 3.13185 19.9708 2.88048 20.5769C2.62911 21.1829 2.49958 21.8325 2.49927 22.4886C2.49896 23.1447 2.62788 23.7945 2.87867 24.4008C3.12947 25.007 3.49722 25.558 3.96094 26.0222C4.42466 26.4863 4.97526 26.8546 5.5813 27.1059C6.18734 27.3573 6.83696 27.4869 7.49307 27.4872C8.81813 27.4878 10.0892 26.962 11.0266 26.0255C11.964 25.089 12.491 23.8184 12.4916 22.4934C12.4922 21.1683 11.9664 19.8973 11.0299 18.9599C10.0934 18.0224 8.82286 17.4955 7.49779 17.4948ZM72.5022 17.4948C71.1765 17.4936 69.9046 18.019 68.9663 18.9555C68.0281 19.8921 67.5002 21.1629 67.499 22.4886C67.4977 23.8143 68.0231 25.0862 68.9597 26.0245C69.8962 26.9628 71.1671 27.4906 72.4928 27.4919C73.1492 27.4925 73.7993 27.3638 74.406 27.1132C75.0127 26.8626 75.564 26.4949 76.0286 26.0312C76.4932 25.5675 76.8619 25.0168 77.1137 24.4106C77.3655 23.8044 77.4954 23.1545 77.496 22.4981C77.4966 21.8417 77.368 21.1916 77.1173 20.5849C76.8667 19.9782 76.499 19.4268 76.0353 18.9622C75.5716 18.4976 75.0209 18.1289 74.4147 17.8771C73.8085 17.6254 73.1586 17.4955 72.5022 17.4948ZM42.1898 19.0067C42.3599 19.087 42.3788 19.224 42.4544 19.3752C42.5961 19.7059 42.8087 20.3815 43.3709 21.0713C43.9332 21.7611 44.793 22.413 46.1442 22.9847C47.4907 23.5517 48.5632 23.7359 49.4514 23.6745C50.3349 23.6131 50.9868 23.3013 51.3412 23.1642C51.549 23.0839 51.6577 23.0367 51.7947 23.0839C51.9743 23.1406 52.4278 23.3721 53.3727 24.3312C54.2704 25.243 54.5349 25.7391 54.5916 25.9186C54.6294 26.0651 54.568 26.1974 54.4971 26.358C54.379 26.6415 54.0389 27.3502 53.9633 28.2336C53.8877 29.1171 54.0483 30.1943 54.5963 31.5408C55.1491 32.8967 55.7728 33.7802 56.4436 34.3613C57.1145 34.9377 57.8043 35.1787 58.1539 35.3298C58.3523 35.4149 58.4468 35.4243 58.5224 35.5661C58.598 35.7172 58.7728 36.2039 58.7586 37.4984C58.7681 38.7126 58.6216 39.2276 58.5224 39.426C58.4468 39.5724 58.3051 39.6008 58.1539 39.6622C57.7996 39.8134 57.1145 40.0543 56.4436 40.6354C55.7728 41.2118 55.1491 42.1 54.6011 43.4465C54.0625 44.7741 53.8924 45.8324 53.9633 46.7064C54.0294 47.5805 54.3176 48.171 54.4877 48.5868C54.5633 48.7947 54.6341 48.9081 54.5963 49.0498C54.5671 49.1407 54.5308 49.2291 54.4877 49.3144C52.6147 47.0471 50.236 45.2509 47.5427 44.0702C49.0829 42.3079 49.9994 40.0118 49.9994 37.5031C49.9957 34.8528 48.9422 32.3119 47.0695 30.4366C45.1967 28.5612 42.6574 27.5041 40.0071 27.4966C34.4983 27.4966 30.0053 31.9896 30.0053 37.4984C30.0053 40.0118 30.9219 42.3079 32.4621 44.0654C29.7686 45.2459 27.3897 47.0422 25.517 49.3096C25.4745 49.2258 25.4382 49.1389 25.4084 49.0498C25.3706 48.9081 25.4462 48.7947 25.517 48.5868C25.6918 48.1758 25.9753 47.5805 26.0415 46.7064C26.1076 45.8324 25.947 44.7741 25.4084 43.4465C24.8603 42.0953 24.2367 41.2118 23.5658 40.6354C22.8902 40.0543 22.2052 39.8134 21.8556 39.6622C21.6996 39.6008 21.5626 39.5724 21.487 39.426C21.3831 39.2276 21.2366 38.7126 21.2461 37.4984C21.2366 36.2039 21.4067 35.7172 21.4823 35.5661C21.5626 35.4243 21.6571 35.4149 21.8556 35.3298C22.2052 35.1787 22.8902 34.9377 23.5611 34.3613C24.2367 33.7802 24.8603 32.8967 25.4084 31.5455C25.9564 30.1943 26.1171 29.1171 26.0415 28.2336C25.9659 27.3502 25.6257 26.6462 25.5076 26.358C25.4415 26.1974 25.3753 26.0651 25.4131 25.9186C25.4698 25.7391 25.7344 25.243 26.632 24.3312C27.5769 23.3721 28.0352 23.1406 28.2147 23.0839C28.3517 23.0367 28.4557 23.0839 28.6636 23.1642C29.0179 23.306 29.6746 23.6131 30.5534 23.6745C31.4416 23.7359 32.514 23.5517 33.8605 22.9847C35.2117 22.413 36.0763 21.7563 36.6385 21.0713C37.196 20.3815 37.4133 19.7059 37.5504 19.3705C37.6307 19.224 37.6448 19.087 37.8196 19.0067C38.0181 18.9122 38.6795 18.7468 40.0071 18.7468C41.33 18.7468 41.9867 18.9075 42.1898 19.0067ZM7.49779 19.9988C7.83477 19.9832 8.17141 20.036 8.48744 20.154C8.80346 20.272 9.09234 20.4527 9.33665 20.6854C9.58096 20.918 9.77565 21.1976 9.909 21.5075C10.0423 21.8173 10.1116 22.151 10.1125 22.4883C10.1135 22.8257 10.0462 23.1597 9.91457 23.4703C9.78298 23.7809 9.58988 24.0617 9.34689 24.2957C9.10391 24.5297 8.81606 24.712 8.50071 24.8318C8.18536 24.9516 7.84902 25.0063 7.51196 24.9926C6.86842 24.9665 6.25979 24.693 5.81303 24.229C5.36627 23.7651 5.11586 23.1466 5.11403 22.5025C5.1122 21.8584 5.3591 21.2385 5.80322 20.7721C6.24734 20.3056 6.8544 20.0286 7.49779 19.9988ZM72.5022 19.9988C73.1651 19.9988 73.8008 20.2621 74.2695 20.7308C74.7382 21.1995 75.0015 21.8352 75.0015 22.4981C75.0015 23.1609 74.7382 23.7966 74.2695 24.2653C73.8008 24.734 73.1651 24.9973 72.5022 24.9973C71.8659 24.9582 71.2685 24.6779 70.8318 24.2135C70.3951 23.7491 70.152 23.1356 70.152 22.4981C70.152 21.8606 70.3951 21.2471 70.8318 20.7827C71.2685 20.3183 71.8659 20.038 72.5022 19.9988ZM9.75138 29.5281C9.55218 29.5162 9.35302 29.5521 9.1705 29.6328C8.98798 29.7135 8.82739 29.8366 8.70211 29.9919C8.57683 30.1472 8.4905 30.3303 8.4503 30.5257C8.41011 30.7212 8.41722 30.9234 8.47104 31.1156L10.6679 39.4402C11.0459 41.1174 13.5735 40.4512 13.0822 38.8023L10.8853 30.4825C10.8225 30.2234 10.6786 29.9912 10.4747 29.8195C10.2708 29.6479 10.0174 29.5458 9.75138 29.5281ZM70.2486 29.5281C69.9824 29.5451 69.7286 29.6469 69.5246 29.8186C69.3205 29.9904 69.1768 30.2231 69.1147 30.4825L66.9178 38.8023C66.4265 40.4559 68.9494 41.1174 69.3368 39.4402L71.5337 31.1156C71.5877 30.923 71.5947 30.7203 71.5543 30.5245C71.5139 30.3286 71.4271 30.1453 71.3013 29.9899C71.1755 29.8344 71.0142 29.7114 70.8311 29.6311C70.6479 29.5507 70.4482 29.5154 70.2486 29.5281ZM40.0024 29.9959C41.9922 29.9959 43.9004 30.7863 45.3074 32.1933C46.7144 33.6003 47.5049 35.5086 47.5049 37.4984C47.5049 39.4882 46.7144 41.3965 45.3074 42.8035C43.9004 44.2105 41.9922 45.0009 40.0024 45.0009C38.0126 45.0009 36.1043 44.2105 34.6973 42.8035C33.2903 41.3965 32.4999 39.4882 32.4999 37.4984C32.4999 35.5086 33.2903 33.6003 34.6973 32.1933C36.1043 30.7863 38.0126 29.9959 40.0024 29.9959ZM13.7483 44.9962C14.7426 44.9962 15.6961 45.3911 16.3992 46.0942C17.1022 46.7972 17.4972 47.7508 17.4972 48.7451C17.4972 49.7393 17.1022 50.6929 16.3992 51.3959C15.6961 52.099 14.7426 52.494 13.7483 52.494C12.754 52.494 11.8005 52.099 11.0974 51.3959C10.3944 50.6929 9.99941 49.7393 9.99941 48.7451C9.99941 47.7508 10.3944 46.7972 11.0974 46.0942C11.8005 45.3911 12.754 44.9962 13.7483 44.9962ZM66.2517 44.9962C66.7552 44.9777 67.2572 45.0608 67.7279 45.2405C68.1985 45.4203 68.6282 45.693 68.9911 46.0425C69.3541 46.3919 69.6429 46.8108 69.8404 47.2743C70.0379 47.7378 70.1401 48.2363 70.1407 48.7402C70.1413 49.244 70.0405 49.7428 69.8441 50.2068C69.6478 50.6707 69.36 51.0904 68.9979 51.4408C68.6358 51.7911 68.2069 52.0649 67.7367 52.2459C67.2665 52.4268 66.7647 52.5112 66.2611 52.494C65.2899 52.4607 64.3694 52.0518 63.6936 51.3534C63.0178 50.6549 62.6394 49.7215 62.6382 48.7496C62.637 47.7778 63.013 46.8434 63.687 46.1432C64.361 45.4431 65.2805 45.0319 66.2517 44.9962ZM31.2526 65.5667V61.239C31.2148 59.6091 28.7911 59.6091 28.7486 61.239V66.2092L28.4415 66.2895C26.821 66.7005 27.4399 69.1242 29.0557 68.7132L47.9537 63.8611C48.2853 63.7718 48.6313 63.7486 48.9719 63.793C49.3124 63.8373 49.6409 63.9483 49.9386 64.1197C50.2363 64.291 50.4973 64.5193 50.7067 64.7914C50.9161 65.0636 51.0699 65.3744 51.1593 65.706C51.2486 66.0376 51.2718 66.3836 51.2274 66.7242C51.183 67.0648 51.072 67.3932 50.9007 67.6909C50.7294 67.9886 50.5011 68.2496 50.2289 68.459C49.9568 68.6685 49.646 68.8223 49.3144 68.9116L27.1186 74.8834H27.1092C25.6918 75.1574 24.9265 74.907 24.4824 74.5338C24.0336 74.1558 23.7548 73.4991 23.7548 72.5022V61.2485C23.7548 54.1192 28.2998 48.1049 34.5881 45.908C36.2016 46.9455 38.0794 47.4971 39.9976 47.4971C41.9159 47.4971 43.7937 46.9455 45.4072 45.908C48.5856 47.0195 51.3382 49.0947 53.2817 51.8443C55.2252 54.594 56.2628 57.8813 56.2499 61.2485V72.5211C56.2499 73.5038 55.9665 74.1558 55.5224 74.5338C55.0735 74.9117 54.3129 75.1574 52.8908 74.8834L44.8119 72.7101L49.9616 71.3211C50.9334 71.0599 51.8065 70.518 52.4719 69.7632C53.1373 69.0083 53.5653 68.074 53.7025 67.0772C53.8396 66.0803 53.6798 65.0652 53.243 64.1587C52.8062 63.2522 52.1118 62.4946 51.2467 61.9808V61.2343C51.2089 59.6043 48.7852 59.6185 48.7474 61.2768C48.2701 61.258 47.7927 61.309 47.3301 61.428L31.2526 65.5667ZM45.0009 53.7507C43.3709 53.7885 43.3709 56.2121 45.0009 56.2499H48.7474C50.3774 56.2121 50.3774 53.7837 48.7474 53.7459L45.0009 53.7507ZM11.3294 54.5066C12.0968 54.8286 12.9208 54.9944 13.753 54.9944C14.5853 54.9944 15.4092 54.8286 16.1767 54.5066C17.6616 55.0153 18.9497 55.9767 19.8599 57.2555C20.7701 58.5343 21.2565 60.0662 21.2508 61.6359V63.1005C21.2546 63.5137 21.1763 63.9237 21.0204 64.3064C20.8646 64.6892 20.6343 65.0373 20.3429 65.3304C20.0515 65.6235 19.7049 65.8559 19.323 66.014C18.9412 66.1722 18.5318 66.253 18.1185 66.2517H9.37342C8.9611 66.2511 8.55296 66.169 8.1725 66.01C7.79204 65.8511 7.44676 65.6185 7.15652 65.3256C6.86629 65.0328 6.63683 64.6854 6.48134 64.3035C6.32585 63.9216 6.24741 63.5128 6.25052 63.1005V61.6359C6.25052 58.3334 8.35765 55.5082 11.3294 54.5066ZM63.8233 54.5066C64.591 54.8308 65.416 54.9978 66.2493 54.9978C67.0827 54.9978 67.9076 54.8308 68.6754 54.5066C71.6424 55.5035 73.7495 58.3334 73.7495 61.6359V63.1005C73.7495 64.8249 72.3794 66.2517 70.6313 66.2517H61.8815C61.4686 66.2517 61.0597 66.1701 60.6785 66.0115C60.2972 65.8529 59.951 65.6205 59.6599 65.3276C59.3688 65.0347 59.1385 64.6872 58.9822 64.305C58.8259 63.9227 58.7467 63.5134 58.7492 63.1005V61.6359C58.7492 58.3382 60.8563 55.5082 63.8233 54.5066Z" fill="#E74C3D"/>
</svg>
