<svg width="80" height="80" viewBox="0 0 80 80" fill="none" xmlns="http://www.w3.org/2000/svg">
<path d="M79.9719 63.0672L75.4141 41.7453C75.3453 41.4219 75.15 41.1375 74.8719 40.9578C74.5937 40.7781 74.2562 40.7156 73.9312 40.7844L63.6344 42.986L61.5922 43.4219V4.94377C61.5922 3.02346 60.0312 1.46252 58.1109 1.46252H21.8891C19.9687 1.46252 18.4078 3.02346 18.4078 4.94377V43.4219L16.3703 42.9875L6.06875 40.786C5.7447 40.7169 5.4065 40.7793 5.12845 40.9595C4.85041 41.1397 4.65528 41.4229 4.58593 41.7469L0.0281215 63.0672C-0.0406285 63.3907 0.0218715 63.7297 0.201559 64.0078C0.381247 64.286 0.665622 64.4813 0.989059 64.55L11.2906 66.7516H11.2922C11.3297 66.7594 11.3672 66.7657 11.4047 66.7688C11.4109 66.7688 11.4172 66.7703 11.4234 66.7719C11.4312 66.7719 11.4375 66.7719 11.4453 66.7735C11.4812 66.7766 11.5172 66.7797 11.5531 66.7797H11.5562C12.4234 66.7813 14.2125 67.2141 15.6281 67.6297C15.5562 68.7782 15.9344 69.8844 16.6906 70.7406C17.4469 71.6 18.4969 72.1141 19.6469 72.186C19.7391 72.1922 19.8312 72.1953 19.9234 72.1953C20.9719 72.1953 21.9703 71.8203 22.7594 71.1235L22.8953 71.0032C23.0703 71.5938 23.3719 72.1422 23.7891 72.6156C24.5453 73.475 25.5953 73.9875 26.7453 74.0594C27.3689 74.1003 27.994 74.0043 28.5766 73.7782C28.7341 74.4835 29.0673 75.1376 29.5453 75.6797C30.3937 76.6407 31.5797 77.1297 32.7719 77.1297C33.7812 77.1297 34.7969 76.7766 35.6109 76.0594H35.6125L36.2766 75.4735C36.4484 76.0532 36.7453 76.6063 37.1703 77.0907C38.0172 78.0532 39.2031 78.5453 40.3953 78.5453C41.4062 78.5453 42.4219 78.1922 43.2406 77.4719L44.35 76.4907C44.4641 76.3907 44.5703 76.286 44.6703 76.1766C49.9797 75.3391 55.5969 72.7328 61.8156 68.2281L68.7125 66.7547H68.7141L79.0109 64.5532C79.6859 64.4047 80.1156 63.7422 79.9719 63.0672ZM61.7906 65.675C58.5 61.7469 54.0969 59.5328 49.8328 57.3875C44.8891 54.9016 40.2203 52.5516 37.7156 47.761C37.6246 47.5875 37.4943 47.4378 37.335 47.3239C37.1757 47.2099 36.992 47.1348 36.7984 47.1047C36.4047 47.0438 36.0078 47.175 35.7266 47.4547C32.6125 50.561 28.525 52.0547 26.0984 51.9266C25.4187 51.8906 25.1047 51.7313 25.0219 51.6578C25.025 51.4719 25.2766 50.8125 26.4422 49.7344L34.1937 42.5063C43.2687 40.7641 51.1484 42.0188 58.2719 46.3375C58.5437 46.5031 58.8686 46.5579 59.1797 46.4907L62.9375 45.6891L66.9734 64.5688L61.7906 65.675ZM21.8891 3.9594H58.1109C58.6531 3.9594 59.0938 4.40002 59.0938 4.94221V43.9219C51.4453 39.4375 43.0187 38.1953 33.3547 40.125C33.3531 40.125 33.3531 40.125 33.3516 40.1266H33.3469C29.8609 40.8469 26.5406 41.8875 23.3297 42.8922C22.4969 43.1532 21.6984 43.4031 20.9047 43.6453V4.94377C20.9062 4.41096 21.3562 3.9594 21.8891 3.9594ZM6.76718 43.4891L14.6266 45.1688L10.5906 64.0469L2.73125 62.3672L6.76718 43.4891ZM21.1062 69.2485C20.7484 69.5641 20.2875 69.7219 19.8031 69.6907C19.3203 69.661 18.8812 69.4469 18.5641 69.086C18.2484 68.7281 18.0906 68.2656 18.1219 67.7828C18.1516 67.3 18.3656 66.8594 18.7266 66.5438L22.7359 63.0032C23.0669 62.7126 23.4924 62.5526 23.9328 62.5532C24.4328 62.5532 24.9297 62.7578 25.2828 63.1578C25.9391 63.9063 25.8672 65.05 25.1203 65.7063L21.1062 69.2485ZM26.9016 71.5625C26.4187 71.5328 25.9797 71.3188 25.6641 70.9594C25.3484 70.6016 25.1906 70.1391 25.2219 69.6563C25.2516 69.1735 25.4656 68.7344 25.825 68.4172L29.8406 64.875C30.1828 64.5735 30.6078 64.4266 31.0312 64.4266C31.5312 64.4266 32.0281 64.6313 32.3828 65.0328C32.6984 65.3922 32.8562 65.8547 32.825 66.3391C32.7953 66.8219 32.5812 67.261 32.2234 67.5766L28.2062 71.1203C27.8484 71.436 27.3859 71.5938 26.9016 71.5625ZM33.9609 74.1813C33.2156 74.8375 32.075 74.7657 31.4187 74.0235C31.1031 73.6641 30.9453 73.2016 30.9766 72.7172C31.0062 72.2344 31.2203 71.7953 31.5781 71.4797L35.5937 67.9375C35.9359 67.636 36.3625 67.4875 36.7859 67.4875C37.2859 67.4875 37.7828 67.6938 38.1375 68.0969C38.4531 68.4547 38.6109 68.9172 38.5797 69.4C38.55 69.8828 38.3359 70.3235 37.9766 70.6391L33.9609 74.1813ZM41.5891 75.5938C40.8422 76.2516 39.7016 76.1797 39.0469 75.436C38.3891 74.6891 38.4594 73.5453 39.2078 72.8875L40.3172 71.9063C41.0656 71.2516 42.2078 71.3235 42.8641 72.0688C43.5203 72.8141 43.4469 73.9547 42.7 74.6125L41.5891 75.5938ZM44.7375 70.4172C43.7859 69.3375 42.4078 68.85 41.0719 68.9844C41.0098 68.0433 40.6366 67.1496 40.0109 66.4438C38.7875 65.0547 36.8594 64.6453 35.2234 65.2813C35.0687 64.5828 34.7406 63.9313 34.2562 63.3813C32.6891 61.6078 29.9672 61.436 28.1891 63.0016L28.0484 63.125C27.8766 62.5453 27.5812 61.9907 27.1562 61.5078C25.5906 59.736 22.8672 59.5641 21.0844 61.1282L17.0734 64.6703C16.8609 64.8578 16.6703 65.0625 16.5016 65.2828C15.5406 64.9953 14.2187 64.6407 13.0625 64.4391L17.0703 45.6891L20.1062 46.336C20.1922 46.3547 20.2797 46.3641 20.3672 46.3641C20.4875 46.3641 20.6078 46.3469 20.725 46.3125C21.8344 45.9813 22.975 45.6235 24.0797 45.2782C25.7656 44.75 27.4828 44.2141 29.2297 43.7219L24.7422 47.9063C23.0078 49.5094 22.2844 50.975 22.5937 52.261C22.725 52.8078 23.1734 53.7907 24.7031 54.225C27.3484 54.9735 32.3094 53.6594 36.3141 50.3032C39.3016 54.886 44.0797 57.2891 48.7125 59.6203C52.5687 61.561 56.5453 63.561 59.4812 66.825C54.5359 70.2922 50.0344 72.4625 45.8062 73.4141C45.8422 72.3516 45.4922 71.275 44.7375 70.4172ZM69.4125 64.0469L65.3766 45.1672L73.2312 43.4875L77.2672 62.3672L69.4125 64.0469ZM32.3594 24.675C37.4656 24.675 41.6203 20.5203 41.6203 15.4141C41.6203 10.3078 37.4656 6.15315 32.3594 6.15315C27.2531 6.15315 23.0984 10.3078 23.0984 15.4141C23.0984 20.5203 27.2531 24.675 32.3594 24.675ZM32.3594 8.65002C36.0891 8.65002 39.1219 11.6844 39.1219 15.4141C39.1219 19.1438 36.0875 22.1766 32.3594 22.1766C28.6297 22.1766 25.5953 19.1422 25.5953 15.4141C25.5969 11.6844 28.6297 8.65002 32.3594 8.65002ZM43.8312 7.40159C43.8312 6.71096 44.3906 6.15315 45.0797 6.15315H55.625C56.3156 6.15315 56.8734 6.71252 56.8734 7.40159C56.8734 8.09065 56.3141 8.65002 55.625 8.65002H45.0797C44.3906 8.65002 43.8312 8.09065 43.8312 7.40159ZM43.8312 14.3469C43.8312 13.6563 44.3906 13.0985 45.0797 13.0985H55.625C56.3156 13.0985 56.8734 13.6578 56.8734 14.3469C56.8734 15.036 56.3141 15.5953 55.625 15.5953H45.0797C44.3906 15.5953 43.8312 15.036 43.8312 14.3469ZM43.8312 21.2906C43.8312 20.6 44.3906 20.0422 45.0797 20.0422H55.625C56.3156 20.0422 56.8734 20.6016 56.8734 21.2906C56.8734 21.9797 56.3141 22.5391 55.625 22.5391H45.0797C44.3906 22.5406 43.8312 21.9813 43.8312 21.2906ZM23.0984 28.2313C23.0984 27.5406 23.6578 26.9828 24.3469 26.9828H55.625C56.3141 26.9828 56.8734 27.5422 56.8734 28.2313C56.8734 28.9203 56.3141 29.4797 55.625 29.4797H24.3469C23.6578 29.4813 23.0984 28.9219 23.0984 28.2313ZM23.0984 35.1766C23.0984 34.486 23.6578 33.9282 24.3469 33.9282H55.625C56.3141 33.9282 56.8734 34.4875 56.8734 35.1766C56.8734 35.8657 56.3141 36.425 55.625 36.425H24.3469C23.6578 36.425 23.0984 35.8657 23.0984 35.1766ZM27.8312 15.1719C27.3437 14.6844 27.3437 13.8922 27.8328 13.4063C28.3203 12.9188 29.1125 12.9188 29.5984 13.4078L31.8906 15.7031L35.1172 12.4766C35.3524 12.2475 35.6683 12.1203 35.9966 12.1225C36.3249 12.1246 36.6391 12.256 36.8713 12.4881C37.1034 12.7203 37.2348 13.0345 37.2369 13.3628C37.2391 13.6911 37.1119 14.007 36.8828 14.2422L32.7719 18.3531C32.656 18.4691 32.5183 18.5611 32.3669 18.6238C32.2154 18.6866 32.053 18.7188 31.8891 18.7188C31.5578 18.7188 31.2406 18.5875 31.0062 18.3516L27.8312 15.1719Z" fill="#E74C3D"/>
</svg>
